<?xml version="1.0" encoding="UTF-8"?><svg width="35" height="35" viewBox="0 0 35 35" fill="none" xmlns="http://www.w3.org/2000/svg">
<path d="M17.2996 23.3665C16.9593 23.3665 16.616 23.2795 16.3053 23.0993C15.5533 22.6658 15.1711 21.8051 15.3545 20.9584L16.8273 14.1504L12.1493 8.99241C11.5667 8.35076 11.4673 7.41393 11.9008 6.66353C12.3327 5.91157 13.1918 5.53404 14.0416 5.7127L20.8496 7.18398L26.0076 2.50758C26.6462 1.92341 27.5846 1.82244 28.335 2.25744C29.0869 2.6909 29.4707 3.55161 29.2873 4.39988L27.8161 11.2079L32.4925 16.3659C33.0751 17.006 33.1761 17.9413 32.7426 18.6932C32.3091 19.4467 31.4453 19.8227 30.6002 19.6456L23.7922 18.1728L18.6341 22.8507C18.2582 23.191 17.7812 23.3665 17.2996 23.3665ZM19.2012 14.4565L17.949 20.25L22.3411 16.268C22.8243 15.8377 23.4737 15.6621 24.0982 15.7988L29.8917 17.051L25.9113 12.659C25.481 12.182 25.3054 11.5248 25.4421 10.9018L26.6928 5.10836L22.3007 9.08874C21.8237 9.5191 21.1697 9.69776 20.5436 9.55793L14.7501 8.30727L18.732 12.6994C19.1639 13.181 19.3364 13.8366 19.2012 14.4565Z" fill="#222222"/>
<path d="M12.9059 29.149L10.5926 26.5964L11.3212 23.2297C11.43 22.7232 11.2001 22.2043 10.7511 21.9448C10.3005 21.6838 9.73809 21.7444 9.35279 22.094L6.80019 24.4073L3.43349 23.6787C2.92857 23.5761 2.40811 23.7998 2.14864 24.2488C1.88918 24.6978 1.94978 25.2618 2.29779 25.6471L4.61113 28.1997L3.88248 31.5664C3.77373 32.0729 4.00366 32.5918 4.45266 32.8512C4.6391 32.9584 4.84417 33.0113 5.04925 33.0113C5.33823 33.0113 5.62564 32.9056 5.85093 32.7021L8.40353 30.3888L11.7702 31.1174C12.2783 31.2199 12.7972 30.9962 13.0551 30.5472C13.3145 30.0982 13.2539 29.5343 12.9059 29.149Z" fill="#222222"/>
</svg>
