<?xml version="1.0" encoding="UTF-8"?><svg width="40" height="40" viewBox="0 0 40 40" fill="none" xmlns="http://www.w3.org/2000/svg">
<g clip-path="url(#clip0_55227_4801)">
<path d="M31.4286 0.00146484H8.57143C3.83756 0.00146484 0 3.83902 0 8.57289V31.43C0 36.1639 3.83756 40.0015 8.57143 40.0015H31.4286C36.1624 40.0015 40 36.1639 40 31.43V8.57289C40 3.83902 36.1624 0.00146484 31.4286 0.00146484Z" fill="white"/>
<path d="M16 28H8.5C6.01954 28 4 25.9805 4 23.5V8.5C4 6.01954 6.01954 4 8.5 4H31.5C33.9805 4 36 6.01954 36 8.5C36 9.32812 35.3281 10 34.5 10C33.6719 10 33 9.32812 33 8.5C33 7.67382 32.3262 7 31.5 7H8.5C7.67382 7 7 7.67382 7 8.5V23.5C7 24.3262 7.67382 25 8.5 25H16C16.8281 25 17.5 25.6719 17.5 26.5C17.5 27.3281 16.8281 28 16 28Z" fill="#292929"/>
<path d="M32.5 36H23.5C21.5703 36 20 34.4297 20 32.5V15.5C20 13.5703 21.5703 12 23.5 12H32.5C34.4297 12 36 13.5703 36 15.5V32.5C36 34.4297 34.4297 36 32.5 36ZM23.5 15C23.2246 15 23 15.2246 23 15.5V32.5C23 32.7754 23.2246 33 23.5 33H32.5C32.7754 33 33 32.7754 33 32.5V15.5C33 15.2246 32.7754 15 32.5 15H23.5Z" fill="#292929"/>
<path d="M28 31.25C28.6904 31.25 29.25 30.6904 29.25 30C29.25 29.3096 28.6904 28.75 28 28.75C27.3096 28.75 26.75 29.3096 26.75 30C26.75 30.6904 27.3096 31.25 28 31.25Z" fill="#292929"/>
</g>
<defs>
<clipPath id="clip0_55227_4801">
<rect width="40" height="40" fill="white"/>
</clipPath>
</defs>
</svg>
