<?xml version="1.0" encoding="UTF-8"?><svg width="40" height="40" viewBox="0 0 40 40" fill="none" xmlns="http://www.w3.org/2000/svg">
<g clip-path="url(#clip0_55227_4792)">
<path d="M31.4286 0.00146484H8.57143C3.83756 0.00146484 0 3.83902 0 8.57289V31.43C0 36.1639 3.83756 40.0015 8.57143 40.0015H31.4286C36.1624 40.0015 40 36.1639 40 31.43V8.57289C40 3.83902 36.1624 0.00146484 31.4286 0.00146484Z" fill="white"/>
<path d="M33.9023 12.4981H31.3295C30.5338 6.79907 25.7567 2.40039 19.9834 2.40039C19.9768 2.40039 19.9714 2.40405 19.9648 2.40429C19.9582 2.40405 19.9529 2.40039 19.9463 2.40039C14.1739 2.40039 9.39746 6.79761 8.60058 12.4981H6.09766C3.8379 12.4981 2 14.3359 2 16.5957V23.8867C2 26.127 3.82226 27.9668 6.06738 27.9844L9.48828 28H9.49512C9.5846 28 9.66224 27.9641 9.74744 27.9492C9.83264 27.9641 9.9104 28 10 28H10.0039C10.832 27.9981 11.5019 27.3242 11.5 26.4961L11.4707 14.1699C11.4707 9.33399 15.2725 5.40039 19.9463 5.40039C19.9529 5.40039 19.9582 5.39673 19.9648 5.39649C19.9714 5.39673 19.9768 5.40039 19.9834 5.40039C24.6572 5.40039 28.459 9.33399 28.459 14.1699V27.5C28.459 27.5064 28.4624 27.5113 28.4625 27.5176C28.0186 29.3555 26.5538 30.9585 24.4402 31.9561C23.7655 30.7901 22.5469 30 21.1435 30H18.8564C16.7305 30 15 31.7949 15 34C15 36.2051 16.7305 38 18.8564 38H21.1435C22.9256 38 24.4154 36.7324 24.8553 35.0257C28.3072 33.6824 30.754 31.1153 31.4238 28.0586C31.4285 28.0371 31.4211 28.0171 31.4249 27.9959L33.9385 27.9844C36.1777 27.9668 38 26.127 38 23.8867V16.5957C38 14.3359 36.1621 12.4981 33.9023 12.4981ZM5 23.8867V16.5957C5 15.9902 5.49218 15.4981 6.09766 15.4981H8.47424L8.49596 24.9954L6.0869 24.9844C5.4873 24.9805 5 24.4864 5 23.8867ZM21.1436 35H18.8565C18.3838 35 18 34.5508 18 34C18 33.4492 18.3838 33 18.8565 33H21.1436C21.6162 33 22 33.4492 22 34C22 34.5508 21.6162 35 21.1436 35ZM35 23.8867C35 24.4863 34.5127 24.9805 33.9189 24.9844L31.459 24.9956V15.4981H33.9023C34.5078 15.4981 35 15.9903 35 16.5957V23.8867Z" fill="#292929"/>
</g>
<defs>
<clipPath id="clip0_55227_4792">
<rect width="40" height="40" fill="white"/>
</clipPath>
</defs>
</svg>
