<?xml version="1.0" encoding="UTF-8"?><svg width="18" height="18" viewBox="0 0 18 18" fill="none" xmlns="http://www.w3.org/2000/svg">
<g id="Frame">
<path id="iconPrimary" d="M11.925 16.2H5.17505C3.31397 16.2 1.80005 14.6856 1.80005 12.825V6.07495C1.80005 4.21431 3.31397 2.69995 5.17505 2.69995H7.20005C7.5727 2.69995 7.87505 3.0023 7.87505 3.37495C7.87505 3.74761 7.5727 4.04995 7.20005 4.04995H5.17505C4.0584 4.04995 3.15005 4.95874 3.15005 6.07495V12.825C3.15005 13.9412 4.0584 14.85 5.17505 14.85H11.925C13.0417 14.85 13.95 13.9412 13.95 12.825V9.4482C13.95 9.07554 14.2524 8.7732 14.625 8.7732C14.9977 8.7732 15.3 9.07554 15.3 9.4482V12.825C15.3 14.6856 13.7861 16.2 11.925 16.2Z" fill="#ffffff"/>
<path id="iconPrimary_2" d="M11.646 8.6247C11.4711 8.6247 11.2949 8.579 11.1349 8.48671C10.7495 8.26435 10.5535 7.82314 10.6476 7.38808L11.109 5.25058L9.6408 3.63076C9.34197 3.30117 9.29055 2.82041 9.51336 2.43457C9.7366 2.04961 10.1769 1.85361 10.6133 1.94765L12.7499 2.40996L14.3693 0.9413C14.6993 0.641591 15.1805 0.590615 15.5659 0.81386C15.9513 1.03622 16.1469 1.47831 16.0524 1.91337L15.591 4.04999L17.0592 5.66981C17.358 5.9994 17.4099 6.47928 17.1871 6.86512C16.9647 7.25184 16.5253 7.44783 16.0871 7.35291L13.9505 6.89061L12.3311 8.35926C12.1378 8.53417 11.893 8.6247 11.646 8.6247ZM12.4643 5.37011L12.1835 6.67089L13.1692 5.77704C13.4139 5.55556 13.7492 5.46328 14.0714 5.53622L15.3699 5.81659L14.477 4.83133C14.2568 4.58787 14.1667 4.25214 14.2353 3.93133L14.5165 2.63055L13.5313 3.52353C13.2869 3.74413 12.9529 3.83729 12.6286 3.76435L11.33 3.48398L12.223 4.46924C12.4436 4.71181 12.5341 5.0493 12.4643 5.37011Z" fill="#ffffff"/>
<path id="iconPrimary_3" d="M7.30804 11.9249C7.19202 11.9249 7.07557 11.895 6.97054 11.8344C6.71653 11.6876 6.58646 11.3941 6.64842 11.1075L6.8308 10.262L6.24984 9.6213C6.05296 9.40333 6.01868 9.08429 6.16546 8.83029C6.31224 8.57628 6.60843 8.45059 6.89276 8.50773L7.73783 8.69142L8.37855 8.11046C8.59608 7.9127 8.916 7.8793 9.16956 8.02608C9.42357 8.17286 9.55365 8.46642 9.49168 8.75294L9.30931 9.59844L9.89027 10.2392C10.0871 10.4571 10.1214 10.7762 9.97464 11.0302C9.82786 11.2842 9.53255 11.409 9.24734 11.3527L8.40184 11.1691L7.76155 11.75C7.63411 11.8651 7.47152 11.9249 7.30804 11.9249Z" fill="#ffffff"/>
</g>
</svg>
