<?xml version="1.0" encoding="UTF-8"?><svg width="36" height="35" viewBox="0 0 36 35" fill="none" xmlns="http://www.w3.org/2000/svg">
<path d="M22 17.4999C24.2091 17.4999 26 15.7588 26 13.6111C26 11.4633 24.2091 9.72217 22 9.72217C19.7909 9.72217 18 11.4633 18 13.6111C18 15.7588 19.7909 17.4999 22 17.4999Z" fill="#222222"/>
<path fill-rule="evenodd" clip-rule="evenodd" d="M8 20.4166V6.80547C8 6.54762 8.10536 6.30034 8.29289 6.11801C8.48043 5.93568 8.73478 5.83325 9 5.83325H35C35.2652 5.83325 35.5196 5.93568 35.7071 6.11801C35.8946 6.30034 36 6.54762 36 6.80547V20.4166C36 20.6744 35.8946 20.9217 35.7071 21.1041C35.5196 21.2864 35.2652 21.3888 35 21.3888H9C8.73478 21.3888 8.48043 21.2864 8.29289 21.1041C8.10536 20.9217 8 20.6744 8 20.4166ZM34 11.3331C33.1569 11.0421 32.3911 10.572 31.7585 9.95696C31.1258 9.3419 30.6423 8.59741 30.343 7.7777H13.657C13.3578 8.59744 12.8742 9.34196 12.2416 9.95703C11.609 10.5721 10.8432 11.0422 10 11.3331V15.8889C10.8431 16.1799 11.6089 16.65 12.2415 17.2651C12.8742 17.8802 13.3577 18.6247 13.657 19.4444H30.343C30.6422 18.6246 31.1258 17.8801 31.7584 17.265C32.391 16.65 33.1568 16.1799 34 15.8889V11.3331Z" fill="#222222"/>
<path fill-rule="evenodd" clip-rule="evenodd" d="M33 25.2778H5C4.73478 25.2778 4.48043 25.1754 4.29289 24.9931C4.10536 24.8107 4 24.5635 4 24.3056V8.75005C4 8.4922 4.10536 8.24492 4.29289 8.06259C4.48043 7.88026 4.73478 7.77783 5 7.77783H6V23.3334H34V24.3056C34 24.5635 33.8946 24.8107 33.7071 24.9931C33.5196 25.1754 33.2652 25.2778 33 25.2778Z" fill="#222222"/>
<path fill-rule="evenodd" clip-rule="evenodd" d="M29 29.1667H1C0.734784 29.1667 0.48043 29.0643 0.292893 28.882C0.105357 28.6997 0 28.4524 0 28.1945V12.639C0 12.3811 0.105357 12.1338 0.292893 11.9515C0.48043 11.7692 0.734784 11.6667 1 11.6667H2V27.2223H30V28.1945C30 28.4524 29.8946 28.6997 29.7071 28.882C29.5196 29.0643 29.2652 29.1667 29 29.1667Z" fill="#222222"/>
</svg>
