<?xml version="1.0" encoding="UTF-8"?><svg width="40" height="40" viewBox="0 0 40 40" fill="none" xmlns="http://www.w3.org/2000/svg">
<path d="M29 15.0422C29 16.6991 27.6569 18.0422 26 18.0422C24.3431 18.0422 23 16.6991 23 15.0422C23 13.3854 24.3431 12.0422 26 12.0422C27.6569 12.0422 29 13.3854 29 15.0422Z" fill="#DBDBDB"/>
<path d="M29 15.0422C29 16.6991 27.6569 18.0422 26 18.0422C24.3431 18.0422 23 16.6991 23 15.0422C23 13.3854 24.3431 12.0422 26 12.0422C27.6569 12.0422 29 13.3854 29 15.0422Z" fill="white"/>
<path d="M33.5 6H6.5C4.01954 6 2 8.01954 2 10.5V29.5C2 31.9805 4.01954 34 6.5 34H33.5C35.9805 34 38 31.9805 38 29.5V10.5C38 8.01954 35.9805 6 33.5 6ZM6.5 9H33.5C34.3262 9 35 9.67382 35 10.5V26.9219L31.1816 23.1035C29.4277 21.3496 26.5723 21.3496 24.8184 23.1035L22.3555 25.5664C22.1562 25.7617 21.8418 25.7598 21.6465 25.5684L15.1816 19.1035C13.4824 17.4043 10.5176 17.4043 8.81836 19.1035L5 22.9219V10.5C5 9.67384 5.67382 9 6.5 9ZM6.5 31C5.67382 31 5 30.3262 5 29.5V27.1641L10.9395 21.2246C11.5254 20.6387 12.4746 20.6387 13.0606 21.2246L19.5274 27.6914C20.8906 29.0508 23.1113 29.0527 24.4746 27.6894L26.9395 25.2246C27.5254 24.6387 28.4746 24.6387 29.0606 25.2246L34.4619 30.626C34.1997 30.8501 33.8706 31 33.5 31L6.5 31Z" fill="#DBDBDB"/>
<path d="M33.5 6H6.5C4.01954 6 2 8.01954 2 10.5V29.5C2 31.9805 4.01954 34 6.5 34H33.5C35.9805 34 38 31.9805 38 29.5V10.5C38 8.01954 35.9805 6 33.5 6ZM6.5 9H33.5C34.3262 9 35 9.67382 35 10.5V26.9219L31.1816 23.1035C29.4277 21.3496 26.5723 21.3496 24.8184 23.1035L22.3555 25.5664C22.1562 25.7617 21.8418 25.7598 21.6465 25.5684L15.1816 19.1035C13.4824 17.4043 10.5176 17.4043 8.81836 19.1035L5 22.9219V10.5C5 9.67384 5.67382 9 6.5 9ZM6.5 31C5.67382 31 5 30.3262 5 29.5V27.1641L10.9395 21.2246C11.5254 20.6387 12.4746 20.6387 13.0606 21.2246L19.5274 27.6914C20.8906 29.0508 23.1113 29.0527 24.4746 27.6894L26.9395 25.2246C27.5254 24.6387 28.4746 24.6387 29.0606 25.2246L34.4619 30.626C34.1997 30.8501 33.8706 31 33.5 31L6.5 31Z" fill="white"/>
</svg>
