<?xml version="1.0" encoding="UTF-8"?><svg width="24" height="24" viewBox="0 0 24 24" fill="none" xmlns="http://www.w3.org/2000/svg">
<path d="M16.2328 12.5895L12.6299 8.99182C12.2783 8.64026 11.7094 8.64026 11.3578 8.99182L7.76074 12.5895C7.40917 12.941 7.40917 13.5106 7.76074 13.8621C7.93651 14.0379 8.16679 14.1258 8.39706 14.1258C8.62733 14.1258 8.85761 14.0379 9.03338 13.8621L11.1 11.7955V21.6118C11.1 22.1086 11.5031 22.5118 12 22.5118C12.4969 22.5118 12.9 22.1086 12.9 21.6118V11.8043L14.9613 13.8621C15.3129 14.2137 15.8824 14.2137 16.234 13.8621C16.5849 13.5106 16.585 12.9399 16.2328 12.5895Z" fill="white"/>
<path d="M18.9 20.4H15.5414C15.0445 20.4 14.6414 19.9969 14.6414 19.5C14.6414 19.0032 15.0445 18.6 15.5414 18.6H18.9C19.3963 18.6 19.8 18.1957 19.8 17.7V5.10002C19.8 4.60432 19.3963 4.20002 18.9 4.20002H5.1C4.60372 4.20002 4.2 4.60432 4.2 5.10002V17.7C4.2 18.1957 4.60372 18.6 5.1 18.6H8.37071C8.86758 18.6 9.27071 19.0032 9.27071 19.5C9.27071 19.9969 8.86758 20.4 8.37071 20.4H5.1C3.61114 20.4 2.4 19.1883 2.4 17.7V5.10002C2.4 3.61175 3.61114 2.40002 5.1 2.40002H18.9C20.3889 2.40002 21.6 3.61175 21.6 5.10002V17.7C21.6 19.1883 20.3889 20.4 18.9 20.4Z" fill="white"/>
</svg>
