<?xml version="1.0" encoding="UTF-8"?><svg width="36" height="35" viewBox="0 0 36 35" fill="none" xmlns="http://www.w3.org/2000/svg">
<path d="M28.3496 10.5H25.9845C26.3334 9.84119 26.5496 9.10524 26.5496 8.31421C26.5496 5.66016 24.3295 3.50171 21.5996 3.50171C20.1775 3.50171 18.9031 4.09559 17.9996 5.0321C17.0961 4.09557 15.8217 3.50171 14.3996 3.50171C11.6697 3.50171 9.44961 5.66016 9.44961 8.31421C9.44961 9.10526 9.66583 9.84119 10.0147 10.5H7.64961C5.4172 10.5 3.59961 12.2671 3.59961 14.4375V17.0625C3.59961 18.4239 4.31549 19.6255 5.39961 20.3331V27.5625C5.39961 29.7329 7.2172 31.5 9.44961 31.5H26.5496C28.782 31.5 30.5996 29.7329 30.5996 27.5625V20.3331C31.6837 19.6255 32.3996 18.4239 32.3996 17.0625V14.4375C32.3996 12.2671 30.582 10.5 28.3496 10.5ZM29.6996 14.4375V17.0625C29.6996 17.7854 29.0932 18.375 28.3496 18.375H19.3496V13.1267H21.5996C21.6058 13.1267 21.611 13.125 21.6172 13.125H28.3496C29.0932 13.125 29.6996 13.7146 29.6996 14.4375ZM21.5996 6.12671C22.8406 6.12671 23.8496 7.10767 23.8496 8.31421C23.8496 9.51775 22.845 10.4951 21.6084 10.5H19.3496V8.31421C19.3496 7.10767 20.3586 6.12671 21.5996 6.12671ZM12.1496 8.31421C12.1496 7.10767 13.1586 6.12671 14.3996 6.12671C15.6406 6.12671 16.6496 7.10767 16.6496 8.31421V10.5H14.3908C13.1542 10.4951 12.1496 9.51775 12.1496 8.31421ZM6.29961 14.4375C6.29961 13.7146 6.90605 13.125 7.64961 13.125H14.382C14.3882 13.125 14.3935 13.1267 14.3996 13.1267H16.6496V18.375H7.64961C6.90605 18.375 6.29961 17.7854 6.29961 17.0625V14.4375ZM8.09961 27.5625V21H16.6496V28.875H9.44961C8.70605 28.875 8.09961 28.2854 8.09961 27.5625ZM26.5496 28.875H19.3496V21H27.8996V27.5625C27.8996 28.2854 27.2932 28.875 26.5496 28.875Z" fill="#292929"/>
</svg>
