<?xml version="1.0" encoding="UTF-8"?><svg width="32" height="32" viewBox="0 0 32 32" fill="none" xmlns="http://www.w3.org/2000/svg">
<path d="M8.8246 22.6953C8.71054 22.6953 8.59492 22.6796 8.47929 22.6437L4.19492 21.3546C2.67305 20.9218 1.59961 19.4984 1.59961 17.8999V5.20151C1.59961 4.06245 2.12148 3.014 3.03086 2.32807C3.9418 1.64056 5.08867 1.4265 6.18867 1.73901L14.3996 4.08589L22.6106 1.74058C23.7059 1.4234 24.8574 1.64058 25.7684 2.32808C26.6777 3.01402 27.1996 4.06245 27.1996 5.20152V9.76871C27.1996 10.4312 26.6621 10.9687 25.9996 10.9687C25.3371 10.9687 24.7996 10.4312 24.7996 9.76871V5.20152C24.7996 4.82184 24.6262 4.47184 24.3231 4.24372C24.0184 4.01404 23.6309 3.9406 23.2699 4.0484L14.7293 6.48746C14.5137 6.54996 14.2856 6.54996 14.0699 6.48746L5.52931 4.04684C5.16836 3.94215 4.78087 4.01402 4.47619 4.24372C4.17307 4.47184 3.99963 4.82184 3.99963 5.20152V17.9C3.99963 18.4328 4.35743 18.9062 4.86995 19.0515L9.16995 20.3468C9.80431 20.5375 10.1653 21.2062 9.97307 21.8406C9.81681 22.3609 9.34022 22.6953 8.8246 22.6953Z" fill="#292929"/>
<path d="M10.7488 10.7889C10.6394 10.7889 10.5285 10.7748 10.4191 10.742L7.20034 9.82169C6.56284 9.64044 6.19408 8.97638 6.3769 8.33887C6.55815 7.70137 7.22221 7.32481 7.85972 7.51543L11.0785 8.43575C11.716 8.617 12.0847 9.28106 11.9019 9.91857C11.7519 10.4451 11.2722 10.7889 10.7488 10.7889Z" fill="#292929"/>
<path d="M10.7488 16.0888C10.6394 16.0888 10.5285 16.0748 10.4191 16.042L7.20034 15.1216C6.56284 14.9404 6.19408 14.2763 6.3769 13.6388C6.55815 13.0013 7.22221 12.6216 7.85972 12.8154L11.0785 13.7357C11.716 13.917 12.0847 14.581 11.9019 15.2185C11.7519 15.7451 11.2722 16.0888 10.7488 16.0888Z" fill="#292929"/>
<path d="M18.0515 10.7891C17.5281 10.7891 17.0484 10.4454 16.8984 9.9188C16.7156 9.28129 17.0843 8.61723 17.7218 8.43598L20.9406 7.51566C21.5765 7.32816 22.2421 7.70316 22.4234 8.3391C22.6062 8.9766 22.2375 9.64067 21.6 9.82192L18.3812 10.7422C18.2718 10.7751 18.1609 10.7891 18.0515 10.7891Z" fill="#292929"/>
<path d="M21.6008 30.3998C16.7492 30.3998 12.8008 26.4514 12.8008 21.5998C12.8008 16.7482 16.7492 12.7998 21.6008 12.7998C26.4523 12.7998 30.4008 16.7482 30.4008 21.5998C30.4008 26.4514 26.4523 30.3998 21.6008 30.3998ZM21.6008 15.1998C18.0711 15.1998 15.2008 18.0701 15.2008 21.5998C15.2008 25.1295 18.0711 27.9998 21.6008 27.9998C25.1305 27.9998 28.0008 25.1295 28.0008 21.5998C28.0008 18.0701 25.1305 15.1998 21.6008 15.1998Z" fill="#292929"/>
<path d="M19.1992 23.9253V19.2745C19.1992 18.5887 19.8616 18.1705 20.3723 18.534L24.1334 20.8594C24.6138 21.2014 24.6138 21.9984 24.1334 22.3404L20.3723 24.6658C19.8616 25.0293 19.1992 24.6111 19.1992 23.9253Z" fill="#292929"/>
</svg>
