<?xml version='1.0' encoding='utf-8'?>
<svg xmlns="http://www.w3.org/2000/svg" width="64" height="64" viewBox="0 0 64 64" fill="none" class="after-effects-64-2025">
<path id="Vector" d="M52.5223 0H11.4777C5.13875 0 0 5.13875 0 11.4777V52.5223C0 58.8613 5.13875 64 11.4777 64H52.5223C58.8613 64 64 58.8613 64 52.5223V11.4777C64 5.13875 58.8613 0 52.5223 0Z" fill="#00005B" />
<path id="Vector_2" d="M16.357 16.9883H25.7801L36.348 46.4903H27.7175L26.2644 41.999H15.2121L13.759 46.4903H5.48083L16.357 16.9883ZM23.9747 34.9978L20.7604 25.0903L17.5459 34.9978H23.9747Z" fill="#9999FF" />
<path id="Vector_3" d="M58.5192 34.3373C58.5192 35.3941 58.4312 36.5389 58.2991 37.4196H43.9004C44.781 39.6212 46.8946 40.678 50.1971 40.678C52.5748 40.678 54.6444 40.2377 56.7139 39.2689L56.8021 45.3895C54.5563 46.5344 52.1346 46.9307 49.0081 46.9307C41.3023 46.9307 36.1506 42.6595 36.1506 34.9097C36.1506 27.8204 41.0823 23.1089 47.5991 23.1089C54.2922 23.1089 58.5192 27.4241 58.5192 34.3373ZM43.6362 32.3998H51.3419C51.1659 30.3302 49.8889 28.8772 47.6432 28.8772C45.4856 28.8772 44.1205 30.022 43.6362 32.3998Z" fill="#9999FF" />
<defs>
<clipPath id="clip0_2210_5094">
<rect width="64" height="64" fill="white" />
</clipPath>
</defs>
</svg>