<?xml version='1.0' encoding='utf-8'?>
<svg xmlns="http://www.w3.org/2000/svg" width="42" height="42" viewBox="0 0 42 42" fill="none" class="after-effects-40-2025">
<path id="Vector" d="M34.4678 0H7.53225C3.3723 0 0 3.3723 0 7.53225V34.4678C0 38.6277 3.3723 42 7.53225 42H34.4678C38.6277 42 42 38.6277 42 34.4678V7.53225C42 3.3723 38.6277 0 34.4678 0Z" fill="#00005B" />
<path id="Vector_2" d="M10.7343 11.1486H16.9182L23.8534 30.5093H18.1896L17.236 27.5618H9.98297L9.02936 30.5093H3.5968L10.7343 11.1486ZM15.7334 22.9673L13.624 16.4655L11.5145 22.9673H15.7334Z" fill="#9999FF" />
<path id="Vector_3" d="M38.4033 22.5338C38.4033 23.2274 38.3455 23.9787 38.2588 24.5566H28.8096C29.3875 26.0015 30.7746 26.6949 32.9419 26.6949C34.5022 26.6949 35.8604 26.406 37.2185 25.7703L37.2764 29.7869C35.8026 30.5382 34.2134 30.7983 32.1616 30.7983C27.1047 30.7983 23.7239 27.9953 23.7239 22.9095C23.7239 18.2571 26.9603 15.1652 31.2369 15.1652C35.6293 15.1652 38.4033 17.9971 38.4033 22.5338ZM28.6363 21.2624H33.6931C33.5776 19.9042 32.7396 18.9507 31.2658 18.9507C29.8499 18.9507 28.9541 19.702 28.6363 21.2624Z" fill="#9999FF" />
<defs>
<clipPath id="clip0_2136_6820">
<rect width="42" height="42" fill="white" />
</clipPath>
</defs>
</svg>