<?xml version="1.0" encoding="utf-8"?><svg id="Animate_64" data-name="Animate 64" xmlns="http://www.w3.org/2000/svg" width="63.999" height="62" viewBox="0 0 63.999 62">
  <path id="Path_99507" data-name="Path 99507" d="M11.4,0H52.8A11.171,11.171,0,0,1,64,11.291V50.709A11.34,11.34,0,0,1,52.6,62H11.4A11.341,11.341,0,0,1,0,50.709V11.291A11.216,11.216,0,0,1,11.4,0Z" fill="#00005b"/>
  <path id="Path_99508" data-name="Path 99508" d="M21.874,29.489H12.033l-2.008,6.226c0,.2-.2.4-.6.4H4.4c-.4.2-.4,0-.4-.4l8.837-24.7c0-.2.2-.4.2-.8a5.56,5.56,0,0,0,.2-1.807l.2-.4h6.828c.2,0,.4,0,.4.2L30.51,35.514c0,.2,0,.4-.2.4H24.686a.432.432,0,0,1-.4-.4ZM13.64,24.267h6.828c-.2-.6-.4-1.2-.6-2.008a9.79,9.79,0,0,0-.8-2.209c-.2-.8-.6-1.607-.8-2.41a11.322,11.322,0,0,0-.8-2.41c-.2-.8-.4-1.406-.6-2.008h0a16.964,16.964,0,0,1-1,3.414c-.4,1.2-.8,2.611-1.2,4.017A24.281,24.281,0,0,1,13.64,24.267Z" transform="translate(4.033 7.668)" fill="#99f"/>
  <path id="Path_99509" data-name="Path 99509" d="M18.7,32.588V11.7h4.82l.2.4c0,.2.2.4.2.6s.2.6.2.8A7.88,7.88,0,0,1,26.934,11.9a9.1,9.1,0,0,1,3.213-.6,11.754,11.754,0,0,1,2.611.4,6.17,6.17,0,0,1,4.017,4.017,13.351,13.351,0,0,1,.6,4.217V32.588a.432.432,0,0,1-.4.4H31.955a.432.432,0,0,1-.4-.4V20.337a5.347,5.347,0,0,0-.6-2.41,3.6,3.6,0,0,0-1-1.406,2.985,2.985,0,0,0-1.807-.4,7.136,7.136,0,0,0-2.008.4,4.373,4.373,0,0,0-1.607,1V32.387a.432.432,0,0,1-.4.4H19.1c-.2.2-.4,0-.4-.2Z" transform="translate(18.589 10.92)" fill="#99f"/>
</svg>
