<?xml version='1.0' encoding='utf-8'?>
<svg xmlns="http://www.w3.org/2000/svg" width="64" height="64" viewBox="0 0 64 64" fill="none" class="audition-64-2025">
<path id="Vector" d="M52.5223 0H11.4777C5.13875 0 0 5.13875 0 11.4777V52.5223C0 58.8613 5.13875 64 11.4777 64H52.5223C58.8613 64 64 58.8613 64 52.5223V11.4777C64 5.13875 58.8613 0 52.5223 0Z" fill="#00005B" />
<path id="Vector_2" d="M15.9252 16.9882H25.3483L35.9161 46.4903H27.2858L25.8327 41.9989H14.7804L13.3273 46.4903H5.04914L15.9252 16.9882ZM23.543 34.9977L20.3285 25.0902L17.114 34.9977H23.543Z" fill="#9999FF" />
<path id="Vector_3" d="M36.7139 37.6397V23.5051H44.4196V37.2874C44.4196 39.7533 45.6084 40.766 47.59 40.766C48.5147 40.766 49.3073 40.722 49.9677 40.4578V23.5051H57.6736V44.5529C54.7233 46.05 51.5529 46.9747 47.5459 46.9747C40.0163 46.9747 36.7139 43.9804 36.7139 37.6397Z" fill="#9999FF" />
<defs>
<clipPath id="clip0_2210_5158">
<rect width="64" height="64" fill="white" />
</clipPath>
</defs>
</svg>