<?xml version='1.0' encoding='utf-8'?>
<svg xmlns="http://www.w3.org/2000/svg" width="240" height="240" viewBox="0 0 240 240" fill="none" class="behance-2025">
<path id="Vector" d="M196.959 0H43.0414C19.2703 0 0 19.2703 0 43.0414V196.959C0 220.73 19.2703 240 43.0414 240H196.959C220.73 240 240 220.73 240 196.959V43.0414C240 19.2703 220.73 0 196.959 0Z" fill="#000B1D" />
<path id="Vector_2" d="M29.6885 63.7081H81.8675C107.957 63.7081 120.836 77.083 120.836 92.9348C120.836 103.668 117.204 111.429 108.287 116.217C118.195 120.345 124.469 127.776 124.634 140.16C124.8 160.14 108.618 174.341 78.0699 174.341H29.6885V63.7081ZM78.3999 107.136C85.665 107.136 90.1237 103.998 90.1237 97.5585C90.1237 91.614 86.3261 88.1464 78.0699 88.1464H60.2363V107.136L78.3999 107.136ZM78.8952 149.902C86.8209 149.902 92.9307 146.93 92.9307 139.335C92.9307 133.225 89.2979 129.097 79.8858 129.097H60.2364V149.902H78.8952Z" fill="white" />
<path id="Vector_3" d="M214.414 128.767C214.414 132.73 214.084 137.023 213.589 140.325H159.593C162.896 148.582 170.822 152.544 183.206 152.544C192.122 152.544 199.883 150.893 207.644 147.261L207.975 170.213C199.553 174.506 190.472 175.992 178.747 175.992C149.851 175.992 130.532 159.975 130.532 130.913C130.532 104.329 149.025 86.6603 173.464 86.6603C198.563 86.6603 214.414 102.842 214.414 128.767ZM198.067 62.0569V81.2111H149.521V62.0569H198.067ZM158.603 121.501H187.499C186.839 113.74 182.05 108.291 173.629 108.291C165.538 108.291 160.419 112.585 158.603 121.501Z" fill="white" />
<defs>
<clipPath id="clip0_2136_7084">
<rect width="240" height="240" fill="white" />
</clipPath>
</defs>
</svg>