<?xml version='1.0' encoding='utf-8'?>
<svg xmlns="http://www.w3.org/2000/svg" width="240" height="240" viewBox="0 0 240 240" fill="none" class="capture-2025">
<path id="Vector" d="M196.959 0H43.0414C19.2703 0 0 19.2703 0 43.0414V196.959C0 220.73 19.2703 240 43.0414 240H196.959C220.73 240 240 220.73 240 196.959V43.0414C240 19.2703 220.73 0 196.959 0Z" fill="#000B1D" />
<path id="Vector_2" d="M122.658 66.3469L122.163 94.0878C115.227 89.6294 107.301 87.4827 96.733 87.4827C77.2489 87.4827 66.3504 100.528 66.3504 117.535C66.3504 138.341 78.9 149.404 97.5588 149.404C106.641 149.404 114.732 148.248 123.153 143.625L123.319 170.705C117.044 173.842 107.962 175.824 93.9265 175.989C51.8197 176.154 33.3256 148.578 33.3256 118.031C33.3256 90.1247 53.9666 61.3932 94.4213 61.063C106.476 60.8979 116.713 62.7144 122.658 66.3469Z" fill="white" />
<path id="Vector_3" d="M206.674 167.898C195.942 172.852 183.722 175.494 168.366 175.494C147.065 175.494 130.387 166.577 130.387 146.762C130.387 126.782 147.56 119.517 167.375 119.517C171.998 119.517 175.797 119.847 178.934 120.342V119.352C178.934 113.572 174.31 109.444 162.752 109.444C154.991 109.444 146.239 111.426 137.983 114.728L137.818 91.6108C146.405 88.3083 156.147 86.1619 167.375 86.1619C192.474 86.1619 206.674 97.5553 206.674 122.819L206.674 167.898ZM178.934 139.166C176.952 138.506 174.31 138.011 170.513 138.011C163.082 138.011 157.798 140.157 157.798 146.102C157.798 152.046 162.917 154.853 170.183 154.853C173.815 154.853 176.622 154.358 178.934 153.367L178.934 139.166Z" fill="white" />
<defs>
<clipPath id="clip0_2136_7896">
<rect width="240" height="240" fill="white" />
</clipPath>
</defs>
</svg>