<?xml version="1.0" encoding="utf-8"?><svg id="Character_Animator_64" data-name="Character Animator 64" xmlns="http://www.w3.org/2000/svg" width="63.999" height="62" viewBox="0 0 63.999 62">
  <path id="Path_99522" data-name="Path 99522" d="M11.4,0H52.8A11.171,11.171,0,0,1,64,11.291V50.709A11.34,11.34,0,0,1,52.6,62H11.4A11.341,11.341,0,0,1,0,50.709V11.291A11.216,11.216,0,0,1,11.4,0Z" fill="#00005b"/>
  <path id="Path_99523" data-name="Path 99523" d="M25.9,31.1v4.4c0,.2-.2.6-.4.6-.8.2-1.6.4-2.6.6a19.4,19.4,0,0,1-3.4.2,19.724,19.724,0,0,1-4.8-.6,14.436,14.436,0,0,1-4-1.8,21.407,21.407,0,0,1-3.2-2.8,10.763,10.763,0,0,1-2-4,14.913,14.913,0,0,1-.8-5.2,15.8,15.8,0,0,1,1.8-7.6,13.514,13.514,0,0,1,5.4-5.2,17.133,17.133,0,0,1,8.2-2,19.4,19.4,0,0,1,3.4.2,4.032,4.032,0,0,1,2.2.6.735.735,0,0,1,.2.6v4.8c0,.2-.2.4-.4.2a9.9,9.9,0,0,0-2.6-.8,16.166,16.166,0,0,0-3.2-.2,10.843,10.843,0,0,0-5,1.2,8.2,8.2,0,0,0-3.2,3.2,19.474,19.474,0,0,0-.4,4.8,11.325,11.325,0,0,0,.6,3.6,10.776,10.776,0,0,0,1.4,2.6,6.252,6.252,0,0,0,2.2,1.8,10.047,10.047,0,0,0,2.6,1,11.7,11.7,0,0,0,2.6.4,12.3,12.3,0,0,0,2.8-.2l2.4-.6h.2Z" transform="translate(4.7 7.424)" fill="#99f"/>
  <path id="Path_99524" data-name="Path 99524" d="M23.3,22V37a.43.43,0,0,1-.4.4H17.5a.7.7,0,0,1-.4-.2h0V7.2a.43.43,0,0,1,.4-.4h5.4l.4.4h0V17.4a6.759,6.759,0,0,1,2.4-1.2,8.29,8.29,0,0,1,3.2-.4,13.764,13.764,0,0,1,2.6.4,6.759,6.759,0,0,1,2.4,1.2A5.743,5.743,0,0,1,35.5,20a13.3,13.3,0,0,1,.6,4.2V36.8a.43.43,0,0,1-.4.4H30.9a.43.43,0,0,1-.4-.4V24.6a7.19,7.19,0,0,0-.4-2.2A2.689,2.689,0,0,0,28.9,21a2.326,2.326,0,0,0-2-.4,5.537,5.537,0,0,0-1.8.2Z" transform="translate(17.1 6.545)" fill="#99f"/>
</svg>
