<?xml version='1.0' encoding='utf-8'?>
<svg xmlns="http://www.w3.org/2000/svg" width="84" height="84" viewBox="0 0 84 84" fill="none" class="firefly-80-2025">
<path id="Vector" d="M68.9355 0H15.0645C6.74461 0 0 6.74461 0 15.0645V68.9355C0 77.2554 6.74461 84 15.0645 84H68.9355C77.2554 84 84 77.2554 84 68.9355V15.0645C84 6.74461 77.2554 0 68.9355 0Z" fill="#EB1000" />
<path id="Vector_2" d="M21.2762 22.2971H49.5372V31.4862H32.0258V38.1324H47.5145V47.3215H32.0258V61.0186H21.2762V22.2971Z" fill="white" />
<path id="Vector_3" d="M53.2453 30.8505H63.359V61.0186H53.2453V30.8505Z" fill="white" />
<path id="Vector_4" d="M60.0809 25.214L63.6866 26.0244C65.1039 26.3438 66.0881 24.6461 65.1008 23.5785L62.5954 20.8694C62.2662 20.5115 62.1327 20.0176 62.2395 19.5415L63.052 15.9451C63.3723 14.5314 61.6701 13.5495 60.5999 14.5344L57.8838 17.0335C57.5251 17.3618 57.0297 17.4949 56.5525 17.3884L52.9468 16.578C51.5295 16.2586 50.5451 17.9562 51.5324 19.0239L54.0381 21.733C54.3672 22.0908 54.5007 22.5848 54.3939 23.0609L53.5814 26.6573C53.2611 28.071 54.9631 29.0529 56.0335 28.068L58.7496 25.5689C59.1083 25.2406 59.6035 25.1075 60.0809 25.214Z" fill="white" />
<defs>
<clipPath id="clip0_2136_7486">
<rect width="84" height="84" fill="white" />
</clipPath>
</defs>
</svg>