<?xml version='1.0' encoding='utf-8'?>
<svg xmlns="http://www.w3.org/2000/svg" width="54" height="54" viewBox="0 0 54 54" fill="none" class="firefly-appicon-64-new-2025">
<path id="Vector" d="M44.3157 0H9.68432C4.33582 0 0 4.33582 0 9.68432V44.3157C0 49.6642 4.33582 54 9.68432 54H44.3157C49.6642 54 54 49.6642 54 44.3157V9.68432C54 4.33582 49.6642 0 44.3157 0Z" fill="#EB1000" />
<path id="Vector_2" d="M13.6776 14.3338H31.8454V20.2411H20.588V24.5137H30.545V30.421H20.588V39.2262H13.6776V14.3338Z" fill="white" />
<path id="Vector_3" d="M34.2291 19.8325H40.7308V39.2262H34.2291V19.8325Z" fill="white" />
<path id="Vector_4" d="M38.6234 16.209L40.9414 16.7299C41.8525 16.9353 42.4852 15.8439 41.8505 15.1576L40.2399 13.416C40.0283 13.186 39.9425 12.8685 40.0111 12.5624L40.5334 10.2504C40.7393 9.34162 39.6451 8.7104 38.9571 9.34352L37.211 10.9501C36.9804 11.1611 36.662 11.2467 36.3552 11.1782L34.0372 10.6573C33.1261 10.452 32.4933 11.5433 33.128 12.2296L34.7387 13.9712C34.9503 14.2012 35.0362 14.5188 34.9675 14.8249L34.4452 17.1368C34.2393 18.0456 35.3334 18.6768 36.0216 18.0437L37.7676 16.4371C37.9982 16.2261 38.3165 16.1405 38.6234 16.209Z" fill="white" />
<defs>
<clipPath id="clip0_2136_7534">
<rect width="54" height="54" fill="white" />
</clipPath>
</defs>
</svg>