<?xml version="1.0" encoding="UTF-8"?><svg width="34" height="33" viewBox="0 0 34 33" fill="none" xmlns="http://www.w3.org/2000/svg">
<g clip-path="url(#clip0_2454_79110)">
<path fill-rule="evenodd" clip-rule="evenodd" d="M7.83203 8.49951V29.8328C7.83203 30.0686 7.92861 30.2947 8.10052 30.4614C8.27243 30.6281 8.50558 30.7217 8.7487 30.7217H30.7487C30.9918 30.7217 31.225 30.6281 31.3969 30.4614C31.5688 30.2947 31.6654 30.0686 31.6654 29.8328V13.7564C31.6653 13.5211 31.5691 13.2954 31.3977 13.1288L25.982 7.87018C25.8961 7.78705 25.794 7.7213 25.6816 7.67674C25.5693 7.63218 25.4489 7.60971 25.3275 7.61062H8.7487C8.50558 7.61062 8.27243 7.70427 8.10052 7.87097C7.92861 8.03767 7.83203 8.26376 7.83203 8.49951ZM29.832 28.944H9.66536V9.3884H24.332V13.8328C24.332 14.0686 24.4286 14.2947 24.6005 14.4614C24.7724 14.6281 25.0056 14.7217 25.2487 14.7217H29.832V28.944Z" fill="#222222"/>
<path d="M9.66536 0.499512H7.83203V5.83285H9.66536V0.499512Z" fill="#222222"/>
<path d="M6 7.6106H0.5V9.38837H6V7.6106Z" fill="#222222"/>
</g>
<defs>
<clipPath id="clip0_2454_79110">
<rect width="33" height="32" fill="white" transform="translate(0.5 0.499512)"/>
</clipPath>
</defs>
</svg>
