<?xml version='1.0' encoding='utf-8'?>
<svg xmlns="http://www.w3.org/2000/svg" width="240" height="240" viewBox="0 0 240 240" fill="none" class="fresco-2025">
<path id="Vector" d="M196.959 0H43.0414C19.2703 0 0 19.2703 0 43.0414V196.959C0 220.73 19.2703 240 43.0414 240H196.959C220.73 240 240 220.73 240 196.959V43.0414C240 19.2703 220.73 0 196.959 0Z" fill="#001E36" />
<path id="Vector_2" d="M53.7841 63.7106H134.529V89.9651H84.4967V108.955H128.75V135.209H84.4967V174.343H53.7841V63.7106ZM175.976 86.6629C182.745 86.6629 188.194 87.4884 190.671 88.314V110.771C188.69 110.275 184.892 109.945 181.755 109.945C175.645 109.945 172.177 110.441 169.04 111.596V174.343H140.143V93.9282C150.546 89.3048 160.949 86.6629 175.976 86.6629Z" fill="#31A8FF" />
<defs>
<clipPath id="clip0_2136_7686">
<rect width="240" height="240" fill="white" />
</clipPath>
</defs>
</svg>