<?xml version='1.0' encoding='utf-8'?>
<svg xmlns="http://www.w3.org/2000/svg" width="240" height="240" viewBox="0 0 240 240" fill="none" class="incopy-2025">
<path id="Vector" d="M196.959 0H43.0414C19.2703 0 0 19.2703 0 43.0414V196.959C0 220.73 19.2703 240 43.0414 240H196.959C220.73 240 240 220.73 240 196.959V43.0414C240 19.2703 220.73 0 196.959 0Z" fill="#49021F" />
<path id="Vector_2" d="M67.4279 63.7059H98.1405V174.339H67.4279V63.7059Z" fill="#FF3366" />
<path id="Vector_3" d="M176.675 114.069C171.556 111.262 165.777 109.94 159.006 109.94C146.953 109.94 137.706 117.206 137.706 131.076C137.706 144.946 146.787 152.212 159.172 152.212C166.767 152.212 171.721 151.056 176.675 148.414V172.027C170.565 174.834 163.465 175.99 154.548 175.99C127.138 175.99 108.644 158.322 108.644 131.241C108.644 103.17 129.78 86.6582 155.209 86.6582C163.96 86.6582 170.895 87.4837 176.675 90.2907V114.069Z" fill="#FF3366" />
<defs>
<clipPath id="clip0_2136_7616">
<rect width="240" height="240" fill="white" />
</clipPath>
</defs>
</svg>