<?xml version='1.0' encoding='utf-8'?>
<svg xmlns="http://www.w3.org/2000/svg" width="64" height="64" viewBox="0 0 64 64" fill="none" class="indesign-64-2025">
<path id="Vector" d="M52.5223 0H11.4777C5.13875 0 0 5.13875 0 11.4777V52.5223C0 58.8613 5.13875 64 11.4777 64H52.5223C58.8613 64 64 58.8613 64 52.5223V11.4777C64 5.13875 58.8613 0 52.5223 0Z" fill="#49021F" />
<path id="Vector_2" d="M15.4302 16.9883H23.6204V46.4903H15.4302V16.9883Z" fill="#FF3366" />
<path id="Vector_3" d="M26.4211 35.1298C26.4211 27.1159 32.4097 23.1088 38.6183 23.1088C39.4549 23.1088 40.3357 23.1969 40.864 23.2849V16.0636H48.5698V44.9932C46.7203 45.9179 43.0656 46.8866 39.1028 46.8866C32.3215 46.8866 26.4211 43.0558 26.4211 35.1298ZM40.864 40.4578V29.6697C40.3357 29.4936 39.6752 29.3615 38.7945 29.3615C36.3727 29.3615 34.1269 30.7706 34.1269 34.9977C34.1269 38.8726 36.1524 40.6339 38.8385 40.6339C39.4549 40.6339 40.2916 40.5899 40.864 40.4578Z" fill="#FF3366" />
<defs>
<clipPath id="clip0_2210_5390">
<rect width="64" height="64" fill="white" />
</clipPath>
</defs>
</svg>