<?xml version='1.0' encoding='utf-8'?>
<svg xmlns="http://www.w3.org/2000/svg" width="42" height="42" viewBox="0 0 42 42" fill="none" class="indesign-40-2025">
<path id="Vector" d="M34.4678 0H7.53225C3.3723 0 0 3.3723 0 7.53225V34.4678C0 38.6277 3.3723 42 7.53225 42H34.4678C38.6277 42 42 38.6277 42 34.4678V7.53225C42 3.3723 38.6277 0 34.4678 0Z" fill="#49021F" />
<path id="Vector_2" d="M10.1261 11.1485H15.5009V30.5093H10.1261V11.1485Z" fill="#FF3366" />
<path id="Vector_3" d="M17.3389 23.0539C17.3389 17.7948 21.2688 15.1652 25.3432 15.1652C25.8923 15.1652 26.4703 15.223 26.817 15.2807V10.5417H31.8739V29.5268C30.6602 30.1336 28.2618 30.7693 25.6612 30.7693C21.211 30.7693 17.3389 28.2553 17.3389 23.0539ZM26.817 26.5504V19.4708C26.4703 19.3552 26.0368 19.2685 25.4589 19.2685C23.8696 19.2685 22.3958 20.1932 22.3958 22.9673C22.3958 25.5101 23.725 26.666 25.4877 26.666C25.8923 26.666 26.4414 26.6371 26.817 26.5504Z" fill="#FF3366" />
<defs>
<clipPath id="clip0_2136_7856">
<rect width="42" height="42" fill="white" />
</clipPath>
</defs>
</svg>