<?xml version='1.0' encoding='utf-8'?>
<svg xmlns="http://www.w3.org/2000/svg" width="240" height="240" viewBox="0 0 240 240" fill="none" class="indesign-2025">
<path id="Vector" d="M196.959 0H43.0414C19.2703 0 0 19.2703 0 43.0414V196.959C0 220.73 19.2703 240 43.0414 240H196.959C220.73 240 240 220.73 240 196.959V43.0414C240 19.2703 220.73 0 196.959 0Z" fill="#49021F" />
<path id="Vector_2" d="M57.8633 63.7059H88.5765V174.339H57.8633V63.7059Z" fill="#FF3366" />
<path id="Vector_3" d="M99.0793 131.737C99.0793 101.684 121.536 86.6581 144.818 86.6581C147.956 86.6581 151.259 86.9884 153.24 87.3185V60.2384H182.137V168.724C175.201 172.192 161.496 175.825 146.635 175.825C121.206 175.825 99.0793 161.459 99.0793 131.737ZM153.24 151.717V111.262C151.259 110.601 148.782 110.106 145.48 110.106C136.397 110.106 127.976 115.39 127.976 131.241C127.976 145.772 135.572 152.377 145.644 152.377C147.956 152.377 151.094 152.212 153.24 151.717Z" fill="#FF3366" />
<defs>
<clipPath id="clip0_2136_7826">
<rect width="240" height="240" fill="white" />
</clipPath>
</defs>
</svg>