<?xml version='1.0' encoding='utf-8'?>
<svg xmlns="http://www.w3.org/2000/svg" width="64" height="64" viewBox="0 0 64 64" fill="none" class="lightroom-classic-64-2025">
<path id="Vector" d="M52.5223 0H11.4777C5.13875 0 0 5.13875 0 11.4777V52.5223C0 58.8613 5.13875 64 11.4777 64H52.5223C58.8613 64 64 58.8613 64 52.5223V11.4777C64 5.13875 58.8613 0 52.5223 0Z" fill="#001E36" />
<path id="Vector_2" d="M4.6333 16.9882H12.4271V39.401H23.9199V46.4903H4.6333V16.9882Z" fill="#31A8FF" />
<path id="Vector_3" d="M36.0294 23.1088C36.91 23.1088 37.6585 23.1528 38.2311 23.2409V29.4496C37.8788 29.4055 37.5265 29.4055 37.086 29.4055C35.1487 29.4496 33.7396 29.6257 32.9031 29.8459V46.4903H25.7697V24.782C28.7198 23.5491 32.947 23.1088 36.0294 23.1088Z" fill="#31A8FF" />
<path id="Vector_4" d="M60.0272 17.5607L59.9831 24.9142C58.354 23.9894 57.1211 23.5491 54.6112 23.5491C50.3839 23.5491 47.4778 26.103 47.4778 31.387C47.4778 37.2434 50.2518 40.0175 54.5671 40.0175C56.2843 40.0175 58.3979 39.7093 60.1152 38.5644L60.2033 45.7418C59.0584 46.4903 57.077 46.9747 53.5543 46.9747C43.5148 47.0627 39.1555 39.8853 39.1555 31.5191C39.1555 23.2409 44.4394 16.4158 53.7744 16.3718C56.6806 16.3277 58.7061 16.7681 60.0272 17.5607Z" fill="#31A8FF" />
<defs>
<clipPath id="clip0_2210_5431">
<rect width="64" height="64" fill="white" />
</clipPath>
</defs>
</svg>