<?xml version='1.0' encoding='utf-8'?>
<svg xmlns="http://www.w3.org/2000/svg" width="42" height="42" viewBox="0 0 42 42" fill="none" class="lightroom-40-2025">
<path id="Vector" d="M34.4678 0H7.53225C3.3723 0 0 3.3723 0 7.53225V34.4678C0 38.6277 3.3723 42 7.53225 42H34.4678C38.6277 42 42 38.6277 42 34.4678V7.53225C42 3.3723 38.6277 0 34.4678 0Z" fill="#001E36" />
<path id="Vector_2" d="M9.30878 11.149H14.6836V25.9152H23.5837V30.5098H9.30878V11.149ZM31.5881 15.1657C32.7729 15.1657 33.7264 15.3102 34.1599 15.4546V19.3846C33.8132 19.2979 33.1485 19.2401 32.5994 19.2401C31.5303 19.2401 30.9235 19.3268 30.3744 19.5291V30.5098H25.3175V16.4371C27.138 15.628 28.9584 15.1657 31.5881 15.1657Z" fill="#31A8FF" />
<defs>
<clipPath id="clip0_2136_8137">
<rect width="42" height="42" fill="white" />
</clipPath>
</defs>
</svg>