<?xml version='1.0' encoding='utf-8'?>
<svg xmlns="http://www.w3.org/2000/svg" width="64" height="64" viewBox="0 0 64 64" fill="none" class="lightroom-64-2025">
<path id="Vector" d="M52.5223 0H11.4777C5.13875 0 0 5.13875 0 11.4777V52.5223C0 58.8613 5.13875 64 11.4777 64H52.5223C58.8613 64 64 58.8613 64 52.5223V11.4777C64 5.13875 58.8613 0 52.5223 0Z" fill="#001E36" />
<path id="Vector_2" d="M14.1848 16.989H22.375V39.4898H35.9371V46.4911H14.1848V16.989ZM48.1342 23.1096C49.9396 23.1096 51.3926 23.3298 52.0531 23.5499V29.5384C51.5248 29.4063 50.512 29.3182 49.6753 29.3182C48.0462 29.3182 47.1215 29.4504 46.2848 29.7586V46.4911H38.579V25.0471C41.3531 23.8141 44.1271 23.1096 48.1342 23.1096Z" fill="#31A8FF" />
<defs>
<clipPath id="clip0_2210_5470">
<rect width="64" height="64" fill="white" />
</clipPath>
</defs>
</svg>