<?xml version='1.0' encoding='utf-8'?>
<svg xmlns="http://www.w3.org/2000/svg" width="240" height="240" viewBox="0 0 240 240" fill="none" class="lightroom-2025">
<path id="Vector" d="M196.959 0H43.0414C19.2703 0 0 19.2703 0 43.0414V196.959C0 220.73 19.2703 240 43.0414 240H196.959C220.73 240 240 220.73 240 196.959V43.0414C240 19.2703 220.73 0 196.959 0Z" fill="#001E36" />
<path id="Vector_2" d="M53.1931 63.7088H83.9062V148.087H134.764V174.342H53.1931V63.7088ZM180.503 86.6611C187.274 86.6611 192.722 87.4866 195.199 88.3122V110.769C193.218 110.274 189.42 109.943 186.283 109.943C180.173 109.943 176.706 110.439 173.568 111.595V174.342H144.671V93.9264C155.074 89.303 165.477 86.6611 180.503 86.6611Z" fill="#31A8FF" />
<defs>
<clipPath id="clip0_2136_8113">
<rect width="240" height="240" fill="white" />
</clipPath>
</defs>
</svg>