<?xml version='1.0' encoding='utf-8'?>
<svg xmlns="http://www.w3.org/2000/svg" width="64" height="64" viewBox="0 0 64 64" fill="none" class="media-encoder-64-2025">
<path id="Vector" d="M52.5223 0H11.4777C5.13875 0 0 5.13875 0 11.4777V52.5223C0 58.8613 5.13875 64 11.4777 64H52.5223C58.8613 64 64 58.8613 64 52.5223V11.4777C64 5.13875 58.8613 0 52.5223 0Z" fill="#00005B" />
<path id="Vector_2" d="M16.2401 16.9883L20.1591 31.0788L24.3862 16.9883H33.5892L35.4386 46.4903H27.5566L27.1603 35.2619C27.0722 32.4438 26.9842 29.6257 26.8961 26.7636L22.4487 44.2006H17.1648L13.246 27.6442C13.1138 30.1981 13.0258 32.7521 12.9378 35.2619L12.4092 46.4903H5.01175L6.94925 16.9883H16.2401Z" fill="#9999FF" />
<path id="Vector_3" d="M59.6926 34.3372C59.6926 35.394 59.6044 36.5389 59.4725 37.4195H45.0737C45.9543 39.6212 48.0678 40.678 51.3703 40.678C53.7481 40.678 55.8177 40.2376 57.8873 39.2689L57.9753 45.3895C55.7297 46.5343 53.3078 46.9306 50.1815 46.9306C42.4757 46.9306 37.3239 42.6595 37.3239 34.9097C37.3239 27.8203 42.2556 23.1088 48.7724 23.1088C55.4654 23.1088 59.6926 27.4241 59.6926 34.3372ZM44.8094 32.3998H52.5152C52.3391 30.3302 51.0621 28.8771 48.8165 28.8771C46.6588 28.8771 45.2938 30.022 44.8094 32.3998Z" fill="#9999FF" />
<defs>
<clipPath id="clip0_2210_5598">
<rect width="64" height="64" fill="white" />
</clipPath>
</defs>
</svg>