<?xml version="1.0" encoding="UTF-8"?><svg width="34" height="33" viewBox="0 0 34 33" fill="none" xmlns="http://www.w3.org/2000/svg">
<path fill-rule="evenodd" clip-rule="evenodd" d="M28.918 4.05505H5.08464C4.84152 4.05505 4.60836 4.1487 4.43645 4.3154C4.26455 4.4821 4.16797 4.70819 4.16797 4.94394V28.0551C4.16797 28.2908 4.26455 28.5169 4.43645 28.6836C4.60836 28.8503 4.84152 28.9439 5.08464 28.9439H28.918C29.1611 28.9439 29.3942 28.8503 29.5661 28.6836C29.7381 28.5169 29.8346 28.2908 29.8346 28.0551V4.94394C29.8346 4.70819 29.7381 4.4821 29.5661 4.3154C29.3942 4.1487 29.1611 4.05505 28.918 4.05505ZM9.66797 26.7217C9.66797 26.8396 9.61968 26.9526 9.53373 27.036C9.44777 27.1193 9.33119 27.1662 9.20964 27.1662H6.45964C6.33808 27.1662 6.2215 27.1193 6.13554 27.036C6.04959 26.9526 6.0013 26.8396 6.0013 26.7217V24.0551C6.0013 23.9372 6.04959 23.8241 6.13554 23.7408C6.2215 23.6574 6.33808 23.6106 6.45964 23.6106H9.20964C9.33119 23.6106 9.44777 23.6574 9.53373 23.7408C9.61968 23.8241 9.66797 23.9372 9.66797 24.0551V26.7217ZM9.66797 20.7662C9.66797 20.884 9.61968 20.9971 9.53373 21.0804C9.44777 21.1638 9.33119 21.2106 9.20964 21.2106H6.45964C6.33808 21.2106 6.2215 21.1638 6.13554 21.0804C6.04959 20.9971 6.0013 20.884 6.0013 20.7662V18.0995C6.0013 17.9816 6.04959 17.8686 6.13554 17.7852C6.2215 17.7019 6.33808 17.6551 6.45964 17.6551H9.20964C9.33119 17.6551 9.44777 17.7019 9.53373 17.7852C9.61968 17.8686 9.66797 17.9816 9.66797 18.0995V20.7662ZM9.66797 14.8995C9.66797 15.0174 9.61968 15.1304 9.53373 15.2138C9.44777 15.2971 9.33119 15.3439 9.20964 15.3439H6.45964C6.33808 15.3439 6.2215 15.2971 6.13554 15.2138C6.04959 15.1304 6.0013 15.0174 6.0013 14.8995V12.2328C6.0013 12.115 6.04959 12.0019 6.13554 11.9186C6.2215 11.8352 6.33808 11.7884 6.45964 11.7884H9.20964C9.33119 11.7884 9.44777 11.8352 9.53373 11.9186C9.61968 12.0019 9.66797 12.115 9.66797 12.2328V14.8995ZM9.66797 8.94394C9.66797 9.06182 9.61968 9.17486 9.53373 9.25821C9.44777 9.34156 9.33119 9.38839 9.20964 9.38839H6.45964C6.33808 9.38839 6.2215 9.34156 6.13554 9.25821C6.04959 9.17486 6.0013 9.06182 6.0013 8.94394V6.27728C6.0013 6.1594 6.04959 6.04636 6.13554 5.96301C6.2215 5.87966 6.33808 5.83283 6.45964 5.83283H9.20964C9.33119 5.83283 9.44777 5.87966 9.53373 5.96301C9.61968 6.04636 9.66797 6.1594 9.66797 6.27728V8.94394ZM22.5013 27.1662H11.5013V18.2773H22.5013V27.1662ZM22.5013 14.7217H11.5013V5.83283H22.5013V14.7217ZM28.0013 26.7217C28.0013 26.8396 27.953 26.9526 27.8671 27.036C27.7811 27.1193 27.6645 27.1662 27.543 27.1662H24.793C24.6714 27.1662 24.5548 27.1193 24.4689 27.036C24.3829 26.9526 24.3346 26.8396 24.3346 26.7217V24.0551C24.3346 23.9372 24.3829 23.8241 24.4689 23.7408C24.5548 23.6574 24.6714 23.6106 24.793 23.6106H27.543C27.6645 23.6106 27.7811 23.6574 27.8671 23.7408C27.953 23.8241 28.0013 23.9372 28.0013 24.0551V26.7217ZM28.0013 20.7662C28.0013 20.884 27.953 20.9971 27.8671 21.0804C27.7811 21.1638 27.6645 21.2106 27.543 21.2106H24.793C24.6714 21.2106 24.5548 21.1638 24.4689 21.0804C24.3829 20.9971 24.3346 20.884 24.3346 20.7662V18.0995C24.3346 17.9816 24.3829 17.8686 24.4689 17.7852C24.5548 17.7019 24.6714 17.6551 24.793 17.6551H27.543C27.6645 17.6551 27.7811 17.7019 27.8671 17.7852C27.953 17.8686 28.0013 17.9816 28.0013 18.0995V20.7662ZM28.0013 14.8995C28.0013 15.0174 27.953 15.1304 27.8671 15.2138C27.7811 15.2971 27.6645 15.3439 27.543 15.3439H24.793C24.6714 15.3439 24.5548 15.2971 24.4689 15.2138C24.3829 15.1304 24.3346 15.0174 24.3346 14.8995V12.2328C24.3346 12.115 24.3829 12.0019 24.4689 11.9186C24.5548 11.8352 24.6714 11.7884 24.793 11.7884H27.543C27.6645 11.7884 27.7811 11.8352 27.8671 11.9186C27.953 12.0019 28.0013 12.115 28.0013 12.2328V14.8995ZM28.0013 8.94394C28.0013 9.06182 27.953 9.17486 27.8671 9.25821C27.7811 9.34156 27.6645 9.38839 27.543 9.38839H24.793C24.6714 9.38839 24.5548 9.34156 24.4689 9.25821C24.3829 9.17486 24.3346 9.06182 24.3346 8.94394V6.27728C24.3346 6.1594 24.3829 6.04636 24.4689 5.96301C24.5548 5.87966 24.6714 5.83283 24.793 5.83283H27.543C27.6645 5.83283 27.7811 5.87966 27.8671 5.96301C27.953 6.04636 28.0013 6.1594 28.0013 6.27728V8.94394Z" fill="#222222"/>
</svg>
