<?xml version='1.0' encoding='utf-8'?>
<svg xmlns="http://www.w3.org/2000/svg" id="Photoshop_64" data-name="Photoshop 64" width="160" height="72" version="1.1" viewBox="0 0 160 72" class="photoshop-lighthroom-combo-160-72-2025">
  <defs>
    <style>
      .cls-1 {
        fill: #31a8ff;
      }

      .cls-1, .cls-2 {
        stroke-width: 0px;
      }

      .cls-2 {
        fill: #001e36;
      }
    </style>
  </defs>
  <path id="Path_99550" data-name="Path 99550" class="cls-2" d="M12.8,0h46.6C66.4,0,72,5.8,72,13.1h0v45.9c0,7.4-5.9,13-12.8,13H12.8c-7,0-12.8-5.9-12.8-13h0V13.1C0,5.8,5.6,0,12.4,0h.4Z" />
  <path id="Path_99551" data-name="Path 99551" class="cls-1" d="M16.2,50.6v-31.7c0-.2,0-.4.2-.4h9.5c2,0,4.1.2,6.1.9,1.6.4,2.9,1.4,4.1,2.2,1.1,1.1,1.8,2.2,2.2,3.4.5,1.4.7,2.5.7,4.1s-.5,4.7-1.8,6.5c-1.1,1.6-2.9,2.9-4.7,3.8-2.2.7-4.5,1.1-6.8,1.1h-2.9v10.1s0,.5-.2.5h-5.8c-.2.2-.4,0-.4-.2h0l-.4-.4ZM22.7,24.3v10.3h2.7c1.1,0,2.2-.2,3.4-.4.9-.2,1.8-.9,2.5-1.6.7-.9,1.1-2,.9-3.1,0-1.1-.2-2-.7-2.9-.4-.7-1.4-1.4-2-1.8-1.1-.4-2.2-.7-3.6-.7h-2c-.4,0-.7,0-1.1.2h-.2Z" />
  <path id="Path_99552" data-name="Path 99552" class="cls-1" d="M57.6,32.6c-.9-.4-2-.9-2.9-1.1-1.1-.2-2.2-.4-3.4-.4s-1.1,0-1.8.2c-.5,0-.7.2-.9.7-.2.2-.2.4-.2.9s0,.4.2.7c.5.4.7.7,1.1.9.7.4,1.4.7,2,.9,1.6.4,3.1,1.3,4.5,2.3.9.7,1.8,1.6,2.5,2.5.5,1.1.7,2.2.7,3.1s-.5,2.9-1.1,4.3c-.9,1.1-2,2.2-3.4,2.9-1.6.7-3.6,1.1-5.4.9-1.4,0-2.7-.2-4-.5-1.1-.2-2.2-.5-3.1-.9-.2,0-.5-.5-.5-.7v-5.4h.2c0-.2.2-.2.2-.2,1.1.7,2.5,1.4,3.8,1.6,1.1.2,2.5.5,3.6.5s1.6,0,2.5-.5c.5-.2.9-.7.9-1.4s-.2-.9-.7-1.1c-.9-.7-2-1.1-2.9-1.4-1.6-.5-2.9-1.4-4.3-2.2-.9-.7-1.6-1.6-2.2-2.5s-.7-2.2-.7-3.1.5-2.5,1.1-3.8c.7-1.4,1.8-2.2,3.1-2.9,1.6-.7,3.6-1.1,5.4-1.1s2.5,0,3.8.2c.9,0,1.8.4,2.7.7h.2v5.8h-.2c0,.2-.9.2-.9.2h-.5.4l.4-.2Z" />
  <path id="Path_99544" data-name="Path 99544" class="cls-2" d="M100.6,0h46.7c7,0,12.6,5.8,12.6,13.1h0v45.9c0,7.4-6,13-12.8,13h-46.4c-7,0-12.8-5.9-12.8-13h0V13.1c0-7.2,5.6-13.1,12.6-13.1h.2-.2Z" />
  <path id="Path_99545" data-name="Path 99545" class="cls-1" d="M125.7,51.1h-19.1c-.2,0-.4-.2-.4-.5v-31.7c0-.2.2-.4.4-.4h6.5v26.3h13.9c.2,0,.5.2.5.5l-1.1,5.6h-.2c0,.2-.2.5-.2.5h-.2l-.2-.4Z" />
  <path id="Path_99546" data-name="Path 99546" class="cls-1" d="M130.4,26.1h5.2c.2,0,.5.2.7.4,0,0,.2.4.2.7s.2.7.2.9v1.1c.9-1.1,2-2,3.1-2.5,1.4-.7,2.9-1.1,4.5-1.1s.5,0,.5.2h0v6.3c0,.2-.2.4-.5.4-2-.2-3.8.2-5.6,1.1-.7.2-1.1.7-1.6,1.1v15.8c0,.2-.2.5-.5.5h-6c-.2,0-.5-.2-.5-.5v-22.1c0-.7,0-1.4-.2-2v-.4h.5-.2l.2.2Z" />
</svg>