<?xml version='1.0' encoding='utf-8'?>
<svg xmlns="http://www.w3.org/2000/svg" width="64" height="64" viewBox="0 0 64 64" fill="none" class="photoshop-64-2025">
<path id="Vector" d="M52.5223 0H11.4777C5.13875 0 0 5.13875 0 11.4777V52.5223C0 58.8613 5.13875 64 11.4777 64H52.5223C58.8613 64 64 58.8613 64 52.5223V11.4777C64 5.13875 58.8613 0 52.5223 0Z" fill="#001E36" />
<path id="Vector_2" d="M22.3483 16.9882C30.7146 16.9882 35.4261 20.9072 35.4261 27.4681C35.4261 35.1298 29.0414 38.2121 23.0529 38.2121H19.0019V46.4903H10.8117V16.9882H22.3483ZM19.0019 23.9894V31.2108H22.6126C25.1225 31.2108 26.8838 30.1981 26.8838 27.6442C26.8838 25.3105 25.3866 23.9894 22.7887 23.9894H19.0019Z" fill="#31A8FF" />
<path id="Vector_3" d="M37.0908 45.0372L37.1349 38.2121C39.4686 39.7533 42.727 40.722 44.9727 40.722C46.5139 40.722 47.2185 40.2816 47.2185 39.489C47.2185 38.6084 46.2497 38.2561 44.4004 37.6837C40.8336 36.6269 36.9148 35.1739 36.9148 30.5063C36.9148 25.7508 40.8336 23.1088 46.5139 23.1088C49.1999 23.1088 51.4016 23.5051 53.3389 24.3417L53.2949 30.8586C51.7537 29.9339 48.7155 29.0973 46.734 29.0973C45.281 29.0973 44.7086 29.5376 44.7086 30.1981C44.7086 30.9907 45.413 31.2109 47.5267 31.8714C51.6218 33.1043 55.0563 34.4253 55.0563 39.2249C55.0563 43.8043 51.3136 46.8866 45.4571 46.8866C42.3747 46.8866 39.4686 46.3582 37.0908 45.0372Z" fill="#31A8FF" />
<defs>
<clipPath id="clip0_2210_5642">
<rect width="64" height="64" fill="white" />
</clipPath>
</defs>
</svg>