<?xml version="1.0" encoding="utf-8"?><svg id="Photoshop_Express_64" data-name="Photoshop Express 64" xmlns="http://www.w3.org/2000/svg" width="63.999" height="62" viewBox="0 0 63.999 62">
  <g id="Surfaces">
    <g id="Photo_Surface">
      <g id="Outline_no_shadow">
        <path id="Path_185417" data-name="Path 185417" d="M11.33,0H52.669A11.357,11.357,0,0,1,64,11.383V50.617A11.357,11.357,0,0,1,52.669,62H11.33A11.357,11.357,0,0,1,0,50.617V11.383A11.357,11.357,0,0,1,11.33,0Z" fill="#001e36"/>
      </g>
    </g>
  </g>
  <g id="Outlined_Mnemonics_Logos" transform="translate(5.581 4.438)">
    <g id="PsX">
      <g id="Group_180880" data-name="Group 180880" transform="translate(14.103 17.065)">
        <path id="Path_185418" data-name="Path 185418" d="M17.183,38.108V18.96c0-.139.06-.21.18-.21.319,0,.611,0,1.05-.015s.914-.019,1.423-.03l1.618-.03q.854-.015,1.693-.015a11.272,11.272,0,0,1,3.836.57,6.656,6.656,0,0,1,2.5,1.528,5.866,5.866,0,0,1,1.364,2.112,6.993,6.993,0,0,1,.419,2.412,6.658,6.658,0,0,1-1.109,3.956,6.271,6.271,0,0,1-3,2.263,11.958,11.958,0,0,1-4.195.629q-.66,0-.929-.015c-.18-.01-.449-.015-.809-.015V38.08a.24.24,0,0,1-.2.27.222.222,0,0,1-.067,0H17.393C17.254,38.348,17.183,38.269,17.183,38.108Zm4.048-15.762v6.246c.26.021.5.03.719.03h.989a7.021,7.021,0,0,0,2.143-.342,3.227,3.227,0,0,0,1.528-.989,2.88,2.88,0,0,0,.584-1.917,3.039,3.039,0,0,0-.434-1.649,2.8,2.8,0,0,0-1.3-1.064,5.558,5.558,0,0,0-2.187-.375c-.48,0-.9,0-1.274.015S21.37,22.327,21.231,22.346Z" transform="translate(-17.183 -18.658)" fill="#31a8ff"/>
        <g id="Outlined_Mnemonics_Logos-2" transform="translate(15.944 4.59)">
          <g id="Ps">
            <path id="Path_185419" data-name="Path 185419" d="M40.83,26.889a7.025,7.025,0,0,0-1.783-.63,9.429,9.429,0,0,0-2.084-.239,3.9,3.9,0,0,0-1.125.134,1.01,1.01,0,0,0-.584.375.939.939,0,0,0-.149.509.794.794,0,0,0,.18.48,2.041,2.041,0,0,0,.629.494,12.489,12.489,0,0,0,1.319.614A13.127,13.127,0,0,1,40.1,29.99a4.354,4.354,0,0,1,1.469,1.544A4.117,4.117,0,0,1,42,33.452a4.317,4.317,0,0,1-.719,2.473A4.728,4.728,0,0,1,39.2,37.589a8.393,8.393,0,0,1-3.372.6,12.2,12.2,0,0,1-2.533-.239,8.1,8.1,0,0,1-1.9-.6.39.39,0,0,1-.21-.36V33.753a.178.178,0,0,1,.075-.165.147.147,0,0,1,.165.015,7.988,7.988,0,0,0,2.308.914,9.512,9.512,0,0,0,2.189.285,3.355,3.355,0,0,0,1.544-.27.847.847,0,0,0,.494-.779A.992.992,0,0,0,37.5,33a7.462,7.462,0,0,0-1.829-.869,11.041,11.041,0,0,1-2.652-1.349,4.59,4.59,0,0,1-1.409-1.573,4.114,4.114,0,0,1-.434-1.9,4.308,4.308,0,0,1,.629-2.248,4.581,4.581,0,0,1,1.948-1.709,7.355,7.355,0,0,1,3.3-.66,14.633,14.633,0,0,1,2.308.165,6.049,6.049,0,0,1,1.606.435.274.274,0,0,1,.18.165.79.79,0,0,1,.03.224v3.027a.2.2,0,0,1-.09.18A.281.281,0,0,1,40.83,26.889Z" transform="translate(-31.177 -22.686)" fill="#31a8ff"/>
          </g>
        </g>
      </g>
      <path id="Path_185420" data-name="Path 185420" d="M31.317,57.013a8.579,8.579,0,0,1-6.1-2.537L7.423,36.591a8.721,8.721,0,0,1,0-12.272L25.214,6.433a8.61,8.61,0,0,1,12.208,0l17.79,17.885a8.721,8.721,0,0,1,0,12.272L37.421,54.474A8.581,8.581,0,0,1,31.317,57.013Zm0-50.465A5.96,5.96,0,0,0,27.08,8.31L9.289,26.194a6.053,6.053,0,0,0,0,8.519L27.08,52.6a5.969,5.969,0,0,0,8.473,0h0L53.344,34.713a6.053,6.053,0,0,0,0-8.519L35.554,8.311A5.956,5.956,0,0,0,31.317,6.548Z" transform="translate(-4.899 -3.896)" fill="#31a8ff" opacity="0.6"/>
    </g>
  </g>
</svg>
