<?xml version='1.0' encoding='utf-8'?>
<svg xmlns="http://www.w3.org/2000/svg" width="54" height="54" viewBox="0 0 54 54" fill="none" class="photoshop-56-2025">
<path id="Vector" d="M44.3157 0H9.68432C4.33582 0 0 4.33582 0 9.68432V44.3157C0 49.6642 4.33582 54 9.68432 54H44.3157C49.6642 54 54 49.6642 54 44.3157V9.68432C54 4.33582 49.6642 0 44.3157 0Z" fill="#001E36" />
<path id="Vector_2" d="M18.8564 14.3338C25.9154 14.3338 29.8908 17.6404 29.8908 23.1762C29.8908 29.6408 24.5037 32.2415 19.4509 32.2415H16.0328V39.2262H9.12236V14.3338H18.8564ZM16.0328 20.2411V26.3342H19.0794C21.1971 26.3342 22.6832 25.4797 22.6832 23.3248C22.6832 21.3557 21.42 20.2411 19.228 20.2411H16.0328Z" fill="#31A8FF" />
<path id="Vector_3" d="M31.2954 38.0002L31.3325 32.2415C33.3016 33.5418 36.0509 34.3592 37.9458 34.3592C39.2461 34.3592 39.8406 33.9876 39.8406 33.3189C39.8406 32.5759 39.0232 32.2786 37.4628 31.7956C34.4533 30.904 31.1469 29.678 31.1469 25.7397C31.1469 21.7272 34.4533 19.4981 39.2461 19.4981C41.5124 19.4981 43.3701 19.8325 45.0047 20.5383L44.9675 26.037C43.6672 25.2568 41.1037 24.5508 39.4318 24.5508C38.2058 24.5508 37.7229 24.9224 37.7229 25.4797C37.7229 26.1484 38.3173 26.3342 40.1007 26.8915C43.5559 27.9317 46.4538 29.0463 46.4538 33.096C46.4538 36.9599 43.2958 39.5606 38.3544 39.5606C35.7537 39.5606 33.3016 39.1148 31.2954 38.0002Z" fill="#31A8FF" />
<defs>
<clipPath id="clip0_2136_8768">
<rect width="54" height="54" fill="white" />
</clipPath>
</defs>
</svg>