<?xml version="1.0" encoding="UTF-8"?><svg width="34" height="32" viewBox="0 0 34 32" fill="none" xmlns="http://www.w3.org/2000/svg">
<path fill-rule="evenodd" clip-rule="evenodd" d="M4.27044 5.09045H26.8967V3.6359C26.8967 3.44302 26.8172 3.25803 26.6758 3.12164C26.5344 2.98525 26.3425 2.90863 26.1425 2.90863H2.76202C2.56199 2.90863 2.37016 2.98525 2.22872 3.12164C2.08727 3.25803 2.00781 3.44302 2.00781 3.6359V19.5632C2.00781 19.7561 2.08727 19.941 2.22872 20.0774C2.37016 20.2138 2.56199 20.2904 2.76202 20.2904H4.27044V5.09045Z" fill="#222222"/>
<path fill-rule="evenodd" clip-rule="evenodd" d="M31.424 7.27222H7.28936C7.08934 7.27222 6.8975 7.34884 6.75606 7.48523C6.61462 7.62162 6.53516 7.8066 6.53516 7.99949V26.9086C6.53516 27.1015 6.61462 27.2864 6.75606 27.4228C6.8975 27.5592 7.08934 27.6359 7.28936 27.6359H31.424C31.6241 27.6359 31.8159 27.5592 31.9574 27.4228C32.0988 27.2864 32.1783 27.1015 32.1783 26.9086V7.99949C32.1783 7.8066 32.0988 7.62162 31.9574 7.48523C31.8159 7.34884 31.6241 7.27222 31.424 7.27222ZM8.79778 9.45403H29.9156V24.3064L26.2487 20.7704C25.9605 20.4929 25.5699 20.3371 25.1626 20.3371C24.7553 20.3371 24.3647 20.4929 24.0765 20.7704L21.7189 23.0439L15.9175 17.454C15.7749 17.3165 15.6056 17.2073 15.4193 17.1329C15.2329 17.0584 15.0332 17.0201 14.8315 17.0201C14.6297 17.0201 14.43 17.0584 14.2437 17.1329C14.0573 17.2073 13.888 17.3165 13.7454 17.454L8.79778 22.2206V9.45403Z" fill="#222222"/>
<path d="M25.0108 16.7268C26.4687 16.7268 27.6506 15.5871 27.6506 14.1813C27.6506 12.7755 26.4687 11.6359 25.0108 11.6359C23.5529 11.6359 22.3711 12.7755 22.3711 14.1813C22.3711 15.5871 23.5529 16.7268 25.0108 16.7268Z" fill="#222222"/>
</svg>
