<?xml version="1.0" encoding="UTF-8"?><svg xmlns="http://www.w3.org/2000/svg" viewBox="0 0 256 256" style="enable-background:new 0 0 256 256" xml:space="preserve" height="40" width="40"><path d="M210.7 252.8H45.3c-25 0-45.3-20.3-45.3-45.3v-159c0-25 20.3-45.3 45.3-45.3h165.3c25 0 45.3 20.3 45.3 45.3v158.9c.1 25.1-20.2 45.4-45.2 45.4z" style="fill:#001e36"/><path d="m245.5 1094.5 15.7 28.9c12.3-4.1 22.1-13.4 26.9-25.5l1.3-3.4h-43.9zm2.1-29.8-14.6-26.5c-12.2 4.6-21.9 14.1-26.7 26.3l.4.3 40.9-.1zm-14.6 22.4-14.9 25.9c7.8 7.1 18 11.1 28.5 11.3 2.4-.1 4.9-.3 7.3-.7l.3-.4-21.2-36.1zm28-14.2 14.9-25.6c-8-7-18.2-10.9-28.8-10.9-2.1 0-4.3.2-6.4.5l-.3.5 20.6 35.5zm-27-.8h-29.9c-.6 2.7-.9 5.6-.9 8.4 0 9.8 3.3 19.4 9.4 27.1l.7.4 20.7-35.9zm25.9 15h30.3c.5-2.5.7-5.1.7-7.7 0-9.7-3.4-19.2-9.6-26.7l-.7-.5-20.7 34.9z" style="fill-rule:evenodd;clip-rule:evenodd;fill:#31a8ff" transform="translate(-118.757 -953.722)"/><path d="M152.6 232.5c-2.5 0-5-.6-7.2-1.9L27.8 165.1c-3.4-1.9-5.9-5-6.9-8.8-1-3.7-.5-7.6 1.5-11L91.1 29.8c2.7-4.5 7.6-7.3 12.9-7.3 2.5 0 5 .6 7.2 1.8l117.6 65.5c3.4 1.9 5.9 5 6.9 8.8 1 3.7.5 7.6-1.5 11l-68.6 115.6c-2.7 4.5-7.7 7.3-13 7.3zM104 33.2c-1.5 0-3 .8-3.7 2L31.7 150.8c-.5.8-.6 1.8-.4 2.7.3 1 .9 1.7 1.7 2.2l117.6 65.5c.6.3 1.3.5 2 .5 1.5 0 2.9-.8 3.7-2l68.6-115.6c.5-.8.6-1.8.4-2.7-.3-1-.9-1.7-1.7-2.2L106 33.7c-.6-.3-1.3-.5-2-.5z" style="opacity:.6;fill:#31a8ff"/></svg>