<?xml version="1.0" encoding="UTF-8"?><svg xmlns="http://www.w3.org/2000/svg" width="40" height="39" viewBox="0 0 40 39">
  <g id="_1_line" transform="translate(0 -3.2)">
    <g id="Group_428758" data-name="Group 428758" transform="translate(0 3.2)">
      <path id="Path_596472" data-name="Path 596472" d="M7.081,3.2H32.919A7.085,7.085,0,0,1,40,10.281V35.119A7.085,7.085,0,0,1,32.919,42.2H7.081A7.085,7.085,0,0,1,0,35.119V10.281A7.085,7.085,0,0,1,7.081,3.2Z" transform="translate(0 -3.2)" fill="#00005b"/>
      <g id="Group_428757" data-name="Group 428757" transform="translate(3.157 2.986)">
        <g id="Group_1427" transform="translate(9.91 9.347)">
          <path id="Path_1956" d="M90.571,82.1a6.971,6.971,0,1,0,6.971,6.971A6.978,6.978,0,0,0,90.571,82.1Zm3.861,7.44-6.143,3.314c-.406.234-.735.047-.75-.422V85.8c0-.469.328-.657.75-.422l6.143,3.329C94.87,88.931,94.87,89.322,94.432,89.54Z" transform="translate(-83.6 -82.1)" fill="#99f" fill-rule="evenodd"/>
        </g>
        <path id="Path_596473" data-name="Path 596473" d="M40.88,55.172a2.356,2.356,0,0,1-1.125-.281l-18.4-10.27a2.235,2.235,0,0,1-.844-3.095L31.267,23.441a2.364,2.364,0,0,1,3.142-.86l18.4,10.27a2.235,2.235,0,0,1,.844,3.095L42.912,54.031a2.362,2.362,0,0,1-2.032,1.141Zm-7.6-31.184a.684.684,0,0,0-.578.313L21.966,42.386a.57.57,0,0,0-.063.422.562.562,0,0,0,.281.344l18.4,10.254a.712.712,0,0,0,.313.078.684.684,0,0,0,.578-.313L52.213,35.086a.57.57,0,0,0,.063-.422.562.562,0,0,0-.281-.344L33.6,24.066A.712.712,0,0,0,33.283,23.988Z" transform="translate(-20.2 -22.3)" fill="#99f" opacity="0.6"/>
      </g>
    </g>
  </g>
</svg>
