<?xml version='1.0' encoding='utf-8'?>
<svg xmlns="http://www.w3.org/2000/svg" width="64" height="64" viewBox="0 0 64 64" fill="none" class="premiere-pro-64-2025">
<path id="Vector" d="M52.5223 0H11.4777C5.13875 0 0 5.13875 0 11.4777V52.5223C0 58.8613 5.13875 64 11.4777 64H52.5223C58.8613 64 64 58.8613 64 52.5223V11.4777C64 5.13875 58.8613 0 52.5223 0Z" fill="#00005B" />
<path id="Vector_2" d="M24.6804 16.9883C33.0468 16.9883 37.7583 20.9072 37.7583 27.4681C37.7583 35.1298 31.3734 38.2121 25.3849 38.2121H21.3339V46.4903H13.1439V16.9883H24.6804ZM21.3339 23.9895V31.2109H24.9447C27.4546 31.2109 29.2158 30.1981 29.2158 27.6442C29.2158 25.3105 27.7188 23.9895 25.1208 23.9895H21.3339Z" fill="#9999FF" />
<path id="Vector_3" d="M49.1763 23.1089C50.9816 23.1089 52.4346 23.329 53.0951 23.5492V29.5377C52.5668 29.4055 51.554 29.3175 50.7175 29.3175C49.0882 29.3175 48.1635 29.4496 47.3268 29.7578V46.4903H39.621V25.0463C42.3951 23.8134 45.1692 23.1089 49.1763 23.1089Z" fill="#9999FF" />
<defs>
<clipPath id="clip0_2210_5794">
<rect width="64" height="64" fill="white" />
</clipPath>
</defs>
</svg>