<?xml version="1.0" encoding="UTF-8"?><svg width="34" height="32" viewBox="0 0 34 32" fill="none" xmlns="http://www.w3.org/2000/svg">
<g clip-path="url(#clip0_2454_79126)">
<path fill-rule="evenodd" clip-rule="evenodd" d="M17.054 4.51682L20.3118 12.9666L29.6783 13.3933L22.3688 19.0822L24.8163 27.8164L16.999 22.8724L9.14862 27.8644L11.6273 19.0875L4.31779 13.3986L13.6678 12.963L17.054 4.51682ZM17.0741 0.73193C16.9351 0.730232 16.7989 0.770109 16.6841 0.846135C16.5693 0.92216 16.4814 1.03064 16.4325 1.15682L12.3881 11.2457L1.20479 11.7648C1.06542 11.7718 0.93151 11.8195 0.820756 11.9019C0.710001 11.9842 0.627621 12.0972 0.584506 12.2259C0.541392 12.3546 0.539574 12.4929 0.579293 12.6226C0.619013 12.7524 0.698398 12.8673 0.806954 12.9524L9.53729 19.7435L6.58012 30.2217C6.54278 30.3525 6.54751 30.4913 6.59366 30.6194C6.63981 30.7475 6.72519 30.8589 6.8384 30.9387C6.9516 31.0186 7.08723 31.063 7.22716 31.066C7.36708 31.0691 7.50464 31.0307 7.62145 30.9559L16.999 24.9968L26.338 30.9062C26.4545 30.9811 26.5918 31.0197 26.7316 31.0168C26.8714 31.0139 27.0069 30.9696 27.12 30.8899C27.2331 30.8102 27.3183 30.6989 27.3644 30.5709C27.4104 30.4429 27.415 30.3043 27.3775 30.1737L24.4551 19.7435L33.1873 12.9417C33.2961 12.857 33.3758 12.7421 33.4157 12.6124C33.4556 12.4827 33.4538 12.3443 33.4107 12.2156C33.3675 12.0869 33.2849 11.974 33.174 11.8919C33.063 11.8098 32.9289 11.7623 32.7895 11.7559L21.6061 11.2457L17.7176 1.16393C17.67 1.03599 17.5824 0.925625 17.4671 0.848198C17.3517 0.770771 17.2144 0.73013 17.0741 0.73193Z" fill="#222222"/>
</g>
<defs>
<clipPath id="clip0_2454_79126">
<rect width="33" height="32" fill="white" transform="translate(0.5 -0.000488281)"/>
</clipPath>
</defs>
</svg>
