<?xml version='1.0' encoding='utf-8'?>
<svg xmlns="http://www.w3.org/2000/svg" width="42" height="42" viewBox="0 0 42 42" fill="none" class="stock-40-2025">
<path id="Vector" d="M34.4678 0H7.53225C3.3723 0 0 3.3723 0 7.53225V34.4678C0 38.6277 3.3723 42 7.53225 42H34.4678C38.6277 42 42 38.6277 42 34.4678V7.53225C42 3.3723 38.6277 0 34.4678 0Z" fill="#000B1D" />
<path id="Vector_2" d="M22.1269 11.9865L22.098 17.0434C20.9999 16.2054 18.8037 15.2807 16.1163 15.2807C14.5271 15.2807 13.8913 15.8009 13.8913 16.5233C13.8913 17.2457 14.3826 17.5347 16.4921 18.1415C22.0402 19.7597 23.4561 21.6669 23.4561 24.5855C23.4561 28.4287 20.2775 30.7982 15.3072 30.7982C12.3309 30.7982 10.077 30.0758 8.34318 29.0644L8.3721 23.8052C10.1636 25.1923 12.7933 26.2036 15.2783 26.2036C16.8677 26.2036 17.5901 25.7702 17.5901 24.9322C17.5901 24.0942 16.8388 23.6896 14.7872 23.1406C10.8572 22.0425 8.08306 20.6844 8.08306 16.8989C8.08306 13.2291 11.0595 10.6862 16.1163 10.6862C18.457 10.6862 20.7687 11.1196 22.1269 11.9865Z" fill="white" />
<path id="Vector_3" d="M31.1139 15.483H33.888V19.4996H31.1139V24.6432C31.1139 26.0303 31.6919 26.5504 32.6744 26.5504C32.9922 26.5504 33.4546 26.4926 33.888 26.3481L33.9169 30.3359C33.2812 30.567 32.5877 30.7115 31.2874 30.7115C27.9932 30.7115 26.057 29.1511 26.057 25.4523V19.4996H23.8898V15.483H26.057V11.6975H31.1139L31.1139 15.483Z" fill="white" />
<defs>
<clipPath id="clip0_2136_9340">
<rect width="42" height="42" fill="white" />
</clipPath>
</defs>
</svg>