<?xml version='1.0' encoding='utf-8'?>
<svg xmlns="http://www.w3.org/2000/svg" width="64" height="64" viewBox="0 0 64 64" fill="none" class="substance-3d-stager-64-2025">
<path id="Vector" d="M52.5223 0H11.4777C5.13875 0 0 5.13875 0 11.4777V52.5223C0 58.8613 5.13875 64 11.4777 64H52.5223C58.8613 64 64 58.8613 64 52.5223V11.4777C64 5.13875 58.8613 0 52.5223 0Z" fill="#1E3101" />
<path id="Vector_2" d="M29.9633 18.2651L29.9192 25.9709C28.246 24.694 24.8994 23.2849 20.8045 23.2849C18.3826 23.2849 17.4139 24.0775 17.4139 25.1783C17.4139 26.2791 18.1624 26.7195 21.3769 27.6441C29.8312 30.11 31.9888 33.0161 31.9888 37.4635C31.9888 43.3199 27.1452 46.9306 19.5716 46.9306C15.0361 46.9306 11.6015 45.8298 8.95953 44.2886L9.0036 36.2746C11.7337 38.3882 15.7406 39.9293 19.5275 39.9293C21.9492 39.9293 23.0501 39.2689 23.0501 37.9919C23.0501 36.7149 21.9052 36.0985 18.7788 35.2619C12.7903 33.5886 8.56329 31.5191 8.56329 25.7507C8.56329 20.1586 13.0985 16.2836 20.8045 16.2836C24.371 16.2836 27.8937 16.9442 29.9633 18.2651Z" fill="#99E83F" />
<path id="Vector_3" d="M35.8859 52.4788V46.0059C37.7353 46.8865 39.981 47.2828 42.1827 47.2828C44.9128 47.2828 46.6741 46.5343 47.3786 44.6409C46.7621 44.729 46.0136 44.817 45.133 44.817C39.0123 44.817 33.5523 41.6466 33.5523 34.2931C33.5523 26.5874 39.7169 22.9767 46.2337 22.9767C49.9765 22.9767 53.1028 23.5931 55.4367 24.6059V40.3256C55.4367 49.7927 50.1528 53.5796 42.6671 53.5796C39.805 53.5796 37.7353 53.2273 35.8859 52.4788ZM45.7054 38.7404C46.3659 38.7404 47.1144 38.6524 47.7309 38.5203V29.4055C47.2906 29.2734 46.4098 29.0972 45.6172 29.0972C43.4597 29.0972 41.258 30.198 41.258 33.8968C41.258 37.4195 43.4156 38.6964 45.7054 38.7404Z" fill="#99E83F" />
<defs>
<clipPath id="clip0_2210_5922">
<rect width="64" height="64" fill="white" />
</clipPath>
</defs>
</svg>