<?xml version='1.0' encoding='utf-8'?>
<svg xmlns="http://www.w3.org/2000/svg" width="42" height="42" viewBox="0 0 42 42" fill="none" class="substance-3d-sampler-40-2025">
<path id="Vector" d="M34.4678 0H7.53225C3.3723 0 0 3.3723 0 7.53225V34.4678C0 38.6277 3.3723 42 7.53225 42H34.4678C38.6277 42 42 38.6277 42 34.4678V7.53225C42 3.3723 38.6277 0 34.4678 0Z" fill="#1E3101" />
<path id="Vector_2" d="M20.1214 11.9865L20.0925 17.0434C18.9945 16.2054 16.7983 15.2807 14.111 15.2807C12.5216 15.2807 11.8859 15.8009 11.8859 16.5233C11.8859 17.2457 12.3771 17.5347 14.4866 18.1415C20.0348 19.7597 21.4507 21.6669 21.4507 24.5855C21.4507 28.4287 18.272 30.7982 13.3019 30.7982C10.3254 30.7982 8.07152 30.0758 6.33773 29.0644L6.36665 23.8052C8.15828 25.1923 10.7878 26.2036 13.273 26.2036C14.8622 26.2036 15.5846 25.7702 15.5846 24.9322C15.5846 24.0942 14.8333 23.6896 12.7817 23.1406C8.85169 22.0425 6.0777 20.6844 6.0777 16.8989C6.0777 13.2291 9.05396 10.6862 14.111 10.6862C16.4515 10.6862 18.7633 11.1196 20.1214 11.9865Z" fill="#99E83F" />
<path id="Vector_3" d="M35.9224 29.3823C34.0441 30.2492 31.9057 30.7115 29.2183 30.7115C25.4907 30.7115 22.5721 29.1511 22.5721 25.6835C22.5721 22.187 25.5773 20.9156 29.0449 20.9156C29.854 20.9156 30.5187 20.9734 31.0677 21.0601V20.8867C31.0677 19.8753 30.2586 19.1529 28.2358 19.1529C26.8777 19.1529 25.3461 19.4997 23.9013 20.0776L23.8725 16.0321C25.3751 15.4541 27.08 15.0785 29.0449 15.0785C33.4373 15.0785 35.9224 17.0723 35.9224 21.4935L35.9224 29.3823ZM31.0677 24.3543C30.7209 24.2387 30.2586 24.152 29.594 24.152C28.2936 24.152 27.369 24.5277 27.369 25.5679C27.369 26.6082 28.2647 27.0995 29.5362 27.0995C30.172 27.0995 30.6632 27.0128 31.0677 26.8394V24.3543Z" fill="#99E83F" />
<defs>
<clipPath id="clip0_2136_9410">
<rect width="42" height="42" fill="white" />
</clipPath>
</defs>
</svg>