<?xml version='1.0' encoding='utf-8'?>
<svg xmlns="http://www.w3.org/2000/svg" width="64" height="64" viewBox="0 0 64 64" fill="none" class="substance-3d-sampler-64-2025">
<path id="Vector" d="M52.5223 0H11.4777C5.13875 0 0 5.13875 0 11.4777V52.5223C0 58.8613 5.13875 64 11.4777 64H52.5223C58.8613 64 64 58.8613 64 52.5223V11.4777C64 5.13875 58.8613 0 52.5223 0Z" fill="#1E3101" />
<path id="Vector_2" d="M30.6612 18.2651L30.6171 25.9709C28.9439 24.694 25.5974 23.2849 21.5024 23.2849C19.0805 23.2849 18.1118 24.0775 18.1118 25.1783C18.1118 26.2791 18.8603 26.7195 22.0748 27.6441C30.5291 30.11 32.6867 33.0161 32.6867 37.4635C32.6867 43.3199 27.8431 46.9306 20.2695 46.9306C15.734 46.9306 12.2994 45.8298 9.65747 44.2886L9.70154 36.2746C12.4316 38.3882 16.4386 39.9293 20.2254 39.9293C22.6472 39.9293 23.748 39.2689 23.748 37.9919C23.748 36.7149 22.6031 36.0985 19.4768 35.2619C13.4883 33.5886 9.26123 31.5191 9.26123 25.7507C9.26123 20.1586 13.7965 16.2836 21.5024 16.2836C25.0689 16.2836 28.5916 16.9442 30.6612 18.2651Z" fill="#99E83F" />
<path id="Vector_3" d="M54.7388 44.773C51.8766 46.0939 48.6182 46.7985 44.5231 46.7985C38.8428 46.7985 34.3956 44.4207 34.3956 39.1367C34.3956 33.8087 38.9749 31.8713 44.2588 31.8713C45.4917 31.8713 46.5045 31.9594 47.3412 32.0915V31.8273C47.3412 30.2861 46.1083 29.1853 43.0259 29.1853C40.9565 29.1853 38.6226 29.7137 36.4209 30.5943L36.377 24.4297C38.6667 23.5491 41.2647 22.9767 44.2588 22.9767C50.9519 22.9767 54.7388 26.0149 54.7388 32.752L54.7388 44.773ZM47.3412 37.1112C46.8128 36.9351 46.1083 36.803 45.0955 36.803C43.1141 36.803 41.705 37.3755 41.705 38.9606C41.705 40.5457 43.07 41.2944 45.0075 41.2944C45.9762 41.2944 46.7248 41.1622 47.3412 40.8981V37.1112Z" fill="#99E83F" />
<defs>
<clipPath id="clip0_2210_5834">
<rect width="64" height="64" fill="white" />
</clipPath>
</defs>
</svg>