<?xml version='1.0' encoding='utf-8'?>
<svg xmlns="http://www.w3.org/2000/svg" width="42" height="42" viewBox="0 0 42 42" fill="none" class="substance-3d-stager-40-2025">
<path id="Vector" d="M34.4678 0H7.53225C3.3723 0 0 3.3723 0 7.53225V34.4678C0 38.6277 3.3723 42 7.53225 42H34.4678C38.6277 42 42 38.6277 42 34.4678V7.53225C42 3.3723 38.6277 0 34.4678 0Z" fill="#1E3101" />
<path id="Vector_2" d="M19.6634 11.9865L19.6345 17.0434C18.5364 16.2054 16.3402 15.2807 13.6529 15.2807C12.0636 15.2807 11.4278 15.8009 11.4278 16.5233C11.4278 17.2457 11.9191 17.5347 14.0286 18.1415C19.5767 19.7597 20.9926 21.6669 20.9926 24.5855C20.9926 28.4287 17.814 30.7982 12.8438 30.7982C9.86741 30.7982 7.61348 30.0758 5.87969 29.0644L5.90861 23.8052C7.70024 25.1923 10.3298 26.2036 12.8149 26.2036C14.4042 26.2036 15.1266 25.7702 15.1266 24.9322C15.1266 24.0942 14.3753 23.6896 12.3236 23.1406C8.39365 22.0425 5.61966 20.6844 5.61966 16.8989C5.61966 13.2291 8.59592 10.6862 13.6529 10.6862C15.9935 10.6862 18.3052 11.1196 19.6634 11.9865Z" fill="#99E83F" />
<path id="Vector_3" d="M23.5502 34.4392V30.1914C24.7638 30.7693 26.2376 31.0294 27.6824 31.0294C29.474 31.0294 30.6299 30.5382 31.0922 29.2956C30.6877 29.3534 30.1964 29.4112 29.6185 29.4112C25.6018 29.4112 22.0187 27.3306 22.0187 22.5049C22.0187 17.448 26.0642 15.0785 30.3409 15.0785C32.7971 15.0785 34.8487 15.483 36.3803 16.1477V26.4637C36.3803 32.6765 32.9128 35.1616 28.0003 35.1616C26.1221 35.1616 24.7638 34.9304 23.5502 34.4392ZM29.9942 25.4235C30.4276 25.4235 30.9189 25.3657 31.3234 25.279V19.2974C31.0345 19.2107 30.4565 19.0951 29.9363 19.0951C28.5204 19.0951 27.0756 19.8175 27.0756 22.2448C27.0756 24.5566 28.4915 25.3946 29.9942 25.4235Z" fill="#99E83F" />
<defs>
<clipPath id="clip0_2136_9718">
<rect width="42" height="42" fill="white" />
</clipPath>
</defs>
</svg>