<?xml version='1.0' encoding='utf-8'?>
<svg xmlns="http://www.w3.org/2000/svg" width="64" height="64" viewBox="0 0 64 64" fill="none" class="substance-3d-painter-64-2025">
<path id="Vector" d="M52.5223 0H11.4777C5.13875 0 0 5.13875 0 11.4777V52.5223C0 58.8613 5.13875 64 11.4777 64H52.5223C58.8613 64 64 58.8613 64 52.5223V11.4777C64 5.13875 58.8613 0 52.5223 0Z" fill="#1E3101" />
<path id="Vector_2" d="M23.4375 16.9883C31.8037 16.9883 36.5152 20.9072 36.5152 27.4681C36.5152 35.1298 30.1304 38.2121 24.1419 38.2121H20.0909V46.4903H11.9009V16.9883H23.4375ZM20.0909 23.9895V31.2109H23.7016C26.2115 31.2109 27.9727 30.1981 27.9727 27.6442C27.9727 25.3105 26.4757 23.9895 23.8778 23.9895H20.0909Z" fill="#99E83F" />
<path id="Vector_3" d="M48.6641 23.7253H52.8913V29.8459H48.6641V37.6837C48.6641 39.7974 49.5448 40.5899 51.0419 40.5899C51.5263 40.5899 52.2307 40.5018 52.8913 40.2817L52.9353 46.3583C51.9666 46.7105 50.9098 46.9306 48.9284 46.9306C43.9086 46.9306 40.9583 44.5529 40.9583 38.9167V29.8459H37.6559V23.7253H40.9583V17.9569H48.6641V23.7253Z" fill="#99E83F" />
<defs>
<clipPath id="clip0_2210_5774">
<rect width="64" height="64" fill="white" />
</clipPath>
</defs>
</svg>