<?xml version="1.0" encoding="utf-8"?>
<!-- Generator: Adobe Illustrator 28.3.0, SVG Export Plug-In . SVG Version: 6.00 Build 0)  -->
<svg version="1.1" id="b" xmlns="http://www.w3.org/2000/svg" xmlns:xlink="http://www.w3.org/1999/xlink" x="0px" y="0px"
	 width="40px" height="39px" viewBox="0 0 40 39" style="enable-background:new 0 0 40 39;" xml:space="preserve">
<style type="text/css">
	.st0{fill:#1E3101;}
	.st1{fill:#99E83F;}
	.st2{enable-background:new    ;}
	.st3{fill:#FFFFFF;}
</style>
<g>
	<g id="c">
		<g id="d">
			<g id="e">
				<path class="st0" d="M7.08,0h25.83C36.83,0,40,3.17,40,7.08v24.83c0,3.91-3.17,7.08-7.08,7.08H7.08C3.17,39,0,35.83,0,31.92
					V7.08C0,3.17,3.17,0,7.08,0z"/>
			</g>
		</g>
	</g>
	<g id="f">
		<g id="g">
			<g id="h">
				<g>
					<path class="st1" d="M29.67,13.15v-2.26c0-1.03-0.59-1.96-1.51-2.41l-6.99-3.4c-0.74-0.36-1.61-0.36-2.35,0l-6.99,3.4
						c-0.91,0.44-1.49,1.36-1.51,2.37c0,0.01,0,0.03,0,0.04v3.16c0,0.7,0.47,1.31,1.14,1.48l13.71,3.58
						c0.11,0.03,0.13,0.18,0.02,0.23l-4.54,2.15c-0.42,0.2-0.91,0.2-1.33,0l-3.99-1.93c-0.53-0.26-0.87-0.79-0.87-1.38v-0.25h-4.14
						v2.24c0,1.03,0.59,1.97,1.52,2.42l6.99,3.37c0.74,0.36,1.59,0.36,2.33,0l6.99-3.37c0.89-0.43,1.47-1.31,1.51-2.28
						c0-0.04,0-0.09,0-0.13v-3.07c0-0.7-0.47-1.31-1.14-1.48L14.74,12l0.04,0.01c-0.01,0-0.03-0.01-0.04-0.02
						c-0.07-0.05-0.07-0.17,0.01-0.21l4.57-2.24c0.42-0.21,0.92-0.21,1.34,0l3.99,1.94c0.53,0.26,0.86,0.79,0.86,1.38v0.27
						L29.67,13.15L29.67,13.15z"/>
					<g class="st2">
						<path class="st3" d="M10.52,32.24l-0.37,1.33c-0.01,0.04-0.03,0.05-0.07,0.05H9.39c-0.05,0-0.06-0.02-0.05-0.07l1.34-4.52
							c0.03-0.09,0.04-0.16,0.05-0.39c0-0.03,0.01-0.05,0.04-0.05h0.99c0.03,0,0.05,0.01,0.05,0.04l1.5,4.92
							c0.01,0.04,0,0.06-0.04,0.06h-0.78c-0.04,0-0.06-0.02-0.07-0.05l-0.39-1.34L10.52,32.24L10.52,32.24z M11.83,31.47
							c-0.14-0.54-0.44-1.58-0.56-2.13h-0.01c-0.11,0.52-0.35,1.4-0.55,2.13H11.83z"/>
						<path class="st3" d="M13.81,33.45c-0.04-0.02-0.05-0.05-0.05-0.1v-0.74c0-0.03,0.03-0.05,0.06-0.03
							c0.36,0.24,0.76,0.35,1.16,0.35c0.57,0,0.79-0.27,0.79-0.59c0-0.28-0.14-0.51-0.69-0.81l-0.28-0.15
							c-0.8-0.44-1.03-0.9-1.03-1.46c0-0.77,0.54-1.39,1.59-1.39c0.45,0,0.79,0.07,0.99,0.17c0.03,0.01,0.04,0.04,0.04,0.09v0.7
							c0,0.03-0.03,0.05-0.06,0.03c-0.24-0.15-0.6-0.23-0.96-0.23c-0.6,0-0.79,0.3-0.79,0.57c0,0.29,0.15,0.49,0.68,0.77l0.25,0.13
							c0.88,0.47,1.12,0.95,1.12,1.51c0,0.85-0.63,1.42-1.66,1.42C14.52,33.69,14.09,33.61,13.81,33.45L13.81,33.45z"/>
						<path class="st3" d="M17.25,33.45c-0.04-0.02-0.05-0.05-0.05-0.1v-0.74c0-0.03,0.03-0.05,0.06-0.03
							c0.36,0.24,0.76,0.35,1.16,0.35c0.57,0,0.79-0.27,0.79-0.59c0-0.28-0.14-0.51-0.69-0.81l-0.28-0.15
							c-0.8-0.44-1.03-0.9-1.03-1.46c0-0.77,0.54-1.39,1.59-1.39c0.45,0,0.79,0.07,0.99,0.17c0.03,0.01,0.04,0.04,0.04,0.09v0.7
							c0,0.03-0.03,0.05-0.06,0.03c-0.24-0.15-0.6-0.23-0.96-0.23c-0.6,0-0.79,0.3-0.79,0.57c0,0.29,0.15,0.49,0.68,0.77l0.25,0.13
							c0.88,0.47,1.12,0.95,1.12,1.51c0,0.85-0.63,1.42-1.66,1.42C17.96,33.69,17.54,33.61,17.25,33.45L17.25,33.45z"/>
						<path class="st3" d="M23.62,33.56c-0.01,0.04-0.02,0.06-0.07,0.06h-2.66c-0.05,0-0.06-0.02-0.06-0.06v-4.91
							c0-0.04,0.01-0.06,0.06-0.06h2.57c0.05,0,0.06,0.01,0.07,0.05l0.07,0.66c0.01,0.04-0.01,0.06-0.05,0.06h-1.87v1.31h1.69
							c0.04,0,0.06,0.01,0.06,0.06v0.66c0,0.05-0.02,0.06-0.06,0.06h-1.68v1.42h1.99c0.05,0,0.06,0.01,0.05,0.05L23.62,33.56
							L23.62,33.56z"/>
						<path class="st3" d="M25.34,29.36h-1.3c-0.04,0-0.06-0.02-0.05-0.06l0.09-0.65c0.01-0.04,0.02-0.06,0.07-0.06h3.27
							c0.04,0,0.06,0.01,0.07,0.06l0.06,0.64c0.01,0.05-0.02,0.06-0.05,0.06h-1.3v4.2c0,0.04-0.02,0.06-0.06,0.06H25.4
							c-0.05,0-0.06-0.02-0.06-0.06L25.34,29.36L25.34,29.36z"/>
						<path class="st3" d="M27.98,33.45c-0.04-0.02-0.05-0.05-0.05-0.1v-0.74c0-0.03,0.03-0.05,0.06-0.03
							c0.36,0.24,0.76,0.35,1.16,0.35c0.57,0,0.79-0.27,0.79-0.59c0-0.28-0.14-0.51-0.69-0.81l-0.28-0.15
							c-0.8-0.44-1.03-0.9-1.03-1.46c0-0.77,0.54-1.39,1.59-1.39c0.45,0,0.79,0.07,0.99,0.17c0.03,0.01,0.04,0.04,0.04,0.09v0.7
							c0,0.03-0.03,0.05-0.06,0.03c-0.24-0.15-0.6-0.23-0.96-0.23c-0.6,0-0.79,0.3-0.79,0.57c0,0.29,0.15,0.49,0.68,0.77l0.25,0.13
							c0.88,0.47,1.12,0.95,1.12,1.51c0,0.85-0.63,1.42-1.66,1.42C28.68,33.69,28.26,33.61,27.98,33.45L27.98,33.45z"/>
					</g>
				</g>
			</g>
		</g>
	</g>
</g>
</svg>
