<?xml version='1.0' encoding='utf-8'?>
<svg xmlns="http://www.w3.org/2000/svg" width="240" height="240" viewBox="0 0 240 240" fill="none" class="substance-3d-stager-2025">
<path id="Vector" d="M196.959 0H43.0414C19.2703 0 0 19.2703 0 43.0414V196.959C0 220.73 19.2703 240 43.0414 240H196.959C220.73 240 240 220.73 240 196.959V43.0414C240 19.2703 220.73 0 196.959 0Z" fill="#1E3101" />
<path id="Vector_2" d="M112.362 68.4943L112.197 97.3908C105.922 92.6024 93.3729 87.3184 78.0168 87.3184C68.9348 87.3184 65.302 90.2907 65.302 94.4188C65.302 98.5466 68.109 100.198 80.1633 103.666C111.867 112.913 119.958 123.811 119.958 140.488C119.958 162.45 101.794 175.99 73.3934 175.99C56.3852 175.99 43.5056 171.862 33.5983 166.082L33.7635 136.03C44.0014 143.956 59.0274 149.735 73.2282 149.735C82.3097 149.735 86.4378 147.258 86.4378 142.47C86.4378 137.681 82.1444 135.369 70.4207 132.232C47.9637 125.957 32.1124 118.197 32.1124 96.5652C32.1124 75.5947 49.1196 61.0637 78.0168 61.0637C91.3912 61.0637 104.601 63.5406 112.362 68.4943Z" fill="#99E83F" />
<path id="Vector_3" d="M134.572 196.795V172.522C141.507 175.825 149.929 177.311 158.185 177.311C168.423 177.311 175.028 174.504 177.67 167.403C175.358 167.734 172.551 168.064 169.249 168.064C146.296 168.064 125.821 156.175 125.821 128.599C125.821 99.7028 148.938 86.1626 173.376 86.1626C187.412 86.1626 199.136 88.4743 207.888 92.2721V151.221C207.888 186.723 188.073 200.923 160.002 200.923C149.269 200.923 141.507 199.602 134.572 196.795ZM171.395 145.277C173.872 145.277 176.679 144.946 178.991 144.451V110.271C177.34 109.775 174.037 109.115 171.065 109.115C162.974 109.115 154.718 113.243 154.718 127.113C154.718 140.323 162.809 145.112 171.395 145.277Z" fill="#99E83F" />
<defs>
<clipPath id="clip0_2136_9688">
<rect width="240" height="240" fill="white" />
</clipPath>
</defs>
</svg>