<?xml version='1.0' encoding='utf-8'?>
<svg xmlns="http://www.w3.org/2000/svg" id="Layer_2" data-name="Layer 2" width="64" height="64" version="1.1" viewBox="0 0 64 64" class="substance-64-2025">
  <defs>
    <style>
      .cls-1 {
        fill: #99e83f;
      }

      .cls-1, .cls-2 {
        stroke-width: 0px;
      }

      .cls-2 {
        fill: #1e3101;
      }
    </style>
  </defs>
  <path class="cls-2" d="M11.3.8h41.3c6.3,0,11.3,5.1,11.3,11.3v39.7c0,6.3-5.1,11.3-11.3,11.3H11.3C5.1,63.2,0,58.1,0,51.9V12.1C0,5.9,5.1.8,11.3.8" />
  <path class="cls-1" d="M52.4,26.9v-4.8c0-2.2-1.2-4.2-3.2-5.1l-14.8-7.2c-1.6-.8-3.4-.8-5,0l-14.8,7.2c-1.9.9-3.2,2.9-3.2,5,0,0,0,0,0,0v6.7c0,1.5,1,2.8,2.4,3.1l29,7.6c.2,0,.3.4,0,.5l-9.6,4.5c-.9.4-1.9.4-2.8,0l-8.5-4.1c-1.1-.5-1.8-1.7-1.8-2.9v-.5h-8.8v4.7c0,2.2,1.2,4.2,3.2,5.1l14.8,7.1c1.6.8,3.4.8,4.9,0l14.8-7.1c1.9-.9,3.1-2.8,3.2-4.8,0,0,0-.2,0-.3v-6.5c0-1.5-1-2.8-2.4-3.1l-29.2-7.7h0s0,0,0,0c-.2-.1-.2-.4,0-.4l9.7-4.7c.9-.4,1.9-.4,2.8,0l8.5,4.1c1.1.5,1.8,1.7,1.8,2.9v.6h8.8Z" />
</svg>