<?xml version='1.0' encoding='utf-8'?>
<svg xmlns="http://www.w3.org/2000/svg" width="42" height="42" viewBox="0 0 42 42" fill="none" class="substance-3d-designer-40-2025">
<path id="Vector" d="M34.4678 0H7.53225C3.3723 0 0 3.3723 0 7.53225V34.4678C0 38.6277 3.3723 42 7.53225 42H34.4678C38.6277 42 42 38.6277 42 34.4678V7.53225C42 3.3723 38.6277 0 34.4678 0Z" fill="#1E3101" />
<path id="Vector_2" d="M13.5488 11.1485C19.1548 11.1485 23.8071 14.2983 23.8071 20.5688C23.8071 26.5504 19.2703 30.5093 13.4044 30.5093H5.8335V11.1485H13.5488ZM11.2082 25.9147H13.8089C16.2362 25.9147 17.9989 23.9497 17.9989 20.7711C17.9989 17.3035 16.3518 15.7431 13.6356 15.7431H11.2082V25.9147Z" fill="#99E83F" />
<path id="Vector_3" d="M25.2435 29.5557L25.2725 25.0767C26.8041 26.0881 28.9423 26.7238 30.4161 26.7238C31.4274 26.7238 31.8898 26.4348 31.8898 25.9147C31.8898 25.3368 31.2541 25.1056 30.0404 24.7299C27.6998 24.0364 25.128 23.0828 25.128 20.0198C25.128 16.8989 27.6998 15.1652 31.4274 15.1652C33.1902 15.1652 34.6351 15.4252 35.9065 15.9743L35.8775 20.251C34.8662 19.6441 32.8723 19.0951 31.5719 19.0951C30.6183 19.0951 30.2427 19.3841 30.2427 19.8175C30.2427 20.3376 30.7051 20.4821 32.0921 20.9156C34.7795 21.7247 37.0334 22.5916 37.0334 25.7413C37.0334 28.7465 34.5772 30.7693 30.7339 30.7693C28.7112 30.7693 26.8041 30.4226 25.2435 29.5557Z" fill="#99E83F" />
<defs>
<clipPath id="clip0_2136_7352">
<rect width="42" height="42" fill="white" />
</clipPath>
</defs>
</svg>