<?xml version='1.0' encoding='utf-8'?>
<svg xmlns="http://www.w3.org/2000/svg" width="64" height="64" viewBox="0 0 64 64" fill="none" class="substance-3d-modeler-64-2025">
<path id="Vector" d="M52.5223 0H11.4777C5.13875 0 0 5.13875 0 11.4777V52.5223C0 58.8613 5.13875 64 11.4777 64H52.5223C58.8613 64 64 58.8613 64 52.5223V11.4777C64 5.13875 58.8613 0 52.5223 0Z" fill="#1E3101" />
<path id="Vector_2" d="M15.998 16.9883L19.9171 31.0788L24.1441 16.9883H33.3471L35.1965 46.4903H27.3145L26.9183 35.2619C26.8303 32.4438 26.7421 29.6257 26.654 26.7636L22.2068 44.2006H16.9228L13.0039 27.6442C12.8717 30.1981 12.7837 32.7521 12.6957 35.2619L12.1672 46.4903H4.76965L6.70715 16.9883H15.998Z" fill="#99E83F" />
<path id="Vector_3" d="M37.0819 35.1298C37.0819 27.1159 43.0703 23.1088 49.279 23.1088C50.1156 23.1088 50.9962 23.1969 51.5246 23.2849V16.0636H59.2304V44.9932C57.3811 45.9179 53.7263 46.8866 49.7633 46.8866C42.9823 46.8866 37.0819 43.0558 37.0819 35.1298ZM51.5246 40.4578V29.6697C50.9962 29.4936 50.3356 29.3615 49.455 29.3615C47.0333 29.3615 44.7876 30.7706 44.7876 34.9977C44.7876 38.8726 46.8131 40.6339 49.4991 40.6339C50.1156 40.6339 50.9522 40.5899 51.5246 40.4578Z" fill="#99E83F" />
<defs>
<clipPath id="clip0_2210_5552">
<rect width="64" height="64" fill="white" />
</clipPath>
</defs>
</svg>