<?xml version='1.0' encoding='utf-8'?>
<svg xmlns="http://www.w3.org/2000/svg" width="240" height="240" viewBox="0 0 240 240" fill="none" class="substance-3d-painter-2025">
<path id="Vector" d="M196.959 0H43.0414C19.2703 0 0 19.2703 0 43.0414V196.959C0 220.73 19.2703 240 43.0414 240H196.959C220.73 240 240 220.73 240 196.959V43.0414C240 19.2703 220.73 0 196.959 0Z" fill="#1E3101" />
<path id="Vector_2" d="M87.8906 63.7059C119.264 63.7059 136.932 78.4019 136.932 103.005C136.932 131.737 112.989 143.296 90.5324 143.296H75.3411V174.339H44.6284V63.7059H87.8906ZM75.3411 89.9604V117.041H88.8812C98.2933 117.041 104.898 113.243 104.898 103.666C104.898 94.9144 99.2839 89.9604 89.5418 89.9604H75.3411Z" fill="#99E83F" />
<path id="Vector_3" d="M182.491 88.9699H198.342V111.922H182.491V141.314C182.491 149.24 185.793 152.212 191.407 152.212C193.224 152.212 195.865 151.882 198.342 151.056L198.508 173.843C194.875 175.164 190.912 175.99 183.482 175.99C164.657 175.99 153.594 167.073 153.594 145.938V111.922H141.21V88.9699H153.594V67.3385H182.491V88.9699Z" fill="#99E83F" />
<defs>
<clipPath id="clip0_2136_9170">
<rect width="240" height="240" fill="white" />
</clipPath>
</defs>
</svg>