<?xml version='1.0' encoding='utf-8'?>
<svg xmlns="http://www.w3.org/2000/svg" width="42" height="40" viewBox="0 0 42 40" fill="none" class="substance-40-2025">
<g clip-path="url(#clip0_1460_6795)">
<path d="M34.3381 0H7.54377C3.48803 0 0.200195 3.28783 0.200195 7.34358V32.6564C0.200195 36.7122 3.48803 40 7.54377 40H34.3381C38.3938 40 41.6817 36.7122 41.6817 32.6564V7.34358C41.6817 3.28783 38.3938 0 34.3381 0Z" fill="#1E3101" />
<path d="M33.6387 16.8828V13.9198C33.6387 12.5714 32.8693 11.3413 31.6569 10.7513L22.4829 6.28689C21.5095 5.81322 20.3724 5.81322 19.3991 6.28689L10.225 10.7513C9.02957 11.333 8.26533 12.5372 8.24416 13.8634C8.24388 13.8822 8.24317 13.9009 8.24317 13.9198V18.075C8.24317 18.9907 8.8607 19.7913 9.74639 20.0238L27.7457 24.7216C27.8932 24.7582 27.9122 24.9601 27.7742 25.0235L21.8163 27.8445C21.2632 28.1113 20.6187 28.1113 20.0656 27.8445L14.82 25.3142C14.1233 24.9782 13.6805 24.273 13.6805 23.4995V23.1762H8.24316V26.12C8.24316 27.4728 9.01759 28.7061 10.236 29.2939L19.41 33.719C20.3773 34.1856 21.5046 34.1856 22.4719 33.719L31.6459 29.2939C32.8115 28.7316 33.5703 27.5784 33.6339 26.2951C33.6368 26.237 33.6387 26.1787 33.6387 26.12V22.0845C33.6387 21.1688 33.0212 20.3682 32.1355 20.1357L14.0343 15.3835L14.0903 15.3963C14.0717 15.3914 14.0554 15.3839 14.0411 15.3743C13.9442 15.3102 13.944 15.1544 14.0598 15.097L20.0593 12.1592C20.6159 11.8883 21.266 11.8883 21.8226 12.1592L27.0682 14.7118C27.7614 15.0492 28.2014 15.7526 28.2014 16.5235V16.8828L33.6387 16.8828Z" fill="#99E83F" />
</g>
<defs>
<clipPath id="clip0_1460_6795">
<rect width="41.4815" height="40" fill="white" transform="translate(0.200195)" />
</clipPath>
</defs>
</svg>