<?xml version='1.0' encoding='utf-8'?>
<svg xmlns="http://www.w3.org/2000/svg" width="64" height="64" viewBox="0 0 64 64" fill="none" class="substance-3d-designer-64-2025">
<path id="Vector" d="M52.5223 0H11.4777C5.13875 0 0 5.13875 0 11.4777V52.5223C0 58.8613 5.13875 64 11.4777 64H52.5223C58.8613 64 64 58.8613 64 52.5223V11.4777C64 5.13875 58.8613 0 52.5223 0Z" fill="#1E3101" />
<path id="Vector_2" d="M20.6458 16.9883C29.1883 16.9883 36.2775 21.7879 36.2775 31.343C36.2775 40.4578 29.3643 46.4903 20.4258 46.4903H8.88916V16.9883H20.6458ZM17.0792 39.4891H21.0422C24.7409 39.4891 27.427 36.4949 27.427 31.6512C27.427 26.3673 24.9171 23.9895 20.778 23.9895H17.0792V39.4891Z" fill="#99E83F" />
<path id="Vector_3" d="M38.4663 45.0373L38.5104 38.2122C40.8443 39.7533 44.1026 40.722 46.3483 40.722C47.8894 40.722 48.594 40.2817 48.594 39.4891C48.594 38.6085 47.6253 38.2562 45.7759 37.6837C42.2093 36.627 38.2903 35.1739 38.2903 30.5064C38.2903 25.7508 42.2093 23.1089 47.8894 23.1089C50.5756 23.1089 52.7772 23.5052 54.7146 24.3418L54.6705 30.8587C53.1294 29.934 50.0911 29.0973 48.1096 29.0973C46.6565 29.0973 46.0841 29.5377 46.0841 30.1981C46.0841 30.9907 46.7887 31.2109 48.9022 31.8714C52.9973 33.1043 56.4319 34.4253 56.4319 39.2249C56.4319 43.8043 52.6891 46.8866 46.8327 46.8866C43.7504 46.8866 40.8443 46.3583 38.4663 45.0373Z" fill="#99E83F" />
<defs>
<clipPath id="clip0_2210_5246">
<rect width="64" height="64" fill="white" />
</clipPath>
</defs>
</svg>