<?xml version='1.0' encoding='utf-8'?>
<svg xmlns="http://www.w3.org/2000/svg" width="42" height="42" viewBox="0 0 42 42" fill="none" class="substance-3d-modeler-40-2025">
<path id="Vector" d="M34.4678 0H7.53225C3.3723 0 0 3.3723 0 7.53225V34.4678C0 38.6277 3.3723 42 7.53225 42H34.4678C38.6277 42 42 38.6277 42 34.4678V7.53225C42 3.3723 38.6277 0 34.4678 0Z" fill="#1E3101" />
<path id="Vector_2" d="M10.4987 11.1485L13.0706 20.3955L15.8446 11.1485H21.884L23.0977 30.5093H17.9251L17.6651 23.1406C17.6074 21.2912 17.5495 19.4418 17.4917 17.5636L14.5732 29.0066H11.1056L8.53379 18.1415C8.44702 19.8175 8.38927 21.4935 8.33151 23.1406L7.98472 30.5093H3.13007L4.40155 11.1485H10.4987Z" fill="#99E83F" />
<path id="Vector_3" d="M24.335 23.0539C24.335 17.7948 28.2648 15.1652 32.3393 15.1652C32.8883 15.1652 33.4662 15.223 33.813 15.2807V10.5417H38.8699V29.5268C37.6563 30.1336 35.2578 30.7693 32.6571 30.7693C28.2071 30.7693 24.335 28.2553 24.335 23.0539ZM33.813 26.5504V19.4708C33.4662 19.3552 33.0327 19.2685 32.4548 19.2685C30.8656 19.2685 29.3918 20.1932 29.3918 22.9673C29.3918 25.5101 30.721 26.666 32.4837 26.666C32.8883 26.666 33.4374 26.6371 33.813 26.5504Z" fill="#99E83F" />
<defs>
<clipPath id="clip0_2136_8423">
<rect width="42" height="42" fill="white" />
</clipPath>
</defs>
</svg>