<?xml version="1.0" encoding="utf-8"?>
<!-- Generator: Adobe Illustrator 28.3.0, SVG Export Plug-In . SVG Version: 6.00 Build 0)  -->
<svg version="1.1" id="b" xmlns="http://www.w3.org/2000/svg" xmlns:xlink="http://www.w3.org/1999/xlink" x="0px" y="0px"
	 width="64px" height="62.4px" viewBox="0 0 64 62.4" style="enable-background:new 0 0 64 62.4;" xml:space="preserve">
<style type="text/css">
	.st0{fill:#1E3101;}
	.st1{fill:#99E83F;}
	.st2{enable-background:new    ;}
	.st3{fill:#FFFFFF;}
</style>
<g>
	<g id="c">
		<g id="d">
			<g id="e">
				<path class="st0" d="M11.33,0h41.33C58.93,0,64,5.07,64,11.33v39.73c0,6.26-5.07,11.33-11.33,11.33H11.33
					C5.07,62.4,0,57.33,0,51.07V11.33C0,5.07,5.07,0,11.33,0z"/>
			</g>
		</g>
	</g>
	<g id="f">
		<g id="g">
			<g id="h">
				<g>
					<path class="st1" d="M47.47,21.03v-3.61c0-1.64-0.94-3.14-2.41-3.86L33.87,8.13c-1.19-0.58-2.57-0.58-3.76,0l-11.18,5.44
						c-1.46,0.71-2.39,2.18-2.41,3.79c0,0.02,0,0.05,0,0.07v5.06c0,1.12,0.75,2.09,1.83,2.37l21.93,5.72
						c0.18,0.04,0.2,0.29,0.03,0.37l-7.26,3.44c-0.67,0.33-1.46,0.33-2.13,0l-6.39-3.08c-0.85-0.41-1.39-1.27-1.39-2.21V28.7h-6.62
						v3.59c0,1.65,0.94,3.15,2.43,3.87l11.18,5.39c1.18,0.57,2.55,0.57,3.73,0l11.18-5.39c1.42-0.69,2.34-2.09,2.42-3.65
						c0-0.07,0.01-0.14,0.01-0.21v-4.92c0-1.12-0.75-2.09-1.83-2.37l-22.05-5.79l0.07,0.02c-0.02-0.01-0.04-0.02-0.06-0.03
						c-0.12-0.08-0.12-0.27,0.02-0.34l7.31-3.58c0.68-0.33,1.47-0.33,2.15,0l6.39,3.11c0.84,0.41,1.38,1.27,1.38,2.21v0.44
						L47.47,21.03L47.47,21.03z"/>
					<g class="st2">
						<path class="st3" d="M16.83,51.58l-0.59,2.13c-0.02,0.07-0.05,0.09-0.11,0.09h-1.11c-0.07,0-0.1-0.03-0.08-0.11l2.14-7.23
							c0.04-0.14,0.07-0.26,0.08-0.63c0-0.05,0.02-0.07,0.07-0.07h1.58c0.05,0,0.08,0.02,0.09,0.07l2.4,7.88
							c0.02,0.07,0,0.1-0.07,0.1h-1.25c-0.06,0-0.09-0.03-0.11-0.08l-0.62-2.14L16.83,51.58L16.83,51.58z M18.93,50.35
							c-0.22-0.86-0.71-2.52-0.9-3.4h-0.01c-0.17,0.84-0.56,2.25-0.87,3.4H18.93z"/>
						<path class="st3" d="M22.1,53.52c-0.06-0.04-0.08-0.08-0.08-0.16v-1.19c0-0.05,0.04-0.08,0.09-0.05
							c0.57,0.38,1.22,0.56,1.85,0.56c0.91,0,1.27-0.43,1.27-0.95c0-0.45-0.23-0.81-1.1-1.3l-0.45-0.23
							c-1.29-0.7-1.65-1.44-1.65-2.34c0-1.24,0.87-2.23,2.55-2.23c0.73,0,1.26,0.11,1.58,0.28c0.05,0.02,0.07,0.07,0.07,0.14v1.12
							c0,0.05-0.04,0.09-0.1,0.05c-0.38-0.24-0.95-0.36-1.54-0.36c-0.96,0-1.26,0.49-1.26,0.91c0,0.46,0.23,0.78,1.09,1.23l0.4,0.21
							c1.42,0.76,1.79,1.51,1.79,2.42c0,1.35-1.02,2.28-2.66,2.28C23.23,53.91,22.55,53.77,22.1,53.52L22.1,53.52z"/>
						<path class="st3" d="M27.61,53.52c-0.06-0.04-0.08-0.08-0.08-0.16v-1.19c0-0.05,0.04-0.08,0.09-0.05
							c0.57,0.38,1.22,0.56,1.85,0.56c0.91,0,1.27-0.43,1.27-0.95c0-0.45-0.23-0.81-1.1-1.3L29.2,50.2
							c-1.29-0.7-1.65-1.44-1.65-2.34c0-1.24,0.87-2.23,2.55-2.23c0.73,0,1.26,0.11,1.58,0.28c0.05,0.02,0.07,0.07,0.07,0.14v1.12
							c0,0.05-0.04,0.09-0.1,0.05c-0.38-0.24-0.95-0.36-1.54-0.36c-0.96,0-1.26,0.49-1.26,0.91c0,0.46,0.23,0.78,1.09,1.23l0.4,0.21
							c1.42,0.76,1.79,1.51,1.79,2.42c0,1.35-1.02,2.28-2.66,2.28C28.74,53.91,28.06,53.77,27.61,53.52L27.61,53.52z"/>
						<path class="st3" d="M37.79,53.7c-0.01,0.07-0.04,0.1-0.12,0.1h-4.25c-0.07,0-0.1-0.03-0.1-0.1v-7.86
							c0-0.07,0.02-0.09,0.09-0.09h4.11c0.07,0,0.1,0.02,0.11,0.08l0.12,1.05c0.01,0.06-0.01,0.1-0.08,0.1h-2.99v2.09h2.7
							c0.06,0,0.09,0.02,0.09,0.09v1.05c0,0.07-0.03,0.09-0.09,0.09h-2.69v2.27h3.19c0.07,0,0.09,0.02,0.08,0.09L37.79,53.7
							L37.79,53.7z"/>
						<path class="st3" d="M40.54,46.98h-2.08c-0.07,0-0.09-0.03-0.08-0.1l0.15-1.04c0.01-0.06,0.03-0.09,0.11-0.09h5.23
							c0.07,0,0.1,0.02,0.11,0.1l0.09,1.03c0.01,0.08-0.02,0.1-0.09,0.1H41.9v6.71c0,0.07-0.03,0.1-0.1,0.1h-1.16
							c-0.08,0-0.1-0.03-0.1-0.1L40.54,46.98L40.54,46.98z"/>
						<path class="st3" d="M44.76,53.52c-0.06-0.04-0.08-0.08-0.08-0.16v-1.19c0-0.05,0.04-0.08,0.09-0.05
							c0.57,0.38,1.22,0.56,1.85,0.56c0.91,0,1.27-0.43,1.27-0.95c0-0.45-0.23-0.81-1.1-1.3l-0.45-0.23
							c-1.29-0.7-1.65-1.44-1.65-2.34c0-1.24,0.87-2.23,2.55-2.23c0.73,0,1.26,0.11,1.58,0.28c0.05,0.02,0.07,0.07,0.07,0.14v1.12
							c0,0.05-0.04,0.09-0.1,0.05c-0.38-0.24-0.95-0.36-1.54-0.36c-0.96,0-1.26,0.49-1.26,0.91c0,0.46,0.23,0.78,1.09,1.23l0.4,0.21
							c1.42,0.76,1.79,1.51,1.79,2.42c0,1.35-1.02,2.28-2.66,2.28C45.89,53.91,45.21,53.77,44.76,53.52L44.76,53.52z"/>
					</g>
				</g>
			</g>
		</g>
	</g>
</g>
</svg>
