<?xml version="1.0" encoding="utf-8"?>
<!-- Generator: Adobe Illustrator 28.3.0, SVG Export Plug-In . SVG Version: 6.00 Build 0)  -->
<svg version="1.1" id="b" xmlns="http://www.w3.org/2000/svg" xmlns:xlink="http://www.w3.org/1999/xlink" x="0px" y="0px"
	 viewBox="0 0 240 234" style="enable-background:new 0 0 240 234;" xml:space="preserve">
<style type="text/css">
	.st0{fill:#1E3101;}
	.st1{fill:#99E83F;}
	.st2{enable-background:new    ;}
	.st3{fill:#FFFFFF;}
</style>
<g id="c">
	<g id="d">
		<g id="e">
			<path class="st0" d="M42.5,0h155C220.97,0,240,19.03,240,42.5v149c0,23.47-19.03,42.5-42.5,42.5h-155C19.03,234,0,214.97,0,191.5
				v-149C0,19.03,19.03,0,42.5,0z"/>
		</g>
	</g>
</g>
<g id="f">
	<g id="g">
		<g id="h">
			<g>
				<path class="st1" d="M177.99,78.88V65.34c0-6.16-3.52-11.78-9.05-14.48l-41.91-20.4c-4.45-2.16-9.64-2.16-14.09,0l-41.91,20.4
					c-5.46,2.66-8.95,8.16-9.05,14.22c0,0.09,0,0.17,0,0.26v18.98c0,4.18,2.82,7.84,6.87,8.9l82.23,21.46
					c0.67,0.17,0.76,1.09,0.13,1.38l-27.22,12.89c-2.53,1.22-5.47,1.22-8,0L92.02,117.4c-3.18-1.54-5.21-4.76-5.21-8.29v-1.48H61.97
					v13.45c0,6.18,3.54,11.82,9.1,14.5l41.91,20.22c4.42,2.13,9.57,2.13,13.99,0l41.91-20.22c5.33-2.57,8.79-7.84,9.08-13.7
					c0.01-0.27,0.02-0.53,0.02-0.8v-18.44c0-4.18-2.82-7.84-6.87-8.9l-82.7-21.71l0.26,0.06c-0.08-0.02-0.16-0.06-0.22-0.1
					c-0.44-0.29-0.44-1,0.09-1.27l27.41-13.42c2.54-1.24,5.51-1.24,8.06,0l23.97,11.66c3.17,1.54,5.18,4.75,5.18,8.28v1.64
					L177.99,78.88L177.99,78.88z"/>
				<g class="st2">
					<path class="st3" d="M63.11,193.42l-2.23,7.99c-0.06,0.25-0.18,0.32-0.42,0.32h-4.15c-0.28,0-0.37-0.11-0.31-0.43l8.02-27.12
						c0.16-0.54,0.24-0.97,0.29-2.35c0-0.18,0.08-0.28,0.25-0.28h5.91c0.21,0,0.28,0.07,0.33,0.27l9.01,29.54
						c0.06,0.25,0,0.37-0.25,0.37H74.9c-0.22,0-0.35-0.11-0.4-0.29l-2.32-8.03L63.11,193.42L63.11,193.42z M71,188.8
						c-0.82-3.21-2.66-9.45-3.37-12.76h-0.05c-0.64,3.15-2.1,8.42-3.28,12.76H71z"/>
					<path class="st3" d="M82.86,200.7c-0.23-0.14-0.28-0.3-0.28-0.62v-4.45c0-0.19,0.15-0.29,0.34-0.18
						c2.13,1.41,4.57,2.09,6.95,2.09c3.41,0,4.77-1.61,4.77-3.56c0-1.71-0.86-3.05-4.12-4.88l-1.69-0.87
						c-4.83-2.62-6.19-5.38-6.19-8.76c0-4.65,3.27-8.36,9.57-8.36c2.72,0,4.73,0.4,5.93,1.04c0.21,0.08,0.25,0.24,0.25,0.52v4.19
						c0,0.2-0.15,0.32-0.36,0.19c-1.44-0.9-3.57-1.35-5.76-1.35c-3.59,0-4.72,1.82-4.72,3.43c0,1.72,0.88,2.92,4.07,4.63l1.5,0.78
						c5.31,2.84,6.7,5.68,6.7,9.06c0,5.08-3.81,8.55-9.98,8.55C87.11,202.15,84.55,201.64,82.86,200.7L82.86,200.7z"/>
					<path class="st3" d="M103.52,200.7c-0.23-0.14-0.28-0.3-0.28-0.62v-4.45c0-0.19,0.15-0.29,0.34-0.18
						c2.13,1.41,4.57,2.09,6.95,2.09c3.41,0,4.77-1.61,4.77-3.56c0-1.71-0.86-3.05-4.12-4.88l-1.69-0.87
						c-4.83-2.62-6.19-5.38-6.19-8.76c0-4.65,3.27-8.36,9.57-8.36c2.72,0,4.73,0.4,5.93,1.04c0.21,0.08,0.25,0.24,0.25,0.52v4.19
						c0,0.2-0.15,0.32-0.36,0.19c-1.44-0.9-3.57-1.35-5.76-1.35c-3.59,0-4.72,1.82-4.72,3.43c0,1.72,0.88,2.92,4.07,4.63l1.5,0.78
						c5.31,2.84,6.7,5.68,6.7,9.06c0,5.08-3.81,8.55-9.98,8.55C107.77,202.15,105.21,201.64,103.52,200.7L103.52,200.7z"/>
					<path class="st3" d="M141.73,201.37c-0.05,0.25-0.15,0.36-0.44,0.36h-15.94c-0.28,0-0.37-0.1-0.37-0.37v-29.46
						c0-0.27,0.06-0.36,0.34-0.36h15.42c0.27,0,0.36,0.06,0.4,0.3l0.44,3.95c0.04,0.23-0.04,0.37-0.31,0.37h-11.21V184h10.11
						c0.23,0,0.33,0.08,0.33,0.33v3.95c0,0.27-0.12,0.34-0.35,0.34h-10.09v8.5h11.96c0.28,0,0.35,0.07,0.3,0.33L141.73,201.37
						L141.73,201.37z"/>
					<path class="st3" d="M152.01,176.17h-7.82c-0.27,0-0.33-0.1-0.28-0.38l0.55-3.9c0.05-0.24,0.13-0.35,0.39-0.35h19.6
						c0.27,0,0.37,0.07,0.41,0.36l0.35,3.87c0.05,0.31-0.09,0.39-0.32,0.39h-7.78v25.18c0,0.27-0.11,0.39-0.37,0.39h-4.35
						c-0.29,0.02-0.38-0.1-0.38-0.37L152.01,176.17L152.01,176.17z"/>
					<path class="st3" d="M167.86,200.7c-0.23-0.14-0.28-0.3-0.28-0.62v-4.45c0-0.19,0.15-0.29,0.34-0.18
						c2.13,1.41,4.57,2.09,6.95,2.09c3.41,0,4.77-1.61,4.77-3.56c0-1.71-0.86-3.05-4.12-4.88l-1.69-0.87
						c-4.83-2.62-6.19-5.38-6.19-8.76c0-4.65,3.27-8.36,9.57-8.36c2.72,0,4.73,0.4,5.93,1.04c0.21,0.08,0.25,0.24,0.25,0.52v4.19
						c0,0.2-0.15,0.32-0.36,0.19c-1.44-0.9-3.57-1.35-5.76-1.35c-3.59,0-4.72,1.82-4.72,3.43c0,1.72,0.88,2.92,4.07,4.63l1.5,0.78
						c5.31,2.84,6.7,5.68,6.7,9.06c0,5.08-3.81,8.55-9.98,8.55C172.11,202.15,169.54,201.64,167.86,200.7L167.86,200.7z"/>
				</g>
			</g>
		</g>
	</g>
</g>
</svg>
