<?xml version='1.0' encoding='utf-8'?>
<svg xmlns="http://www.w3.org/2000/svg" width="42" height="42" viewBox="0 0 42 42" fill="none" class="substance-3d-painter-40-2025">
<path id="Vector" d="M34.4678 0H7.53225C3.3723 0 0 3.3723 0 7.53225V34.4678C0 38.6277 3.3723 42 7.53225 42H34.4678C38.6277 42 42 38.6277 42 34.4678V7.53225C42 3.3723 38.6277 0 34.4678 0Z" fill="#1E3101" />
<path id="Vector_2" d="M15.3809 11.1485C20.8712 11.1485 23.9631 13.7203 23.9631 18.0259C23.9631 23.0539 19.7732 25.0767 15.8432 25.0767H13.1847V30.5093H7.81V11.1485H15.3809ZM13.1847 15.7431V20.4821H15.5542C17.2013 20.4821 18.3571 19.8175 18.3571 18.1415C18.3571 16.61 17.3747 15.7431 15.6698 15.7431H13.1847Z" fill="#99E83F" />
<path id="Vector_3" d="M31.9359 15.5697H34.71V19.5864H31.9359V24.7299C31.9359 26.117 32.5139 26.6371 33.4963 26.6371C33.8142 26.6371 34.2765 26.5793 34.71 26.4348L34.7389 30.4226C34.1031 30.6538 33.4096 30.7982 32.1093 30.7982C28.8151 30.7982 26.879 29.2378 26.879 25.5391V19.5864H24.7118V15.5697H26.879V11.7842H31.9359V15.5697Z" fill="#99E83F" />
<defs>
<clipPath id="clip0_2136_9200">
<rect width="42" height="42" fill="white" />
</clipPath>
</defs>
</svg>