<?xml version="1.0" encoding="UTF-8"?><svg width="34" height="33" viewBox="0 0 34 33" fill="none" xmlns="http://www.w3.org/2000/svg">
<path fill-rule="evenodd" clip-rule="evenodd" d="M28.9178 23.0773H28.9004L25.8433 18.2079C26.2776 17.7519 26.5651 17.1829 26.6708 16.5707C26.7764 15.9585 26.6955 15.3297 26.438 14.7614C26.1805 14.1931 25.7576 13.7101 25.2211 13.3714C24.6846 13.0328 24.0579 12.8533 23.4178 12.855C23.1274 12.8587 22.8388 12.9003 22.5598 12.9786L19.4267 7.98749C19.8615 7.53037 20.1496 6.96027 20.2557 6.34691C20.3618 5.73354 20.2812 5.1035 20.0239 4.53382C19.7666 3.96414 19.3437 3.47951 18.8068 3.13921C18.27 2.79891 17.6425 2.61768 17.0012 2.61768C16.3598 2.61768 15.7323 2.79891 15.1955 3.13921C14.6587 3.47951 14.2357 3.96414 13.9784 4.53382C13.7211 5.1035 13.6405 5.73354 13.7466 6.34691C13.8527 6.96027 14.1408 7.53037 14.5757 7.98749L11.4425 12.9786C11.1635 12.9003 10.8749 12.8587 10.5845 12.855C9.94402 12.853 9.31688 13.0324 8.78004 13.3711C8.2432 13.7098 7.82002 14.1931 7.56245 14.7617C7.30488 15.3304 7.22413 15.9596 7.3301 16.5721C7.43606 17.1846 7.72415 17.7537 8.15899 18.2097L5.1019 23.0773H5.08449C4.47068 23.0746 3.86827 23.2379 3.34495 23.549C2.82163 23.86 2.39815 24.3065 2.1221 24.8381C1.84605 25.3697 1.72837 25.9654 1.78229 26.5583C1.83621 27.1512 2.05959 27.7178 2.42733 28.1944C2.79507 28.6709 3.29258 29.0386 3.86396 29.2561C4.43535 29.4735 5.05794 29.5321 5.66179 29.4253C6.26563 29.3185 6.82678 29.0504 7.28217 28.6514C7.73756 28.2523 8.06914 27.7379 8.23965 27.1662H13.846C14.0409 27.8319 14.4544 28.4179 15.0238 28.8351C15.5932 29.2523 16.2875 29.4781 17.0012 29.4781C17.7148 29.4781 18.4091 29.2523 18.9785 28.8351C19.5479 28.4179 19.9614 27.8319 20.1563 27.1662H25.7627C25.9341 27.7357 26.2659 28.2477 26.7206 28.6447C27.1754 29.0417 27.7352 29.308 28.3373 29.4137C28.9394 29.5194 29.56 29.4604 30.1294 29.2433C30.6989 29.0262 31.1947 28.6595 31.5613 28.1845C31.9279 27.7094 32.1508 27.1447 32.2049 26.5537C32.259 25.9626 32.1423 25.3687 31.8678 24.8384C31.5934 24.3081 31.172 23.8624 30.6509 23.5513C30.1298 23.2403 29.5297 23.0761 28.9178 23.0773ZM25.7627 25.3884H20.1563C19.9745 24.7805 19.61 24.239 19.1095 23.8328L22.2546 19.0399C22.6256 19.1796 23.0198 19.2525 23.4178 19.255C23.7082 19.2514 23.9968 19.2098 24.2758 19.1315L27.09 23.615C26.4457 24.0359 25.9756 24.664 25.7627 25.3884ZM17.0012 9.03282C17.2919 9.0291 17.5808 8.98755 17.8601 8.90927L20.9923 13.9004C20.761 14.1442 20.5699 14.4213 20.4258 14.7217H13.5765C13.4326 14.4211 13.2415 14.1441 13.01 13.9004L16.1422 8.90927C16.4215 8.98755 16.7104 9.0291 17.0012 9.03282ZM13.8387 16.4995H20.1637C20.2393 17.0316 20.4531 17.5363 20.7852 17.9662L17.4054 23.1164C17.2716 23.0952 17.1366 23.0821 17.0012 23.0773C16.8657 23.0821 16.7307 23.0952 16.5969 23.1164L13.2172 17.9662C13.5492 17.5363 13.763 17.0316 13.8387 16.4995ZM9.72649 19.1315C10.0055 19.2098 10.2941 19.2514 10.5845 19.255C10.9828 19.2526 11.3773 19.1797 11.7487 19.0399L14.8928 23.8328C14.3923 24.239 14.0278 24.7805 13.846 25.3884H8.23965C8.02768 24.6623 7.55745 24.0325 6.91232 23.6106L9.72649 19.1315Z" fill="#222222"/>
</svg>
