<?xml version="1.0" encoding="UTF-8"?><svg width="24" height="24" viewBox="0 0 24 24" fill="none" xmlns="http://www.w3.org/2000/svg">
<g clip-path="url(#clip0_5913_3202)">
<path d="M13.8659 13.6029C13.6484 13.9792 13.2096 14.168 12.789 14.0807L12.095 13.931L11.569 14.4075C11.3802 14.5781 11.1393 14.6667 10.8971 14.6667C10.7252 14.6667 10.5534 14.6224 10.3971 14.5325C10.0208 14.3164 9.82809 13.8802 9.91923 13.4557L10.069 12.7617L9.59241 12.2357C9.30074 11.9141 9.24995 11.4401 9.46741 11.0638C9.68486 10.6862 10.1237 10.5039 10.5442 10.5859L11.2382 10.7357L11.7643 10.2591C12.0872 9.96743 12.5586 9.91664 12.9362 10.1341C13.3125 10.3502 13.5052 10.7864 13.414 11.2109L13.2643 11.9049L13.7409 12.431C14.0325 12.7526 14.0833 13.2265 13.8659 13.6029Z" fill="#5258E4"/>
<path d="M23.735 6.53095L21.6855 4.27054L22.3307 1.28486C22.4284 0.827831 22.222 0.364285 21.8171 0.131218C21.4414 -0.0875288 20.8802 -0.0263288 20.5586 0.265338L18.2975 2.31482L15.3203 1.67159C14.8665 1.57914 14.3971 1.77315 14.1601 2.1794C13.9407 2.55571 13.9993 3.11951 14.2923 3.44243L16.3418 5.70284L15.6966 8.68852C15.5989 9.14555 15.8053 9.6091 16.2103 9.84216C16.3626 9.93071 16.5455 9.97238 16.7305 9.97238C17.0013 9.97238 17.2773 9.88123 17.4687 9.70806L19.7298 7.65858L22.707 8.3018C23.1634 8.40076 23.6308 8.20024 23.8672 7.79399C24.0866 7.41768 24.028 6.85387 23.735 6.53095ZM19.6927 5.60387C19.3756 5.53226 18.9785 5.63903 18.7383 5.85778L18.2611 6.29007L18.3971 5.66247C18.4655 5.34607 18.3607 4.95154 18.1432 4.71195L17.7096 4.23408L18.3346 4.3695C18.6517 4.4372 19.0488 4.33304 19.289 4.11559L19.7663 3.6833L19.6315 4.30699C19.5605 4.6247 19.666 5.02054 19.8841 5.26142L20.3177 5.73928L19.6927 5.60387Z" fill="#5258E4"/>
<path d="M20.2982 9.84375L19.0126 11.0091L19.0195 16.7227C19.0221 16.9792 18.9258 17.2279 18.7552 17.4049C18.5963 17.569 18.3815 17.6628 18.1484 17.6628H11.3229L7.68618 20.9336V17.6641H2.97264C2.82941 17.6641 2.68618 17.5898 2.5716 17.4583C2.41925 17.2838 2.33201 17.0312 2.33332 16.7643L2.35285 5.95051C2.35285 5.69139 2.45441 5.4401 2.6302 5.2604C2.79946 5.08723 3.0755 4.97134 3.25389 4.99738H12.977L12.7975 4.79946C12.3465 4.30239 12.0891 3.65883 12.0312 2.99738H3.24608C2.48566 2.99738 1.74217 3.30988 1.20181 3.86066C0.656238 4.41795 0.355451 5.15883 0.352851 5.94659L0.333318 16.7604C0.332011 17.5143 0.589825 18.2278 1.06378 18.7734C1.56769 19.3476 2.27342 19.6067 2.98957 19.664H5.68618V22.6679C5.67968 23.3411 6.18618 23.8919 6.8867 23.9232C7.21744 23.9232 7.53905 23.7838 7.70832 23.5976L12.0885 19.6627H18.125C18.9271 19.6888 19.6523 19.3555 20.1953 18.793C20.7265 18.2422 21.0273 17.4792 21.0195 16.7109L21.0114 9.99772L20.2982 9.84375Z" fill="#222222"/>
</g>
<defs>
<clipPath id="clip0_5913_3202">
<rect width="24" height="24" fill="white"/>
</clipPath>
</defs>
</svg>
