<?xml version="1.0" encoding="UTF-8"?><svg width="18" height="18" viewBox="0 0 18 18" fill="none" xmlns="http://www.w3.org/2000/svg">
<path d="M14.75 8H2.25C1.56055 8 1 7.43945 1 6.75V2.25C1 1.56055 1.56055 1 2.25 1L14.75 1.00293C15.4395 1.00293 16 1.56348 16 2.25293V6.75C16 7.43945 15.4395 8 14.75 8ZM2.5 6.5H14.5V2.50293L2.5 2.5V6.5Z" fill="#222222"/>
<path fill-rule="evenodd" clip-rule="evenodd" d="M10.5 10.6836C10.224 10.6836 10 10.4596 10 10.1836V9.68359C10 9.40759 10.224 9.18359 10.5 9.18359H15.5C15.776 9.18359 16 9.40759 16 9.68359V10.1836C16 10.4596 15.776 10.6836 15.5 10.6836H10.5ZM10.5 16.6836C10.224 16.6836 10 16.4596 10 16.1836V15.6836C10 15.4076 10.224 15.1836 10.5 15.1836H15.5C15.776 15.1836 16 15.4076 16 15.6836V16.1836C16 16.4596 15.776 16.6836 15.5 16.6836H10.5ZM10.5 13.6836C10.224 13.6836 10 13.4596 10 13.1836V12.6836C10 12.4076 10.224 12.1836 10.5 12.1836H15.5C15.776 12.1836 16 12.4076 16 12.6836V13.1836C16 13.4596 15.776 13.6836 15.5 13.6836H10.5Z" fill="#222222"/>
<path fill-rule="evenodd" clip-rule="evenodd" d="M1.46993 9C1.18797 9 1 9.18797 1 9.46993V11.2557C1 11.5376 1.18797 11.7256 1.46993 11.7256H1.93986C2.22182 11.7256 2.40979 11.5376 2.40979 11.2557V10.4098H4.28951V15.5902H3.34965C3.06769 15.5902 2.87972 15.7782 2.87972 16.0601V16.5301C2.87972 16.812 3.06769 17 3.34965 17H6.63916C6.92112 17 7.10909 16.812 7.10909 16.5301V16.0601C7.10909 15.7782 6.92112 15.5902 6.63916 15.5902H5.6993V10.4098H7.57902V11.2557C7.57902 11.5376 7.76699 11.7256 8.04895 11.7256H8.51888C8.80084 11.7256 8.98881 11.5376 8.98881 11.2557V9.46993C8.98881 9.18797 8.80084 9 8.51888 9H1.46993Z" fill="#FA0F00"/>
</svg>
