<?xml version="1.0" encoding="UTF-8"?>
<svg id="b" data-name="svg-native" xmlns="http://www.w3.org/2000/svg" width="24" height="24" viewBox="0 0 24 24">
  <path d="M23,18.5h-3v-3c0-.27614-.22386-.5-.5-.5h-.5c-.27614,0-.5.22386-.5.5v3h-3c-.27614,0-.5.22386-.5.5v.5c0,.27614.22386.5.5.5h3v3c0,.27614.22386.5.5.5h.5c.27614,0,.5-.22386.5-.5v-3h3c.27614,0,.5-.22386.5-.5v-.5c0-.27614-.22386-.5-.5-.5Z" fill="var(--illuAcrobatRedSecondary, red)"/>
  <rect x="5.5" y="15" width="9" height="1.5" rx=".5" ry=".5" fill="var(--iconFill, #464646)"/>
  <path d="M14.0166,12H6.0166c-.2793,0-.53516-.15527-.66406-.40234-.12988-.24707-.11133-.5459.04785-.77539l4.09082-5.89355c.14258-.20508.39062-.30859.62402-.32227.24902.00293.47949.12793.61719.33496l3.90918,5.89355c.15234.23047.16602.52637.03613.76953-.13086.24316-.38477.39551-.66113.39551ZM7.4502,10.5h5.16895l-2.52539-3.80762-2.64355,3.80762Z" fill="var(--iconFill, #464646)"/>
  <path d="M13.89355,20.5H3.5V2.5h13v11.98633c.46191-.26733.96582-.46875,1.5-.59302V2.25c0-.68945-.56055-1.25-1.25-1.25H3.25c-.68945,0-1.25.56055-1.25,1.25v18.5c0,.68945.56055,1.25,1.25,1.25h11.23633c-.26758-.46204-.46875-.96564-.59277-1.5Z" fill="var(--iconFill, #464646)"/>
</svg>