<?xml version="1.0" encoding="UTF-8"?><svg width="20" height="20" viewBox="0 0 20 20" fill="none" xmlns="http://www.w3.org/2000/svg">
<path d="M12.6191 19.25C12.4732 19.25 12.3298 19.2175 12.2118 19.1493C11.8889 18.9632 11.7252 18.5941 11.8045 18.2311L12.4223 15.3737L10.4575 13.2078C10.2291 12.9556 10.1819 12.5042 10.3527 12.2093C10.5393 11.89 10.9055 11.7324 11.268 11.8056L14.1264 12.4228L16.2931 10.4592C16.5438 10.2315 16.9923 10.1806 17.2868 10.3515C17.6097 10.5355 17.7739 10.9046 17.6956 11.2687L17.0773 14.1271L19.0421 16.293C19.2699 16.5441 19.3183 16.9956 19.1484 17.2895C18.9628 17.6108 18.5952 17.7664 18.2316 17.6962L15.3732 17.078L13.207 19.0415C13.057 19.1778 12.8358 19.25 12.6191 19.25ZM13.1038 13.8007L13.8253 14.5958C13.9942 14.7819 14.0796 15.0992 14.0267 15.3453L14.0262 15.3463L13.7994 16.3957L14.5952 15.6747C14.7762 15.51 15.0844 15.4246 15.3239 15.4693L16.3964 15.7012L15.6743 14.905C15.507 14.7209 15.4216 14.4067 15.4714 14.1627L15.7002 13.1051L14.9044 13.8261C14.7142 13.9979 14.3908 14.0833 14.1416 14.0244L13.1038 13.8007Z" fill="#584CCC"/>
<path d="M8.49941 15.5704C8.13027 15.3868 7.68007 15.5362 7.49355 15.9063L6.36464 18.1651C6.17909 18.5352 6.32948 18.9854 6.70058 19.171C6.808 19.2247 6.92226 19.2501 7.03456 19.2501C7.30995 19.2501 7.5746 19.0987 7.70644 18.835L8.83535 16.5762C9.0209 16.2061 8.87051 15.7559 8.49941 15.5704Z" fill="#292929"/>
<path d="M4.75 8.5H7.75C8.16406 8.5 8.5 8.16406 8.5 7.75C8.5 7.33594 8.16406 7 7.75 7H4.75C4.33594 7 4 7.33594 4 7.75C4 8.16406 4.33594 8.5 4.75 8.5Z" fill="#292929"/>
<path d="M9.32324 10H4.75C4.33594 10 4 10.3359 4 10.75C4 11.1641 4.33594 11.5 4.75 11.5H9.32324C9.7373 11.5 10.0732 11.1641 10.0732 10.75C10.0732 10.3359 9.7373 10 9.32324 10Z" fill="#292929"/>
<path d="M16.5 1H3.5C2.14453 1 1 2.14453 1 3.5V12C1 13.3555 2.14453 14.5 3.5 14.5H8.08203C8.49609 14.5 8.83203 14.1641 8.83203 13.75C8.83203 13.3359 8.49609 13 8.08203 13H3.5C2.96777 13 2.5 12.5322 2.5 12V5.5H17.5V8.98926C17.5 9.40332 17.8359 9.73926 18.25 9.73926C18.6641 9.73926 19 9.40332 19 8.98926V3.5C19 2.14453 17.8555 1 16.5 1ZM2.5 4V3.5C2.5 2.96777 2.96777 2.5 3.5 2.5H16.5C17.0322 2.5 17.5 2.96777 17.5 3.5V4H2.5Z" fill="#292929"/>
</svg>
