<?xml version="1.0" encoding="UTF-8"?><svg width="18" height="18" viewBox="0 0 18 18" fill="none" xmlns="http://www.w3.org/2000/svg">
<path fill-rule="evenodd" clip-rule="evenodd" d="M13.75 9C14.4404 9 15 8.44036 15 7.75C15 7.05964 14.4404 6.5 13.75 6.5C13.0596 6.5 12.5 7.05964 12.5 7.75C12.5 8.44036 13.0596 9 13.75 9Z" fill="#FA0F00"/>
<path d="M1.50043 12.9944H0.500427C0.224277 12.9944 0.000427246 12.7705 0.000427246 12.4944V2.25024C0.000427246 1.55988 0.560067 1.00024 1.25043 1.00024H14.518C14.7941 1.00024 15.018 1.2241 15.018 1.50024V2.50024H1.50043V12.9944Z" fill="#222222"/>
<path d="M16.75 4H4.25C3.56055 4 3 4.56055 3 5.25V14.75C3 15.4395 3.56055 16 4.25 16H16.75C17.4395 16 18 15.4395 18 14.75V5.25C18 4.56055 17.4395 4 16.75 4ZM16.5 5.5V12.0185L15.1309 10.6738C14.666 10.2187 13.9414 10.1933 13.4453 10.6152L12.0703 11.7861L8.54785 8.56543C8.05859 8.11816 7.30371 8.13184 6.8291 8.59668L4.5 10.8811V5.5H16.5ZM4.5 14.5V12.9819L7.71094 9.833L11.2207 13.041C11.6855 13.4658 12.3965 13.4795 12.875 13.0713L14.2442 11.9053L16.4424 14.0644L16.5 14.0058V14.5L4.5 14.5Z" fill="#222222"/>
</svg>
