<?xml version="1.0" encoding="UTF-8"?><svg width="18" height="18" viewBox="0 0 18 18" fill="none" xmlns="http://www.w3.org/2000/svg">
<path fill-rule="evenodd" clip-rule="evenodd" d="M11.4972 1.5H11.5033C11.6313 1.5 11.7503 1.55 11.8383 1.638L14.3602 4.194C14.4432 4.278 14.4882 4.392 14.4972 4.513H11.4972V1.5ZM14.4272 15.5047L4.22825 15.5C3.82225 15.494 3.49425 15.159 3.49625 14.75V2.246C3.49425 1.841 3.82225 1.506 4.21825 1.5H9.99725V5.263C9.99725 5.677 10.3332 6.013 10.7472 6.013H14.5042V6.53564C15.2167 6.53564 15.7184 6.91981 16.0043 7.28504V4.555C16.0073 4.028 15.7962 3.512 15.4272 3.14L12.9032 0.582C12.5292 0.207 12.0323 0 11.5033 0H4.20725C2.98225 0.018 1.99025 1.028 1.99612 2.25V14.746C1.99025 15.972 2.98225 16.982 4.21825 17H14.4272C14.7034 17 14.9272 16.7761 14.9272 16.5V16.0049C14.927 15.7288 14.7033 15.505 14.4272 15.5047Z" fill="#222222"/>
<path d="M17.8711 11.0941L15.4752 8.4401C15.2901 8.23514 14.974 8.21897 14.769 8.40397L14.3981 8.73881C14.1931 8.92387 14.177 9.24009 14.362 9.44505L15.2639 10.4437C12.6987 9.98033 10.0372 11.058 8.56614 13.2469C8.40702 13.4836 8.49937 13.8103 8.74815 13.9499L9.18638 14.1958C9.41825 14.3259 9.70011 14.2439 9.85136 14.0252C11.0357 12.3134 13.1726 11.5052 15.1932 11.9543L14.0625 12.8321C13.8443 13.0015 13.8049 13.3157 13.9742 13.5338L14.2808 13.9286C14.4502 14.1467 14.7642 14.1862 14.9823 14.0168L17.8066 11.8241C18.0362 11.6458 18.0659 11.3099 17.8711 11.0941Z" fill="#FA0F00"/>
</svg>
