<?xml version="1.0" encoding="UTF-8"?><svg width="18" height="18" viewBox="0 0 18 18" fill="none" xmlns="http://www.w3.org/2000/svg">
<path d="M13.5 5H16.5C16.7764 5 17 4.77637 17 4.5V1.5C17 1.22363 16.7764 1 16.5 1H13.5C13.2236 1 13 1.22363 13 1.5V2.25H8.75C8.33594 2.25 8 2.58594 8 3V8.25H6V9.75H8V15C8 15.4141 8.33594 15.75 8.75 15.75H13V16.5C13 16.7764 13.2236 17 13.5 17H16.5C16.7764 17 17 16.7764 17 16.5V13.5C17 13.2236 16.7764 13 16.5 13H13.5C13.2236 13 13 13.2236 13 13.5V14.25H9.5V9.75H13V10.5C13 10.7764 13.2236 11 13.5 11H16.5C16.7764 11 17 10.7764 17 10.5V7.5C17 7.22363 16.7764 7 16.5 7H13.5C13.2236 7 13 7.22363 13 7.5V8.25H9.5V3.75H13V4.5C13 4.77637 13.2236 5 13.5 5ZM14.5 2.5H15.5V3.5H14.5V2.5ZM14.5 14.5H15.5V15.5H14.5V14.5ZM14.5 8.5H15.5V9.5H14.5V8.5Z" fill="black"/>
<path d="M6 5.5C6 5.36188 5.94385 5.23694 5.85352 5.14642C5.76319 5.05597 5.63819 5 5.5 5H1.5C1.39746 5 1.30762 5.03827 1.22852 5.09106C1.09375 5.18072 1 5.32623 1 5.5V12.5C1 12.6381 1.05566 12.7631 1.14648 12.8536C1.23681 12.944 1.36181 13 1.5 13H5.5C5.67383 13 5.81934 12.9059 5.90918 12.7715C5.96191 12.6922 6 12.6024 6 12.5V5.5ZM4.5 11.5H2.5V6.5H4.5V11.5Z" fill="#FF0000"/>
</svg>
