<?xml version="1.0" encoding="UTF-8"?><svg width="18" height="18" viewBox="0 0 18 18" fill="none" xmlns="http://www.w3.org/2000/svg">
<g clip-path="url(#clip0_3_395)">
<path d="M15.4463 3.13477L12.9248 0.578127C12.5567 0.207027 12.0474 -0.00488281 11.5259 -0.00488281H4.22806C3.00199 0.0117172 2.01029 1.02246 2.01663 2.24512V14.7412C2.01028 15.9668 3.00149 16.9775 4.23782 16.9951H13.814C15.0396 16.9775 16.0308 15.9668 16.0244 14.7451V4.54785C16.0269 4.02148 15.815 3.50489 15.4463 3.13477ZM11.8579 1.63281L14.3809 4.19043C14.4638 4.27338 14.5087 4.38806 14.5173 4.50781H11.5176V1.49512H11.5235C11.625 1.5 11.7705 1.54491 11.8579 1.63281ZM13.8033 15.4951H4.24857C3.84281 15.4893 3.51468 15.1543 3.51664 14.7451V2.24121C3.51469 1.83496 3.84232 1.5 4.23783 1.49512H10.0176V5.25782C10.0176 5.67188 10.3536 6.00782 10.7676 6.00782H14.5245V14.749C14.5264 15.1543 14.1983 15.4893 13.8033 15.4951Z" fill="#222222"/>
<path d="M12.4419 8.50002H11.5794L11.8391 7.40798C11.9142 7.09206 11.673 6.78933 11.3483 6.79226L10.8871 6.8052C10.6572 6.80715 10.4583 6.96584 10.4051 7.18948L10.0934 8.50003H8.57843L8.83813 7.40799C8.91326 7.09207 8.67199 6.78934 8.34729 6.79227L7.88611 6.80521C7.65619 6.80716 7.45728 6.96585 7.40412 7.18949L7.09247 8.50004H5.9419C5.66578 8.50004 5.4419 8.72392 5.4419 9.00004V9.50004C5.4419 9.77616 5.66578 10 5.9419 10H6.73572L6.37903 11.5H5.07666C4.80054 11.5 4.57666 11.7239 4.57666 12V12.5C4.57666 12.7762 4.80054 13 5.07666 13H6.02228L5.7879 13.9856C5.71277 14.3016 5.95404 14.604 6.27874 14.6014L6.73992 14.5884C6.96984 14.5865 7.16875 14.4278 7.22191 14.2041L7.50829 13H9.02324L8.78886 13.9856C8.71373 14.3016 8.955 14.604 9.2797 14.6014L9.74088 14.5884C9.9708 14.5865 10.1697 14.4278 10.2229 14.2041L10.5092 13H11.5766C11.8528 13 12.0766 12.7762 12.0766 12.5V12C12.0766 11.7239 11.8528 11.5 11.5766 11.5H10.8659L11.2226 10H12.4419C12.718 10 12.9419 9.77616 12.9419 9.50004V9.00004C12.9419 8.72392 12.7181 8.50002 12.4419 8.50002ZM9.38 11.5H7.86499L8.22168 10H9.73669L9.38 11.5Z" fill="#FA0F00"/>
</g>
<defs>
<clipPath id="clip0_3_395">
<rect width="18" height="18" fill="white"/>
</clipPath>
</defs>
</svg>
