<?xml version="1.0" encoding="UTF-8"?><svg width="18" height="18" viewBox="0 0 18 18" fill="none" xmlns="http://www.w3.org/2000/svg">
<g clip-path="url(#clip0_3_282)">
<path d="M11.1386 9.76717L10.4926 9.05467L10.6959 8.1144C10.7331 7.94092 10.6544 7.76295 10.5006 7.6743C10.3468 7.58572 10.1531 7.60537 10.0217 7.72537L9.3092 8.37142L8.36892 8.1684C8.19597 8.12955 8.0177 8.20965 7.92882 8.3634C7.83995 8.51722 7.86072 8.71065 7.9799 8.84235L8.62587 9.55485L8.42262 10.4951C8.38535 10.6686 8.46417 10.8466 8.61792 10.9351C8.68175 10.9719 8.75202 10.99 8.8223 10.99C8.92122 10.99 9.0197 10.954 9.09687 10.8841L9.80937 10.2381L10.7496 10.4411C10.9226 10.4794 11.1008 10.3999 11.1897 10.246C11.2785 10.0923 11.2578 9.89887 11.1386 9.76717Z" fill="#584CCC"/>
<path d="M17.8398 4.65812L16.3251 2.98856L16.802 0.785205C16.8622 0.504594 16.7357 0.220097 16.4867 0.0781891C16.2598 -0.0534656 15.914 -0.0142781 15.7209 0.161274L14.0506 1.67487L11.8473 1.19907C11.5677 1.14263 11.2856 1.26412 11.1418 1.51026C11.0099 1.73758 11.0464 2.08558 11.2223 2.27999L12.737 3.94954L12.2608 6.15208C12.1996 6.43191 12.326 6.71645 12.5748 6.85992C12.6658 6.91243 12.7762 6.93751 12.8888 6.93751C13.0558 6.93751 13.2263 6.88184 13.342 6.77683L15.0117 5.30879L17.2151 5.78536C17.4952 5.79388 17.7786 5.67395 17.9218 5.4263C18.0526 5.19975 18.0154 4.85171 17.8398 4.65812ZM15.0654 4.13819C14.8425 4.09654 14.5556 4.17605 14.3872 4.32935L13.6465 5.00039L13.8576 4.02365L13.858 4.02269C13.9073 3.79367 13.8278 3.49837 13.6706 3.3252L12.999 2.58508L13.9651 2.79328C14.1969 2.84816 14.498 2.76869 14.675 2.60871L15.4157 1.93772L15.2027 2.92201C15.1564 3.14915 15.2358 3.44162 15.3915 3.61291L16.0637 4.35398L15.0654 4.13819Z" fill="#584CCC"/>
<path d="M6.375 7.5H1.875C1.66789 7.5 1.5 7.66792 1.5 7.875V8.25C1.5 8.45708 1.66789 8.625 1.875 8.625H6.375C6.58211 8.625 6.75 8.45708 6.75 8.25V7.875C6.75 7.66792 6.58211 7.5 6.375 7.5Z" fill="#222222"/>
<path d="M8.625 4.5H1.875C1.66789 4.5 1.5 4.66789 1.5 4.875V5.25C1.5 5.45711 1.66789 5.625 1.875 5.625H8.625C8.83207 5.625 9 5.45711 9 5.25V4.875C9 4.66789 8.83207 4.5 8.625 4.5Z" fill="#222222"/>
<path d="M8.625 1.5H1.875C1.66789 1.5 1.5 1.66789 1.5 1.875V2.25C1.5 2.45711 1.66789 2.625 1.875 2.625H8.625C8.83207 2.625 9 2.45711 9 2.25V1.875C9 1.66789 8.83207 1.5 8.625 1.5Z" fill="#222222"/>
<path d="M16.3868 6.7224L15.0584 6.43506C15.4316 7.23633 15.6456 8.12632 15.6456 9.06697C15.6456 12.5203 12.8363 15.3299 9.38303 15.3299C6.84543 15.3299 4.67713 13.8017 3.69491 11.6266L5.66375 11.8379C5.86966 11.86 6.05455 11.711 6.07666 11.5051L6.11666 11.1325C6.13877 10.9265 5.98977 10.7416 5.78387 10.7195L1.99056 10.312C1.77376 10.2886 1.58287 10.4545 1.57569 10.6725L1.4504 14.4859C1.44358 14.6929 1.60595 14.8662 1.813 14.873L2.18767 14.8852C2.39463 14.8919 2.56789 14.7297 2.57467 14.5227L2.65276 12.1516L2.65853 12.1484L2.67496 12.1397C3.84304 14.6823 6.40675 16.4549 9.38295 16.4549C13.4564 16.4549 16.7705 13.1407 16.7705 9.06697C16.7705 8.24715 16.6348 7.45921 16.3868 6.7224Z" fill="#222222"/>
</g>
<defs>
<clipPath id="clip0_3_282">
<rect width="18" height="18" fill="white"/>
</clipPath>
</defs>
</svg>
