<?xml version="1.0" encoding="UTF-8"?><svg width="18" height="18" viewBox="0 0 18 18" fill="none" xmlns="http://www.w3.org/2000/svg">
<path d="M9.5 15.3018C9.2392 15.4026 8.85413 15.5393 8.76123 15.585V2.21826L13.2388 4.45215V7.70606C13.635 7.57813 14.0558 7.50001 14.5 7.50001C14.5817 7.50001 14.6584 7.51612 14.7388 7.52052V4.29689C14.7388 3.81935 14.4732 3.39064 14.0464 3.17873L7.99951 0.161621L1.95361 3.17822C1.52685 3.39013 1.26123 3.81884 1.26123 4.29687V10.0674C1.26123 13.1128 3.55127 14.8232 4.78271 15.7427C6.0581 16.6934 7.35888 17.3125 7.75634 17.4492L7.9995 17.5327L8.24266 17.4492C8.44969 17.3784 8.92656 17.1809 9.49998 16.8936L9.5 15.3018ZM7.26123 15.5508C6.79932 15.2971 6.24524 14.9624 5.68018 14.5405C4.20264 13.438 2.76123 12.1836 2.76123 10.0674V4.45167L7.26123 2.20655V15.5508Z" fill="#222222"/>
<path d="M16.5 13.5059V16.5H12.5V13.5059H16.5ZM14.5 9C13.0999 9 12 10.1001 12 11.5V12.0059H11.5C11.2239 12.0059 11 12.2297 11 12.5059V17.5C11 17.7761 11.2239 18 11.5 18H17.5C17.7761 18 18 17.7761 18 17.5V12.5059C18 12.2297 17.7761 12.0059 17.5 12.0059H17V11.5C17 10.1001 15.8999 9 14.5 9ZM13.5 12.0059V11.6001C13.5 11 13.8999 10.6001 14.5 10.6001C15.0998 10.6001 15.5 11 15.5 11.6001V12.0059H13.5Z" fill="#FA0F00"/>
</svg>
