<?xml version="1.0" encoding="UTF-8"?>
<svg id="b" data-name="svg-native" xmlns="http://www.w3.org/2000/svg" width="24" height="24" viewBox="0 0 24 24">
  <g isolation="isolate">
    <path d="M11.99727,3.71962c.4725,0,.89676.06473,1.27335.19418.37718.12945.69199.31186.94501.54841s.4472.51428.58195.83556c.13534.3201.20242.6661.20242,1.0368,0,.51781-.09827.95678-.2948,1.31689-.19712.36012-.44191.6861-.73435.97796-.32599.32599-.61314.62726-.86028.90264-.24773.27538-.3713.54253-.3713.80143,0,.28127.09003.59078.27009.92736.06767.09062.04472.13534-.06767.13534h-1.41693c-.03354,0-.06473-.00235-.09297-.00824s-.06473-.02589-.10945-.05884c-.1577-.19183-.2642-.39424-.32069-.60725-.05649-.21419-.08414-.40484-.08414-.5743,0-.39307.11533-.74259.34599-1.04622.23007-.30363.53135-.65197.90205-1.04504.25891-.27068.46427-.51546.61608-.73435s.22772-.45779.22772-.7167c0-.29304-.10415-.54017-.31186-.74259-.2083-.20242-.56548-.30363-1.07152-.30363-.40484,0-.77084.05296-1.09682.16005s-.62432.2389-.89382.3966c-.03413.02236-.06532.02236-.09297,0-.02824-.02236-.04237-.0506-.04237-.08473v-1.56874c0-.08944.02236-.14593.06767-.16829.19124-.11298.48898-.23655.8944-.37188.40484-.13416.91618-.20242,1.5352-.20242ZM12.14909,15.05737c-.32658,0-.59666-.09886-.80967-.29539-.21419-.19653-.32069-.47545-.32069-.83439,0-.34952.1065-.62491.32069-.82732.21301-.20242.4831-.30363.80967-.30363.33717,0,.60961.10709.81791.3201.2083.21419.31245.48368.31245.81085,0,.34835-.09886.62373-.29539.82615-.19712.20242-.47545.30363-.83497.30363Z" fill="var(--iconFill, #464646)"/>
  </g>
  <path d="M14.76953,16.00055l-.87207-.00055-4.89746,4.6709v-4.67188l-4.48438.00586c-.24316.00391-.52148-.1001-.71387-.29004-.1875-.18701-.29492-.4458-.29297-.71338l.02051-11.49854c.00098-.26562.11035-.52539.2998-.71191.19434-.19092.41797-.29639.71973-.29102h14.96484c.31934-.01855.55176.15771.68848.29443.18848.18604.2959.44482.29492.7124l.01074,10.35156c.53418.12421,1.03809.32483,1.50049.59119l-.01123-10.94226c.00098-.66357-.26758-1.31152-.73828-1.77734-.47949-.47754-1.07324-.75049-1.75195-.72998H4.53711c-.66113,0-1.28516.25537-1.75879.7207-.47461.46631-.74805,1.11475-.74902,1.7793l-.02051,11.49512c-.00391.66455.26367,1.31445.73633,1.78369.47266.46875,1.12988.72656,1.78027.72607l2.97461-.00391v4.40186c-.00391.53027.40332.96094.95508.98047.25098,0,.49023-.09326.68164-.27051l4.68359-4.46729c.15967-.79004.4917-1.51581.94922-2.14496Z" fill="var(--iconFill, #464646)"/>
  <path d="M23,18.5h-3v-3c0-.27614-.22386-.5-.5-.5h-.5c-.27614,0-.5.22386-.5.5v3h-3c-.27614,0-.5.22386-.5.5v.5c0,.27614.22386.5.5.5h3v3c0,.27614.22386.5.5.5h.5c.27614,0,.5-.22386.5-.5v-3h3c.27614,0,.5-.22386.5-.5v-.5c0-.27614-.22386-.5-.5-.5Z" fill="var(--illuAcrobatRedSecondary, red)"/>
</svg>