<?xml version="1.0" encoding="UTF-8"?><svg width="18" height="18" viewBox="0 0 18 18" fill="none" xmlns="http://www.w3.org/2000/svg">
<path d="M7.52012 15.4912H3.23051C2.82524 15.4858 2.49809 15.1519 2.50004 14.7422V2.24463C2.49809 1.83984 2.82524 1.50586 3.21977 1.5H9.00194L9.00786 5.24316C9.00884 5.65722 9.3438 5.99218 9.75786 5.99218H13.5V8.34924C14.0277 8.42138 14.5311 8.56628 15 8.77704V4.55225C15.003 4.01856 14.7969 3.51563 14.4219 3.1377L11.9034 0.58545C11.5362 0.21338 11.0254 0 10.501 0H3.20902C1.98344 0.01855 0.993195 1.0293 1.00004 2.24902V14.7378C0.993195 15.9634 1.98344 16.9741 3.21977 16.9912H8.28141C7.95585 16.5373 7.6962 16.0337 7.52012 15.4912ZM10.835 1.63867L13.3555 4.19336C13.4357 4.27399 13.4775 4.37915 13.4894 4.49219H10.5069L10.502 1.50049C10.6485 1.49091 10.7488 1.55048 10.835 1.63867Z" fill="#222222"/>
<path d="M13.2796 12.2525L13.2262 12.7495C13.1967 13.024 13.3954 13.2705 13.67 13.3L16.624 13.6174C16.913 13.6484 17.1674 13.4274 17.1771 13.1369L17.2763 10.1669C17.2855 9.89085 17.0691 9.65959 16.7931 9.65043L16.2928 9.63383C16.0167 9.62467 15.7856 9.84098 15.7764 10.1171L15.7506 10.8978C14.7741 9.87728 13.2852 9.35321 11.6945 9.76069C10.2599 10.1282 9.10912 11.3048 8.76526 12.7453C8.11678 15.4619 10.1703 17.8921 12.7803 17.8921C13.8857 17.8921 14.8838 17.4501 15.6236 16.7389C15.8492 16.5221 15.832 16.1548 15.5816 15.9672C15.4484 15.8674 15.304 15.7592 15.1773 15.6642C14.9898 15.5235 14.727 15.5286 14.5552 15.6882C13.931 16.2682 13.034 16.5546 12.069 16.297C11.1908 16.0626 10.4708 15.3484 10.2386 14.4696C9.77399 12.7112 11.0953 11.1216 12.7802 11.1216C13.5024 11.1216 14.1479 11.4205 14.6208 11.8935L13.8301 11.8088C13.5555 11.7793 13.309 11.9779 13.2796 12.2525Z" fill="#FA0F00"/>
</svg>
