<?xml version="1.0" encoding="UTF-8"?><svg width="18" height="18" viewBox="0 0 18 18" fill="none" xmlns="http://www.w3.org/2000/svg">
<g clip-path="url(#clip0_3977_17192)">
<path d="M15.4297 3.13379L12.9082 0.579101C12.5411 0.207031 12.0303 -0.00585938 11.5059 -0.00585938H4.21C2.98442 0.0136706 1.9932 1.02441 2.00004 2.24414V14.7393C1.9932 15.9668 2.98539 16.9775 4.22172 16.9941H13.7959C15.0225 16.9775 16.0147 15.9668 16.0078 14.7441V4.5498C16.0108 4.02441 15.7998 3.50879 15.4297 3.13379ZM11.5059 1.49414C11.6319 1.49414 11.7539 1.54492 11.8409 1.63281L14.3623 4.1875C14.4462 4.27319 14.4922 4.38794 14.5006 4.50781H11.501V1.49414H11.5059ZM13.7862 15.4941H4.23149C3.82622 15.4893 3.49809 15.1543 3.50004 14.7441V2.23926C3.49809 1.83496 3.82621 1.5 4.22172 1.49414H10.001V5.25781C10.001 5.67187 10.337 6.00781 10.751 6.00781H14.5079V14.749C14.5098 15.1543 14.1817 15.4893 13.7862 15.4941Z" fill="#222222"/>
<path fill-rule="evenodd" clip-rule="evenodd" d="M5 6C4.70001 6 4.5 6.19971 4.5 6.5V8C4.5 8.2998 4.70001 8.5 5 8.5H5.5C5.79999 8.5 6 8.2998 6 8V7.5H6.5V9.5C6.20001 9.5 6 9.69971 6 10V10.5C6 10.7998 6.20001 11 6.5 11H8C8.29999 11 8.5 10.7998 8.5 10.5V10C8.5 9.69971 8.29999 9.5 8 9.5V7.5H8.5V8C8.5 8.2998 8.70001 8.5 9 8.5H9.5C9.79999 8.5 10 8.2998 10 8V6.5C10 6.19971 9.79999 6 9.5 6H5Z" fill="#FA0F00"/>
<path d="M12.5 9.25H10.4883C10.2121 9.25 9.98828 9.47386 9.98828 9.75V10.25C9.98828 10.5261 10.2121 10.75 10.4883 10.75H12.5C12.7761 10.75 13 10.5261 13 10.25V9.75C13 9.47386 12.7761 9.25 12.5 9.25Z" fill="#222222"/>
<path d="M12.5 12.25H5.48828C5.21214 12.25 4.98828 12.4739 4.98828 12.75V13.25C4.98828 13.5261 5.21214 13.75 5.48828 13.75H12.5C12.7761 13.75 13 13.5261 13 13.25V12.75C13 12.4739 12.7761 12.25 12.5 12.25Z" fill="#222222"/>
</g>
<defs>
<clipPath id="clip0_3977_17192">
<rect width="18" height="18" fill="white"/>
</clipPath>
</defs>
</svg>
