<?xml version="1.0" encoding="UTF-8"?><svg width="37" height="37" viewBox="0 0 37 37" fill="none" xmlns="http://www.w3.org/2000/svg">
<path d="M18.5073 23.2899C16.8642 23.2899 15.2644 22.439 14.3855 20.916C13.0757 18.6451 13.8561 15.7346 16.1244 14.4247C17.2219 13.7888 18.5019 13.6226 19.7304 13.9496C20.9562 14.2784 21.9806 15.0661 22.6147 16.1645C23.2498 17.263 23.4178 18.5439 23.0899 19.7688C22.7611 20.9955 21.9752 22.0199 20.8758 22.654C20.1297 23.0858 19.3131 23.2899 18.5073 23.2899ZM16.7883 19.5285C17.333 20.4698 18.5426 20.7932 19.4883 20.2512C19.9454 19.9874 20.2724 19.561 20.4088 19.0515C20.5452 18.5421 20.4757 18.0091 20.2119 17.552C19.9472 17.0949 19.5217 16.7679 19.0114 16.6306C18.5028 16.4951 17.9698 16.5656 17.5119 16.8276C16.5679 17.3732 16.2436 18.5836 16.7883 19.5285Z" fill="#292929"/>
<path d="M19.3756 35.1897H17.624C15.7144 35.1897 14.0948 33.6992 13.9367 31.795L13.7271 29.2856C12.9692 28.9495 12.252 28.5358 11.5799 28.0444L9.29994 29.1193C7.5728 29.9305 5.47167 29.2765 4.51777 27.6198L3.64246 26.1059C2.67319 24.4239 3.14383 22.3228 4.73729 21.2153L6.8077 19.779C6.71827 18.9516 6.71827 18.1223 6.80589 17.2985L4.73638 15.8622C3.14292 14.7529 2.6723 12.6518 3.64246 10.9716L4.51777 9.45585C5.47348 7.80278 7.5719 7.14335 9.29994 7.95815L11.5745 9.0313C11.9141 8.78197 12.2601 8.55614 12.6178 8.3502C12.9701 8.14605 13.3414 7.95817 13.7271 7.78834L13.9358 5.28072C14.0957 3.37833 15.7144 1.88965 17.6231 1.88965H19.3747C21.2843 1.88965 22.9039 3.38012 23.062 5.28251L23.2716 7.79194C24.0276 8.12798 24.7458 8.54169 25.4179 9.03311L27.6987 7.95817C29.4232 7.14156 31.5252 7.79918 32.4809 9.45768L33.3562 10.9735C34.3101 12.6247 33.8296 14.7728 32.2614 15.8622L30.191 17.3003C30.2795 18.1278 30.2804 18.957 30.1928 19.7808L32.2614 21.2153C33.8558 22.3246 34.3264 24.4257 33.3562 26.1059L32.4818 27.6234C31.5261 29.2765 29.4286 29.9378 27.6987 29.1193L25.4233 28.048C25.0845 28.2955 24.7404 28.5213 24.3835 28.7273C24.3835 28.7291 24.3826 28.7291 24.3817 28.7291C24.0267 28.9351 23.6591 29.1194 23.2716 29.2892L23.0629 31.7968C22.903 33.6992 21.2834 35.1897 19.3756 35.1897ZM11.7651 25.0364C12.0894 25.0364 12.4101 25.1502 12.6666 25.3688C13.5094 26.0896 14.4633 26.6406 15.5003 27.0074C16.0152 27.1881 16.3756 27.656 16.4217 28.1998L16.7026 31.5656C16.7415 32.0425 17.1471 32.4147 17.624 32.4147H19.3756C19.8525 32.4147 20.2572 32.0425 20.297 31.5656L20.577 28.2016C20.6222 27.6596 20.9817 27.1935 21.4948 27.0092C22.0467 26.8141 22.5363 26.5901 22.9925 26.3281C23.455 26.0589 23.8949 25.7464 24.3366 25.3688C24.753 25.0183 25.3366 24.9388 25.8271 25.1701L28.8812 26.6081C29.3184 26.8159 29.8414 26.6479 30.0781 26.236L30.9525 24.7184C31.1955 24.2975 31.0781 23.7717 30.6788 23.4953L27.9065 21.5712C27.4576 21.2605 27.2326 20.7149 27.3329 20.1783C27.5335 19.0961 27.5335 17.9941 27.3311 16.9029C27.2317 16.3663 27.4558 15.8207 27.9038 15.51L30.6788 13.5823C31.0772 13.3059 31.1955 12.7801 30.9534 12.361L30.0772 10.8434C29.8369 10.4279 29.3139 10.2635 28.8821 10.4694L25.8253 11.9093C25.3321 12.1406 24.7494 12.0629 24.333 11.7088C23.4866 10.9879 22.5327 10.4351 21.4984 10.0702C20.9835 9.88949 20.6231 9.42157 20.577 8.87778L20.296 5.512C20.2572 5.03685 19.8525 4.66469 19.3746 4.66469H17.6231C17.1461 4.66469 16.7415 5.03685 16.7017 5.512L16.4217 8.87778C16.3765 9.42159 16.0152 9.88951 15.5003 10.0702C14.9655 10.2599 14.4624 10.4893 14.0044 10.7531C13.5419 11.0205 13.1038 11.3312 12.6648 11.7088C12.2492 12.0611 11.6648 12.1388 11.1707 11.9093L8.11654 10.4694C7.68565 10.2653 7.16083 10.4297 6.92055 10.8434L6.04524 12.3592C5.80315 12.7801 5.92059 13.3059 6.31985 13.5823L9.09304 15.5082C9.54109 15.8189 9.76602 16.3645 9.66575 16.9029C9.4643 17.9815 9.46521 19.0835 9.66756 20.1765C9.76692 20.7131 9.54291 21.2587 9.09485 21.5694L6.31985 23.4953C5.92149 23.7717 5.80315 24.2993 6.04615 24.7202L6.92146 26.2342C7.15994 26.6479 7.68386 26.8123 8.11656 26.6082L11.1734 25.1683C11.3622 25.0798 11.5646 25.0364 11.7651 25.0364Z" fill="#292929"/>
</svg>
