<?xml version="1.0" encoding="UTF-8"?><svg width="40" height="40" viewBox="0 0 40 40" fill="none" xmlns="http://www.w3.org/2000/svg">
<path d="M32.9394 36H23.0605C21.373 36 20 34.4707 20 32.5918V15.4082C20 13.5293 21.373 12 23.0605 12H32.9394C34.6269 12 36 13.5293 36 15.4082V32.5918C36 34.4707 34.6269 36 32.9394 36ZM32.8535 14.9805L23.0605 15C23.1074 15.0059 23 15.1562 23 15.4082V32.5918C23 32.8438 23.1074 32.9941 23.1465 33.0195L32.9394 33C32.8926 32.9941 33 32.8438 33 32.5918V15.4082C33 15.1562 32.8926 15.0059 32.8535 14.9805Z" fill="#292929"/>
<path d="M27.9998 31.6372C28.6836 31.6372 29.2379 31.0674 29.2379 30.3645C29.2379 29.6616 28.6836 29.0918 27.9998 29.0918C27.316 29.0918 26.7617 29.6616 26.7617 30.3645C26.7617 31.0674 27.316 31.6372 27.9998 31.6372Z" fill="#292929"/>
<path d="M15.5 26H8.13672C5.85548 26 4 24.1973 4 21.9805V8.01954C4 5.80274 5.85546 4 8.13672 4H31.5C33.9805 4 36 6.01954 36 8.5C36 9.32812 35.3281 10 34.5 10C33.6719 10 33 9.32812 33 8.5C33 7.67382 32.3262 7 31.5 7H8.13672C7.50976 7 7 7.45704 7 8.01954V21.9805C7 22.543 7.50976 23 8.13672 23H15.5C16.3281 23 17 23.6719 17 24.5C17 25.3281 16.3281 26 15.5 26Z" fill="#292929"/>
<path d="M15.5 31H12.5C11.6719 31 11 30.3281 11 29.5C11 28.6719 11.6719 28 12.5 28H15.5C16.3281 28 17 28.6719 17 29.5C17 30.3281 16.3281 31 15.5 31Z" fill="#292929"/>
</svg>
