<?xml version="1.0" encoding="UTF-8"?><svg width="38" height="38" viewBox="0 0 38 38" fill="none" xmlns="http://www.w3.org/2000/svg">
<path d="M29.2721 32.3001H7.06304C3.44673 32.3001 0.504883 29.3573 0.504883 25.741C0.504883 22.904 2.3418 20.4585 4.91997 19.566C4.83833 19.1281 4.79751 18.6828 4.79751 18.2319C4.79751 14.0905 8.2357 10.721 12.4615 10.721C12.9931 10.721 13.521 10.7767 14.0405 10.888C15.2512 7.16777 18.7451 4.5293 22.7584 4.5293C27.8332 4.5293 31.9625 8.65771 31.9625 13.7324C31.9625 14.5655 31.8438 15.3912 31.6072 16.2002C35.0315 17.2096 37.5029 20.3639 37.5029 24.0692C37.5029 28.6077 33.8106 32.3001 29.2721 32.3001ZM12.4615 13.571C9.80728 13.571 7.64752 15.6621 7.64752 18.2319C7.64752 18.8628 7.77926 19.4788 8.03901 20.0651C8.22827 20.49 8.19673 20.9817 7.9555 21.3806C7.71337 21.7796 7.29218 22.0338 6.82738 22.0635C4.88007 22.1878 3.35486 23.8039 3.35486 25.741C3.35486 27.7857 5.0183 29.4501 7.06302 29.4501H29.272C32.2389 29.4501 34.6529 27.0361 34.6529 24.0692C34.6529 21.2248 32.4143 18.8758 29.5569 18.7218C29.0735 18.6958 28.6365 18.4249 28.3963 18.0056C28.156 17.5844 28.1458 17.0704 28.3694 16.6418C28.8629 15.6937 29.1125 14.714 29.1125 13.7324C29.1125 10.2293 26.2625 7.37932 22.7584 7.37932C19.5995 7.37932 16.9063 9.75802 16.4934 12.9123C16.435 13.3595 16.1668 13.7528 15.7716 13.9718C15.3774 14.1945 14.8996 14.2112 14.4904 14.0237C13.8299 13.7232 13.1481 13.571 12.4615 13.571Z" fill="#292929"/>
</svg>
