<?xml version="1.0" encoding="UTF-8"?>
<svg id="Layer_1" xmlns="http://www.w3.org/2000/svg" version="1.1" viewBox="0 0 32 32">
  <!-- Generator: Adobe Illustrator 30.1.0, SVG Export Plug-In . SVG Version: 2.1.1 Build 136)  -->
  <defs>
    <style>
      .st0 {
        fill: #4b4b4b;
      }
    </style>
  </defs>
  <path class="st0" d="M23.3,25h-5.6c-.9,0-1.7-.9-1.7-1.9v-9.7c0-1.1.8-1.9,1.7-1.9h5.6c.9,0,1.7.9,1.7,1.9v9.7c0,1.1-.8,1.9-1.7,1.9ZM23.2,13.2h-5.5v10.1h5.5v-10.1Z"/>
  <path class="st0" d="M20.5,22.5c.4,0,.7-.3.7-.7s-.3-.7-.7-.7-.7.3-.7.7.3.7.7.7Z"/>
  <path class="st0" d="M13.5,19.4h-4.2c-1.3,0-2.3-1-2.3-2.3v-7.8c0-1.3,1-2.3,2.3-2.3h13.1c1.4,0,2.5,1.1,2.5,2.5s-.4.8-.8.8-.8-.4-.8-.8-.4-.8-.8-.8h-13.2c-.4,0-.6.3-.6.6v7.9c0,.3.3.6.6.6h4.1c.5,0,.8.4.8.8s-.4.8-.8.8h.1Z"/>
  <path class="st0" d="M13.5,22.2h-1.7c-.5,0-.8-.4-.8-.8s.4-.8.8-.8h1.7c.5,0,.8.4.8.8s-.4.8-.8.8Z"/>
</svg>