<?xml version="1.0" encoding="UTF-8"?>
<svg id="Layer_1" data-name="Layer 1" xmlns="http://www.w3.org/2000/svg" viewBox="0 0 32.11 32.63">
  <defs>
    <style>
      .cls-1 {
        fill: #464646;
      }
    </style>
  </defs>
  <path class="cls-1" d="m25.4,14.04l.05,1.37c0,.19.06.38.16.54.1.16.24.3.41.39l1.2.67-1.37.05c-.19,0-.38.06-.54.16-.16.1-.3.24-.39.41l-.67,1.2-.05-1.37c0-.19-.06-.38-.16-.54-.1-.16-.24-.3-.41-.39l-1.2-.67,1.37-.05c.19,0,.38-.06.55-.16s.3-.24.39-.41l.67-1.2Z"/>
  <path class="cls-1" d="m9.69,5.91l.07,1.92c0,.27.09.53.23.76.14.23.33.42.57.55l1.67.94-1.91.07c-.27,0-.53.09-.76.23-.23.14-.42.34-.55.57l-.94,1.67-.07-1.91c0-.27-.09-.53-.23-.76-.14-.23-.34-.42-.57-.55l-1.67-.93,1.91-.07c.27,0,.53-.09.76-.23.23-.14.42-.34.55-.57l.93-1.67Z"/>
  <path class="cls-1" d="m21.42,11.12c0-.13-.02-.25-.07-.37-.05-.12-.12-.22-.21-.31-.09-.09-.19-.16-.31-.21-.12-.05-.24-.07-.37-.07h-6.38v.69c.01.24-.07.47-.22.65-.16.18-.38.29-.61.31l-2.81.11c-.13,0-.26.05-.37.12-.11.07-.2.17-.26.28l-.62,1.21v11.57c0,.25.1.5.28.67s.42.28.68.28h10.31c.25,0,.5-.1.68-.28.18-.18.28-.42.28-.68v-13.98Zm-11,2.71h3.36v1.22h-3.36v-1.22Zm0,2.44h5.5v1.22h-5.5v-1.22Zm0,2.44h6.57v1.22h-6.57v-1.22Zm9.78,3.67h-9.78v-1.22h9.78v1.22Z"/>
  <path class="cls-1" d="m22.81,5.27l.18,1.36c.03.19.1.37.22.53.12.15.27.27.45.35l1.26.55-1.36.18c-.19.03-.37.1-.52.22-.15.12-.27.27-.35.45l-.55,1.25-.18-1.36c-.03-.19-.1-.37-.22-.53-.12-.15-.27-.27-.45-.35l-1.26-.55,1.36-.18c.19-.03.37-.1.52-.21.15-.12.28-.27.35-.44l.55-1.26Z"/>
</svg>