<?xml version="1.0" encoding="UTF-8"?><svg width="37" height="37" viewBox="0 0 37 37" fill="none" xmlns="http://www.w3.org/2000/svg">
<path d="M18.4998 4.14654C17.7338 4.14654 17.1123 3.52505 17.1123 2.75904V1.46367C17.1123 0.697661 17.7338 0.0761719 18.4998 0.0761719C19.2658 0.0761719 19.8873 0.697661 19.8873 1.46367V2.75904C19.8873 3.52505 19.2658 4.14654 18.4998 4.14654Z" fill="#292929"/>
<path d="M34.1399 18.5396H32.8445C32.0785 18.5396 31.457 17.9182 31.457 17.1521C31.457 16.3861 32.0785 15.7646 32.8445 15.7646H34.1399C34.9059 15.7646 35.5274 16.3861 35.5274 17.1521C35.5274 17.9182 34.9059 18.5396 34.1399 18.5396Z" fill="#292929"/>
<path d="M4.13014 18.5396H2.83477C2.06875 18.5396 1.44727 17.9182 1.44727 17.1521C1.44727 16.3861 2.06875 15.7646 2.83477 15.7646H4.13014C4.89615 15.7646 5.51764 16.3861 5.51764 17.1521C5.51764 17.9182 4.89615 18.5396 4.13014 18.5396Z" fill="#292929"/>
<path d="M8.34448 8.39704C7.98858 8.39704 7.63447 8.26155 7.36348 7.99054L6.44751 7.07457C5.90552 6.53257 5.90552 5.65455 6.44751 5.11255C6.98951 4.57056 7.86753 4.57056 8.40953 5.11255L9.3255 6.02852C9.8675 6.57052 9.8675 7.44855 9.3255 7.99054C9.05451 8.26153 8.70039 8.39704 8.34448 8.39704Z" fill="#292929"/>
<path d="M28.6297 8.39704C28.2738 8.39704 27.9197 8.26155 27.6487 7.99054C27.1067 7.44855 27.1067 6.57052 27.6487 6.02852L28.5647 5.11255C29.1066 4.57056 29.9847 4.57056 30.5267 5.11255C31.0687 5.65455 31.0687 6.53257 30.5267 7.07457L29.6107 7.99054C29.3397 8.26153 28.9856 8.39704 28.6297 8.39704Z" fill="#292929"/>
<path d="M29.6004 17.5746C29.6004 11.4537 24.6213 6.47461 18.5004 6.47461C12.3795 6.47461 7.40039 11.4537 7.40039 17.5746C7.40039 21.6737 9.63928 25.2519 12.9526 27.1742C12.9526 27.1785 12.9504 27.1819 12.9504 27.1859V30.5246C12.9504 33.5851 15.4399 36.0746 18.5004 36.0746C21.5608 36.0746 24.0504 33.5851 24.0504 30.5246V27.1728C27.3626 25.2501 29.6004 21.6725 29.6004 17.5746ZM21.2754 30.5246C21.2754 32.0548 20.0306 33.2996 18.5004 33.2996C16.9702 33.2996 15.7254 32.0548 15.7254 30.5246V28.3092C16.6143 28.5393 17.5406 28.6746 18.5004 28.6746C19.4602 28.6746 20.3865 28.5393 21.2754 28.3092V30.5246ZM18.5004 25.8996C13.9097 25.8996 10.1754 22.1653 10.1754 17.5746C10.1754 12.9839 13.9097 9.24961 18.5004 9.24961C23.0911 9.24961 26.8254 12.9839 26.8254 17.5746C26.8254 22.1653 23.0911 25.8996 18.5004 25.8996Z" fill="#292929"/>
</svg>
