<?xml version="1.0" encoding="UTF-8"?><svg width="40" height="40" viewBox="0 0 40 40" fill="none" xmlns="http://www.w3.org/2000/svg">
<path d="M12.5 37.9961C12.3008 37.9961 12.1016 37.957 11.9121 37.877C11.3594 37.6406 11 37.0977 11 36.4961V29.9961H9.5C5.36524 29.9961 2 26.6309 2 22.4961V11.4961C2 7.36133 5.36524 3.99609 9.5 3.99609H17.4062C18.2344 3.99609 18.9062 4.66797 18.9062 5.49609C18.9062 6.32421 18.2344 6.99609 17.4062 6.99609H9.5C7.01954 6.99609 5 9.01563 5 11.4961V22.4961C5 24.9766 7.01954 26.9961 9.5 26.9961H12.5C13.3281 26.9961 14 27.668 14 28.4961V32.9688L19.7676 27.416C20.0469 27.1465 20.4199 26.9961 20.8086 26.9961H30.5C32.9805 26.9961 35 24.9766 35 22.4961V19.9531C35 19.125 35.6719 18.4531 36.5 18.4531C37.3281 18.4531 38 19.125 38 19.9531V22.4961C38 26.6309 34.6348 29.9961 30.5 29.9961H21.4141L13.541 37.5762C13.2559 37.8516 12.8809 37.9961 12.5 37.9961Z" fill="white"/>
<path d="M26.5565 18.166C26.1796 18.166 25.8007 18.0684 25.4589 17.8711C24.6268 17.3926 24.205 16.4414 24.4061 15.5039L25.3261 11.2539L22.4061 8.03322C21.7616 7.32228 21.6503 6.28908 22.1288 5.459C22.6093 4.62892 23.5702 4.20704 24.496 4.40626L28.746 5.32618L31.9667 2.40626C32.6776 1.76368 33.7167 1.6543 34.5409 2.12892C35.3729 2.60744 35.7948 3.5586 35.5936 4.4961L34.6737 8.7461L37.5936 11.9668C38.2382 12.6777 38.3495 13.7109 37.871 14.541C37.3905 15.3731 36.4374 15.7988 35.5038 15.5938L31.2538 14.6738L28.0331 17.5938C27.6171 17.9707 27.0897 18.166 26.5565 18.166ZM26.3046 7.86718L27.8241 9.54296C28.2968 10.0586 28.4941 10.7851 28.3456 11.4805L27.8671 13.6953L29.5429 12.1758C30.0605 11.7031 30.7948 11.5078 31.4804 11.6543L33.6952 12.1328L32.1757 10.457C31.703 9.94142 31.5058 9.21486 31.6542 8.51954L32.1327 6.3047L30.4569 7.82424C29.9413 8.29884 29.2108 8.49806 28.5194 8.34572L26.3046 7.86718Z" fill="white"/>
<path d="M15.8652 23.0078C15.6074 23.0078 15.3496 22.9414 15.1152 22.8066C14.5508 22.4804 14.2617 21.8281 14.3984 21.1914L14.7539 19.5508L13.6269 18.3086C13.1894 17.8262 13.1132 17.1152 13.4394 16.5508C13.7656 15.9863 14.4218 15.709 15.0547 15.834L16.6953 16.1894L17.9375 15.0625C18.4218 14.625 19.1289 14.5488 19.6953 14.875C20.2597 15.2011 20.5488 15.8535 20.4121 16.4902L20.0566 18.1308L21.1836 19.373C21.6211 19.8554 21.6973 20.5664 21.3711 21.1308C21.0449 21.6953 20.3867 21.9785 19.7558 21.8476L18.1152 21.4922L16.873 22.6191C16.5898 22.875 16.2285 23.0078 15.8652 23.0078Z" fill="white"/>
</svg>
