<?xml version="1.0" encoding="UTF-8"?><svg width="38" height="38" viewBox="0 0 38 38" fill="none" xmlns="http://www.w3.org/2000/svg">
<path d="M18.9767 29.5006C18.5385 29.516 18.1115 29.3602 17.7861 29.0662C17.1585 28.3726 17.1585 27.3163 17.7861 26.6227C18.1079 26.3215 18.5363 26.1608 18.9768 26.1761C19.4258 26.1581 19.862 26.3288 20.1795 26.6468C20.4874 26.9658 20.6529 27.396 20.6381 27.8392C20.6616 28.2856 20.5059 28.723 20.2055 29.054C19.8757 29.367 19.4305 29.5288 18.9767 29.5006Z" fill="#292929"/>
<path d="M19 35.625C9.83212 35.625 2.375 28.1679 2.375 19C2.375 9.83212 9.83212 2.375 19 2.375C28.1679 2.375 35.625 9.83212 35.625 19C35.625 28.1679 28.1679 35.625 19 35.625ZM19 5.225C11.4037 5.225 5.225 11.4037 5.225 19C5.225 26.5963 11.4037 32.775 19 32.775C26.5963 32.775 32.775 26.5963 32.775 19C32.775 11.4037 26.5963 5.225 19 5.225Z" fill="#292929"/>
<path d="M18.985 24.1416C18.1983 24.1416 17.56 23.5033 17.56 22.7166C17.56 20.7739 17.6936 19.4603 19.5342 17.6196C21.026 16.126 21.2784 15.5267 21.2784 14.482C21.2784 14.0831 21.1522 12.0922 18.6677 12.0922C16.0738 12.0922 15.7973 14.2891 15.7676 14.7288C15.7175 15.5137 15.0217 16.0981 14.2536 16.0573C13.4668 16.0054 12.8731 15.3281 12.925 14.5433C13.0457 12.7101 14.4001 9.24219 18.6677 9.24219C22.2525 9.24219 24.1284 11.8788 24.1284 14.482C24.1284 16.6548 23.26 17.9221 21.5493 19.6347C20.4545 20.7294 20.41 21.1765 20.41 22.7166C20.41 23.5033 19.7717 24.1416 18.985 24.1416Z" fill="#292929"/>
</svg>
