<?xml version="1.0" encoding="UTF-8"?><svg width="37" height="37" viewBox="0 0 37 37" fill="none" xmlns="http://www.w3.org/2000/svg">
<path d="M28.2123 12.9504H27.7498V12.0254C27.7498 6.92524 23.6 2.77539 18.4998 2.77539C13.3997 2.77539 9.2498 6.92524 9.2498 12.0254V12.9504H8.7873C7.00235 12.9504 5.5498 14.4029 5.5498 16.1879V30.0629C5.5498 31.8478 7.00235 33.3004 8.7873 33.3004H28.2123C29.9973 33.3004 31.4498 31.8478 31.4498 30.0629V16.1879C31.4498 14.4029 29.9973 12.9504 28.2123 12.9504ZM12.0248 12.0254C12.0248 8.45546 14.9299 5.55039 18.4998 5.55039C22.0697 5.55039 24.9748 8.45546 24.9748 12.0254V12.9504H12.0248V12.0254ZM28.6748 30.0629C28.6748 30.3176 28.4671 30.5254 28.2123 30.5254H8.7873C8.53256 30.5254 8.3248 30.3176 8.3248 30.0629V16.1879C8.3248 15.9331 8.53256 15.7254 8.7873 15.7254H28.2123C28.4671 15.7254 28.6748 15.9331 28.6748 16.1879V30.0629Z" fill="#292929"/>
<path d="M20.8125 21.2754C20.8125 19.9999 19.7755 18.9629 18.5 18.9629C17.2245 18.9629 16.1875 19.9999 16.1875 21.2754C16.1875 22.0202 16.5642 22.6534 17.1125 23.0766V24.5129C17.1125 25.2789 17.734 25.9004 18.5 25.9004C19.266 25.9004 19.8875 25.2789 19.8875 24.5129V23.0766C20.4358 22.6534 20.8125 22.0202 20.8125 21.2754Z" fill="#292929"/>
</svg>
