<?xml version="1.0" encoding="UTF-8"?><svg width="293" height="24" viewBox="0 0 293 24" fill="none" xmlns="http://www.w3.org/2000/svg">
<path d="M0 23.636L8.76547 2.71653H14.9125L23.6219 23.636H17.0969L11.6079 9.7457L7.98133 18.8612H12.2941L14.0163 23.636H0ZM31.6873 23.9441C26.7865 23.9441 22.6418 21.1716 22.6418 15.6407C22.6418 10.1098 26.6745 7.05725 30.8472 7.05725C31.5053 7.05725 32.1634 7.11326 32.8495 7.28129V2.10043H38.2824V22.6979C37.0362 23.258 34.3757 23.9441 31.7013 23.9441H31.6873ZM31.5613 19.4493C32.0234 19.4493 32.4714 19.3933 32.8355 19.2673V11.678C32.4574 11.524 32.0234 11.426 31.5193 11.426C29.713 11.426 28.0607 12.7702 28.0607 15.5427C28.0607 18.3151 29.741 19.4493 31.5613 19.4493ZM47.958 23.9161C43.4073 23.9161 39.5986 20.8636 39.5986 15.4867C39.5986 10.1098 43.4073 7.05725 47.958 7.05725C52.5088 7.05725 56.3594 10.1098 56.3594 15.4867C56.3594 20.8636 52.5228 23.9161 47.958 23.9161ZM47.958 19.3933C49.5543 19.3933 50.9545 18.1471 50.9545 15.4867C50.9545 12.8262 49.5543 11.58 47.958 11.58C46.3617 11.58 44.9895 12.8262 44.9895 15.4867C44.9895 18.1471 46.3617 19.3933 47.958 19.3933ZM64.1587 23.9441C62.0304 23.9441 59.3559 23.51 57.6616 22.7259V2.08643H63.0945V7.23928C63.7807 7.11326 64.4668 7.01525 65.1249 7.01525C69.3956 7.01525 73.3303 9.82972 73.3303 15.2626C73.3303 21.0036 69.1155 23.9441 64.1587 23.9441ZM63.0945 11.706V19.2673C63.4446 19.3933 63.8507 19.4493 64.3127 19.4493C66.1611 19.4493 67.8973 18.1331 67.8973 15.3326C67.8973 12.7142 66.2171 11.468 64.3968 11.468C63.8927 11.468 63.4866 11.566 63.0805 11.72L63.0945 11.706ZM74.5905 15.4587C74.5905 10.2498 78.2451 7.05725 82.6138 7.05725C86.7025 7.05725 90.4551 9.67569 90.4551 14.9546C90.4551 15.6687 90.4271 16.3548 90.3291 17.0409H80.1214C80.7095 18.8752 82.3338 19.7574 84.3641 19.7574C86.0164 19.7574 87.5426 19.3513 89.2649 18.5952V22.7539C87.6686 23.566 85.7643 23.9021 83.804 23.9021C78.6231 23.9021 74.5905 20.7795 74.5905 15.4447V15.4587ZM80.0514 13.6524H85.3583C85.0782 11.8741 83.888 11.1599 82.6698 11.1599C81.5216 11.1599 80.4574 11.9021 80.0514 13.6524Z" fill="#EB1000"/>
<path d="M108.224 2.4084C110.073 2.4084 111.753 2.68845 113.153 3.40257V8.80747C111.879 8.06534 110.591 7.61727 108.91 7.61727C105.886 7.61727 103.141 9.70362 103.141 13.2742C103.141 16.8448 105.858 18.8051 108.91 18.8051C110.591 18.8051 111.851 18.3991 113.153 17.6569V22.9078C111.683 23.6219 110.059 23.972 108.224 23.972C102.077 23.972 96.7983 20.0653 96.7983 13.2602C96.7983 6.45508 102.077 2.4224 108.224 2.4224V2.4084ZM114.791 7.33722H120.196V9.5916C121.596 7.40724 123.319 6.90315 125.069 7.05718V12.21C122.983 11.832 121.568 12.3361 120.224 13.7083V23.6359H114.791V7.33722ZM125.475 15.4586C125.475 10.2497 129.13 7.05718 133.498 7.05718C137.587 7.05718 141.34 9.67561 141.34 14.9545C141.34 15.6686 141.312 16.3547 141.214 17.0408H131.006C131.594 18.8751 133.218 19.7573 135.249 19.7573C136.901 19.7573 138.427 19.3512 140.15 18.5951V22.7538C138.553 23.5659 136.649 23.902 134.689 23.902C129.508 23.902 125.475 20.7795 125.475 15.4446V15.4586ZM130.936 13.6523H136.243C135.963 11.874 134.773 11.1599 133.554 11.1599C132.406 11.1599 131.342 11.902 130.936 13.6523ZM142.306 18.8051C142.306 15.2205 145.526 13.7503 148.887 13.7503C149.853 13.7503 150.665 13.8483 151.449 14.0583V13.9603C151.449 12.084 150.259 11.2719 148.327 11.2719C146.801 11.2719 145.302 11.6779 143.202 12.6721V8.42941C144.882 7.58927 146.983 7.05718 149.195 7.05718C153.312 7.05718 156.658 9.11552 156.658 13.8903V22.5998C154.53 23.5099 152.01 23.944 149.475 23.944C145.667 23.944 142.292 22.3477 142.292 18.7911L142.306 18.8051ZM149.741 20.1494C150.371 20.1494 150.987 20.0933 151.463 19.9253V17.4329C150.903 17.2789 150.371 17.2089 149.685 17.2089C148.313 17.2089 147.403 17.741 147.403 18.6791C147.403 19.6173 148.313 20.1494 149.741 20.1494ZM166.516 23.902C163.365 23.902 160.523 22.2497 160.523 18.161V11.79H157.428V7.35123H160.523V3.16453L165.984 2.81447V7.33722H169.919V11.776H165.984V17.3349C165.984 18.9592 166.922 19.3372 168.014 19.3372C168.7 19.3372 169.26 19.2112 169.947 18.9312V23.2719C169.036 23.6219 168.042 23.902 166.516 23.902ZM170.549 3.0245C170.549 1.34422 171.893 0 173.769 0C175.646 0 176.99 1.34422 176.99 3.0245C176.99 4.70478 175.59 6.09102 173.769 6.09102C171.949 6.09102 170.549 4.71879 170.549 3.0245ZM171.053 7.36523H176.486V23.6639H171.053V7.36523ZM176.99 7.36523H182.927L186.077 17.4749L189.228 7.36523H194.787L189.102 23.6639H182.703L176.99 7.36523ZM194.171 15.4866C194.171 10.2777 197.825 7.08518 202.194 7.08518C206.283 7.08518 210.035 9.70362 210.035 14.9825C210.035 15.6966 210.007 16.3827 209.909 17.0688H199.702C200.29 18.9032 201.914 19.7853 203.944 19.7853C205.597 19.7853 207.123 19.3792 208.845 18.6231V22.7818C207.249 23.5939 205.344 23.93 203.384 23.93C198.203 23.93 194.171 20.8075 194.171 15.4726V15.4866ZM199.632 13.6803H204.938C204.658 11.902 203.468 11.1879 202.25 11.1879C201.102 11.1879 200.038 11.93 199.632 13.6803ZM227.79 2.43641C229.639 2.43641 231.319 2.71645 232.719 3.43057V8.83547C231.445 8.09335 230.157 7.64527 228.476 7.64527C225.452 7.64527 222.707 9.73162 222.707 13.3022C222.707 16.8728 225.424 18.8331 228.476 18.8331C230.157 18.8331 231.417 18.4271 232.719 17.6849V22.9358C231.249 23.6499 229.625 24 227.79 24C221.643 24 216.364 20.0934 216.364 13.2882C216.364 6.48308 221.643 2.45041 227.79 2.45041V2.43641ZM234.357 2.12836H239.846V17.6149C239.846 18.8051 240.406 19.2392 241.246 19.2392C241.681 19.2392 242.059 19.1832 242.493 19.0152V23.4119C241.751 23.72 241.05 23.874 239.93 23.874C236.472 23.874 234.343 21.7876 234.343 18.3151V2.11435L234.357 2.12836ZM251.118 23.944C246.567 23.944 242.759 20.8915 242.759 15.5146C242.759 10.1377 246.567 7.08518 251.118 7.08518C255.669 7.08518 259.52 10.1377 259.52 15.5146C259.52 20.8915 255.683 23.944 251.118 23.944ZM251.118 19.4212C252.714 19.4212 254.115 18.175 254.115 15.5146C254.115 12.8541 252.714 11.6079 251.118 11.6079C249.522 11.6079 248.15 12.8541 248.15 15.5146C248.15 18.175 249.522 19.4212 251.118 19.4212ZM266.227 17.0828C266.227 18.6371 267.095 19.4212 268.355 19.4212C269.195 19.4212 269.881 19.0712 270.567 18.4271V7.37923H276V23.6779H270.637V21.9277C269.489 23.2999 268.047 23.958 266.325 23.958C263.146 23.958 260.766 21.8997 260.766 18.217V7.37923H266.227V17.0828ZM286.362 23.986C281.461 23.986 277.317 21.2135 277.317 15.6826C277.317 10.1517 281.349 7.09918 285.522 7.09918C286.18 7.09918 286.838 7.15519 287.524 7.32322V2.14236H292.957V22.7398C291.711 23.2999 289.05 23.986 286.376 23.986H286.362ZM286.236 19.4913C286.698 19.4913 287.146 19.4352 287.51 19.3092V11.72C287.132 11.5659 286.698 11.4679 286.194 11.4679C284.388 11.4679 282.735 12.8121 282.735 15.5846C282.735 18.3571 284.416 19.4913 286.236 19.4913Z" fill="black"/>
</svg>
