<?xml version="1.0" encoding="UTF-8"?><svg width="18" height="18" viewBox="0 0 18 18" fill="none" xmlns="http://www.w3.org/2000/svg">
<g clip-path="url(#clip0_4_483)">
<path d="M0.884525 11.0861L0.539525 10.7251C0.348435 10.5257 0.355125 10.2092 0.554475 10.0181C0.554465 10.0181 0.554495 10.0181 0.554475 10.0181L2.01252 8.61708L0.472525 7.19608C0.269295 7.00912 0.256105 6.69282 0.443055 6.48959C0.442895 6.48976 0.443215 6.48942 0.443055 6.48959L0.781525 6.12108C0.968565 5.91831 1.28448 5.90533 1.48752 6.09208L3.81252 8.23408C4.01564 8.42115 4.02865 8.73747 3.84158 8.94059C3.83446 8.94832 3.82711 8.95582 3.81952 8.96308L1.59152 11.1061C1.39217 11.2972 1.07566 11.2905 0.884575 11.0911C0.884595 11.0911 0.884555 11.0911 0.884575 11.0911L0.884525 11.0861Z" fill="#FA0F00"/>
<path d="M2.75739 4.98731L3.53602 5.7046V2.28492C3.53364 1.88087 3.85414 1.54884 4.25788 1.53687H11.5518C11.6771 1.54078 11.7967 1.59034 11.8881 1.67603L14.4122 4.23536C14.5059 4.3296 14.5582 4.45753 14.5574 4.59058V5.78223C15.2374 5.18946 15.7151 4.8274 16.0342 4.61255V4.32739C15.9825 3.89233 15.7878 3.48706 15.4805 3.1748L12.9554 0.619873C12.5837 0.247563 12.0798 0.0378428 11.5537 0.0361328H4.24689C3.01813 0.0573728 2.03345 1.06006 2.03418 2.28882V4.56885C2.29932 4.65698 2.54718 4.79444 2.75739 4.98731Z" fill="#222222"/>
<path d="M15.3021 12.1982L14.5315 11.4583V14.7891C14.5338 15.1929 14.2132 15.5247 13.8095 15.5361H4.25441C3.84676 15.5278 3.52119 15.1938 3.52345 14.7861V11.5747L2.88752 12.1875C2.641 12.4233 2.34309 12.581 2.02345 12.6675V14.7771C2.01893 16.0117 3.00984 17.0195 4.24446 17.0361H13.8234C15.051 17.0154 16.0352 16.0139 16.0344 14.7861V12.6306C15.7649 12.5395 15.5138 12.3977 15.3021 12.1982Z" fill="#222222"/>
<path d="M16.4766 11.1061L14.2456 8.96308C14.0461 8.77214 14.0392 8.45564 14.2301 8.25614C14.2374 8.24855 14.2449 8.24119 14.2526 8.23408L16.5806 6.09208C16.7836 5.90533 17.0995 5.91831 17.2866 6.12108L17.6246 6.48908C17.8118 6.69205 17.7991 7.00838 17.5961 7.19561C17.5963 7.19545 17.5959 7.19577 17.5961 7.19561L16.0526 8.61708L17.5146 10.0171C17.714 10.2081 17.7207 10.5246 17.5296 10.724C17.5297 10.724 17.5296 10.724 17.5296 10.724L17.1836 11.0851C16.9943 11.2861 16.6776 11.2954 16.4766 11.1061C16.4767 11.1061 16.4765 11.106 16.4766 11.1061Z" fill="#FA0F00"/>
<path d="M12.9989 8.67115C12.5871 8.34665 12.0638 8.19786 11.5429 8.25715C11.1486 8.2609 10.7552 8.29433 10.3659 8.35715C10.1157 8.11563 9.88867 7.85113 9.6879 7.56715C9.53238 7.35625 9.39075 7.13545 9.2639 6.90615C9.48162 6.29465 9.60831 5.65448 9.6399 5.00615C9.6399 4.42615 9.4089 3.80615 8.7639 3.80615C8.54059 3.81198 8.33577 3.93156 8.2209 4.12315C7.97359 4.93754 8.07118 5.81772 8.4909 6.55815C8.3349 7.01515 8.1689 7.45815 7.9639 7.95115C7.7888 8.37132 7.59152 8.7819 7.3729 9.18115C6.7119 9.44515 5.3089 10.0902 5.1729 10.8052C5.13168 11.0159 5.20511 11.2328 5.3659 11.3752C5.52368 11.5117 5.72742 11.5831 5.9359 11.5752C6.7799 11.5752 7.6239 10.4032 8.1929 9.39815C8.5159 9.29015 8.8439 9.18815 9.1719 9.09815C9.5319 8.99815 9.8719 8.92615 10.2039 8.86715C10.7674 9.41276 11.5113 9.73295 12.2949 9.76715C12.8429 9.76715 13.0469 9.53015 13.1219 9.33115C13.2025 9.10503 13.1555 8.85307 12.9989 8.67115ZM12.4139 9.07915C12.3583 9.25304 12.1858 9.36185 12.0049 9.33715C11.9432 9.33836 11.8817 9.3313 11.8219 9.31615C11.393 9.20738 10.9932 9.00562 10.6509 8.72515C10.9389 8.68173 11.2297 8.66 11.5209 8.66015C11.7155 8.65605 11.91 8.67045 12.1019 8.70315C12.2679 8.73015 12.4619 8.82715 12.4139 9.07915ZM8.5649 4.32215C8.60119 4.25132 8.67334 4.20603 8.7529 4.20415C8.9529 4.20415 8.9999 4.45115 8.9999 4.65615C8.97244 5.14399 8.88237 5.62628 8.7319 6.09115C8.46085 5.54201 8.40141 4.91231 8.5649 4.32215ZM9.0539 8.63915C8.8769 8.68715 8.6989 8.73915 8.5219 8.78915C8.6219 8.59615 8.7049 8.40715 8.7799 8.22515C8.8799 7.98315 8.9729 7.74615 9.0589 7.51015C9.1349 7.62815 9.2099 7.74115 9.2909 7.85415C9.44363 8.06782 9.60857 8.27249 9.7849 8.46715C9.7849 8.46115 9.2959 8.57415 9.0539 8.63915ZM7.1669 9.71415C6.6249 10.5842 6.0919 11.1332 5.7809 11.1332C5.72993 11.1338 5.68036 11.1164 5.6409 11.0842C5.58127 11.0363 5.5541 10.9587 5.5709 10.8842C5.6359 10.5742 6.2479 10.1222 7.1669 9.71415Z" fill="#FA0F00"/>
</g>
<defs>
<clipPath id="clip0_4_483">
<rect width="18" height="18" fill="white"/>
</clipPath>
</defs>
</svg>
