<?xml version="1.0" encoding="UTF-8"?><svg width="18" height="18" viewBox="0 0 18 18" fill="none" xmlns="http://www.w3.org/2000/svg">
<path d="M4.91694 12.375L4.57594 12.742C4.38788 12.9442 4.39935 13.2606 4.60156 13.4486C4.60144 13.4485 4.60169 13.4487 4.60156 13.4486L5.47094 14.256H0.835938C0.559797 14.256 0.335938 14.4798 0.335938 14.756V15.256C0.335938 15.5321 0.559797 15.756 0.835938 15.756H5.47194L4.55194 16.61C4.34954 16.7978 4.33773 17.1142 4.52558 17.3166C4.52546 17.3165 4.5257 17.3167 4.52558 17.3166L4.86694 17.684C5.05479 17.8864 5.37115 17.8982 5.57356 17.7103C5.57344 17.7105 5.57369 17.7102 5.57356 17.7103L8.09194 15.371C8.29435 15.1831 8.30617 14.8668 8.11833 14.6644C8.10987 14.6553 8.10106 14.6465 8.09194 14.638L5.62494 12.348C5.42273 12.1599 5.10636 12.1714 4.9183 12.3736C4.91842 12.3735 4.91818 12.3737 4.9183 12.3736L4.91694 12.375Z" fill="#FA0F00"/>
<path d="M12.932 8.67005C12.5202 8.34555 11.9969 8.19676 11.476 8.25605C11.0817 8.2598 10.6883 8.29323 10.299 8.35605C10.0488 8.11453 9.82178 7.85003 9.62101 7.56605C9.46549 7.35515 9.32385 7.13435 9.197 6.90505C9.41472 6.29355 9.54142 5.65338 9.57301 5.00505C9.57301 4.42505 9.342 3.80505 8.697 3.80505C8.47369 3.81088 8.26888 3.93046 8.15401 4.12205C7.9067 4.93644 8.00429 5.81662 8.42401 6.55705C8.26801 7.01405 8.10201 7.45705 7.89701 7.95005C7.72191 8.37022 7.52463 8.7808 7.30601 9.18005C6.64501 9.44405 5.24201 10.0891 5.10601 10.8041C5.06479 11.0148 5.13822 11.2317 5.29901 11.3741C5.45679 11.5106 5.66053 11.582 5.86901 11.5741C6.71301 11.5741 7.55701 10.4021 8.12601 9.39705C8.44901 9.28905 8.777 9.18705 9.105 9.09705C9.465 8.99705 9.80501 8.92505 10.137 8.86605C10.7005 9.41166 11.4444 9.73185 12.228 9.76605C12.776 9.76605 12.98 9.52905 13.055 9.33005C13.1356 9.10393 13.0886 8.85197 12.932 8.67005ZM12.347 9.07805C12.2914 9.25194 12.1189 9.36075 11.938 9.33605C11.8763 9.33726 11.8148 9.3302 11.755 9.31505C11.3261 9.20628 10.9263 9.00452 10.584 8.72405C10.872 8.68063 11.1628 8.6589 11.454 8.65905C11.6486 8.65495 11.8431 8.66935 12.035 8.70205C12.201 8.72905 12.395 8.82605 12.347 9.07805ZM8.49801 4.32105C8.5343 4.25022 8.60645 4.20493 8.68601 4.20305C8.88601 4.20305 8.933 4.45005 8.933 4.65505C8.90554 5.14289 8.81548 5.62518 8.66501 6.09005C8.39396 5.54091 8.33452 4.91121 8.49801 4.32105ZM8.98701 8.63805C8.81001 8.68605 8.63201 8.73805 8.45501 8.78805C8.55501 8.59505 8.63801 8.40605 8.71301 8.22405C8.81301 7.98205 8.906 7.74505 8.992 7.50905C9.068 7.62705 9.14301 7.74005 9.22401 7.85305C9.37674 8.06672 9.54168 8.27139 9.71801 8.46605C9.71801 8.46005 9.22901 8.57305 8.98701 8.63805ZM7.10001 9.71305C6.55801 10.5831 6.02501 11.1321 5.71401 11.1321C5.66304 11.1327 5.61347 11.1153 5.57401 11.0831C5.51438 11.0352 5.48721 10.9576 5.50401 10.8831C5.56901 10.5731 6.18101 10.1211 7.10001 9.71305Z" fill="#FA0F00"/>
<path d="M15.4222 3.13892L12.9002 0.58301C12.5289 0.21143 12.0256 0.00171 11.5002 0H4.20223C2.97498 0.02124 1.99146 1.02246 1.99219 2.25V12.7556H2.9704C3.0329 12.3699 3.2077 12.0115 3.48114 11.7195L3.49219 11.7075V2.24609C3.48981 1.84253 3.80988 1.51098 4.2132 1.49902H11.4982C11.6233 1.50293 11.7429 1.55224 11.8342 1.63794L14.3552 4.19385C14.4488 4.28833 14.501 4.41602 14.5002 4.54907V14.749C14.5025 15.1528 14.1819 15.4846 13.7782 15.4961H9.68287C9.58857 15.8652 9.39662 16.2065 9.11396 16.4695L8.53699 17.0049H13.7922C15.0198 16.9844 16.0039 15.9829 16.0032 14.7549V4.552C16.006 4.02221 15.7968 3.51344 15.4222 3.13892Z" fill="#222222"/>
<path d="M8.09119 14.6387L5.62464 12.3486C5.42231 12.1607 5.10602 12.1724 4.9181 12.3747L4.57728 12.7416C4.38929 12.9439 4.40101 13.2604 4.60346 13.4483L5.47266 14.255H0.836426C0.560306 14.255 0.336426 14.4789 0.336426 14.755V15.255C0.336426 15.5312 0.560306 15.755 0.836426 15.755H5.47272L4.55268 16.609C4.35023 16.797 4.33851 17.1134 4.5265 17.3158L4.86732 17.6827C5.05525 17.885 5.37153 17.8967 5.57386 17.7088L8.09119 15.3714C8.30426 15.1736 8.30426 14.8365 8.09119 14.6387Z" fill="#FA0F00"/>
</svg>
