<?xml version="1.0" encoding="UTF-8"?><svg width="18" height="18" viewBox="0 0 18 18" fill="none" xmlns="http://www.w3.org/2000/svg">
<path d="M7.74893 15.5H3.23403C2.85103 15.5 2.48935 15.1357 2.48935 14.75V2.25C2.48935 1.86426 2.85102 1.5 3.23403 1.5H9.0426V5.25C9.0426 5.66406 9.37615 6 9.78728 6H13.5107V7.72479C14.0345 7.80957 14.5343 7.9704 15 8.19726V4.5498C15 4.01269 14.793 3.53125 14.395 3.13085L11.9011 0.51855C11.52 0.13574 10.9184 0 10.4825 0H3.23403C2.02296 0 1 1.03027 1 2.25V14.75C1 15.9697 2.02296 17 3.23403 17H8.79649C8.36876 16.564 8.01582 16.0558 7.74893 15.5ZM10.5319 1.50635C10.6717 1.51599 10.8156 1.55628 10.8393 1.56934L13.3317 4.18067C13.4685 4.31837 13.5001 4.41749 13.5074 4.50001H10.5319L10.5319 1.50635Z" fill="#222222"/>
<path d="M17.1523 14.25H10.75V8.09961C10.75 7.82349 10.5261 7.59961 10.25 7.59961H9.75C9.47388 7.59961 9.25 7.82349 9.25 8.09961V9.25H8C7.72388 9.25 7.5 9.47388 7.5 9.75V10.25C7.5 10.5261 7.72388 10.75 8 10.75H9.25V15.25C9.25 15.5261 9.47388 15.75 9.75 15.75H14.3501V17C14.3501 17.2761 14.574 17.5 14.8501 17.5H15.3501C15.6262 17.5 15.8501 17.2761 15.8501 17V15.75H17.1523C17.4285 15.75 17.6523 15.5261 17.6523 15.25V14.75C17.6523 14.4739 17.4285 14.25 17.1523 14.25Z" fill="#FA0F00"/>
<path d="M12 10.75H14.3501V13H15.8501V9.75C15.8501 9.47388 15.6262 9.25 15.3501 9.25H12V10.75Z" fill="#FA0F00"/>
</svg>
