<?xml version="1.0" encoding="UTF-8"?><svg width="18" height="18" viewBox="0 0 18 18" fill="none" xmlns="http://www.w3.org/2000/svg">
<g clip-path="url(#clip0_4_497)">
<path d="M8.68272 15.4946H3.23246C2.82621 15.4893 2.49808 15.1548 2.50004 14.7446V2.24023C2.49809 1.83496 2.82621 1.50048 3.22172 1.49462H9.00102V5.2578C9.00102 5.67201 9.33681 6.0078 9.75102 6.0078H13.5079V6.83275H15.0079V4.54881C15.0079 4.01745 14.7986 3.50747 14.4253 3.12928L11.9092 0.580059C11.542 0.208009 11.0313 -0.00537109 10.5059 -0.00537109H3.21098C1.98441 0.0131789 0.993195 1.02441 1.00004 2.24463V14.7402C0.993195 15.9663 1.98442 16.9775 3.22172 16.9946H8.75331L8.68272 15.4946ZM10.501 1.49463H10.5039C10.5889 1.48926 10.753 1.54443 10.8409 1.6333L13.3623 4.18799C13.4472 4.27332 13.4925 4.38788 13.5008 4.50781H10.501L10.501 1.49463Z" fill="#222222"/>
<path d="M17.5 10.5H16V9.5C16 8.80964 15.4404 8.25 14.75 8.25H12.25C11.5596 8.25 11 8.80964 11 9.5V10.5H9.5C9.22386 10.5 9 10.7239 9 11V11.5C9 11.7761 9.22386 12 9.5 12H10.0153L10.3408 16.9033C10.4189 17.5283 10.9521 18 11.581 18H15.4053C16.0342 18 16.5674 17.5293 16.6494 16.8672L17.01 12H17.5C17.7761 12 18 11.7761 18 11.5V11C18 10.7239 17.7761 10.5 17.5 10.5ZM12.5 9.75H14.5V10.5H12.5V9.75ZM15.1728 16.5H11.8164L11.5179 12H15.5057L15.1728 16.5Z" fill="#FA0F00"/>
</g>
<defs>
<clipPath id="clip0_4_497">
<rect width="18" height="18" fill="white"/>
</clipPath>
</defs>
</svg>
