<?xml version="1.0" encoding="UTF-8"?><svg width="18" height="18" viewBox="0 0 18 18" fill="none" xmlns="http://www.w3.org/2000/svg">
<g clip-path="url(#clip0_4_247)">
<path fill-rule="evenodd" clip-rule="evenodd" d="M3.53965 6.82051C3.16636 7.4193 2.80062 7.79602 2.58613 7.79602C2.55313 7.79602 2.516 7.78502 2.48988 7.76303C2.44932 7.72934 2.43077 7.67778 2.44246 7.62622C2.48645 7.41173 2.90786 7.10168 3.53965 6.82051ZM4.83691 6.08148C4.71453 6.11447 4.59286 6.14816 4.47117 6.1846C4.53716 6.05191 4.59629 5.92267 4.64854 5.79686C4.71453 5.63049 4.78122 5.46825 4.84034 5.30533C4.8919 5.38645 4.94415 5.46413 4.99914 5.54181C5.10639 5.68962 5.21708 5.82987 5.33944 5.96323C5.33944 5.9598 5.00327 6.03678 4.83691 6.08148ZM4.50073 3.11436C4.52617 3.06623 4.57429 3.03323 4.62997 3.03323C4.77021 3.03323 4.79979 3.20305 4.79979 3.34329C4.79979 3.56877 4.73311 3.93107 4.61485 4.3298C4.38249 3.70146 4.41549 3.26559 4.50073 3.11436ZM7.14612 6.38464C7.12412 6.49189 7.01688 6.56201 6.86563 6.56201C6.82094 6.56201 6.78038 6.55789 6.73982 6.54689C6.46277 6.48021 6.19671 6.34752 5.93411 6.14059C6.13003 6.11103 6.3294 6.09591 6.5329 6.09591C6.66558 6.09246 6.79895 6.10346 6.93163 6.12547C7.04644 6.14402 7.17913 6.21072 7.14612 6.38464ZM7.54898 6.10347C7.37161 5.9151 7.03543 5.81886 6.54733 5.81886C6.27784 5.82298 6.00422 5.84498 5.73817 5.88897C5.56837 5.72329 5.40957 5.5418 5.27276 5.34588C5.16552 5.2022 5.06927 5.05027 4.98058 4.89146C5.15451 4.34837 5.23975 3.9125 5.23975 3.5832C5.23975 3.18447 5.08027 2.75549 4.63684 2.75549C4.48216 2.75963 4.34123 2.84417 4.26424 2.97412C4.07518 3.29928 4.14943 3.97163 4.45261 4.65153C4.34536 4.96571 4.23055 5.2682 4.09031 5.60848C3.96864 5.89654 3.83526 6.18114 3.68401 6.45476C3.2289 6.63556 2.26508 7.07898 2.17228 7.57051C2.14271 7.71489 2.19427 7.86269 2.30564 7.96237C2.41288 8.05862 2.55312 8.10673 2.69681 8.10261C3.27703 8.10261 3.85726 7.2969 4.24912 6.606C4.47117 6.53244 4.69597 6.46231 4.92145 6.4032C5.16895 6.33652 5.40543 6.28496 5.63092 6.2437C6.24483 6.77992 6.79137 6.86106 7.06842 6.86106C7.44514 6.86106 7.58609 6.69881 7.63765 6.562C7.69333 6.40664 7.65965 6.22928 7.54898 6.10347Z" fill="#FA0F00"/>
<path d="M17.5646 2.30011L16.0133 0.702983C15.7312 0.412063 15.3143 0.211933 14.9356 0.250003L9.8835 0.272453C9.19403 0.281973 8.6045 0.719813 8.35959 1.32923L7.74944 0.701023C7.46828 0.414003 7.07974 0.250003 6.68143 0.250003H1.64499C0.732214 0.262693 -0.00485591 1.02123 2.4093e-05 1.93792V9.80741C-0.00485591 10.7251 0.732204 11.4836 1.65475 11.4983H6.73804V9.99875H1.66647C1.57373 9.99777 1.49856 9.91479 1.49953 9.81131V1.93402C1.49855 1.83347 1.57275 1.75049 1.65475 1.74951H6.67752L6.67362 1.74756H6.67557L6.67752 1.74951L8.23756 3.37398V8.4973H9.73707V1.95745C9.73707 1.8569 9.81126 1.77294 9.8962 1.77196L12.9811 1.75829V4.75535C12.9811 5.16928 13.317 5.5051 13.7309 5.5051H16.5005V9.81521C16.5015 9.91479 16.4263 9.99777 16.3423 9.99874L11.2366 10.0166V11.5161L16.357 11.4983C17.2678 11.4836 18.0049 10.7251 18 9.8113V3.37788C18.0019 2.97372 17.8408 2.57834 17.5646 2.30011ZM14.4806 4.0056V1.75146L14.9395 1.74951L16.5005 3.37398V4.00561L14.4806 4.0056Z" fill="#222222"/>
<path d="M11.2949 14.1445C11.0925 13.9568 10.7763 13.9686 10.5885 14.171L9.73416 15.0914V10.5C9.73416 10.2239 9.5103 10 9.23416 10H8.73416C8.45802 10 8.23416 10.2239 8.23416 10.5V15.0895L7.42764 14.2207C7.23985 14.0184 6.92365 14.0066 6.72124 14.1942L6.35488 14.5339C6.15232 14.7217 6.14042 15.0382 6.32833 15.2407L8.61861 17.7086C8.81645 17.9218 9.15379 17.9218 9.35162 17.7086L11.6879 15.1909C11.8758 14.9884 11.8639 14.6719 11.6613 14.4841L11.2949 14.1445Z" fill="#FA0F00"/>
</g>
<defs>
<clipPath id="clip0_4_247">
<rect width="18" height="18" fill="white"/>
</clipPath>
</defs>
</svg>
