<?xml version="1.0" encoding="UTF-8"?><svg width="18" height="18" viewBox="0 0 18 18" fill="none" xmlns="http://www.w3.org/2000/svg">
<path d="M7.71716 11.387L7.05816 13.266C7.05302 13.3098 7.01328 13.3412 6.9694 13.3361L6.96816 13.336H6.16816C6.10716 13.336 6.08816 13.306 6.10716 13.256L8.23616 7.25595C8.28839 7.10818 8.31543 6.95268 8.31616 6.79595C8.31445 6.77005 8.33405 6.74766 8.35995 6.74595C8.36202 6.74581 8.36409 6.74581 8.36616 6.74595H9.50616C9.54616 6.74595 9.56616 6.75595 9.57616 6.79595L11.9042 13.252C11.9152 13.302 11.9042 13.332 11.8542 13.332H10.9542C10.915 13.3313 10.8798 13.3079 10.8642 13.272L10.1942 11.382L7.71716 11.387ZM9.92616 10.497C9.71616 9.84795 9.14716 8.23795 8.95616 7.54895H8.94616C8.77616 8.19895 8.32616 9.46795 7.97616 10.497H9.92616Z" fill="#FA0F00"/>
<path d="M15.43 3.14L12.908 0.583005C12.5303 0.216615 12.0262 0.00964488 11.5 0.00500488H4.211C2.98488 0.0246549 2.00093 1.02372 2 2.25V14.75C1.9977 15.9831 2.98798 16.9886 4.221 17.005H13.8C15.0275 16.9843 16.0113 15.9826 16.01 14.755V4.553C16.0107 4.02392 15.8022 3.51603 15.43 3.14ZM11.842 1.64L14.364 4.195C14.4455 4.2812 14.4937 4.39355 14.5 4.512H11.5V1.505H11.506C11.6305 1.5086 11.7493 1.5577 11.84 1.643L11.842 1.64ZM13.787 15.505H4.232C3.82391 15.4974 3.49774 15.1632 3.5 14.755V2.246C3.49985 1.84444 3.81959 1.51584 4.221 1.505H10V5.263C10 5.67721 10.3358 6.013 10.75 6.013H14.507V14.754C14.5088 15.1571 14.1889 15.4881 13.786 15.5L13.787 15.505Z" fill="#222222"/>
</svg>
