<?xml version="1.0" encoding="UTF-8"?><svg width="18" height="18" viewBox="0 0 18 18" fill="none" xmlns="http://www.w3.org/2000/svg">
<g clip-path="url(#clip0_4_414)">
<path d="M16.4204 3.13672L13.9009 0.58399C13.5337 0.21094 13.021 -0.00292969 12.4927 -0.00292969H5.2017C3.97514 0.0146503 2.98393 1.02637 2.99076 2.24707V11.188C3.0438 11.1128 3.08335 11.0303 3.14732 10.9619L3.48521 10.5967C3.75578 10.3052 4.10875 10.1077 4.49076 10.0166V2.24219C4.48881 1.83692 4.81693 1.50293 5.21244 1.49707H10.9917V5.26074C10.9917 5.6748 11.3277 6.01074 11.7417 6.01074H15.4986V14.752C15.5005 15.1572 15.1724 15.4922 14.7769 15.4971H8.96763C8.90812 15.571 8.85032 15.6465 8.78013 15.7119L7.39573 16.9971H14.7867C16.0132 16.9805 17.0054 15.9697 16.9986 14.7471V4.55273C17.0015 4.0205 16.7964 3.51758 16.4204 3.13672ZM12.4917 4.51074V1.49707C12.6206 1.49707 12.7447 1.54785 12.8316 1.63574L15.3531 4.19043C15.4388 4.27686 15.4832 4.38989 15.4915 4.51074H12.4917Z" fill="#222222"/>
<path d="M13.9985 13.4971V7.49707C13.9985 7.22095 13.7747 6.99707 13.4985 6.99707H6.49854C6.22242 6.99707 5.99854 7.22095 5.99854 7.49707V10.2554C6.10914 10.3235 6.21436 10.4014 6.31128 10.4912L7.49854 11.5933V11.272H9.24268V12.4971H8.47205L8.77807 12.7813C9.1231 13.1023 9.33257 13.5364 9.39166 13.9971H13.4985C13.7747 13.9971 13.9985 13.7732 13.9985 13.4971ZM9.24268 9.79639H7.49854V8.49707H9.24268V9.79639ZM12.4985 12.4971H10.7427V11.272H12.4985V12.4971ZM12.4985 9.79639H10.7427V8.49707H12.4985V9.79639Z" fill="#222222"/>
<path d="M7.75769 13.8812L5.29114 11.5911C5.08881 11.4032 4.77252 11.415 4.5846 11.6172L4.24378 11.9841C4.05579 12.1865 4.06751 12.503 4.26996 12.6909L5.13916 13.4976H0.50293C0.22681 13.4976 0.00292969 13.7214 0.00292969 13.9976V14.4976C0.00292969 14.7737 0.22681 14.9976 0.50293 14.9976H5.13922L4.21918 15.8516C4.01673 16.0395 4.00501 16.356 4.193 16.5584L4.53382 16.9253C4.72175 17.1275 5.03803 17.1393 5.24036 16.9514L7.75769 14.614C7.97076 14.4162 7.97076 14.079 7.75769 13.8812Z" fill="#FA0F00"/>
</g>
<defs>
<clipPath id="clip0_4_414">
<rect width="18" height="18" fill="white"/>
</clipPath>
</defs>
</svg>
