<?xml version="1.0" encoding="UTF-8"?><svg width="18" height="18" viewBox="0 0 18 18" fill="none" xmlns="http://www.w3.org/2000/svg">
<g clip-path="url(#clip0_8483_434)">
<path d="M13.996 13.2559V12.7559C13.996 12.4797 13.7721 12.2559 13.496 12.2559H8.23865L8.78131 12.7598C9.07086 13.0291 9.26678 13.3787 9.35889 13.7559H13.496C13.7721 13.7559 13.996 13.532 13.996 13.2559Z" fill="#222222"/>
<path d="M13.496 9.25586H11.4843C11.2081 9.25586 10.9843 9.47972 10.9843 9.75586V10.2559C10.9843 10.532 11.2081 10.7559 11.4843 10.7559H13.496C13.7721 10.7559 13.996 10.532 13.996 10.2559V9.75586C13.996 9.47972 13.7721 9.25586 13.496 9.25586Z" fill="#222222"/>
<path d="M10.496 6.00586H5.99597C5.69598 6.00586 5.49597 6.20557 5.49597 6.50586V8.00586C5.49597 8.30566 5.69598 8.50586 5.99597 8.50586H6.49597C6.79596 8.50586 6.99597 8.30566 6.99597 8.00586V7.50586H7.49597V9.50586C7.19598 9.50586 6.99597 9.70557 6.99597 10.0059V10.5059C6.99597 10.8057 7.19598 11.0059 7.49597 11.0059H8.99597C9.29596 11.0059 9.49597 10.8057 9.49597 10.5059V10.0059C9.49597 9.70557 9.29596 9.50586 8.99597 9.50586V7.50586H9.49597V8.00586C9.49597 8.30566 9.69598 8.50586 9.99597 8.50586H10.496C10.796 8.50586 10.996 8.30566 10.996 8.00586V6.50586C10.996 6.20557 10.796 6.00586 10.496 6.00586Z" fill="#222222"/>
<path d="M16.4257 3.13965L13.9042 0.58496C13.537 0.21289 13.0262 0 12.5018 0H5.20594C3.98035 0.01953 2.98914 1.03027 2.99598 2.25V11.1633C3.04841 11.0894 3.08729 11.0078 3.15046 10.9404L3.48835 10.5752C3.75941 10.283 4.11311 10.085 4.49598 9.99439V2.24512C4.49403 1.84082 4.82215 1.50586 5.21766 1.5H10.997V5.26367C10.997 5.67773 11.3329 6.01367 11.747 6.01367H15.5038V14.7549C15.5057 15.1601 15.1776 15.4951 14.7821 15.5H8.94936C8.89553 15.5647 8.84548 15.6323 8.78328 15.6904L7.37239 17H14.7919C16.0184 16.9834 17.0106 15.9727 17.0038 14.75V4.55566C17.0067 4.03027 16.7958 3.51465 16.4257 3.13965ZM12.4969 4.51367V1.5H12.5018C12.6278 1.5 12.7499 1.55078 12.8368 1.63867L15.3583 4.19336C15.4421 4.27905 15.4881 4.3938 15.4966 4.51367H12.4969Z" fill="#222222"/>
<path d="M7.76066 13.8596L5.29411 11.5695C5.09178 11.3816 4.77549 11.3933 4.58757 11.5956L4.24675 11.9625C4.05876 12.1649 4.07048 12.4814 4.27293 12.6693L5.14213 13.476H0.505898C0.229778 13.476 0.00589752 13.6998 0.00589752 13.976V14.476C0.00589752 14.7521 0.229778 14.976 0.505898 14.976H5.14219L4.22215 15.83C4.0197 16.0179 4.00798 16.3344 4.19597 16.5368L4.53679 16.9037C4.72472 17.1059 5.041 17.1177 5.24333 16.9298L7.76066 14.5924C7.97373 14.3946 7.97373 14.0574 7.76066 13.8596Z" fill="#FA0F00"/>
</g>
<defs>
<clipPath id="clip0_8483_434">
<rect width="18" height="18" fill="white"/>
</clipPath>
</defs>
</svg>
