<?xml version="1.0" encoding="UTF-8"?><svg width="18" height="18" viewBox="0 0 18 18" fill="none" xmlns="http://www.w3.org/2000/svg">
<g clip-path="url(#clip0_3_352)">
<path d="M1.5 11.9941H0.5C0.22386 11.9941 0 11.7703 0 11.4941V1.25C0 0.55964 0.55964 0 1.25 0H14.5176C14.7937 0 15.0176 0.22386 15.0176 0.5V1.5H1.5V11.9941Z" fill="#222222"/>
<path d="M16.75 3H4.25C3.56055 3 3 3.56055 3 4.25V12.1616C3.0498 12.0928 3.08545 12.0161 3.14453 11.9529L3.48242 11.5877C3.85937 11.1814 4.39355 10.949 4.94824 10.949C5.12829 10.949 5.30298 10.981 5.47326 11.0274L7.71093 8.83301L11.5469 12.3399C11.8252 12.5957 12.251 12.6026 12.5391 12.3574L14.2432 10.9063L16.5 13.1272V13.5H8.48218L8.77539 13.7722C9.12329 14.096 9.3335 14.5347 9.39014 15H16.75C17.4395 15 18 14.4395 18 13.75V4.25C18 3.56055 17.4395 3 16.75 3ZM16.5 11.0225L14.8066 9.35547C14.5293 9.08301 14.0898 9.06836 13.7939 9.31836L12.0703 10.7861L8.19922 7.24609C7.90625 6.97851 7.45313 6.98339 7.16797 7.26464L4.5 9.8811V4.5H16.5V11.0225Z" fill="#222222"/>
<path d="M7.83093 14.8724L5.36438 12.5823C5.16205 12.3945 4.84576 12.4062 4.65784 12.6085L4.31702 12.9753C4.12903 13.1777 4.14075 13.4942 4.3432 13.6821L5.2124 14.4888H0.576172C0.300052 14.4888 0.0761719 14.7127 0.0761719 14.9888V15.4888C0.0761719 15.765 0.300052 15.9888 0.576172 15.9888H5.21246L4.29242 16.8428C4.08997 17.0308 4.07825 17.3472 4.26624 17.5496L4.60706 17.9165C4.79499 18.1188 5.11127 18.1305 5.3136 17.9426L7.83093 15.6052C8.044 15.4074 8.044 15.0703 7.83093 14.8724Z" fill="#FA0F00"/>
<path fill-rule="evenodd" clip-rule="evenodd" d="M13.75 7.98849C14.4404 7.98849 15 7.42885 15 6.73849C15 6.04813 14.4404 5.48849 13.75 5.48849C13.0596 5.48849 12.5 6.04813 12.5 6.73849C12.5 7.42885 13.0596 7.98849 13.75 7.98849Z" fill="#222222"/>
</g>
<defs>
<clipPath id="clip0_3_352">
<rect width="18" height="18" fill="white"/>
</clipPath>
</defs>
</svg>
