<?xml version="1.0" encoding="UTF-8"?><svg width="18" height="18" viewBox="0 0 18 18" fill="none" xmlns="http://www.w3.org/2000/svg">
<g clip-path="url(#clip0_3_396)">
<path d="M2.87984 15.5026L7.84981 15.4929L1.87984 15.5026L3.01485 11.7028L12.2829 2.2148C12.2927 2.20528 12.3027 2.19625 12.3129 2.18721C12.8393 1.71944 13.6452 1.76729 14.1127 2.29366C14.5922 2.77608 14.5946 3.5544 14.1179 4.03975L4.91781 13.5327C4.62936 13.8303 4.63644 14.3051 4.9338 14.5937C5.23116 14.8823 5.70626 14.8752 5.99484 14.5778L15.1948 5.08468L15.2038 5.0754C16.2567 3.97628 16.2191 2.23165 15.1198 1.17867L15.0979 1.1567C14.0112 0.0861355 12.2624 0.0990754 11.1919 1.18575L1.81283 10.7946C1.7275 10.8808 1.66464 10.9865 1.62985 11.1027L0.346888 15.3867C0.346518 15.3879 0.346158 15.3889 0.345908 15.3898C0.150348 16.0524 0.529137 16.7482 1.19186 16.9438C1.30722 16.9773 1.42672 16.9943 1.54684 16.9948H7.84982C7.84982 16.9948 2.30722 16.9773 2.19186 16.9438C1.52914 16.7482 2.87984 15.5026 2.87984 15.5026Z" fill="#222222"/>
<path d="M17.526 14.2168C17.1918 13.9719 16.7225 14.0446 16.4778 14.3786C16.275 14.6455 16.0399 14.8859 15.7777 15.0947C15.9486 14.7016 15.9227 14.2507 15.7078 13.8796C15.5161 13.6049 15.1976 13.4465 14.8627 13.4597C14.2645 13.5319 13.7178 13.8342 13.3387 14.3027C12.8157 14.8903 12.1171 15.2937 11.3468 15.4528C11.8885 15.0534 12.3837 14.5947 12.8227 14.0847C13.3528 13.4223 13.3385 12.477 12.7887 11.8308C12.2519 11.2573 11.3939 11.122 10.7067 11.5027C9.59411 12.4101 8.93981 13.7632 8.91979 15.1987C8.58678 15.3684 8.22277 15.4685 7.84972 15.4929L2.87975 15.5027C2.87975 15.5027 1.52904 16.7483 2.19176 16.9438C2.30712 16.9773 7.84972 16.9948 7.84972 16.9948C8.42931 16.9714 8.99767 16.8266 9.51769 16.5698C9.87926 16.8618 10.3343 17.0129 10.7987 16.9948C11.9701 17.0051 13.1005 16.5652 13.9567 15.7658C13.8568 16.0796 13.9012 16.4216 14.0777 16.6997C14.2561 16.9531 14.5489 17.1008 14.8588 17.0937C16.0118 16.8899 17.0336 16.2282 17.6918 15.2597C17.9322 14.9255 17.8581 14.4599 17.526 14.2168ZM10.6207 14.1347C10.7812 13.634 11.0641 13.1814 11.4437 12.8176C11.4715 12.8015 11.5035 12.7932 11.5358 12.7937V12.7888C11.5917 12.7905 11.6446 12.8137 11.6837 12.8537C11.7757 12.9548 11.6168 13.1997 11.6107 13.2116C11.3154 13.5546 10.9835 13.864 10.6207 14.1347Z" fill="#FA0F00"/>
</g>
<defs>
<clipPath id="clip0_3_396">
<rect width="18" height="18" fill="white"/>
</clipPath>
</defs>
</svg>
