<?xml version="1.0" encoding="UTF-8"?><svg width="18" height="18" viewBox="0 0 18 18" fill="none" xmlns="http://www.w3.org/2000/svg">
<g clip-path="url(#clip0_3_280)">
<path d="M5.41721 10.25H3.58279C3.26092 10.25 3 10.0261 3 9.75V9.25C3 8.97386 3.26092 8.75 3.58279 8.75H5.41721C5.73908 8.75 6 8.97386 6 9.25V9.75C6 10.0261 5.73908 10.25 5.41721 10.25Z" fill="#222222"/>
<path d="M3.50141 12.5H7.5C7.77596 12.5 8 12.724 8 13V13.4986C8 13.7753 7.77533 14 7.49859 14H3.5C3.22404 14 3 13.776 3 13.5V13.0014C3 12.7247 3.22467 12.5 3.50141 12.5Z" fill="#222222"/>
<path d="M17.8012 4.89825L16.2641 3.20294L16.748 0.963682C16.8212 0.620912 16.6664 0.273252 16.3627 0.0984516C16.081 -0.0656084 15.6601 -0.0197084 15.4188 0.199042L13.723 1.73615L11.4901 1.25373C11.1498 1.18439 10.7978 1.3299 10.62 1.63459C10.4555 1.91682 10.4994 2.33967 10.7191 2.58186L12.2562 4.27717L11.7724 6.51643C11.6991 6.8592 11.8539 7.20686 12.1576 7.38166C12.2719 7.44807 12.4091 7.47932 12.5477 7.47932C12.7509 7.47932 12.9579 7.41096 13.1015 7.28108L14.7973 5.74397L17.0302 6.22639C17.3725 6.30061 17.723 6.15022 17.9003 5.84553C18.0648 5.5633 18.0209 5.14044 17.8012 4.89825ZM14.7694 4.20294C14.5316 4.14923 14.2338 4.22931 14.0536 4.39337L13.6957 4.71759L13.7977 4.24689C13.849 4.00959 13.7704 3.71369 13.6073 3.534L13.2821 3.1756L13.7509 3.27716C13.9887 3.32794 14.2865 3.24982 14.4667 3.08673L14.8246 2.76251L14.7235 3.23028C14.6703 3.46856 14.7494 3.76544 14.913 3.9461L15.2382 4.3045L14.7694 4.20294Z" fill="#5258E4"/>
<path d="M16.702 7.70044L15.4971 7.44019V14.748C15.4971 15.1611 15.1602 15.498 14.7471 15.498H2.24707C1.83398 15.498 1.49707 15.1611 1.49707 14.748V4.24805C1.49707 3.83496 1.83398 3.49805 2.24707 3.49805H9.52081C9.18036 3.0752 9.00647 2.53711 9.01477 1.99805H2.24707C1.00684 1.99805 -0.00292969 3.00781 -0.00292969 4.24805V14.748C-0.00292969 15.9883 1.00684 16.998 2.24707 16.998H14.7471C15.9873 16.998 16.9971 15.9883 16.9971 14.748V7.73218C16.8982 7.72364 16.7984 7.72144 16.702 7.70044Z" fill="#222222"/>
<path d="M10.3043 9.32129L9.94638 8.92676L10.0587 8.40625C10.1275 8.08789 9.983 7.76172 9.70077 7.59863C9.41952 7.43554 9.06259 7.47265 8.82235 7.69238L8.42733 8.0498L7.90682 7.9375C7.58846 7.875 7.26229 8.01465 7.09871 8.2959C6.93611 8.57813 6.9742 8.9336 7.19295 9.17481L7.55086 9.56934L7.43807 10.0889C7.36922 10.4082 7.51375 10.7344 7.79598 10.8975C7.91268 10.9648 8.04207 10.998 8.17098 10.998C8.35262 10.998 8.53328 10.9316 8.6744 10.8037L9.06942 10.4463L9.59042 10.5586C9.91269 10.625 10.2359 10.4824 10.3985 10.2002C10.5611 9.91796 10.523 9.5625 10.3043 9.32129Z" fill="#5258E4"/>
<path d="M7.50013 5H3.5C3.22386 5 3 5.22386 3 5.5V6C3 6.27614 3.22386 6.5 3.5 6.5H7.50013C7.77627 6.5 8.00013 6.27614 8.00013 6V5.5C8.00013 5.22386 7.77627 5 7.50013 5Z" fill="#222222"/>
</g>
<defs>
<clipPath id="clip0_3_280">
<rect width="18" height="18" fill="white"/>
</clipPath>
</defs>
</svg>
