<?xml version="1.0" encoding="UTF-8"?><svg width="32" height="32" viewBox="0 0 32 32" fill="none" xmlns="http://www.w3.org/2000/svg">
<path d="M15.8167 21.3636C15.5057 21.3636 15.1917 21.2841 14.9077 21.1193C14.2202 20.723 13.8707 19.9361 14.0383 19.1619L15.3849 12.9375L11.1079 8.22159C10.5753 7.63494 10.4844 6.7784 10.8807 6.09232C11.2755 5.40482 12.0611 5.05965 12.838 5.223L19.0625 6.56816L23.7784 2.2926C24.3622 1.7585 25.2201 1.66618 25.9062 2.0639C26.5937 2.4602 26.9446 3.24714 26.777 4.02271L25.4318 10.2471L29.7074 14.9631C30.24 15.5483 30.3324 16.4034 29.9361 17.0909C29.5398 17.7798 28.75 18.1236 27.9773 17.9616L21.7528 16.615L17.0369 20.892C16.6932 21.2031 16.2571 21.3636 15.8167 21.3636ZM17.5554 13.2173L16.4105 18.5142L20.4261 14.8736C20.8679 14.4801 21.4616 14.3196 22.0326 14.4446L27.3295 15.5895L23.6903 11.5739C23.2968 11.1378 23.1363 10.5369 23.2613 9.96733L24.4048 4.67046L20.3892 8.30966C19.9531 8.70313 19.3551 8.86647 18.7827 8.73863L13.4858 7.59517L17.1264 11.6108C17.5213 12.0511 17.679 12.6506 17.5554 13.2173Z" fill="#222222"/>
<path d="M11.7994 26.6505L9.68431 24.3167L10.3505 21.2385C10.4499 20.7755 10.2397 20.301 9.8292 20.0638C9.41727 19.8252 8.90306 19.8806 8.55079 20.2002L6.21698 22.3152L3.13886 21.649C2.67722 21.5553 2.20136 21.7598 1.96414 22.1703C1.72692 22.5809 1.78232 23.0965 2.1005 23.4488L4.21556 25.7826L3.54936 28.8607C3.44993 29.3238 3.66015 29.7982 4.07067 30.0354C4.24113 30.1334 4.42862 30.1817 4.61613 30.1817C4.88033 30.1817 5.14311 30.0851 5.34909 29.899L7.68289 27.784L10.761 28.4502C11.2255 28.5439 11.6999 28.3394 11.9357 27.9289C12.173 27.5184 12.1176 27.0027 11.7994 26.6505Z" fill="#222222"/>
</svg>
