<?xml version="1.0" encoding="UTF-8"?><svg width="32" height="32" viewBox="0 0 32 32" fill="none" xmlns="http://www.w3.org/2000/svg">
<path d="M16.0063 20.1422C14.5852 20.1422 13.2016 19.4063 12.4414 18.0891C11.3086 16.125 11.9836 13.6079 13.9453 12.475C14.8945 11.925 16.0016 11.7813 17.0641 12.0641C18.1242 12.3485 19.0102 13.0297 19.5586 13.9797C20.1078 14.9297 20.2531 16.0375 19.9695 17.0969C19.6852 18.1579 19.0055 19.0438 18.0547 19.5922C17.4094 19.9657 16.7031 20.1422 16.0063 20.1422ZM14.5195 16.8891C14.9906 17.7032 16.0367 17.9828 16.8547 17.5141C17.25 17.286 17.5328 16.9172 17.6508 16.4766C17.7687 16.036 17.7086 15.575 17.4805 15.1797C17.2515 14.7844 16.8836 14.5016 16.4422 14.3828C16.0023 14.2656 15.5414 14.3266 15.1453 14.5531C14.3289 15.025 14.0484 16.0719 14.5195 16.8891Z" fill="#292929"/>
<path d="M11.0508 29.3094C10.5078 29.3094 9.95937 29.1735 9.46328 28.886L8.15157 28.1297C6.72265 27.3078 6.15156 25.4906 6.8539 23.9969L7.78203 22.0234C7.3578 21.4422 6.99843 20.8219 6.70702 20.1656L4.53593 19.986C2.88984 19.85 1.60078 18.45 1.60078 16.8L1.59921 15.286C1.59921 13.6328 2.8875 12.2313 4.53281 12.0953L6.7 11.9125C6.84688 11.5781 7.0078 11.2578 7.18281 10.9531C7.35859 10.6469 7.55625 10.3469 7.77344 10.05L6.84452 8.08283C6.13905 6.59064 6.70624 4.77346 8.13593 3.9469L9.44843 3.18909C10.8766 2.36253 12.7344 2.77502 13.6766 4.13283L14.9203 5.92189C15.6305 5.84221 16.3476 5.84533 17.0656 5.92189L18.3062 4.13126C19.2484 2.77189 21.1078 2.35626 22.5359 3.18126L23.8476 3.93752C25.2781 4.76251 25.8468 6.57971 25.1445 8.07189L24.2164 10.0438C24.6414 10.6266 25.0007 11.2469 25.2914 11.9016L27.4625 12.0812C29.1078 12.2172 30.3968 13.6172 30.3984 15.2672L30.3992 16.7828C30.4008 18.4328 29.1133 19.8344 27.468 19.9734L25.2992 20.1563C25.1531 20.4906 24.9922 20.8094 24.8148 21.1156C24.6398 21.4188 24.443 21.7203 24.2258 22.0172L25.1547 23.9844C25.8594 25.475 25.293 27.2922 23.8641 28.1203L22.5508 28.8797C21.1211 29.7094 19.2648 29.2922 18.3227 27.9344L17.0789 26.1453C16.3656 26.2235 15.6484 26.2219 14.9336 26.1469L13.6914 27.9391C13.0773 28.825 12.0727 29.3094 11.0508 29.3094ZM11.0469 5.15939C10.9109 5.15939 10.7742 5.19376 10.65 5.26565L9.33672 6.02502C8.98046 6.23128 8.83829 6.6844 9.01485 7.05784L10.2609 9.69846C10.4625 10.125 10.3953 10.6297 10.0891 10.9891C9.76251 11.3719 9.49219 11.7516 9.26251 12.15C9.03673 12.5438 8.83828 12.9797 8.67345 13.4453C8.51643 13.8907 8.11329 14.2016 7.64299 14.2407L4.73283 14.486C4.31408 14.5219 3.99923 14.8641 3.99923 15.2844L4.0008 16.7985C4.0008 17.211 4.32267 17.561 4.7344 17.5953L7.64534 17.836C8.11566 17.875 8.51956 18.186 8.67737 18.6313C8.99534 19.5282 9.47269 20.3532 10.0961 21.0828C10.4031 21.4407 10.4711 21.9469 10.2703 22.3735L9.02582 25.0172C8.85081 25.3907 8.99222 25.8453 9.35005 26.05L10.6625 26.8078C11.0211 27.0156 11.4852 26.9094 11.7188 26.5719L13.3844 24.1688C13.6524 23.7813 14.1188 23.5782 14.5883 23.6735C15.5297 23.8453 16.4836 23.8469 17.4204 23.6719C17.8836 23.5844 18.3563 23.7782 18.6258 24.1672L20.293 26.5656C20.5274 26.9016 20.9946 27.0078 21.35 26.8016L22.6625 26.0438C23.0243 25.8344 23.1641 25.3891 22.9844 25.0094L21.7383 22.3688C21.5367 21.9422 21.6039 21.4375 21.9102 21.0782C22.2367 20.6938 22.5071 20.3157 22.7352 19.9188L22.736 19.9172C22.9641 19.5219 23.1571 19.0985 23.3258 18.6219C23.4836 18.1766 23.8867 17.8656 24.3571 17.8266L27.2672 17.5828C27.6774 17.5469 27.9992 17.1969 27.9992 16.7844L27.9985 15.2688C27.9985 14.85 27.6828 14.5078 27.2641 14.4719L24.3539 14.2313C23.8836 14.1922 23.4797 13.8813 23.3219 13.436C23.0055 12.5407 22.5274 11.7156 21.9024 10.9844C21.5961 10.625 21.5281 10.1203 21.7289 9.69378L22.9727 7.05003C23.1484 6.67659 23.0063 6.2219 22.6484 6.01566L21.3367 5.25941C20.9774 5.05629 20.5141 5.16098 20.2789 5.49846L18.6156 7.89846C18.3469 8.28752 17.8813 8.48752 17.411 8.39534C16.4649 8.22034 15.511 8.22034 14.5789 8.39534C14.1117 8.47816 13.6422 8.28754 13.3735 7.90003L11.7063 5.5016C11.5524 5.28128 11.3016 5.15939 11.0469 5.15939Z" fill="#292929"/>
</svg>
