<?xml version="1.0" encoding="UTF-8"?><svg width="32" height="32" viewBox="0 0 32 32" fill="none" xmlns="http://www.w3.org/2000/svg">
<path d="M25.2226 6.11403L16.5406 1.72888C16.2016 1.55701 15.7984 1.55701 15.4594 1.72888L6.77733 6.11403C5.5578 6.72888 4.79999 7.96013 4.79999 9.32731V18.1289C4.79999 23.2375 8.60701 26.1172 10.6539 27.6648C12.2234 28.8492 13.7062 29.6539 14.4508 30.0281C14.9273 30.2679 15.4641 30.3961 16.0031 30.4H16.0109C16.0123 30.4 16.0135 30.3992 16.0148 30.3992C16.0162 30.3992 16.0174 30.4 16.0187 30.4C16.6812 30.4 17.2187 29.8625 17.2187 29.2V4.76013L24.1414 8.25622C24.5476 8.4617 24.8 8.87186 24.8 9.32731V14.1289C24.8 14.7914 25.3375 15.3289 26 15.3289C26.6625 15.3289 27.2 14.7914 27.2 14.1289V9.32731C27.2 7.96013 26.4422 6.72888 25.2226 6.11403ZM12.1008 25.75C9.62109 23.875 7.19999 21.7414 7.19999 18.1289V9.32731C7.19999 8.87184 7.45232 8.46168 7.85858 8.25622L14.8187 4.74099V27.5047C14.1238 27.1205 13.134 26.5295 12.1008 25.75Z" fill="#292929"/>
<path d="M28.8 22.4V20.8156C28.8 19.0422 27.3648 17.6 25.6 17.6C23.8351 17.6 22.4 19.0422 22.4 20.8156V22.4C21.5164 22.4 20.8 23.1164 20.8 24V28.8C20.8 29.6836 21.5164 30.4 22.4 30.4H28.8C29.6836 30.4 30.4 29.6836 30.4 28.8V24C30.4 23.1164 29.6836 22.4 28.8 22.4ZM24.4 20.8156C24.4 20.1453 24.9383 19.6 25.6 19.6C26.2617 19.6 26.8 20.1453 26.8 20.8156V22.4H24.4V20.8156Z" fill="#292929"/>
</svg>
