<?xml version="1.0" encoding="UTF-8"?><svg width="32" height="32" viewBox="0 0 32 32" fill="none" xmlns="http://www.w3.org/2000/svg">
<path d="M12.8 22.4001H6.8C4.81563 22.4001 3.2 20.7844 3.2 18.8001V6.80007C3.2 4.81571 4.81563 3.20007 6.8 3.20007H25.2C27.1844 3.20007 28.8 4.81571 28.8 6.80007C28.8 7.46257 28.2625 8.00007 27.6 8.00007C26.9375 8.00007 26.4 7.46257 26.4 6.80007C26.4 6.13913 25.8609 5.60007 25.2 5.60007H6.8C6.13906 5.60007 5.6 6.13913 5.6 6.80007V18.8001C5.6 19.461 6.13906 20.0001 6.8 20.0001H12.8C13.4625 20.0001 14 20.5376 14 21.2001C14 21.8626 13.4625 22.4001 12.8 22.4001Z" fill="#292929"/>
<path d="M26 28.8H18.8C17.2563 28.8 16 27.5437 16 26V12.4C16 10.8562 17.2563 9.59998 18.8 9.59998H26C27.5437 9.59998 28.8 10.8562 28.8 12.4V26C28.8 27.5437 27.5437 28.8 26 28.8ZM18.8 12C18.5797 12 18.4 12.1797 18.4 12.4V26C18.4 26.2203 18.5797 26.4 18.8 26.4H26C26.2203 26.4 26.4 26.2203 26.4 26V12.4C26.4 12.1797 26.2203 12 26 12H18.8Z" fill="#292929"/>
<path d="M22.4 25C22.9523 25 23.4 24.5523 23.4 24C23.4 23.4477 22.9523 23 22.4 23C21.8477 23 21.4 23.4477 21.4 24C21.4 24.5523 21.8477 25 22.4 25Z" fill="#292929"/>
</svg>
