<?xml version="1.0" encoding="UTF-8"?><svg width="32" height="32" viewBox="0 0 32 32" fill="none" xmlns="http://www.w3.org/2000/svg">
<path d="M16 25.6C16.8836 25.6 17.6 24.8837 17.6 24C17.6 23.1164 16.8836 22.4 16 22.4C15.1163 22.4 14.4 23.1164 14.4 24C14.4 24.8837 15.1163 25.6 16 25.6Z" fill="#292929"/>
<path d="M22 30.4H9.99999C8.01563 30.4 6.39999 28.7843 6.39999 26.8V5.19998C6.39999 3.21561 8.01563 1.59998 9.99999 1.59998H22C23.9844 1.59998 25.6 3.21561 25.6 5.19998V26.8C25.6 28.7843 23.9844 30.4 22 30.4ZM9.99999 3.99998C9.33905 3.99998 8.79999 4.53903 8.79999 5.19998V26.8C8.79999 27.4609 9.33905 28 9.99999 28H22C22.6609 28 23.2 27.4609 23.2 26.8V5.19998C23.2 4.53903 22.6609 3.99998 22 3.99998H9.99999Z" fill="#292929"/>
</svg>
