<?xml version="1.0" encoding="UTF-8"?><svg width="32" height="32" viewBox="0 0 32 32" fill="none" xmlns="http://www.w3.org/2000/svg">
<path d="M29.4969 25.9766C29.1031 25.4469 28.3516 25.3344 27.8188 25.7329C27.0328 26.3196 26.4266 26.7079 25.9688 26.9649L27.5563 22.3743C27.5781 22.3102 27.5953 22.2438 27.6063 22.1766C27.7047 21.5727 27.4594 20.9821 26.9641 20.6344C26.4703 20.2891 25.8375 20.2602 25.3031 20.5579C24.8422 20.8172 24.6234 21.2149 24.4922 21.4508C23.5484 23.1547 22.5719 24.4274 21.5062 25.3399C20.5875 26.1266 19.4859 26.525 18.2344 26.525H18.2313C17.5688 26.525 17.0312 27.0618 17.0312 27.7243C17.0312 28.3875 17.5672 28.925 18.2313 28.925H18.2344C20.075 28.925 21.7 28.3321 23.0672 27.1625C23.2109 27.0399 23.3531 26.9118 23.4937 26.7782L23.0937 27.936C22.8891 28.5071 23.1 29.1477 23.6172 29.5297C23.9281 29.7594 24.2937 29.8766 24.7219 29.8766C25.7875 29.8766 27.2484 29.1532 29.2531 27.6563C29.7844 27.2602 29.8938 26.5079 29.4969 25.9766Z" fill="#292929"/>
<path d="M22.5953 20.875L25.8703 14.3266L27.4422 12.7547C28.1219 12.0751 28.4969 11.1704 28.4969 10.2094C28.4969 9.24771 28.1219 8.34302 27.4422 7.66411L23.0938 3.31333C21.6891 1.91099 19.4031 1.91176 18.0016 3.31411L16.1828 5.13443C16.1734 5.14381 16.1707 5.15671 16.1617 5.16608L9.12969 9.00242C8.37812 9.41179 7.79376 10.079 7.48595 10.8837L2.34531 24.3961C1.91406 25.5328 2.19062 26.8227 3.04999 27.6836C3.64374 28.2758 4.43281 28.5899 5.2375 28.5899C5.62655 28.5899 6.01875 28.5164 6.39375 28.3657L20.7187 22.6055C21.5344 22.2766 22.2016 21.6625 22.5953 20.875ZM21.3969 5.01098L25.7453 9.36176C25.9719 9.58754 26.0969 9.8891 26.0969 10.2094C26.0969 10.5297 25.9719 10.8313 25.7453 11.0579L24.948 11.8551L18.9014 5.80902L19.6984 5.01176C20.1656 4.54458 20.9266 4.54223 21.3969 5.01098ZM19.8219 20.3789L6.99688 25.536L13.3219 19.211C13.3816 19.2168 13.4336 19.2461 13.4949 19.2461C14.5472 19.2461 15.4 18.393 15.4 17.3408C15.4 16.2887 14.5472 15.4356 13.4949 15.4356C12.4426 15.4356 11.5898 16.2887 11.5898 17.3408C11.5898 17.4024 11.6191 17.4543 11.6248 17.5143L5.01756 24.1215L9.72811 11.7391C9.83123 11.4704 10.0265 11.2477 10.2781 11.1102L17.0906 7.39301L23.4656 13.7672L20.4484 19.8016C20.3172 20.0641 20.0953 20.2696 19.8219 20.3789Z" fill="#292929"/>
</svg>
