<?xml version="1.0" encoding="UTF-8"?><svg width="18" height="18" viewBox="0 0 18 18" fill="none" xmlns="http://www.w3.org/2000/svg">
<path d="M8.7073 15.5005H4.22756C3.82229 15.4946 3.49416 15.1597 3.49611 14.7505V2.24658C3.49416 1.84082 3.82228 1.50586 4.21681 1.5H9.99708V5.26318C9.99708 5.67724 10.333 6.01318 10.7471 6.01318H14.5039V8.531C15.0293 8.57916 15.5318 8.70336 16.0039 8.88885V4.55273C16.0059 4.01806 15.7998 3.51562 15.4258 3.13916L12.9043 0.5835C12.5352 0.21241 12.0254 0 11.5039 0H4.20608C2.98147 0.01758 1.99026 1.02832 1.99612 2.25V14.7471C1.99026 15.9722 2.98147 16.9829 4.21682 17.0005H9.38686C9.08901 16.543 8.85916 16.0385 8.7073 15.5005ZM11.4971 1.5H11.502C11.6211 1.50537 11.75 1.55078 11.8379 1.63916L14.3594 4.19482C14.4433 4.27826 14.4878 4.39294 14.4967 4.51318H11.4971V1.5Z" fill="#222222"/>
<path d="M17.5 13.25H14.75V10.5C14.75 10.2239 14.5261 10 14.25 10H13.75C13.4739 10 13.25 10.2239 13.25 10.5V13.25H10.5C10.2239 13.25 10 13.4739 10 13.75V14.25C10 14.5261 10.2239 14.75 10.5 14.75H13.25V17.5C13.25 17.7761 13.4739 18 13.75 18H14.25C14.5261 18 14.75 17.7761 14.75 17.5V14.75H17.5C17.7761 14.75 18 14.5261 18 14.25V13.75C18 13.4739 17.7761 13.25 17.5 13.25Z" fill="#FA0F00"/>
</svg>
