<?xml version="1.0" encoding="UTF-8"?><svg width="18" height="18" viewBox="0 0 18 18" fill="none" xmlns="http://www.w3.org/2000/svg">
<g clip-path="url(#clip0_3_289)">
<path d="M10.3994 10.2021C10.2363 10.4844 9.90722 10.626 9.59179 10.5605L9.07128 10.4482L8.67675 10.8057C8.53515 10.9336 8.35448 11 8.17284 11C8.04393 11 7.91503 10.9668 7.79784 10.8994C7.51561 10.7373 7.37108 10.4102 7.43944 10.0918L7.55174 9.57129L7.19432 9.17676C6.97557 8.93555 6.93748 8.58008 7.10057 8.29785C7.26366 8.01465 7.59276 7.87793 7.90819 7.93945L8.4287 8.05175L8.82323 7.69433C9.06542 7.47558 9.41893 7.43749 9.70214 7.60058C9.98437 7.76269 10.1289 8.08984 10.0605 8.4082L9.94824 8.92871L10.3057 9.32324C10.5244 9.56445 10.5625 9.91992 10.3994 10.2021Z" fill="#5258E4"/>
<path d="M17.8012 4.89819L16.2641 3.20288L16.748 0.963621C16.8212 0.620851 16.6664 0.273191 16.3627 0.0983905C16.081 -0.0656695 15.6601 -0.0197695 15.4188 0.198981L13.723 1.73609L11.4901 1.25367C11.1498 1.18433 10.7978 1.32984 10.62 1.63453C10.4555 1.91676 10.4994 2.33961 10.7191 2.5818L12.2562 4.27711L11.7724 6.51637C11.6991 6.85914 11.8539 7.2068 12.1576 7.3816C12.2719 7.44801 12.4091 7.47926 12.5477 7.47926C12.7509 7.47926 12.9579 7.4109 13.1015 7.28102L14.7973 5.74391L17.0302 6.22633C17.3725 6.30055 17.723 6.15016 17.9003 5.84547C18.0648 5.56324 18.0209 5.14038 17.8012 4.89819ZM14.7694 4.20288C14.5316 4.14917 14.2338 4.22925 14.0536 4.39331L13.6957 4.71753L13.7977 4.24683C13.849 4.00953 13.7704 3.71363 13.6073 3.53394L13.2821 3.17554L13.7509 3.2771C13.9887 3.32788 14.2865 3.24976 14.4667 3.08667L14.8246 2.76245L14.7235 3.23022C14.6703 3.4685 14.7494 3.76538 14.913 3.94604L15.2382 4.30444L14.7694 4.20288Z" fill="#5258E4"/>
<path d="M15.2237 7.38281L14.2595 8.25683L14.2647 12.542C14.2666 12.7344 14.1943 12.9209 14.0664 13.0537C13.9473 13.1768 13.7861 13.2471 13.6113 13.2471H8.49219L5.76465 15.7002V13.248H2.22949C2.12207 13.248 2.01465 13.1924 1.92871 13.0937C1.81445 12.9629 1.74902 12.7734 1.75 12.5732L1.76465 4.46288C1.76465 4.26854 1.84082 4.08007 1.97266 3.9453C2.09961 3.81542 2.30664 3.7285 2.44043 3.74803H9.73273L9.59815 3.59959C9.25989 3.22679 9.06684 2.74412 9.02344 2.24803H2.43457C1.86426 2.24803 1.30664 2.48241 0.901374 2.89549C0.492194 3.31346 0.266604 3.86912 0.264654 4.45994L0.250004 12.5703C0.249024 13.1357 0.442384 13.6709 0.797854 14.0801C1.17578 14.5107 1.70508 14.7051 2.24219 14.748H4.26465V17.001C4.25977 17.5058 4.63965 17.9189 5.16504 17.9424C5.41309 17.9424 5.6543 17.8379 5.78125 17.6982L9.06641 14.7471H13.5938C14.1953 14.7666 14.7393 14.5166 15.1465 14.0947C15.5449 13.6816 15.7705 13.1094 15.7646 12.5332L15.7585 7.49829L15.2237 7.38281Z" fill="#222222"/>
</g>
<defs>
<clipPath id="clip0_3_289">
<rect width="18" height="18" fill="white"/>
</clipPath>
</defs>
</svg>
