<?xml version="1.0" encoding="UTF-8"?><svg width="18" height="18" viewBox="0 0 18 18" fill="none" xmlns="http://www.w3.org/2000/svg">
<g clip-path="url(#clip0_3_358)">
<path d="M15.4297 3.13379L12.9102 0.581061C12.543 0.208011 12.0303 -0.00585938 11.502 -0.00585938H4.21097C2.98442 0.0117206 1.9932 1.02344 2.00004 2.24414V14.7393C1.9932 15.9668 2.98539 16.9775 4.22172 16.9941H13.7959C15.0225 16.9775 16.0147 15.9668 16.0078 14.7441V4.5498C16.0108 4.01757 15.8057 3.51465 15.4297 3.13379ZM11.501 1.49414C11.6299 1.49414 11.7539 1.54492 11.8409 1.63281L14.3623 4.1875C14.448 4.27393 14.4925 4.38696 14.5008 4.50781H11.501V1.49414ZM14.5078 14.749C14.5098 15.1543 14.1817 15.4893 13.7862 15.4941H4.23149C3.82622 15.4893 3.49809 15.1543 3.50004 14.7441V2.23926C3.49809 1.83399 3.82621 1.5 4.22172 1.49414H10.001V5.25781C10.001 5.67187 10.337 6.00781 10.751 6.00781H14.5079L14.5078 14.749Z" fill="#222222"/>
<path d="M5 7.5V13.5C5 13.7761 5.22388 14 5.5 14H12.5C12.7761 14 13 13.7761 13 13.5V7.5C13 7.22363 12.7761 7 12.5 7H5.5C5.22388 7 5 7.22363 5 7.5ZM11.5 12.5H9.74414V11.2749H11.5V12.5ZM6.5 8.5H8.24414V9.75H9.74414V8.5H11.5V11.25H6.5V8.5ZM6.5 11.2749H8.24414V12.5H6.5V11.2749Z" fill="#222222"/>
<path d="M11.5 9.75H6.5V11.25H11.5V9.75Z" fill="#FA0F00"/>
</g>
<defs>
<clipPath id="clip0_3_358">
<rect width="18" height="18" fill="white"/>
</clipPath>
</defs>
</svg>
