<?xml version="1.0" encoding="UTF-8"?><svg width="18" height="18" viewBox="0 0 18 18" fill="none" xmlns="http://www.w3.org/2000/svg">
<path d="M16.4219 3.13965L13.9014 0.58496C13.5342 0.21289 13.0235 0 12.4991 0H5.20316C3.97757 0.01758 2.98636 1.0293 2.9932 2.25V11.0347C3.05332 10.9448 3.10227 10.8489 3.17771 10.7683L3.5156 10.4031C3.77939 10.1187 4.12229 9.92603 4.4932 9.83204V2.24512C4.49125 1.83985 4.81937 1.50586 5.2139 1.5H11.25V5C11.25 5.41406 11.586 5.75 12 5.75H15.5V14.7549C15.502 15.1601 15.1748 15.4951 14.7793 15.5H8.82645C8.82059 15.5056 8.8165 15.5127 8.81052 15.5183L7.21433 17H14.7891C16.0157 16.9834 17.0069 15.9727 17 14.75V4.55469C17.003 4.02149 16.7969 3.51758 16.4219 3.13965ZM12.75 4.25V1.58252C12.778 1.59912 12.8073 1.61133 12.834 1.63867L15.3555 4.19433C15.3715 4.21044 15.3789 4.23217 15.3924 4.24999L12.75 4.25Z" fill="#222222"/>
<path d="M14 12V8C14 7.44775 13.5523 7 13 7H7C6.44769 7 6 7.44775 6 8V10.0471C6.12097 10.1189 6.23669 10.2002 6.34174 10.2976L8.80854 12.5877C8.93928 12.7092 9.0445 12.8508 9.13728 13H13C13.5523 13 14 12.5523 14 12ZM12.153 10.2866L9.26861 11.8367C8.93554 12.0156 8.53192 11.7744 8.53192 11.3962V8.2959C8.53192 7.91773 8.93555 7.67652 9.26861 7.85547L12.153 9.40576C12.504 9.59448 12.504 10.0979 12.153 10.2866Z" fill="#222222"/>
<path d="M7.78796 13.8683L5.32141 11.5782C5.11908 11.3903 4.80279 11.402 4.61487 11.6043L4.27405 11.9712C4.08606 12.1736 4.09778 12.49 4.30023 12.678L5.16943 13.4847H0.533203C0.257083 13.4847 0.0332031 13.7085 0.0332031 13.9847V14.4847C0.0332031 14.7608 0.257083 14.9847 0.533203 14.9847H5.16949L4.24945 15.8387C4.047 16.0266 4.03528 16.343 4.22327 16.5454L4.56409 16.9123C4.75202 17.1146 5.0683 17.1263 5.27063 16.9384L7.78796 14.601C8.00103 14.4032 8.00103 14.0661 7.78796 13.8683Z" fill="#FA0F00"/>
</svg>
