<?xml version="1.0" encoding="UTF-8"?><svg width="18" height="18" viewBox="0 0 18 18" fill="none" xmlns="http://www.w3.org/2000/svg">
<g clip-path="url(#clip0_4_455)">
<path d="M12.0039 6.99512H6.00391C5.4516 6.99512 5.00391 7.44287 5.00391 7.99512V11.9951C5.00391 12.5474 5.4516 12.9951 6.00391 12.9951H12.0039C12.5562 12.9951 13.0039 12.5474 13.0039 11.9951V7.99512C13.0039 7.44287 12.5562 6.99512 12.0039 6.99512ZM11.1249 10.4585L8.2406 12.0088C7.90747 12.1877 7.50391 11.9465 7.50391 11.5684V8.46802C7.50391 8.08985 7.90747 7.84864 8.2406 8.02759L11.1249 9.57764C11.4759 9.76636 11.4759 10.27 11.1249 10.4585Z" fill="#FA0F00"/>
<path d="M15.4297 3.13379L12.9102 0.581061C12.543 0.208011 12.0303 -0.00585938 11.502 -0.00585938H4.21097C2.98442 0.0117206 1.9932 1.02344 2.00004 2.24414V14.7393C1.9932 15.9668 2.98539 16.9775 4.22172 16.9941H13.7959C15.0225 16.9775 16.0147 15.9668 16.0078 14.7441V4.5498C16.0108 4.01757 15.8057 3.51465 15.4297 3.13379ZM11.8409 1.63281L14.3623 4.1875C14.448 4.27393 14.4925 4.38696 14.5008 4.50781H11.501V1.49414C11.6299 1.49414 11.7539 1.54492 11.8409 1.63281ZM13.7862 15.4941H4.23149C3.82622 15.4893 3.49809 15.1543 3.50004 14.7441V2.23926C3.49809 1.83399 3.82621 1.5 4.22172 1.49414H10.001V5.25781C10.001 5.67187 10.337 6.00781 10.751 6.00781H14.5079V14.749C14.5098 15.1543 14.1817 15.4893 13.7862 15.4941Z" fill="#222222"/>
</g>
<defs>
<clipPath id="clip0_4_455">
<rect width="18" height="18" fill="white"/>
</clipPath>
</defs>
</svg>
