<?xml version="1.0" encoding="UTF-8"?><svg width="18" height="18" viewBox="0 0 18 18" fill="none" xmlns="http://www.w3.org/2000/svg">
<g clip-path="url(#clip0_4_507)">
<path fill-rule="evenodd" clip-rule="evenodd" d="M13.1846 0.0697511H13.1856C14.7416 0.372731 15.8816 1.58873 16.1576 3.03673L16.5246 1.4337C16.5856 1.16472 16.8536 0.996751 17.1236 1.05772L17.6116 1.16972C17.8806 1.23069 18.0486 1.49974 17.9876 1.76872L17.1576 5.39372C17.0926 5.67772 16.8006 5.84575 16.5226 5.76072L12.9676 4.66471C12.7046 4.58372 12.5566 4.30369 12.6376 4.03971L12.7846 3.56272C12.8656 3.29874 13.1456 3.15073 13.4096 3.23173L14.7246 3.6367C14.6896 2.6367 13.9506 1.74675 12.8986 1.54271C11.9836 1.36571 11.0976 1.75572 10.6146 2.45873C10.4846 2.64672 10.2336 2.70574 10.0236 2.61571L9.55858 2.41674C9.27059 2.29375 9.16359 1.93774 9.33559 1.67571C10.1376 0.454701 11.6376 -0.229259 13.1846 0.0697511Z" fill="#FA0F00"/>
<path d="M14.5 7H14C13.7239 7 13.5 7.22386 13.5 7.5V17.5001C13.5 17.7762 13.7239 18.0001 14 18.0001H14.5C14.7761 18.0001 15 17.7762 15 17.5001V7.5C15 7.22386 14.7761 7 14.5 7Z" fill="#222222"/>
<path d="M17.5 9H17C16.7239 9 16.5 9.22386 16.5 9.5V17.5001C16.5 17.7762 16.7239 18.0001 17 18.0001H17.5C17.7761 18.0001 18 17.7762 18 17.5001V9.5C18 9.22386 17.7761 9 17.5 9Z" fill="#FA0F00"/>
<path d="M11.4297 6.13964L8.9102 3.58691C8.54301 3.21386 8.03129 3 7.5059 3H2.21C0.984415 3.01757 -0.00680481 4.02929 3.51882e-05 5.24999V15.7451C-0.00680481 16.9726 0.984415 17.9834 2.22074 18H9.79594C11.0225 17.9834 12.0137 16.9727 12.0069 15.75V7.55468C12.0098 7.02245 11.8047 6.51952 11.4297 6.13964ZM7.50395 4.49999H7.5059C7.63188 4.49999 7.75395 4.55077 7.84086 4.63866L10.3623 7.19335C10.444 7.27587 10.4866 7.38427 10.4973 7.49999H7.50004V4.49999H7.50395ZM9.78617 16.5H2.23051C1.82524 16.4951 1.49809 16.1602 1.50004 15.75V5.24511C1.49809 4.83984 1.82621 4.50585 2.22074 4.49999H6.00004V8.24999C6.00004 8.66405 6.33598 8.99999 6.75004 8.99999H10.5069V15.7549C10.5088 16.1601 10.1817 16.4951 9.78617 16.5Z" fill="#222222"/>
</g>
<defs>
<clipPath id="clip0_4_507">
<rect width="18" height="18" fill="white"/>
</clipPath>
</defs>
</svg>
