<?xml version="1.0" encoding="UTF-8"?><svg width="18" height="18" viewBox="0 0 18 18" fill="none" xmlns="http://www.w3.org/2000/svg">
<path d="M15.4258 3.13965L12.9043 0.58496C12.5371 0.21289 12.0264 0 11.502 0H4.20609C2.98051 0.01953 1.9893 1.03027 1.99613 2.25V14.7451C1.98929 15.9727 2.98148 16.9834 4.21781 17H13.792C15.0186 16.9834 16.0108 15.9727 16.0039 14.75V4.55566C16.0069 4.03027 15.7959 3.51465 15.4258 3.13965ZM11.502 1.5C11.628 1.5 11.75 1.55078 11.8369 1.63867L14.3584 4.19336C14.4423 4.27905 14.4883 4.3938 14.4967 4.51367H11.4971V1.5H11.502ZM13.7823 15.5H4.22758C3.82231 15.4951 3.49418 15.1602 3.49613 14.75V2.24512C3.49418 1.84082 3.8223 1.50586 4.21781 1.5H9.99711V5.26367C9.99711 5.67773 10.333 6.01367 10.7471 6.01367H14.5039V14.7549C14.5059 15.1601 14.1778 15.4951 13.7823 15.5Z" fill="#222222"/>
<path fill-rule="evenodd" clip-rule="evenodd" d="M7.99452 10.6337C7.99137 10.4491 7.91503 10.2733 7.78232 10.145C7.64961 10.0167 7.47139 9.94648 7.28689 9.94969H5.70372C5.51922 9.94648 5.341 10.0167 5.20829 10.145C5.07558 10.2733 4.99925 10.4491 4.99609 10.6337V13.1342L6.4953 14.636L7.99451 13.1342L7.99452 10.6337Z" fill="#FA0F00"/>
<path d="M12.5876 12.1945L13.4847 11.2975C13.6799 11.1022 13.6799 10.7856 13.4847 10.5905L13.1312 10.2369C12.936 10.0416 12.6195 10.0416 12.4241 10.2369L11.527 11.1339L10.6298 10.2369C10.4345 10.0416 10.118 10.0416 9.92274 10.2369L9.56929 10.5905C9.37404 10.7856 9.37404 11.1022 9.56929 11.2975L10.4664 12.1945L9.56929 13.0914C9.37404 13.2866 9.37404 13.6031 9.56929 13.7985L9.92274 14.152C10.118 14.3473 10.4345 14.3473 10.6298 14.152L11.527 13.255L12.4241 14.152C12.6195 14.3473 12.936 14.3473 13.1312 14.152L13.4847 13.7985C13.6799 13.6031 13.6799 13.2866 13.4847 13.0914L12.5876 12.1945Z" fill="#FA0F00"/>
<path d="M8.49609 3.94971H5.49609C5.21995 3.94971 4.99609 4.17356 4.99609 4.44971V4.94971C4.99609 5.22585 5.21995 5.44971 5.49609 5.44971H8.49609C8.77224 5.44971 8.99609 5.22585 8.99609 4.94971V4.44971C8.99609 4.17356 8.77224 3.94971 8.49609 3.94971Z" fill="#222222"/>
<path d="M10.4961 6.94958H5.49609C5.21995 6.94958 4.99609 7.17344 4.99609 7.44958V7.94958C4.99609 8.22573 5.21995 8.44958 5.49609 8.44958H10.4961C10.7722 8.44958 10.9961 8.22573 10.9961 7.94958V7.44958C10.9961 7.17344 10.7722 6.94958 10.4961 6.94958Z" fill="#222222"/>
</svg>
