<?xml version="1.0" encoding="UTF-8"?><svg width="18" height="18" viewBox="0 0 18 18" fill="none" xmlns="http://www.w3.org/2000/svg">
<path d="M7.40944 15.4912H4.22951C3.82521 15.4863 3.49806 15.1523 3.50002 14.7422V2.24414C3.49807 1.83984 3.82522 1.50586 4.21975 1.5H10.0019L10.0078 5.24316C10.0088 5.65722 10.3438 5.99218 10.7578 5.99218H14.5V7.31744C15.0179 7.35553 15.5212 7.44543 16 7.59375V4.55273C16.003 4.01953 15.7969 3.51562 15.4219 3.13769L12.9043 0.58691C12.5371 0.21386 12.0264 0 11.501 0H4.20902C2.98343 0.01758 1.9932 1.02832 2.00004 2.24902V14.7373C1.9932 15.9639 2.98442 16.9746 4.21977 16.9912H7.9348C7.70458 16.5187 7.52467 16.0176 7.40944 15.4912ZM11.835 1.63867L14.3555 4.19238C14.4357 4.27343 14.4775 4.37903 14.4894 4.49218H11.5069L11.502 1.50048C11.5951 1.47796 11.7478 1.55152 11.835 1.63867Z" fill="#222222"/>
<path fill-rule="evenodd" clip-rule="evenodd" d="M10.4184 8.96292C10.6159 8.80142 10.9033 8.8145 11.0853 8.99328C11.1023 9.01 11.1185 9.02651 11.1339 9.04282L13.3559 11.7458C13.4389 11.8468 13.5009 11.9068 13.5579 11.9268C13.6159 11.9068 13.6769 11.8468 13.7599 11.7458L15.9819 9.04282C15.9834 9.04097 15.9849 9.03913 15.9865 9.03731C16.1449 8.85021 16.425 8.82694 16.6121 8.98535L16.8957 9.22545C17.0383 9.3462 17.0688 9.55419 16.9669 9.71082C16.5609 10.2528 14.9119 12.4408 14.8559 12.5178C14.7369 12.6818 14.7879 12.9738 14.9589 13.3108C15.0229 13.4358 15.5199 14.2768 15.5199 14.2768L15.5609 14.2638C15.6569 14.2338 15.7549 14.2108 15.8549 14.1968L16.0059 14.1798L16.1599 14.1748C17.1929 14.2228 17.9969 15.0918 17.9649 16.1258C17.9329 17.1598 17.0779 17.9768 16.0429 17.9618C15.0089 17.9458 14.1779 17.1038 14.1759 16.0688C14.1749 15.7748 14.2469 15.4848 14.3829 15.2248L14.4269 15.1468L13.9659 14.0638C13.9409 14.0108 13.8649 13.8313 13.5569 13.8328C13.2185 13.8328 13.1749 14.0108 13.1489 14.0638L12.6889 15.1468L12.7319 15.2248C12.8689 15.4848 12.9399 15.7748 12.9389 16.0688C12.9379 17.1038 12.1059 17.9458 11.0719 17.9618C10.0379 17.9768 9.18188 17.1598 9.15088 16.1258C9.11788 15.0918 9.92188 14.2228 10.9549 14.1748L11.1089 14.1798L11.2599 14.1968C11.3599 14.2108 11.4579 14.2338 11.5549 14.2638L11.5949 14.2768C11.5949 14.2768 12.0929 13.4358 12.1559 13.3108C12.3269 12.9738 12.3789 12.6818 12.2589 12.5178C12.2039 12.4408 10.5439 10.2558 10.1369 9.71482L10.0994 9.63706C10.0297 9.4508 10.0841 9.23626 10.2429 9.10643L10.4184 8.96292ZM16.0479 15.2648L15.9439 15.2764C15.5363 15.3475 15.234 15.7081 15.2469 16.1318C15.2629 16.5868 15.6349 16.9468 16.0879 16.9468H16.1019L16.2061 16.9384C16.6153 16.8799 16.9289 16.5294 16.9289 16.1048L16.9195 15.9971C16.8558 15.5744 16.4864 15.2556 16.0479 15.2648ZM11.0679 15.2648L10.9598 15.2692C10.5344 15.3131 10.197 15.6663 10.1869 16.1048C10.1869 16.5648 10.5549 16.9378 11.0139 16.9468H11.0269L11.1299 16.9405C11.5353 16.8909 11.855 16.5518 11.8679 16.1318L11.8647 16.0273C11.8267 15.6157 11.4916 15.286 11.0679 15.2648Z" fill="#FA0F00"/>
</svg>
