<?xml version="1.0" encoding="UTF-8"?><svg width="53" height="50" viewBox="0 0 53 50" fill="none" xmlns="http://www.w3.org/2000/svg">
<rect width="52.9819" height="50" rx="8.4" fill="white"/>
<rect x="0.469304" y="0.469304" width="52.0433" height="49.0614" rx="7.9307" stroke="white" stroke-opacity="0.1" stroke-width="0.938609"/>
<g clip-path="url(#clip0_53027_188400)">
<path d="M38.971 25.2954C38.971 24.3736 38.8882 23.4873 38.7346 22.6364H26.491V27.6709H33.4873C33.1801 29.29 32.2582 30.6609 30.8755 31.5827V34.8564H35.0946C37.5528 32.5873 38.971 29.2545 38.971 25.2954Z" fill="#4285F4"/>
<path d="M26.491 38C30.001 38 32.9437 36.8418 35.0946 34.8564L30.8755 31.5827C29.7173 32.3627 28.24 32.8354 26.491 32.8354C23.111 32.8354 20.2391 30.5545 19.211 27.4818H14.8855V30.8382C17.0246 35.0809 21.4091 38 26.491 38Z" fill="#34A853"/>
<path d="M19.211 27.4699C18.951 26.6899 18.7973 25.8627 18.7973 24.9999C18.7973 24.1372 18.951 23.3099 19.211 22.5299V19.1736H14.8855C13.9991 20.9227 13.491 22.8963 13.491 24.9999C13.491 27.1036 13.9991 29.0772 14.8855 30.8263L18.2537 28.2027L19.211 27.4699Z" fill="#FBBC05"/>
<path d="M26.491 17.1764C28.4055 17.1764 30.1073 17.8382 31.4664 19.1145L35.1891 15.3918C32.9319 13.2882 30.001 12 26.491 12C21.4091 12 17.0246 14.9191 14.8855 19.1736L19.211 22.53C20.2391 19.4573 23.111 17.1764 26.491 17.1764Z" fill="#EA4335"/>
</g>
<defs>
<clipPath id="clip0_53027_188400">
<rect width="26" height="26" fill="white" transform="translate(13.491 12)"/>
</clipPath>
</defs>
</svg>
