<?xml version="1.0" encoding="UTF-8"?><svg width="22" height="22" viewBox="0 0 22 22" fill="none" xmlns="http://www.w3.org/2000/svg">
<path d="M17.3252 19.8002H4.6752C3.31094 19.8002 2.2002 18.6894 2.2002 17.3252V4.6752C2.2002 3.31094 3.31094 2.2002 4.6752 2.2002H17.3252C18.6894 2.2002 19.8002 3.31094 19.8002 4.6752V17.3252C19.8002 18.6894 18.6894 19.8002 17.3252 19.8002ZM4.6752 3.8502C4.2208 3.8502 3.8502 4.2208 3.8502 4.6752V17.3252C3.8502 17.7796 4.2208 18.1502 4.6752 18.1502H17.3252C17.7796 18.1502 18.1502 17.7796 18.1502 17.3252V4.6752C18.1502 4.2208 17.7796 3.8502 17.3252 3.8502H4.6752Z" fill="#292929"/>
<path d="M14.3801 10.0307L9.32047 7.31132C8.58764 6.91745 7.69971 7.44828 7.69971 8.28025V13.7189C7.69971 14.5509 8.58764 15.0817 9.32047 14.6879L14.3802 11.9685C15.1525 11.5534 15.1525 10.4457 14.3801 10.0307Z" fill="#292929"/>
</svg>
