<?xml version="1.0" encoding="UTF-8"?><svg width="22" height="22" viewBox="0 0 22 22" fill="none" xmlns="http://www.w3.org/2000/svg">
<path d="M15.9504 8.27305C15.9504 9.18432 15.2117 9.92305 14.3004 9.92305C13.3891 9.92305 12.6504 9.18432 12.6504 8.27305C12.6504 7.36177 13.3891 6.62305 14.3004 6.62305C15.2117 6.62305 15.9504 7.36177 15.9504 8.27305Z" fill="#292929"/>
<path d="M18.4246 3.2998H3.57461C2.21036 3.2998 1.09961 4.41055 1.09961 5.7748V16.2248C1.09961 17.5891 2.21036 18.6998 3.57461 18.6998H18.4246C19.7889 18.6998 20.8996 17.5891 20.8996 16.2248V5.7748C20.8996 4.41055 19.7889 3.2998 18.4246 3.2998ZM3.57461 4.9498H18.4246C18.879 4.9498 19.2496 5.32041 19.2496 5.7748V14.8068L17.1495 12.7067C16.1849 11.7421 14.6144 11.7421 13.6497 12.7067L12.2951 14.0613C12.1855 14.1688 12.0126 14.1677 11.9052 14.0624L8.34951 10.5068C7.41494 9.57218 5.78428 9.57218 4.84971 10.5068L2.74961 12.6068V5.77482C2.74961 5.32042 3.12021 4.9498 3.57461 4.9498ZM3.57461 17.0498C3.12021 17.0498 2.74961 16.6792 2.74961 16.2248V14.94L6.01631 11.6733C6.33858 11.3511 6.86065 11.3511 7.18292 11.6733L10.7397 15.2301C11.4895 15.9777 12.7108 15.9788 13.4606 15.229L14.8163 13.8733C15.1386 13.5511 15.6606 13.5511 15.9829 13.8733L18.9537 16.8441C18.8095 16.9673 18.6284 17.0498 18.4246 17.0498L3.57461 17.0498Z" fill="#292929"/>
</svg>
