<?xml version="1.0" encoding="UTF-8"?><svg height="32" viewBox="0 0 32 32" width="32" xmlns="http://www.w3.org/2000/svg"><path d="m0 0h32v32h-32z" fill="none"/><path d="m7 7.004h18v18h-18z" fill="#f0f" opacity=".005"/><g fill="#4b4b4b" transform="translate(6.937 6.232)"><path d="m15.443 4.752-3.568-3.57a1.506 1.506 0 0 0 -2.062 0l-1.852 1.839-4.024 1.931a2.344 2.344 0 0 0 -1.053 1.218l-2.653 7.584a1.459 1.459 0 0 0 .329 1.581l.643.623a1.48 1.48 0 0 0 1.036.429c.172 0 .343-.032 8.178-2.74a2.426 2.426 0 0 0 1.272-1.147l1.919-3.86 1.829-1.817a1.45 1.45 0 0 0 .006-2.066zm-5.092 7.064a.9.9 0 0 1 -.452.423l-6.718 2.327 3.46-3.615c.03 0 .056.018.087.018a1.2 1.2 0 1 0 -1.2-1.2 1.137 1.137 0 0 0 .029.145l-3.771 3.94 2.505-7.165a.814.814 0 0 1 .332-.4l4.177-2.045 3.583 3.575zm3.054-5.094-3.533-3.522.96-.937 3.553 3.49z"/><path d="m14.333 10.905a.987.987 0 0 1 1.777.464v.243l-.52 2.988 1.191-1.127a.5.5 0 0 1 .707-.013l.36.347a.5.5 0 0 1 .013.707 6.949 6.949 0 0 1 -2.515 1.948c-.724.224-1.5-.132-1.446-.849l.155-.932-.059.084a5.567 5.567 0 0 1 -1.045 1.075l-.231.165a5.064 5.064 0 0 1 -1.476.544l-.474.083a.5.5 0 0 1 -.574-.413l-.08-.493a.5.5 0 0 1 .413-.574l.247-.04a3.784 3.784 0 0 0 1.145-.375 4.889 4.889 0 0 0 1.343-1.571c.268-.455.936-1.988 1.071-2.264z"/></g></svg>