<?xml version="1.0" encoding="UTF-8"?><svg height="32" viewBox="0 0 32 32" width="32" xmlns="http://www.w3.org/2000/svg"><path d="m0 0h32v32h-32z" fill="none"/><path d="m18.442 4.422-3.187-3.187a.671.671 0 0 0 -.479-.2h-.019a.758.758 0 0 0 -.512.224l-11.545 11.547a.547.547 0 0 0 -.139.233l-1.533 5.143c-.063.208.254.47.433.47a.139.139 0 0 0 .034 0c.153-.035 4.347-1.3 5.145-1.535a.537.537 0 0 0 .229-.138l11.543-11.547a.758.758 0 0 0 .221-.488.675.675 0 0 0 -.191-.522zm-12.25 11.669c-1.194.359-2.687.81-3.718 1.117l1.11-3.719z" fill="#4b4b4b" transform="translate(5.98 5.961)"/></svg>