<?xml version="1.0" encoding="UTF-8"?><svg height="32" viewBox="0 0 32 32" width="32" xmlns="http://www.w3.org/2000/svg"><path d="m0 0h32v32h-32z" fill="none"/><g fill="#4b4b4b"><path d="m8.765 15.454c-.05 0-.1.007-.148.007a6.808 6.808 0 0 1 -4.517-1.715 3.184 3.184 0 0 1 2.638-1.418.955.955 0 0 0 .768-.693c.006-.016.521-1.662.047-2.212a3.372 3.372 0 0 1 -.763-2.085c0-.848.238-2.271 1.827-2.271 1.164 0 1.858.849 1.858 2.249a3.4 3.4 0 0 1 -.788 2.084c-.316.353-.226 1.14-.116 1.675a5.6 5.6 0 0 1 1.947-1.775 4.976 4.976 0 0 0 .482-1.962c0-2.268-1.358-3.792-3.379-3.792s-3.348 1.488-3.348 3.8a4.9 4.9 0 0 0 .96 2.849 5.122 5.122 0 0 1 -.083.675 4.575 4.575 0 0 0 -3.091 1.719 6.841 6.841 0 1 1 12.402-3.973c0 .05-.011.1-.012.147a5.539 5.539 0 0 1 1.5.583c.021-.241.037-.483.037-.73a8.366 8.366 0 1 0 -8.366 8.366c.246 0 .489-.016.73-.037a5.533 5.533 0 0 1 -.581-1.491z" transform="translate(6.75 6.754)"/><path d="m17.606 13.3h-2.789v-2.793a.507.507 0 0 0 -.507-.507h-.51a.507.507 0 0 0 -.507.507v2.793h-2.786a.507.507 0 0 0 -.507.5v.507a.507.507 0 0 0 .507.507h2.793v2.789a.507.507 0 0 0 .507.507h.507a.507.507 0 0 0 .507-.507v-2.786h2.789a.507.507 0 0 0 .507-.507v-.51a.507.507 0 0 0 -.511-.5z" transform="translate(6.887 6.891)"/></g></svg>