<?xml version="1.0" encoding="UTF-8"?><svg height="32" viewBox="0 0 32 32" width="32" xmlns="http://www.w3.org/2000/svg"><path d="m0 0h32v32h-32z" fill="none"/><g fill="#4b4b4b"><path d="m13.191 18.466h-11.432a1.761 1.761 0 0 1 -1.759-1.758v-14.949a1.761 1.761 0 0 1 1.759-1.759h6.155a3.489 3.489 0 0 1 2.453 1.249l3.333 3.359.081.081.079.078a2.651 2.651 0 0 1 1.089 1.96v9.981a1.761 1.761 0 0 1 -1.758 1.758zm-11.432-16.707v14.949h11.432v-8.794h-4.4a1.761 1.761 0 0 1 -1.756-1.758v-4.4zm7.035.37v4.027h4.028z" transform="translate(8.525 6.767)"/><path d="m7.914 5.276h-6.155a1.761 1.761 0 0 1 -1.759-1.759v-1.758a1.761 1.761 0 0 1 1.759-1.759h6.155a1.761 1.761 0 0 1 1.759 1.759v1.758a1.761 1.761 0 0 1 -1.759 1.759zm-6.155-3.517v1.758h6.155v-1.758z" transform="translate(11.163 17.319)"/></g></svg>