<?xml version="1.0" encoding="UTF-8"?><svg xmlns="http://www.w3.org/2000/svg" width="20" height="20" viewBox="0 0 20 20" fill="none">
  <path d="M17.2082 4.09773L15.9707 3.13356C15.8836 3.06613 15.7733 3.03594 15.664 3.04961C15.5547 3.06327 15.4552 3.11967 15.3874 3.20648L8.01365 12.6773L4.4249 9.08814C4.34676 9.01003 4.2408 8.96615 4.13031 8.96615C4.01983 8.96615 3.91387 9.01003 3.83573 9.08814L2.71281 10.2131C2.6347 10.2913 2.59082 10.3972 2.59082 10.5077C2.59082 10.6182 2.6347 10.7242 2.71281 10.8023L7.89281 15.9865C7.9346 16.0285 7.98487 16.0611 8.04027 16.0822C8.09568 16.1033 8.15493 16.1122 8.21409 16.1086C8.27324 16.1049 8.33093 16.0887 8.38331 16.0609C8.43568 16.0332 8.48154 15.9946 8.51781 15.9477L17.282 4.68231C17.3497 4.59501 17.38 4.48437 17.3662 4.37475C17.3523 4.26512 17.2955 4.16547 17.2082 4.09773Z" fill="#222222"/>
</svg>