<?xml version='1.0' encoding='utf-8'?>
<svg xmlns="http://www.w3.org/2000/svg" width="240" height="240" viewBox="0 0 240 240" fill="none" class="illustrator-2025">
<path id="Vector" d="M196.959 0H43.0414C19.2703 0 0 19.2703 0 43.0414V196.959C0 220.73 19.2703 240 43.0414 240H196.959C220.73 240 240 220.73 240 196.959V43.0414C240 19.2703 220.73 0 196.959 0Z" fill="#330000" />
<path id="Vector_2" d="M81.232 63.7059H116.568L156.198 174.339H123.833L118.384 157.496H76.9381L71.4894 174.339H40.4462L81.232 63.7059ZM109.798 131.241L97.7439 94.0885L85.6901 131.241H109.798Z" fill="#FF9A00" />
<path id="Vector_3" d="M160.94 70.9713C160.94 63.0454 167.049 57.9267 176.296 57.9267C185.378 57.9267 191.157 63.2107 191.157 70.9713C191.157 78.8973 185.378 84.3465 176.296 84.3465C166.719 84.3465 160.94 79.0625 160.94 70.9713ZM161.765 88.1443H190.662V174.339H161.765V88.1443Z" fill="#FF9A00" />
<defs>
<clipPath id="clip0_2136_6944">
<rect width="240" height="240" fill="white" />
</clipPath>
</defs>
</svg>