<?xml version='1.0' encoding='utf-8'?>
<svg xmlns="http://www.w3.org/2000/svg" width="64" height="64" viewBox="0 0 64 64" fill="none" class="illustrator-64-2025">
<path id="Vector" d="M52.5223 0H11.4777C5.13875 0 0 5.13875 0 11.4777V52.5223C0 58.8613 5.13875 64 11.4777 64H52.5223C58.8613 64 64 58.8613 64 52.5223V11.4777C64 5.13875 58.8613 0 52.5223 0Z" fill="#330000" />
<path id="Vector_2" d="M21.6618 16.9883H31.0848L41.6528 46.4903H33.0222L31.5692 41.999H20.5168L19.0638 46.4903H10.7856L21.6618 16.9883ZM29.2794 34.9978L26.065 25.0903L22.8507 34.9978H29.2794Z" fill="#FF9A00" />
<path id="Vector_3" d="M42.9172 18.9257C42.9172 16.8121 44.5465 15.4471 47.0123 15.4471C49.434 15.4471 50.9751 16.8562 50.9751 18.9257C50.9751 21.0393 49.434 22.4924 47.0123 22.4924C44.4583 22.4924 42.9172 21.0834 42.9172 18.9257ZM43.1373 23.5052H50.8431V46.4903H43.1373V23.5052Z" fill="#FF9A00" />
<defs>
<clipPath id="clip0_2210_5138">
<rect width="64" height="64" fill="white" />
</clipPath>
</defs>
</svg>