<?xml version='1.0' encoding='utf-8'?>
<svg xmlns="http://www.w3.org/2000/svg" width="240" height="240" viewBox="0 0 240 240" fill="none" class="photoshop-2025">
<path id="Vector" d="M196.959 0H43.0414C19.2703 0 0 19.2703 0 43.0414V196.959C0 220.73 19.2703 240 43.0414 240H196.959C220.73 240 240 220.73 240 196.959V43.0414C240 19.2703 220.73 0 196.959 0Z" fill="#001E36" />
<path id="Vector_2" d="M83.806 63.7059C115.18 63.7059 132.848 78.4019 132.848 103.005C132.848 131.737 108.905 143.295 86.4483 143.295H71.257V174.339H40.5438V63.7059H83.806ZM71.257 89.9604V117.041H84.7971C94.2092 117.041 100.814 113.243 100.814 103.666C100.814 94.9143 95.1998 89.9604 85.4577 89.9604H71.257Z" fill="#31A8FF" />
<path id="Vector_3" d="M139.09 168.89L139.256 143.295C148.007 149.075 160.226 152.708 168.648 152.708C174.427 152.708 177.069 151.056 177.069 148.084C177.069 144.782 173.436 143.46 166.501 141.314C153.126 137.351 138.43 131.902 138.43 114.399C138.43 96.5654 153.126 86.6581 174.427 86.6581C184.5 86.6581 192.756 88.1442 200.021 91.2815L199.856 115.72C194.076 112.252 182.683 109.115 175.252 109.115C169.804 109.115 167.657 110.766 167.657 113.243C167.657 116.215 170.299 117.041 178.225 119.518C193.582 124.141 206.461 129.095 206.461 147.093C206.461 164.266 192.426 175.825 170.464 175.825C158.905 175.825 148.007 173.843 139.09 168.89Z" fill="#31A8FF" />
<defs>
<clipPath id="clip0_2136_8708">
<rect width="240" height="240" fill="white" />
</clipPath>
</defs>
</svg>