<?xml version='1.0' encoding='utf-8'?>
<svg xmlns="http://www.w3.org/2000/svg" width="42" height="42" viewBox="0 0 42 42" fill="none" class="premiere-pro-40-2025">
<path id="Vector" d="M34.4678 0H7.53225C3.3723 0 0 3.3723 0 7.53225V34.4678C0 38.6277 3.3723 42 7.53225 42H34.4678C38.6277 42 42 38.6277 42 34.4678V7.53225C42 3.3723 38.6277 0 34.4678 0Z" fill="#00005B" />
<path id="Vector_2" d="M16.1965 11.1485C21.6869 11.1485 24.7788 13.7203 24.7788 18.0259C24.7788 23.0539 20.5888 25.0767 16.6588 25.0767H14.0003V30.5093H8.62561V11.1485H16.1965ZM14.0003 15.7431V20.4821H16.3699C18.017 20.4821 19.1728 19.8175 19.1728 18.1415C19.1728 16.61 18.1904 15.7431 16.4854 15.7431H14.0003Z" fill="#9999FF" />
<path id="Vector_3" d="M32.2719 15.1652C33.4566 15.1652 34.4101 15.3096 34.8436 15.4541V19.3841C34.4969 19.2974 33.8322 19.2396 33.2832 19.2396C32.214 19.2396 31.6072 19.3263 31.0582 19.5285V30.5093H26.0012V16.4366C27.8217 15.6275 29.6422 15.1652 32.2719 15.1652Z" fill="#9999FF" />
<defs>
<clipPath id="clip0_2136_9270">
<rect width="42" height="42" fill="white" />
</clipPath>
</defs>
</svg>