<?xml version='1.0' encoding='utf-8'?>
<svg xmlns="http://www.w3.org/2000/svg" width="240" height="240" viewBox="0 0 240 240" fill="none" class="stock-2025">
<path id="Vector" d="M196.959 0H43.0414C19.2703 0 0 19.2703 0 43.0414V196.959C0 220.73 19.2703 240 43.0414 240H196.959C220.73 240 240 220.73 240 196.959V43.0414C240 19.2703 220.73 0 196.959 0Z" fill="#000B1D" />
<path id="Vector_2" d="M126.439 68.4944L126.274 97.3909C119.999 92.6025 107.45 87.3185 92.0934 87.3185C83.0118 87.3185 79.379 90.2907 79.379 94.4188C79.379 98.5467 82.1865 100.198 94.2403 103.666C125.944 112.913 134.035 123.811 134.035 140.488C134.035 162.45 115.871 175.99 87.47 175.99C70.4623 175.99 57.5826 171.862 47.6753 166.082L47.8406 136.03C58.0779 143.956 73.1045 149.735 87.3047 149.735C96.3867 149.735 100.515 147.258 100.515 142.47C100.515 137.681 96.222 135.369 84.4982 132.232C62.0413 125.957 46.1889 118.197 46.1889 96.5653C46.1889 75.5947 63.1971 61.0637 92.0934 61.0637C105.469 61.0637 118.678 63.5407 126.439 68.4944Z" fill="white" />
<path id="Vector_3" d="M177.794 88.4743H193.646V111.427H177.794V140.818C177.794 148.745 181.097 151.717 186.711 151.717C188.527 151.717 191.169 151.386 193.646 150.561L193.811 173.348C190.178 174.669 186.215 175.494 178.785 175.494C159.961 175.494 148.897 166.578 148.897 145.442V111.427H136.513V88.4743H148.897V66.843H177.794L177.794 88.4743Z" fill="white" />
<defs>
<clipPath id="clip0_2136_9310">
<rect width="240" height="240" fill="white" />
</clipPath>
</defs>
</svg>