<svg width="12" height="12" viewBox="0 0 12 12" fill="none" xmlns="http://www.w3.org/2000/svg">
<g clip-path="url(#clip0_4373_49)">
<path d="M7.34234 6L10.7384 2.60352C11.109 2.2334 11.109 1.63184 10.7384 1.26075C10.3673 0.891609 9.76672 0.890629 9.39563 1.26173L6.00012 4.65773L2.60461 1.26172C2.23352 0.890629 1.63293 0.891599 1.26184 1.26074C0.891234 1.63183 0.891234 2.2334 1.26184 2.60351L4.6579 5.99999L1.26184 9.39647C0.891234 9.76659 0.891234 10.3681 1.26184 10.7392C1.44739 10.9238 1.69006 11.0166 1.93323 11.0166C2.1764 11.0166 2.41907 10.9238 2.60462 10.7383L6.00013 7.34226L9.39564 10.7383C9.58119 10.9238 9.82386 11.0166 10.067 11.0166C10.3102 11.0166 10.5529 10.9238 10.7384 10.7392C11.109 10.3681 11.109 9.76658 10.7384 9.39647L7.34234 6Z" fill="white"/>
</g>
<defs>
<clipPath id="clip0_4373_49">
<rect width="12" height="12" fill="white"/>
</clipPath>
</defs>
</svg>
