<svg width="188" height="64" viewBox="0 0 188 64" fill="none" xmlns="http://www.w3.org/2000/svg">
<rect x="1" y="1" width="186" height="62" rx="5" fill="white" stroke="#1C1C1C" stroke-width="2"/>
<path d="M55.546 23V13.51H57.548L61.656 19.971V13.51H63.424V23H61.539L57.314 16.331V23H55.546ZM68.2526 23.156C65.8606 23.156 64.2356 21.414 64.2356 19.217C64.2356 16.994 65.9646 15.239 68.1876 15.239C70.4496 15.239 72.1006 16.903 72.1006 19.152V19.815H65.9126C66.1466 20.881 67.0046 21.609 68.2526 21.609C69.2276 21.609 69.9946 21.076 70.3586 20.27L71.8016 21.102C71.1386 22.324 69.9426 23.156 68.2526 23.156ZM68.1876 16.786C67.1346 16.786 66.3156 17.423 66.0036 18.346H70.3196C70.0596 17.332 69.2796 16.786 68.1876 16.786ZM74.8754 23L71.9764 15.395H73.8094L75.7724 20.751L77.6964 15.395H79.5034L76.6434 23H74.8754ZM83.3346 23.156C80.9426 23.156 79.3176 21.414 79.3176 19.217C79.3176 16.994 81.0466 15.239 83.2696 15.239C85.5316 15.239 87.1826 16.903 87.1826 19.152V19.815H80.9946C81.2286 20.881 82.0866 21.609 83.3346 21.609C84.3096 21.609 85.0766 21.076 85.4406 20.27L86.8836 21.102C86.2206 22.324 85.0246 23.156 83.3346 23.156ZM83.2696 16.786C82.2166 16.786 81.3976 17.423 81.0856 18.346H85.4016C85.1416 17.332 84.3616 16.786 83.2696 16.786ZM87.9689 23V15.395H89.7109V16.526C90.0619 15.772 90.6989 15.395 91.6609 15.395C92.2069 15.395 92.6619 15.525 92.9999 15.72L92.3369 17.384C92.0769 17.215 91.7779 17.085 91.2839 17.085C90.2699 17.085 89.7239 17.631 89.7239 18.944V23H87.9689ZM96.7541 23V15.395H98.4961V16.279C98.9771 15.642 99.7311 15.239 100.667 15.239C101.85 15.239 102.682 15.733 103.137 16.552C103.657 15.759 104.554 15.239 105.633 15.239C107.674 15.239 108.727 16.461 108.727 18.424V23H106.933V18.567C106.933 17.462 106.361 16.76 105.282 16.76C104.333 16.76 103.605 17.423 103.605 18.749V23H101.824V18.515C101.824 17.436 101.278 16.76 100.225 16.76C99.2371 16.76 98.5091 17.436 98.5091 18.788V23H96.7541ZM109.729 23V15.395H111.497V23H109.729ZM109.508 13.536C109.508 12.873 109.937 12.431 110.613 12.431C111.302 12.431 111.718 12.873 111.718 13.536C111.718 14.186 111.302 14.628 110.613 14.628C109.911 14.628 109.508 14.186 109.508 13.536ZM115.369 23.156C113.705 23.156 112.6 22.506 111.989 21.31L113.614 20.53C113.978 21.232 114.628 21.635 115.447 21.635C116.305 21.635 116.747 21.206 116.747 20.712C116.747 20.166 115.902 20.036 114.966 19.841C113.653 19.581 112.301 19.139 112.301 17.553C112.301 16.331 113.471 15.213 115.291 15.226C116.799 15.226 117.813 15.837 118.398 16.799L116.903 17.553C116.591 17.02 116.019 16.682 115.291 16.682C114.459 16.682 114.069 17.072 114.069 17.501C114.069 18.008 114.68 18.138 115.811 18.385C117.059 18.645 118.489 19.074 118.489 20.673C118.489 21.739 117.54 23.169 115.369 23.156ZM122.224 23.156C120.56 23.156 119.455 22.506 118.844 21.31L120.469 20.53C120.833 21.232 121.483 21.635 122.302 21.635C123.16 21.635 123.602 21.206 123.602 20.712C123.602 20.166 122.757 20.036 121.821 19.841C120.508 19.581 119.156 19.139 119.156 17.553C119.156 16.331 120.326 15.213 122.146 15.226C123.654 15.226 124.668 15.837 125.253 16.799L123.758 17.553C123.446 17.02 122.874 16.682 122.146 16.682C121.314 16.682 120.924 17.072 120.924 17.501C120.924 18.008 121.535 18.138 122.666 18.385C123.914 18.645 125.344 19.074 125.344 20.673C125.344 21.739 124.395 23.169 122.224 23.156ZM132.776 23.156C130.943 23.156 129.032 21.687 129.032 19.204C129.032 16.682 130.878 15.239 132.802 15.239C133.803 15.239 134.7 15.655 135.246 16.305V15.395H137.001V23H135.246V22.012C134.687 22.714 133.777 23.156 132.776 23.156ZM133.062 21.544C134.362 21.544 135.337 20.491 135.337 19.178C135.337 17.891 134.362 16.838 133.062 16.838C131.762 16.838 130.761 17.865 130.761 19.178C130.761 20.504 131.762 21.544 133.062 21.544ZM140.915 16.968V15.395H142.215V14.238L143.983 13.029V15.395H145.53V16.968H143.983V19.815C143.983 21.141 144.165 21.349 145.53 21.349V23H145.283C142.93 23 142.215 22.246 142.215 19.828V16.968H140.915ZM146.38 23V13.38H148.135V16.305C148.655 15.655 149.448 15.239 150.41 15.239C152.282 15.239 153.426 16.461 153.426 18.489V23H151.632V18.684C151.632 17.501 151.06 16.76 149.916 16.76C148.928 16.76 148.148 17.501 148.148 18.827V23H146.38ZM154.429 23V15.395H156.197V23H154.429ZM154.208 13.536C154.208 12.873 154.637 12.431 155.313 12.431C156.002 12.431 156.418 12.873 156.418 13.536C156.418 14.186 156.002 14.628 155.313 14.628C154.611 14.628 154.208 14.186 154.208 13.536ZM157.209 23V15.395H158.951V16.331C159.458 15.668 160.251 15.239 161.226 15.239C163.098 15.239 164.242 16.461 164.242 18.489V23H162.461V18.671C162.461 17.501 161.889 16.76 160.745 16.76C159.744 16.76 158.964 17.501 158.964 18.827V23H157.209ZM171.238 22.87V21.986C170.679 22.701 169.769 23.156 168.755 23.156C166.922 23.156 165.011 21.687 165.011 19.204C165.011 16.682 166.857 15.239 168.781 15.239C169.782 15.239 170.679 15.681 171.225 16.37V15.395H172.98V22.805C172.98 24.937 171.628 26.679 169.054 26.679C167.078 26.679 165.856 25.769 165.154 24.495L166.714 23.546C167.26 24.56 167.871 25.067 169.08 25.067C170.406 25.067 171.238 24.027 171.238 22.87ZM169.041 21.544C170.341 21.544 171.316 20.491 171.316 19.178C171.316 17.891 170.341 16.838 169.041 16.838C167.741 16.838 166.74 17.865 166.74 19.178C166.74 20.504 167.741 21.544 169.041 21.544Z" fill="black"/>
<path d="M57.5648 38.1148C57.1565 38.1148 56.7546 38.0638 56.359 37.9617C55.9698 37.8533 55.6253 37.7033 55.3254 37.5119L55.6986 36.5932C56.3048 36.9377 56.9268 37.11 57.5648 37.11C57.9923 37.11 58.3145 37.0302 58.5314 36.8707C58.7484 36.7112 58.8568 36.4783 58.8568 36.1721C58.8568 35.9169 58.7771 35.7095 58.6176 35.55C58.4645 35.3841 58.2188 35.2565 57.8807 35.1672L57.0959 34.9471C56.5025 34.7812 56.0719 34.5451 55.8039 34.2389C55.5359 33.9326 55.402 33.5243 55.402 33.0139C55.402 32.3695 55.6029 31.8654 56.0049 31.5018C56.4068 31.1381 56.9683 30.9562 57.6893 30.9562C58.0338 30.9562 58.3879 30.9977 58.7516 31.0807C59.1216 31.1572 59.4693 31.2689 59.7947 31.4156L59.4119 32.3344C58.7611 32.0855 58.1805 31.9611 57.6701 31.9611C57.2937 31.9611 57.0066 32.0345 56.8088 32.1812C56.611 32.328 56.5121 32.5417 56.5121 32.8225C56.5121 33.0777 56.5919 33.2882 56.7514 33.4541C56.9109 33.6136 57.1597 33.738 57.4979 33.8273L58.2826 34.0475C58.876 34.2133 59.3066 34.4526 59.5746 34.7652C59.8426 35.0715 59.9766 35.4798 59.9766 35.9902C59.9766 36.6602 59.7628 37.1833 59.3354 37.5598C58.9143 37.9298 58.3241 38.1148 57.5648 38.1148ZM60.8597 32.8033H61.989V38H60.8597V32.8033ZM61.4244 32.0568C61.2074 32.0568 61.0352 31.9962 60.9076 31.875C60.7863 31.7538 60.7257 31.5911 60.7257 31.3869C60.7257 31.17 60.7863 31.0041 60.9076 30.8893C61.0288 30.768 61.2011 30.7074 61.4244 30.7074C61.6413 30.7074 61.8104 30.768 61.9316 30.8893C62.0592 31.0105 62.123 31.1732 62.123 31.3773C62.123 31.5943 62.0624 31.7633 61.9412 31.8846C61.8199 31.9994 61.6477 32.0568 61.4244 32.0568ZM67.2745 32.8033V37.8564C67.2745 38.571 67.0703 39.1229 66.662 39.5121C66.2537 39.9077 65.6763 40.1055 64.9298 40.1055C64.6363 40.1055 64.3428 40.0736 64.0493 40.0098C63.7622 39.946 63.507 39.8566 63.2837 39.7418L63.6091 38.8326C64.0174 39.0176 64.4225 39.1102 64.8245 39.1102C65.705 39.1102 66.1452 38.6923 66.1452 37.8564V37.1482C65.8198 37.6076 65.37 37.8373 64.7958 37.8373C64.1897 37.8373 63.7175 37.6108 63.3794 37.1578C63.0476 36.7048 62.8817 36.07 62.8817 35.2533C62.8817 34.4367 63.0508 33.805 63.389 33.3584C63.7335 32.9054 64.2152 32.6789 64.8341 32.6789C65.1339 32.6789 65.4051 32.7427 65.6475 32.8703C65.8964 32.9915 66.0974 33.1638 66.2505 33.3871V32.8033H67.2745ZM65.1499 36.7846C65.3413 36.7846 65.5168 36.7463 65.6763 36.6697C65.8358 36.5868 65.9921 36.4624 66.1452 36.2965V34.1814C66.0112 34.0283 65.8517 33.9103 65.6667 33.8273C65.488 33.7444 65.2998 33.7029 65.102 33.7029C64.3938 33.7029 64.0397 34.2102 64.0397 35.2246C64.0397 36.2646 64.4098 36.7846 65.1499 36.7846ZM71.067 32.6789C71.5647 32.6789 71.9507 32.8288 72.225 33.1287C72.4994 33.4222 72.6366 33.8369 72.6366 34.3729V38H71.5073V34.5164C71.5073 33.9996 71.2233 33.7412 70.6555 33.7412C70.2791 33.7412 69.9282 33.872 69.6028 34.1336V38H68.4735V32.8033H69.4975V33.435C69.925 32.9309 70.4481 32.6789 71.067 32.6789ZM79.5613 32.8033V38H78.5277V37.3014C78.1512 37.8501 77.6376 38.1244 76.9868 38.1244C76.5019 38.1244 76.1255 37.9777 75.8575 37.6842C75.5896 37.3907 75.4556 36.976 75.4556 36.44V32.8033H76.5849V36.2869C76.5849 36.8101 76.8592 37.0717 77.4079 37.0717C77.6057 37.0717 77.7844 37.0334 77.9439 36.9568C78.1098 36.8803 78.2724 36.759 78.432 36.5932V32.8033H79.5613ZM83.2389 32.6789C83.8387 32.6789 84.3044 32.9182 84.6362 33.3967C84.968 33.8752 85.1339 34.5451 85.1339 35.4064C85.1339 36.2678 84.9648 36.9377 84.6266 37.4162C84.2885 37.8883 83.8131 38.1244 83.2006 38.1244C82.9327 38.1244 82.687 38.0766 82.4637 37.9809C82.2404 37.8852 82.049 37.7448 81.8895 37.5598V39.9811H80.7602V37.3971V33.1479V32.8033H81.7842V33.5211C82.1224 32.9596 82.6073 32.6789 83.2389 32.6789ZM82.9327 37.11C83.6281 37.11 83.9758 36.5549 83.9758 35.4447C83.9758 34.309 83.6122 33.7412 82.8848 33.7412C82.6934 33.7412 82.518 33.7795 82.3585 33.8561C82.2053 33.9326 82.049 34.0538 81.8895 34.2197V36.6314C82.0235 36.7846 82.1798 36.9026 82.3585 36.9855C82.5435 37.0685 82.7349 37.11 82.9327 37.11Z" fill="#2189FF"/>
<path d="M88.0964 33.5307H87.2255V32.8703H88.0964V32.2578C88.0964 31.7283 88.2528 31.3135 88.5654 31.0137C88.878 30.7138 89.3151 30.5639 89.8765 30.5639C90.0743 30.5639 90.2434 30.5798 90.3837 30.6117V31.3008C90.1796 31.2753 90.0105 31.2625 89.8765 31.2625C89.5447 31.2625 89.2927 31.3486 89.1205 31.5209C88.9546 31.6868 88.8716 31.9324 88.8716 32.2578V32.8703H90.2019V33.5307H88.8716V38H88.0964V33.5307ZM92.6929 38.1244C92.0038 38.1244 91.4742 37.8979 91.1042 37.4449C90.7341 36.9855 90.5491 36.3156 90.5491 35.4352C90.5491 34.5547 90.7341 33.888 91.1042 33.435C91.4806 32.9756 92.0134 32.7459 92.7024 32.7459C93.3851 32.7459 93.9115 32.9756 94.2815 33.435C94.6516 33.888 94.8366 34.5547 94.8366 35.4352C94.8366 36.3092 94.6516 36.976 94.2815 37.4354C93.9115 37.8947 93.3819 38.1244 92.6929 38.1244ZM92.6929 37.4258C93.1331 37.4258 93.4649 37.2599 93.6882 36.9281C93.9179 36.59 94.0327 36.0923 94.0327 35.4352C94.0327 34.7844 93.9179 34.2899 93.6882 33.9518C93.4649 33.6136 93.1363 33.4445 92.7024 33.4445C92.2558 33.4445 91.9177 33.6136 91.688 33.9518C91.4647 34.2899 91.353 34.7844 91.353 35.4352C91.353 36.0923 91.4647 36.59 91.688 36.9281C91.9177 37.2599 92.2526 37.4258 92.6929 37.4258ZM98.0358 32.765C98.2655 32.765 98.476 32.8065 98.6674 32.8895L98.4952 33.6455C98.2527 33.5753 98.0326 33.5402 97.8348 33.5402C97.586 33.5402 97.3722 33.5913 97.1936 33.6934C97.0149 33.7954 96.8523 33.9581 96.7055 34.1814V38H95.9303V32.8703H96.6481V33.5977C97.0054 33.0426 97.4679 32.765 98.0358 32.765ZM102.443 38.067C101.92 38.067 101.525 37.9266 101.257 37.6459C100.989 37.3588 100.855 36.9345 100.855 36.373V33.5307H99.9839V32.8703H100.855V31.3582H101.63V32.8703H103.161V33.5307H101.63V36.2582C101.63 36.641 101.707 36.9217 101.86 37.1004C102.013 37.279 102.249 37.3684 102.568 37.3684C102.74 37.3684 102.916 37.3396 103.094 37.2822L103.228 37.9521C102.992 38.0287 102.731 38.067 102.443 38.067ZM107.786 35.215C107.786 35.4001 107.774 35.5468 107.748 35.6553H104.379C104.405 36.2295 104.548 36.6633 104.81 36.9568C105.078 37.2439 105.454 37.3875 105.939 37.3875C106.418 37.3875 106.855 37.2599 107.25 37.0047L107.547 37.6172C107.343 37.7767 107.094 37.9011 106.801 37.9904C106.514 38.0734 106.21 38.1148 105.891 38.1148C105.164 38.1148 104.596 37.8788 104.188 37.4066C103.786 36.9345 103.585 36.2773 103.585 35.4352C103.585 34.5866 103.77 33.9262 104.14 33.4541C104.517 32.982 105.043 32.7459 105.719 32.7459C106.37 32.7459 106.877 32.9628 107.241 33.3967C107.605 33.8305 107.786 34.4367 107.786 35.215ZM105.7 33.4445C104.915 33.4445 104.478 33.9709 104.389 35.0236H107.002C106.995 34.526 106.877 34.14 106.648 33.8656C106.418 33.5849 106.102 33.4445 105.7 33.4445ZM111.435 38L110.21 36.0094L109.014 38H108.124L109.799 35.4064L108.191 32.8703H109.1L110.249 34.7652L111.435 32.8703H112.335L110.67 35.3777L112.354 38H111.435ZM115.017 38.067C114.494 38.067 114.099 37.9266 113.831 37.6459C113.563 37.3588 113.429 36.9345 113.429 36.373V33.5307H112.558V32.8703H113.429V31.3582H114.204V32.8703H115.735V33.5307H114.204V36.2582C114.204 36.641 114.28 36.9217 114.434 37.1004C114.587 37.279 114.823 37.3684 115.142 37.3684C115.314 37.3684 115.489 37.3396 115.668 37.2822L115.802 37.9521C115.566 38.0287 115.304 38.067 115.017 38.067ZM117.872 38.1148C117.547 38.1148 117.231 38.0766 116.925 38C116.625 37.9171 116.36 37.8022 116.13 37.6555L116.408 36.9951C116.854 37.2758 117.342 37.4162 117.872 37.4162C118.236 37.4162 118.51 37.3492 118.695 37.2152C118.886 37.0812 118.982 36.8835 118.982 36.6219C118.982 36.4177 118.922 36.255 118.8 36.1338C118.685 36.0126 118.5 35.9201 118.245 35.8562L117.566 35.6936C117.1 35.5851 116.755 35.416 116.532 35.1863C116.309 34.9503 116.197 34.644 116.197 34.2676C116.197 33.7954 116.353 33.4254 116.666 33.1574C116.985 32.8895 117.429 32.7555 117.996 32.7555C118.277 32.7555 118.558 32.7906 118.839 32.8607C119.119 32.9309 119.371 33.0234 119.595 33.1383L119.288 33.7986C118.842 33.5689 118.405 33.4541 117.977 33.4541C117.645 33.4541 117.393 33.5179 117.221 33.6455C117.049 33.7731 116.963 33.9581 116.963 34.2006C116.963 34.392 117.023 34.5483 117.145 34.6695C117.266 34.7844 117.454 34.8737 117.709 34.9375L118.389 35.1002C118.855 35.2087 119.196 35.3841 119.413 35.6266C119.636 35.8626 119.748 36.1753 119.748 36.5645C119.748 37.0493 119.582 37.429 119.25 37.7033C118.918 37.9777 118.459 38.1148 117.872 38.1148ZM124.337 38.067C123.814 38.067 123.419 37.9266 123.151 37.6459C122.883 37.3588 122.749 36.9345 122.749 36.373V33.5307H121.878V32.8703H122.749V31.3582H123.524V32.8703H125.055V33.5307H123.524V36.2582C123.524 36.641 123.6 36.9217 123.754 37.1004C123.907 37.279 124.143 37.3684 124.462 37.3684C124.634 37.3684 124.809 37.3396 124.988 37.2822L125.122 37.9521C124.886 38.0287 124.624 38.067 124.337 38.067ZM127.642 38.1244C126.953 38.1244 126.423 37.8979 126.053 37.4449C125.683 36.9855 125.498 36.3156 125.498 35.4352C125.498 34.5547 125.683 33.888 126.053 33.435C126.429 32.9756 126.962 32.7459 127.651 32.7459C128.334 32.7459 128.86 32.9756 129.23 33.435C129.6 33.888 129.785 34.5547 129.785 35.4352C129.785 36.3092 129.6 36.976 129.23 37.4354C128.86 37.8947 128.331 38.1244 127.642 38.1244ZM127.642 37.4258C128.082 37.4258 128.414 37.2599 128.637 36.9281C128.867 36.59 128.982 36.0923 128.982 35.4352C128.982 34.7844 128.867 34.2899 128.637 33.9518C128.414 33.6136 128.085 33.4445 127.651 33.4445C127.205 33.4445 126.867 33.6136 126.637 33.9518C126.414 34.2899 126.302 34.7844 126.302 35.4352C126.302 36.0923 126.414 36.59 126.637 36.9281C126.867 37.2599 127.201 37.4258 127.642 37.4258ZM134.949 32.7459C135.555 32.7459 136.027 32.9852 136.366 33.4637C136.704 33.9422 136.873 34.6089 136.873 35.4639C136.873 36.2997 136.694 36.9536 136.337 37.4258C135.986 37.8915 135.492 38.1244 134.854 38.1244C134.573 38.1244 134.311 38.067 134.069 37.9521C133.833 37.8373 133.635 37.6746 133.475 37.4641V38H132.758V30.6309H133.533V33.4637C133.705 33.2276 133.909 33.049 134.145 32.9277C134.388 32.8065 134.656 32.7459 134.949 32.7459ZM134.796 37.4162C135.217 37.4162 135.533 37.2535 135.744 36.9281C135.961 36.6027 136.069 36.1178 136.069 35.4734C136.069 34.8227 135.957 34.3314 135.734 33.9996C135.511 33.6615 135.179 33.4924 134.739 33.4924C134.503 33.4924 134.286 33.5402 134.088 33.6359C133.897 33.7316 133.711 33.8816 133.533 34.0857V36.8516C133.692 37.0302 133.881 37.1706 134.097 37.2727C134.321 37.3684 134.554 37.4162 134.796 37.4162ZM141.795 35.215C141.795 35.4001 141.782 35.5468 141.756 35.6553H138.388C138.413 36.2295 138.557 36.6633 138.818 36.9568C139.086 37.2439 139.463 37.3875 139.948 37.3875C140.426 37.3875 140.863 37.2599 141.259 37.0047L141.555 37.6172C141.351 37.7767 141.102 37.9011 140.809 37.9904C140.522 38.0734 140.219 38.1148 139.9 38.1148C139.172 38.1148 138.605 37.8788 138.196 37.4066C137.794 36.9345 137.593 36.2773 137.593 35.4352C137.593 34.5866 137.778 33.9262 138.148 33.4541C138.525 32.982 139.051 32.7459 139.728 32.7459C140.378 32.7459 140.886 32.9628 141.249 33.3967C141.613 33.8305 141.795 34.4367 141.795 35.215ZM139.708 33.4445C138.924 33.4445 138.487 33.9709 138.397 35.0236H141.01C141.004 34.526 140.886 34.14 140.656 33.8656C140.426 33.5849 140.11 33.4445 139.708 33.4445ZM146.997 32.7459C147.494 32.7459 147.88 32.8926 148.155 33.1861C148.435 33.4732 148.576 33.872 148.576 34.3824V38H147.801V34.4494C147.801 34.1368 147.711 33.9007 147.533 33.7412C147.36 33.5753 147.105 33.4924 146.767 33.4924C146.525 33.4924 146.301 33.5339 146.097 33.6168C145.893 33.6934 145.689 33.8146 145.485 33.9805V38H144.709V32.8703H145.427V33.435C145.848 32.9756 146.371 32.7459 146.997 32.7459ZM151.765 38.1244C151.076 38.1244 150.547 37.8979 150.177 37.4449C149.807 36.9855 149.622 36.3156 149.622 35.4352C149.622 34.5547 149.807 33.888 150.177 33.435C150.553 32.9756 151.086 32.7459 151.775 32.7459C152.458 32.7459 152.984 32.9756 153.354 33.435C153.724 33.888 153.909 34.5547 153.909 35.4352C153.909 36.3092 153.724 36.976 153.354 37.4354C152.984 37.8947 152.454 38.1244 151.765 38.1244ZM151.765 37.4258C152.206 37.4258 152.537 37.2599 152.761 36.9281C152.99 36.59 153.105 36.0923 153.105 35.4352C153.105 34.7844 152.99 34.2899 152.761 33.9518C152.537 33.6136 152.209 33.4445 151.775 33.4445C151.328 33.4445 150.99 33.6136 150.761 33.9518C150.537 34.2899 150.426 34.7844 150.426 35.4352C150.426 36.0923 150.537 36.59 150.761 36.9281C150.99 37.2599 151.325 37.4258 151.765 37.4258ZM156.783 38.067C156.26 38.067 155.864 37.9266 155.596 37.6459C155.328 37.3588 155.194 36.9345 155.194 36.373V33.5307H154.323V32.8703H155.194V31.3582H155.969V32.8703H157.501V33.5307H155.969V36.2582C155.969 36.641 156.046 36.9217 156.199 37.1004C156.352 37.279 156.588 37.3684 156.907 37.3684C157.08 37.3684 157.255 37.3396 157.434 37.2822L157.568 37.9521C157.332 38.0287 157.07 38.067 156.783 38.067ZM158.413 32.8703H159.188V38H158.413V32.8703ZM158.795 31.9803C158.623 31.9803 158.489 31.9324 158.393 31.8367C158.304 31.741 158.259 31.6102 158.259 31.4443C158.259 31.2721 158.304 31.1381 158.393 31.0424C158.489 30.9467 158.623 30.8988 158.795 30.8988C158.968 30.8988 159.098 30.9467 159.188 31.0424C159.283 31.1381 159.331 31.2689 159.331 31.4348C159.331 31.607 159.283 31.741 159.188 31.8367C159.098 31.9324 158.968 31.9803 158.795 31.9803ZM160.837 33.5307H159.966V32.8703H160.837V32.2578C160.837 31.7283 160.993 31.3135 161.306 31.0137C161.618 30.7138 162.055 30.5639 162.617 30.5639C162.814 30.5639 162.983 30.5798 163.124 30.6117V31.3008C162.92 31.2753 162.751 31.2625 162.617 31.2625C162.285 31.2625 162.033 31.3486 161.861 31.5209C161.695 31.6868 161.612 31.9324 161.612 32.2578V32.8703H162.942V33.5307H161.612V38H160.837V33.5307ZM164.148 32.8703H164.923V38H164.148V32.8703ZM164.531 31.9803C164.358 31.9803 164.224 31.9324 164.129 31.8367C164.039 31.741 163.995 31.6102 163.995 31.4443C163.995 31.2721 164.039 31.1381 164.129 31.0424C164.224 30.9467 164.358 30.8988 164.531 30.8988C164.703 30.8988 164.834 30.9467 164.923 31.0424C165.019 31.1381 165.067 31.2689 165.067 31.4348C165.067 31.607 165.019 31.741 164.923 31.8367C164.834 31.9324 164.703 31.9803 164.531 31.9803ZM170.218 35.215C170.218 35.4001 170.205 35.5468 170.18 35.6553H166.811C166.837 36.2295 166.98 36.6633 167.242 36.9568C167.51 37.2439 167.886 37.3875 168.371 37.3875C168.85 37.3875 169.287 37.2599 169.682 37.0047L169.979 37.6172C169.775 37.7767 169.526 37.9011 169.232 37.9904C168.945 38.0734 168.642 38.1148 168.323 38.1148C167.596 38.1148 167.028 37.8788 166.62 37.4066C166.218 36.9345 166.017 36.2773 166.017 35.4352C166.017 34.5866 166.202 33.9262 166.572 33.4541C166.948 32.982 167.475 32.7459 168.151 32.7459C168.802 32.7459 169.309 32.9628 169.673 33.3967C170.036 33.8305 170.218 34.4367 170.218 35.215ZM168.132 33.4445C167.347 33.4445 166.91 33.9709 166.821 35.0236H169.433C169.427 34.526 169.309 34.14 169.079 33.8656C168.85 33.5849 168.534 33.4445 168.132 33.4445ZM175.016 30.6309V38H174.298V37.6172V37.3301C173.953 37.8596 173.462 38.1244 172.824 38.1244C172.218 38.1244 171.746 37.8852 171.408 37.4066C171.069 36.9281 170.9 36.2614 170.9 35.4064C170.9 34.5706 171.076 33.9199 171.427 33.4541C171.784 32.982 172.282 32.7459 172.92 32.7459C173.188 32.7459 173.433 32.7969 173.657 32.899C173.886 33.0011 174.081 33.1447 174.24 33.3297V30.6309H175.016ZM173.034 37.3779C173.271 37.3779 173.484 37.3301 173.676 37.2344C173.873 37.1387 174.062 36.9887 174.24 36.7846V34.0187C174.081 33.8401 173.889 33.7029 173.666 33.6072C173.449 33.5051 173.22 33.4541 172.977 33.4541C172.556 33.4541 172.237 33.62 172.02 33.9518C171.809 34.2771 171.704 34.7589 171.704 35.3969C171.704 36.054 171.816 36.5485 172.039 36.8803C172.262 37.212 172.594 37.3779 173.034 37.3779ZM57.4021 44.7459C57.9636 44.7459 58.4134 44.8863 58.7516 45.167C59.0897 45.4413 59.2588 45.8465 59.2588 46.3824V50H58.5506V49.3588C58.3847 49.6076 58.171 49.7958 57.9094 49.9234C57.6478 50.0447 57.3479 50.1053 57.0098 50.1053C56.4993 50.1053 56.1038 49.9713 55.823 49.7033C55.5423 49.4354 55.402 49.0589 55.402 48.574C55.402 47.9679 55.6508 47.5213 56.1484 47.2342C56.6525 46.9407 57.434 46.7908 58.4932 46.7844V46.4494C58.4932 46.1304 58.3911 45.888 58.1869 45.7221C57.9891 45.5562 57.6956 45.4732 57.3064 45.4732C56.879 45.4732 56.477 45.5626 56.1006 45.7412L55.8996 45.1C56.3654 44.8639 56.8662 44.7459 57.4021 44.7459ZM57.182 49.4066C57.6924 49.4066 58.1295 49.2057 58.4932 48.8037V47.3969C57.702 47.4033 57.1182 47.499 56.7418 47.684C56.3654 47.8626 56.1771 48.1402 56.1771 48.5166C56.1771 48.8101 56.2601 49.0334 56.426 49.1865C56.5982 49.3333 56.8503 49.4066 57.182 49.4066ZM63.1252 44.7459C63.7313 44.7459 64.2035 44.9852 64.5416 45.4637C64.8798 45.9422 65.0488 46.6089 65.0488 47.4639C65.0488 48.2997 64.8702 48.9536 64.5129 49.4258C64.162 49.8915 63.6675 50.1244 63.0295 50.1244C62.7488 50.1244 62.4872 50.067 62.2447 49.9521C62.0087 49.8373 61.8109 49.6746 61.6514 49.4641V50H60.9336V42.6309H61.7088V45.4637C61.8811 45.2276 62.0852 45.049 62.3213 44.9277C62.5637 44.8065 62.8317 44.7459 63.1252 44.7459ZM62.9721 49.4162C63.3932 49.4162 63.709 49.2535 63.9195 48.9281C64.1365 48.6027 64.2449 48.1178 64.2449 47.4734C64.2449 46.8227 64.1333 46.3314 63.91 45.9996C63.6867 45.6615 63.3549 45.4924 62.9146 45.4924C62.6786 45.4924 62.4617 45.5402 62.2639 45.6359C62.0725 45.7316 61.8874 45.8816 61.7088 46.0857V48.8516C61.8683 49.0302 62.0565 49.1706 62.2734 49.2727C62.4967 49.3684 62.7296 49.4162 62.9721 49.4162ZM68.2262 50.1244C67.5371 50.1244 67.0076 49.8979 66.6375 49.4449C66.2674 48.9855 66.0824 48.3156 66.0824 47.4352C66.0824 46.5547 66.2674 45.888 66.6375 45.435C67.0139 44.9756 67.5467 44.7459 68.2357 44.7459C68.9184 44.7459 69.4448 44.9756 69.8148 45.435C70.1849 45.888 70.3699 46.5547 70.3699 47.4352C70.3699 48.3092 70.1849 48.976 69.8148 49.4354C69.4448 49.8947 68.9152 50.1244 68.2262 50.1244ZM68.2262 49.4258C68.6664 49.4258 68.9982 49.2599 69.2215 48.9281C69.4512 48.59 69.566 48.0923 69.566 47.4352C69.566 46.7844 69.4512 46.2899 69.2215 45.9518C68.9982 45.6136 68.6696 45.4445 68.2357 45.4445C67.7891 45.4445 67.451 45.6136 67.2213 45.9518C66.998 46.2899 66.8863 46.7844 66.8863 47.4352C66.8863 48.0923 66.998 48.59 67.2213 48.9281C67.451 49.2599 67.7859 49.4258 68.2262 49.4258ZM75.4996 44.8703V50H74.7818V49.3684C74.4118 49.8724 73.8982 50.1244 73.241 50.1244C72.7561 50.1244 72.3765 49.9809 72.1021 49.6937C71.8278 49.4066 71.6906 49.0079 71.6906 48.4975V44.8703H72.4658V48.4209C72.4658 48.7335 72.5488 48.9728 72.7146 49.1387C72.8869 49.2982 73.1389 49.3779 73.4707 49.3779C73.7259 49.3779 73.9524 49.3333 74.1502 49.2439C74.3544 49.1482 74.5458 49.0015 74.7244 48.8037V44.8703H75.4996ZM79.0215 50.067C78.4983 50.067 78.1027 49.9266 77.8348 49.6459C77.5668 49.3588 77.4328 48.9345 77.4328 48.373V45.5307H76.5619V44.8703H77.4328V43.3582H78.208V44.8703H79.7393V45.5307H78.208V48.2582C78.208 48.641 78.2846 48.9217 78.4377 49.1004C78.5908 49.279 78.8269 49.3684 79.1459 49.3684C79.3182 49.3684 79.4936 49.3396 79.6723 49.2822L79.8063 49.9521C79.5702 50.0287 79.3086 50.067 79.0215 50.067ZM84.8881 50.1244C84.199 50.1244 83.6695 49.8979 83.2994 49.4449C82.9294 48.9855 82.7443 48.3156 82.7443 47.4352C82.7443 46.5547 82.9294 45.888 83.2994 45.435C83.6758 44.9756 84.2086 44.7459 84.8977 44.7459C85.5803 44.7459 86.1067 44.9756 86.4768 45.435C86.8468 45.888 87.0318 46.5547 87.0318 47.4352C87.0318 48.3092 86.8468 48.976 86.4768 49.4354C86.1067 49.8947 85.5771 50.1244 84.8881 50.1244ZM84.8881 49.4258C85.3283 49.4258 85.6601 49.2599 85.8834 48.9281C86.1131 48.59 86.2279 48.0923 86.2279 47.4352C86.2279 46.7844 86.1131 46.2899 85.8834 45.9518C85.6601 45.6136 85.3315 45.4445 84.8977 45.4445C84.451 45.4445 84.1129 45.6136 83.8832 45.9518C83.6599 46.2899 83.5482 46.7844 83.5482 47.4352C83.5482 48.0923 83.6599 48.59 83.8832 48.9281C84.1129 49.2599 84.4479 49.4258 84.8881 49.4258ZM92.1615 44.8703V50H91.4438V49.3684C91.0737 49.8724 90.5601 50.1244 89.9029 50.1244C89.418 50.1244 89.0384 49.9809 88.7641 49.6937C88.4897 49.4066 88.3525 49.0079 88.3525 48.4975V44.8703H89.1277V48.4209C89.1277 48.7335 89.2107 48.9728 89.3766 49.1387C89.5488 49.2982 89.8008 49.3779 90.1326 49.3779C90.3878 49.3779 90.6143 49.3333 90.8121 49.2439C91.0163 49.1482 91.2077 49.0015 91.3863 48.8037V44.8703H92.1615ZM96.0088 44.765C96.2385 44.765 96.449 44.8065 96.6404 44.8895L96.4682 45.6455C96.2257 45.5753 96.0056 45.5402 95.8078 45.5402C95.559 45.5402 95.3452 45.5913 95.1666 45.6934C94.988 45.7954 94.8253 45.9581 94.6785 46.1814V50H93.9033V44.8703H94.6211V45.5977C94.9784 45.0426 95.4409 44.765 96.0088 44.765ZM101.512 44.7459C102.118 44.7459 102.59 44.9852 102.928 45.4637C103.266 45.9422 103.435 46.6089 103.435 47.4639C103.435 48.2997 103.257 48.9536 102.899 49.4258C102.549 49.8915 102.054 50.1244 101.416 50.1244C101.135 50.1244 100.874 50.067 100.631 49.9521C100.395 49.8373 100.197 49.6746 100.038 49.4641V50H99.3201V42.6309H100.095V45.4637C100.268 45.2276 100.472 45.049 100.708 44.9277C100.95 44.8065 101.218 44.7459 101.512 44.7459ZM101.359 49.4162C101.78 49.4162 102.096 49.2535 102.306 48.9281C102.523 48.6027 102.631 48.1178 102.631 47.4734C102.631 46.8227 102.52 46.3314 102.296 45.9996C102.073 45.6615 101.741 45.4924 101.301 45.4924C101.065 45.4924 100.848 45.5402 100.65 45.6359C100.459 45.7316 100.274 45.8816 100.095 46.0857V48.8516C100.255 49.0302 100.443 49.1706 100.66 49.2727C100.883 49.3684 101.116 49.4162 101.359 49.4162ZM108.651 47.215C108.651 47.4001 108.638 47.5468 108.613 47.6553H105.244C105.27 48.2295 105.413 48.6633 105.675 48.9568C105.943 49.2439 106.319 49.3875 106.804 49.3875C107.283 49.3875 107.72 49.2599 108.115 49.0047L108.412 49.6172C108.208 49.7767 107.959 49.9011 107.665 49.9904C107.378 50.0734 107.075 50.1148 106.756 50.1148C106.029 50.1148 105.461 49.8788 105.053 49.4066C104.651 48.9345 104.45 48.2773 104.45 47.4352C104.45 46.5866 104.635 45.9262 105.005 45.4541C105.381 44.982 105.908 44.7459 106.584 44.7459C107.235 44.7459 107.742 44.9628 108.106 45.3967C108.469 45.8305 108.651 46.4367 108.651 47.215ZM106.565 45.4445C105.78 45.4445 105.343 45.9709 105.254 47.0236H107.866C107.86 46.526 107.742 46.14 107.512 45.8656C107.283 45.5849 106.967 45.4445 106.565 45.4445ZM111.226 50.1148C110.9 50.1148 110.584 50.0766 110.278 50C109.978 49.9171 109.713 49.8022 109.484 49.6555L109.761 48.9951C110.208 49.2758 110.696 49.4162 111.226 49.4162C111.589 49.4162 111.864 49.3492 112.049 49.2152C112.24 49.0812 112.336 48.8835 112.336 48.6219C112.336 48.4177 112.275 48.255 112.154 48.1338C112.039 48.0126 111.854 47.9201 111.599 47.8562L110.919 47.6936C110.454 47.5851 110.109 47.416 109.886 47.1863C109.662 46.9503 109.551 46.644 109.551 46.2676C109.551 45.7954 109.707 45.4254 110.02 45.1574C110.339 44.8895 110.782 44.7555 111.35 44.7555C111.631 44.7555 111.911 44.7906 112.192 44.8607C112.473 44.9309 112.725 45.0234 112.948 45.1383L112.642 45.7986C112.195 45.5689 111.758 45.4541 111.331 45.4541C110.999 45.4541 110.747 45.5179 110.575 45.6455C110.403 45.7731 110.316 45.9581 110.316 46.2006C110.316 46.392 110.377 46.5483 110.498 46.6695C110.619 46.7844 110.808 46.8737 111.063 46.9375L111.742 47.1002C112.208 47.2087 112.549 47.3841 112.766 47.6266C112.99 47.8626 113.101 48.1753 113.101 48.5645C113.101 49.0493 112.935 49.429 112.604 49.7033C112.272 49.9777 111.813 50.1148 111.226 50.1148ZM116.202 50.067C115.679 50.067 115.283 49.9266 115.015 49.6459C114.747 49.3588 114.613 48.9345 114.613 48.373V45.5307H113.743V44.8703H114.613V43.3582H115.389V44.8703H116.92V45.5307H115.389V48.2582C115.389 48.641 115.465 48.9217 115.618 49.1004C115.771 49.279 116.008 49.3684 116.327 49.3684C116.499 49.3684 116.674 49.3396 116.853 49.2822L116.987 49.9521C116.751 50.0287 116.489 50.067 116.202 50.067ZM122.069 50.1244C121.38 50.1244 120.85 49.8979 120.48 49.4449C120.11 48.9855 119.925 48.3156 119.925 47.4352C119.925 46.5547 120.11 45.888 120.48 45.435C120.857 44.9756 121.389 44.7459 122.078 44.7459C122.761 44.7459 123.287 44.9756 123.657 45.435C124.027 45.888 124.213 46.5547 124.213 47.4352C124.213 48.3092 124.027 48.976 123.657 49.4354C123.287 49.8947 122.758 50.1244 122.069 50.1244ZM122.069 49.4258C122.509 49.4258 122.841 49.2599 123.064 48.9281C123.294 48.59 123.409 48.0923 123.409 47.4352C123.409 46.7844 123.294 46.2899 123.064 45.9518C122.841 45.6136 122.512 45.4445 122.078 45.4445C121.632 45.4445 121.294 45.6136 121.064 45.9518C120.841 46.2899 120.729 46.7844 120.729 47.4352C120.729 48.0923 120.841 48.59 121.064 48.9281C121.294 49.2599 121.629 49.4258 122.069 49.4258ZM125.782 45.5307H124.911V44.8703H125.782V44.2578C125.782 43.7283 125.938 43.3135 126.251 43.0137C126.564 42.7138 127.001 42.5639 127.562 42.5639C127.76 42.5639 127.929 42.5798 128.069 42.6117V43.3008C127.865 43.2753 127.696 43.2625 127.562 43.2625C127.23 43.2625 126.978 43.3486 126.806 43.5209C126.64 43.6868 126.557 43.9324 126.557 44.2578V44.8703H127.888V45.5307H126.557V50H125.782V45.5307ZM129.256 45.5307H128.385V44.8703H129.256V44.2578C129.256 43.7283 129.412 43.3135 129.725 43.0137C130.038 42.7138 130.475 42.5639 131.036 42.5639C131.234 42.5639 131.403 42.5798 131.543 42.6117V43.3008C131.339 43.2753 131.17 43.2625 131.036 43.2625C130.704 43.2625 130.452 43.3486 130.28 43.5209C130.114 43.6868 130.031 43.9324 130.031 44.2578V44.8703H131.362V45.5307H130.031V50H129.256V45.5307ZM136.185 47.215C136.185 47.4001 136.172 47.5468 136.147 47.6553H132.778C132.803 48.2295 132.947 48.6633 133.209 48.9568C133.477 49.2439 133.853 49.3875 134.338 49.3875C134.816 49.3875 135.253 49.2599 135.649 49.0047L135.946 49.6172C135.742 49.7767 135.493 49.9011 135.199 49.9904C134.912 50.0734 134.609 50.1148 134.29 50.1148C133.563 50.1148 132.995 49.8788 132.587 49.4066C132.185 48.9345 131.984 48.2773 131.984 47.4352C131.984 46.5866 132.169 45.9262 132.539 45.4541C132.915 44.982 133.441 44.7459 134.118 44.7459C134.769 44.7459 135.276 44.9628 135.639 45.3967C136.003 45.8305 136.185 46.4367 136.185 47.215ZM134.099 45.4445C133.314 45.4445 132.877 45.9709 132.788 47.0236H135.4C135.394 46.526 135.276 46.14 135.046 45.8656C134.816 45.5849 134.501 45.4445 134.099 45.4445ZM139.621 44.765C139.85 44.765 140.061 44.8065 140.252 44.8895L140.08 45.6455C139.838 45.5753 139.618 45.5402 139.42 45.5402C139.171 45.5402 138.957 45.5913 138.779 45.6934C138.6 45.7954 138.437 45.9581 138.29 46.1814V50H137.515V44.8703H138.233V45.5977C138.59 45.0426 139.053 44.765 139.621 44.765ZM142.578 50.1148C142.253 50.1148 141.937 50.0766 141.63 50C141.331 49.9171 141.066 49.8022 140.836 49.6555L141.114 48.9951C141.56 49.2758 142.048 49.4162 142.578 49.4162C142.942 49.4162 143.216 49.3492 143.401 49.2152C143.592 49.0812 143.688 48.8835 143.688 48.6219C143.688 48.4177 143.627 48.255 143.506 48.1338C143.391 48.0126 143.206 47.9201 142.951 47.8562L142.272 47.6936C141.806 47.5851 141.461 47.416 141.238 47.1863C141.015 46.9503 140.903 46.644 140.903 46.2676C140.903 45.7954 141.059 45.4254 141.372 45.1574C141.691 44.8895 142.135 44.7555 142.702 44.7555C142.983 44.7555 143.264 44.7906 143.545 44.8607C143.825 44.9309 144.077 45.0234 144.301 45.1383L143.994 45.7986C143.548 45.5689 143.111 45.4541 142.683 45.4541C142.351 45.4541 142.099 45.5179 141.927 45.6455C141.755 45.7731 141.669 45.9581 141.669 46.2006C141.669 46.392 141.729 46.5483 141.851 46.6695C141.972 46.7844 142.16 46.8737 142.415 46.9375L143.095 47.1002C143.56 47.2087 143.902 47.3841 144.119 47.6266C144.342 47.8626 144.454 48.1753 144.454 48.5645C144.454 49.0493 144.288 49.429 143.956 49.7033C143.624 49.9777 143.165 50.1148 142.578 50.1148Z" fill="#1C1C1C"/>
<g clip-path="url(#clip0_100_920)">
<path d="M22.6894 37.5001C16.7801 37.5001 12 32.4575 12 26.2499C12 20.0424 16.7801 15 22.6894 15H33.8107C39.72 15 44.5 20.0426 44.5 26.2499C44.5 32.4573 39.72 37.4999 33.8107 37.4999L22.6894 37.5001Z" fill="#86A9FF"/>
<path d="M29.8976 42.0463V48.9063C29.8976 49.5031 29.4169 50 28.8407 50C28.5587 49.998 28.2898 49.8813 28.0957 49.6768L17.6706 38.9393C15.6288 36.8519 14.5 33.9937 14.5 31.0355C14.5 24.946 19.2801 19.9999 25.1894 19.9999H36.3106C42.22 19.9999 47 24.9462 47 31.0355C47 37.1248 42.22 42.0711 36.3106 42.0711H29.8976V42.0463Z" fill="#578CFF"/>
<path d="M22.6375 37.5001H33.7855C39.7088 37.5001 44.4999 32.3407 44.4999 25.9889C44.4999 25.237 44.4274 24.5114 44.3074 23.7852C42.3574 21.452 39.5163 20.0003 36.3619 20.0003H25.2144C19.2912 20.0003 14.5 25.1597 14.5 31.5114C14.5 32.2634 14.5726 32.9889 14.6925 33.6889C16.6425 36.0221 19.4837 37.5001 22.638 37.5001H22.6375Z" fill="#0057CC"/>
</g>
<defs>
<clipPath id="clip0_100_920">
<rect width="35" height="35" fill="white" transform="translate(12 15)"/>
</clipPath>
</defs>
</svg>
