<?xml version="1.0" encoding="UTF-8"?><svg width="174" height="24" viewBox="0 0 174 24" fill="none" xmlns="http://www.w3.org/2000/svg">
<g clip-path="url(#clip0_11220_36748)">
<g clip-path="url(#clip1_11220_36748)">
<path d="M8.11519 0.933937H13.3833L20.8193 18.8078H15.2555L10.5486 6.93634L7.44655 14.7254H11.1382L12.6092 18.8078H0.600098L8.11519 0.933937ZM27.0235 4.64246C27.5584 4.64246 28.146 4.69507 28.7355 4.82845V0.400391H33.3896V18.0074C32.3198 18.4884 30.0201 19.0745 27.7203 19.0745C23.5484 19.0745 19.9642 16.6999 19.9642 11.9787C19.9642 7.25759 23.4147 4.64246 27.0253 4.64246H27.0235ZM27.613 15.2589C28.0405 15.2589 28.389 15.1781 28.7355 15.0729V8.58958C28.3871 8.45619 28.0405 8.40359 27.5847 8.40359C26.061 8.40359 24.6427 9.52329 24.6427 11.8979C24.6427 14.2726 26.0874 15.2589 27.6111 15.2589H27.613ZM41.6807 4.64246C45.5588 4.64246 48.8492 7.25759 48.8492 11.8453C48.8492 16.4331 45.5588 19.0482 41.6807 19.0482C37.8026 19.0482 34.4858 16.4331 34.4858 11.8453C34.4858 7.25759 37.748 4.64246 41.6807 4.64246ZM41.6807 15.18C43.018 15.18 44.2479 14.1129 44.2479 11.8453C44.2479 9.57777 43.018 8.51068 41.6807 8.51068C40.3434 8.51068 39.1399 9.57777 39.1399 11.8453C39.1399 14.1129 40.2907 15.18 41.6807 15.18ZM49.9718 0.400391H54.6523V4.82845C55.2135 4.72137 55.8031 4.64246 56.3907 4.64246C60.0277 4.64246 63.3973 7.01712 63.3973 11.6594C63.3973 16.5684 59.813 19.0482 55.5601 19.0482C53.7406 19.0482 51.4145 18.6744 49.9699 18.0074V0.400391H49.9718ZM55.6674 15.2326C57.2722 15.2326 58.7432 14.0847 58.7432 11.712C58.7432 9.49699 57.2985 8.45807 55.7484 8.45807C55.3209 8.45807 54.9724 8.51068 54.6523 8.64406V15.0466C54.9197 15.1537 55.2681 15.2326 55.6693 15.2326H55.6674ZM71.3399 4.64246C74.8432 4.64246 78.0526 6.88373 78.0526 11.3926C78.0526 12.0069 78.0263 12.5931 77.9453 13.1792H69.2266C69.7088 14.7535 71.0988 15.4994 72.8373 15.4994C74.2555 15.4994 75.5645 15.1518 77.0355 14.5131V18.0619C75.6719 18.7551 74.0408 19.0482 72.3551 19.0482C67.9157 19.0482 64.4652 16.3805 64.4652 11.8453C64.4652 7.3102 67.5937 4.64246 71.338 4.64246H71.3399ZM73.6942 10.271C73.4532 8.75115 72.438 8.13682 71.3945 8.13682C70.3511 8.13682 69.496 8.77745 69.1475 10.271H73.6942Z" fill="#EB1000"/>
<path d="M102.071 18.7804H96.8291L95.9458 16.0864H89.233L88.3497 18.7804H83.3208L89.9299 0.959197H95.6538L102.073 18.7785L102.071 18.7804ZM94.5558 11.8443L92.6026 5.8419L90.6494 11.8443H94.5539H94.5558ZM109.318 8.40255C107.365 8.40255 105.868 9.57673 105.868 11.818C105.868 14.0593 107.339 15.2335 109.345 15.2335C110.575 15.2335 111.377 15.0475 112.179 14.6191V18.4347C111.191 18.8875 110.04 19.0754 108.595 19.0754C104.156 19.0754 101.159 16.2216 101.159 11.8462C101.159 7.47072 104.583 4.6433 108.701 4.6433C110.119 4.6433 111.242 4.77669 112.178 5.22945V9.07136C111.349 8.6186 110.413 8.40443 109.317 8.40443L109.318 8.40255ZM119.269 4.64142C120.365 4.64142 121.248 4.77481 121.65 4.90819V8.53594C121.329 8.45515 120.714 8.40255 120.205 8.40255C119.216 8.40255 118.653 8.48333 118.146 8.66932V18.8067H113.466V5.8156C115.152 5.06788 116.835 4.64142 119.269 4.64142ZM136.386 11.818C136.386 16.0338 133.47 19.0472 129.246 19.0472C124.484 19.0472 121.972 15.6054 121.972 11.8969C121.972 7.81452 124.727 4.64142 129.246 4.64142C133.525 4.64142 136.386 7.73562 136.386 11.818ZM129.244 15.2861C130.822 15.2861 131.704 13.9785 131.704 11.818C131.704 9.65751 130.768 8.40255 129.216 8.40255C127.664 8.40255 126.648 9.57673 126.648 11.7372C126.648 13.8977 127.504 15.2861 129.242 15.2861H129.244ZM142.082 0.373047V4.82741C142.456 4.74663 142.991 4.64142 143.739 4.64142C146.466 4.64142 150.827 5.94899 150.827 11.6301C150.827 16.6725 146.628 19.0472 143.097 19.0472C140.69 19.0472 138.844 18.6207 137.399 18.0327V0.373047H142.08H142.082ZM143.259 15.2579C145.131 15.2579 146.148 13.9503 146.148 11.7635C146.148 10.0295 145.398 8.42885 143.232 8.42885C142.805 8.42885 142.377 8.50963 142.082 8.58854V15.0982C142.43 15.2053 142.858 15.2579 143.259 15.2579ZM157.381 19.0735C153.931 19.0735 151.23 17.6325 151.23 14.4313C151.23 11.23 154.012 10.0295 157.221 10.0295C157.971 10.0295 158.585 10.0821 159.093 10.1629V10.0032C159.093 9.06948 158.344 8.40255 156.471 8.40255C155.215 8.40255 153.797 8.72193 152.46 9.25547L152.433 5.52065C153.823 4.9871 155.402 4.66772 157.221 4.66772C161.286 4.66772 163.585 6.48253 163.585 10.563V17.8467C161.847 18.647 159.867 19.0735 157.381 19.0735ZM157.675 15.7388C158.263 15.7388 158.718 15.658 159.093 15.4983V13.2045C158.773 13.0974 158.344 13.0185 157.73 13.0185C156.526 13.0185 155.671 13.366 155.671 14.326C155.671 15.2861 156.5 15.7407 157.677 15.7407L157.675 15.7388ZM172.249 15.2316C172.543 15.2316 172.971 15.179 173.372 15.0456L173.398 18.7278C172.811 18.942 172.168 19.0754 170.965 19.0754C167.915 19.0754 166.124 17.6344 166.124 14.2208V8.72568H164.118V5.01716H166.124V1.54723L170.805 1.52092V5.01528H173.372V8.7238H170.805V13.4731C170.805 14.7544 171.34 15.2335 172.249 15.2335V15.2316Z" fill="black"/>
</g>
</g>
<defs>
<clipPath id="clip0_11220_36748">
<rect width="172.8" height="23.183" fill="white" transform="translate(0.600098)"/>
</clipPath>
<clipPath id="clip1_11220_36748">
<rect width="172.8" height="23.183" fill="white" transform="translate(0.600098)"/>
</clipPath>
</defs>
</svg>
