<?xml version="1.0" encoding="UTF-8"?><svg width="80" height="80" viewBox="0 0 80 80" fill="none" xmlns="http://www.w3.org/2000/svg">
<path d="M47.2205 69.6771H22.4677C20.1596 69.6771 18.2823 67.7998 18.2823 65.4917V50.4314C18.2823 49.8158 17.7841 49.3176 17.1685 49.3176C16.5529 49.3176 16.0547 49.8158 16.0547 50.4314V65.4917C16.0547 69.0278 18.9316 71.9047 22.4677 71.9047H47.2205C47.8361 71.9047 48.3343 71.4066 48.3343 70.7909C48.3343 70.1753 47.8361 69.6771 47.2205 69.6771Z" fill="#2C2C2C"/>
<path d="M17.1685 26.3127C17.7841 26.3127 18.2823 25.814 18.2823 25.1989V20.5642C18.2823 18.2561 20.1597 16.3787 22.4677 16.3787H48.2625C49.5253 16.3787 50.712 16.8715 51.6039 17.7656L59.3418 25.5333C60.2282 26.4225 60.7166 27.6043 60.7166 28.8606V60.1759C60.7166 60.7916 61.2148 61.2897 61.8304 61.2897C62.4461 61.2897 62.9442 60.7916 62.9442 60.1759V28.8606C62.9442 27.0104 62.2253 25.2701 60.9189 23.9611L53.1811 16.1933C51.8682 14.8766 50.1214 14.1511 48.2625 14.1511H22.4677C18.9316 14.1511 16.0547 17.0281 16.0547 20.5642V25.1989C16.0547 25.814 16.5529 26.3127 17.1685 26.3127Z" fill="#2C2C2C"/>
<path d="M52.8816 54.731H26.1166C25.6554 54.731 25.2812 55.1051 25.2812 55.5663C25.2812 56.0275 25.6554 56.4017 26.1166 56.4017H52.8816C53.3427 56.4017 53.7169 56.0275 53.7169 55.5663C53.7169 55.1051 53.3427 54.731 52.8816 54.731Z" fill="#2C2C2C"/>
<path d="M52.8816 60.8145H26.1166C25.6554 60.8145 25.2812 61.1886 25.2812 61.6498C25.2812 62.111 25.6554 62.4852 26.1166 62.4852H52.8816C53.3427 62.4852 53.7169 62.111 53.7169 61.6498C53.7169 61.1886 53.3427 60.8145 52.8816 60.8145Z" fill="#2C2C2C"/>
<path d="M30.6956 41.1283C30.6956 38.0496 28.7606 35.7823 25.6933 35.1628C25.7716 33.6227 25.2528 32.0683 24.2119 30.7908C22.9425 29.2338 21.0717 28.3359 19.079 28.3267H19.0366C15.0904 28.3267 12.9912 30.9594 12.183 32.9559C10.0392 32.6084 7.98015 33.2702 6.5705 34.7936C5.51108 35.9362 5.01509 37.4073 5.17172 38.8169C4.54303 38.9709 3.94588 39.2977 3.42923 39.779C2.56125 40.5888 2 41.7766 2 42.8045C2 44.7308 3.33352 46.8039 6.2616 46.8039H25.1103C27.3553 46.8039 30.6956 45.292 30.6956 41.1283ZM3.6707 42.8045C3.6707 42.3389 3.95133 41.5764 4.56914 41.001C4.87587 40.715 5.36642 40.3865 6.00382 40.3865C6.04732 40.3865 6.09083 40.3881 6.13434 40.3909C6.41062 40.4186 6.68798 40.2875 6.85875 40.0629C7.02843 39.8383 7.07411 39.5435 6.98058 39.2781C6.58356 38.1605 6.88812 36.9086 7.79527 35.9286C8.94278 34.6892 10.7059 34.2443 12.5159 34.7343C12.7301 34.793 12.9586 34.7637 13.1511 34.6522C13.3436 34.5418 13.4839 34.359 13.5416 34.1442C13.5873 33.9745 14.7011 29.9974 19.0377 29.9974H19.0714C20.5627 30.0039 21.9647 30.6777 22.9164 31.8459C23.8236 32.9597 24.2086 34.402 23.9465 35.7029C23.8997 35.9346 23.953 36.1755 24.0944 36.3653C24.2347 36.5551 24.449 36.6764 24.6839 36.6998C27.4021 36.9652 29.0249 38.6212 29.0249 41.1283C29.0249 44.2957 26.4645 45.1332 25.1103 45.1332H6.2616C3.74358 45.1332 3.6707 43.0427 3.6707 42.8045Z" fill="#2C2C2C"/>
<path d="M70.652 71.3022C70.726 70.2113 70.3235 69.0909 69.5099 68.2121C68.4103 67.0243 66.819 66.4881 65.1602 66.7143C64.4761 65.1415 62.8097 63.1641 59.7566 63.1641H59.7239C58.1294 63.1717 56.6327 63.8896 55.6179 65.135C54.8217 66.1117 54.4062 67.293 54.4268 68.4731C52.06 69.0126 50.5742 70.8073 50.5742 73.2264C50.5742 76.5775 53.2641 77.7947 55.0729 77.7947H69.6078C71.8909 77.7947 73.0852 76.1468 73.0852 74.5185C73.0852 73.6625 72.6392 72.7151 71.9224 72.0462C71.5428 71.6938 71.1099 71.4414 70.652 71.3022ZM69.6078 76.124H55.0729C55.0447 76.124 52.2449 76.0913 52.2449 73.2264C52.2449 71.4012 53.4316 70.196 55.4199 70.0013C55.6549 69.9785 55.8691 69.8577 56.0094 69.6674C56.1508 69.4771 56.2041 69.2367 56.1574 69.005C55.9659 68.0576 56.2487 67.0058 56.9133 66.19C57.6105 65.334 58.6384 64.8402 59.7315 64.8348H59.7555C62.9544 64.8348 63.7756 67.7661 63.8093 67.8912C63.867 68.1055 64.0073 68.2882 64.1998 68.3991C64.3923 68.509 64.6207 68.5384 64.835 68.4807C66.1577 68.1185 67.4487 68.4448 68.2841 69.3476C68.9345 70.0503 69.1553 70.9422 68.8725 71.7362C68.779 72.0016 68.8247 72.2964 68.9944 72.5204C69.1651 72.7456 69.4382 72.8685 69.7188 72.8489C70.1908 72.8119 70.5574 73.0588 70.7825 73.2688C71.197 73.6549 71.4145 74.19 71.4145 74.5185C71.4145 74.6828 71.3634 76.124 69.6078 76.124Z" fill="#2C2C2C"/>
<path d="M69.574 12.0394C69.7861 9.74712 69.0508 7.40585 67.4954 5.49695C65.6953 3.28783 63.0413 2.01305 60.2133 2H60.1546C54.3278 2 51.3257 6.02774 50.2696 8.89872C47.5481 8.37608 44.8844 8.99607 42.8558 10.6423C42.498 10.9327 42.4425 11.4592 42.734 11.817C43.0266 12.1765 43.553 12.2293 43.9087 11.9388C45.7078 10.4781 48.1518 10.0229 50.6122 10.6913C50.8275 10.75 51.0549 10.7201 51.2474 10.6097C51.4399 10.4987 51.5802 10.316 51.6379 10.1017C51.7086 9.8385 53.4391 3.67071 60.1545 3.67071H60.2046C62.5322 3.6816 64.7174 4.73177 66.201 6.55256C67.639 8.31735 68.2253 10.5183 67.8076 12.5904C67.7608 12.8221 67.8152 13.0624 67.9555 13.2522C68.0958 13.442 68.3101 13.5639 68.545 13.5867C72.7294 13.9951 75.3279 16.6578 75.3279 20.5355C75.3279 25.5383 71.2784 26.8599 69.1367 26.8599H65.9552C65.494 26.8599 65.1199 27.234 65.1199 27.6952C65.1199 28.1564 65.494 28.5306 65.9552 28.5306H69.1367C72.2965 28.5306 76.9986 26.4014 76.9986 20.5355C76.9986 16.0737 74.1141 12.8161 69.574 12.0394Z" fill="#2C2C2C"/>
</svg>
