<?xml version="1.0" encoding="UTF-8"?><svg width="80" height="80" viewBox="0 0 80 80" fill="none" xmlns="http://www.w3.org/2000/svg">
<path d="M18.3939 31.6132C17.9495 34.2149 18.4256 36.5601 19.7808 38.292C21.147 40.0379 23.2877 41 25.8086 41H35.2692C35.7246 41 36.0941 40.6313 36.0941 40.1776C36.0941 39.7239 35.7246 39.3557 35.2692 39.3557H25.8086C23.8076 39.3557 22.1288 38.6189 21.0826 37.2813C19.9842 35.8781 19.635 33.9055 20.061 31.6813H21.1771C22.2383 31.6813 23.1019 30.8209 23.1019 29.7636V20.1323C23.1019 11.1577 30.2081 4.64373 39.9995 4.64373C49.7909 4.64373 56.897 11.1577 56.897 20.1323V29.7636C56.897 30.8209 57.7606 31.6813 58.8218 31.6813H60.9754C62.6434 31.6813 64 30.3291 64 28.6677V20.3742C64 18.7128 62.6434 17.3607 60.9754 17.3607H58.8218C58.6454 17.3607 58.4777 17.3922 58.3153 17.4367C56.9926 9.0456 49.5722 3 39.9995 3C30.4267 3 23.0064 9.0456 21.6836 17.4367C21.5212 17.3922 21.3535 17.3607 21.1771 17.3607H19.0246C17.3566 17.3607 16 18.7128 16 20.3742V28.6677C16 30.1134 17.028 31.323 18.3939 31.6132ZM58.5468 22.2453V19.2784C58.5468 19.1275 58.6704 19.0044 58.8218 19.0044H60.9754C61.7337 19.0044 62.3502 19.6187 62.3502 20.3742V28.6677C62.3502 29.4233 61.7337 30.0375 60.9754 30.0375H58.8218C58.6704 30.0375 58.5468 29.9145 58.5468 29.7636V22.2453ZM17.6498 20.3742C17.6498 19.6187 18.2663 19.0044 19.0246 19.0044H21.1771C21.3286 19.0044 21.4521 19.1275 21.4521 19.2784V29.7636C21.4521 29.9145 21.3286 30.0375 21.1771 30.0375H19.0246C18.2663 30.0375 17.6498 29.4233 17.6498 28.6677V20.3742Z" fill="#2C2C2C"/>
<path d="M40.5 42.7795C39.5127 42.7795 38.5255 42.6136 37.5632 42.2851C36.9803 42.0888 36.346 42.3957 36.1455 42.9757C35.9461 43.5558 36.2567 44.1868 36.8397 44.3863C38.0351 44.7929 39.2664 45 40.5 45C48.7567 45 56 35.4354 56 24.5322C56 14.3734 49.4814 7 40.5 7C31.5186 7 25 14.3734 25 24.5322C25 28.462 26.0003 32.5225 27.8158 35.9666C28.1013 36.5088 28.7748 36.7186 29.3229 36.4339C29.8688 36.1488 30.0791 35.4776 29.7925 34.935C28.1416 31.8031 27.2317 28.1091 27.2317 24.5322C27.2317 15.6599 32.8121 9.22053 40.5 9.22053C48.1879 9.22053 53.7683 15.6598 53.7683 24.5322C53.7683 34.253 47.5679 42.7795 40.5 42.7795Z" fill="#2C2C2C"/>
<path d="M53.2089 45.0081C52.7745 44.9556 52.3433 45.1699 52.1207 45.5549C49.7583 49.6424 44.8034 52.2844 39.4995 52.2844C34.1966 52.2844 29.2428 49.6424 26.8804 45.5549C26.6578 45.1699 26.2255 44.9545 25.7922 45.0081C12.5788 46.6232 5 57.8755 5 75.8802C5 76.4992 5.49495 77 6.10661 77C6.71827 77 7.21322 76.4992 7.21322 75.8802C7.21322 66.1819 9.59287 49.7135 25.3642 47.3264C28.2431 51.7212 33.7027 54.5239 39.4995 54.5239C45.2984 54.5239 50.7579 51.7212 53.6368 47.3264C69.4071 49.7135 71.7868 66.1819 71.7868 75.8802C71.7868 76.4992 72.2817 77 72.8934 77C73.505 77 74 76.4992 74 75.8802C74 57.8755 66.4223 46.6232 53.2089 45.0081Z" fill="#2C2C2C"/>
</svg>
