<?xml version="1.0" encoding="UTF-8"?><svg width="80" height="80" viewBox="0 0 80 80" fill="none" xmlns="http://www.w3.org/2000/svg">
<path d="M51.9685 68.9531C49.804 70.074 47.5527 70.9279 45.2345 71.5316C46.4311 70.2398 47.5566 68.8204 48.5848 67.2554C48.9503 66.6989 48.7959 65.9502 48.2382 65.5836C47.6829 65.2181 46.9343 65.3725 46.5664 65.9302C44.8932 68.4773 42.9684 70.6335 40.8519 72.3589C39.9465 72.4645 39.0304 72.5227 38.1085 72.5532V56.4136H40.9522C41.6195 56.4136 42.1595 55.8736 42.1595 55.2063C42.1595 54.539 41.6195 53.999 40.9522 53.999H38.1085V41.2073H40.9522C41.6195 41.2073 42.1595 40.6667 42.1595 40C42.1595 39.3333 41.6195 38.7927 40.9522 38.7927H38.1085V26.0003H51.7235C51.8666 26.5416 52.0253 27.0711 52.1512 27.625C52.2797 28.185 52.7772 28.5646 53.3278 28.5646C53.4162 28.5646 53.507 28.5552 53.5966 28.5345C54.2474 28.3866 54.6542 27.7399 54.5068 27.0897C54.4233 26.7227 54.33 26.3624 54.2392 26.0003H66.4217C66.7184 26.6259 67.0079 27.2566 67.2679 27.9067C67.5155 28.5257 68.2229 28.8251 68.8371 28.5793C69.4561 28.3317 69.7579 27.6291 69.5103 27.0095C69.1432 26.0913 68.734 25.2008 68.299 24.3286C68.2962 24.3219 68.2919 24.3165 68.2889 24.3099C62.3801 12.4805 50.413 5 37.0038 5H36.8624C27.5132 5.03654 18.7381 8.71198 12.1536 15.3484C5.56904 21.9854 1.96257 30.7887 2.00029 40.1374C2.03684 49.486 5.71168 58.261 12.3481 64.8456C18.9515 71.3971 27.6994 75 36.9968 75H37.1371C42.7596 74.9776 48.1227 73.6642 53.079 71.0964C53.6709 70.7899 53.902 70.0613 53.5954 69.4695C53.2889 68.8776 52.5639 68.6442 51.9685 68.9531ZM65.1604 23.5858H53.5738C51.744 17.5919 48.8886 12.4066 45.2648 8.48281C53.6139 10.6457 60.7765 16.0252 65.1604 23.5858ZM38.1085 7.45578C39.0395 7.48665 39.9611 7.55562 40.8738 7.66269C45.337 11.3131 48.8525 16.8721 51.0213 23.5858H38.1085L38.1085 7.45578ZM13.8678 17.049C17.9735 12.9109 22.9961 10.0172 28.4788 8.54176C24.8355 12.4935 22.036 17.66 20.2344 23.5858H8.84C10.217 21.2326 11.8969 19.0354 13.8678 17.049ZM7.5609 26.0003H19.5668C18.5669 30.0044 18.0105 34.3074 17.9424 38.7927H4.44208C4.60433 34.2997 5.6716 29.9657 7.5609 26.0003ZM4.44533 41.2073H17.9425C18.0113 45.6929 18.568 49.9957 19.5676 53.999H7.55684C5.66983 50.0367 4.60854 45.7018 4.44533 41.2073ZM14.0493 63.1325C12.0008 61.1 10.2628 58.8395 8.8434 56.4136H20.2351C22.0366 62.3395 24.8354 67.5051 28.4775 71.4565C23.0802 70.0034 18.1242 67.1753 14.0493 63.1325ZM35.694 72.5539C34.7578 72.5173 33.8296 72.4379 32.9092 72.3233C28.3651 68.6019 24.8877 63.0598 22.7536 56.4136H35.694V72.5539ZM35.694 53.9991H22.0527C21.0102 50.0261 20.4289 45.7178 20.3566 41.2073H35.694L35.694 53.9991ZM35.694 38.7927H20.3564C20.4281 34.2828 21.0091 29.9742 22.052 26.0004H35.694V38.7927ZM35.694 23.5858H22.753C24.8867 16.9416 28.3637 11.3992 32.9072 7.67721C33.8281 7.56242 34.7571 7.4846 35.694 7.44783V23.5858Z" fill="#2C2C2C"/>
<path d="M75.2566 31.4915H46.88C45.7788 31.4915 44.8828 32.3869 44.8828 33.488V51.6954C44.8828 61.3099 53.8889 66.9265 60.6621 70.3148C60.7906 70.3785 60.9286 70.4103 61.0677 70.4103C61.2068 70.4103 61.3447 70.3785 61.4732 70.3148C68.2464 66.9277 77.2525 61.3111 77.2525 51.6954V33.488C77.2525 32.3869 76.3577 31.4915 75.2566 31.4915ZM75.4416 51.6954C75.4416 60.1262 67.3598 65.3007 61.0677 68.491C54.7755 65.2995 46.6937 60.125 46.6937 51.6954V33.488C46.6937 33.3855 46.7774 33.3023 46.88 33.3023H75.2566C75.3591 33.3023 75.4416 33.3855 75.4416 33.488V51.6954Z" fill="#2C2C2C"/>
<path d="M69.1261 41.6116L59.3973 52.365L55.1589 48.1277C54.8052 47.7741 54.2322 47.7741 53.8786 48.1277C53.5249 48.4814 53.5249 49.0544 53.8786 49.4081L58.7901 54.3185C58.9599 54.4883 59.191 54.5838 59.4303 54.5838H59.4527C59.7003 54.5767 59.9349 54.4694 60.1023 54.2855L70.4702 42.8259C70.805 42.4557 70.7767 41.8828 70.4053 41.5467C70.0351 41.2143 69.4621 41.239 69.1261 41.6116Z" fill="#2C2C2C"/>
</svg>
