<svg width="180" height="32" viewBox="0 0 180 32" fill="none" xmlns="http://www.w3.org/2000/svg">
<g clip-path="url(#clip0_2112_14221)">
<path fill-rule="evenodd" clip-rule="evenodd" d="M11.1452 0.00123087C7.93691 0.00123087 6.33155 0.0012309 4.61663 0.534298C2.72442 1.22002 1.23233 2.71212 0.54661 4.60678C0 6.33895 0 7.94184 0 11.1513V20.8351C0 24.0619 0 25.6512 0.533068 27.3797C1.21879 29.2731 2.71088 30.7652 4.60308 31.4509C6.33401 32 7.93691 32 11.1452 32H20.8389C24.0508 32 25.6525 32 27.3797 31.4509C29.2731 30.7652 30.764 29.2731 31.4497 27.3797C31.9963 25.6475 31.9963 24.0446 31.9963 20.8351V11.1649C31.9963 7.95169 31.9963 6.34879 31.4497 4.62033C30.764 2.72689 29.2719 1.2348 27.3797 0.549072C25.6365 0 24.0508 0 20.8229 0H11.1439L11.1452 0.00123087Z" fill="#00D633"/>
<path d="M17.2927 14.4459C20.6641 15.1684 22.2053 16.5651 22.2053 18.9251C22.2053 21.8836 19.7962 24.0675 16.0355 24.2986L15.6686 26.0486C15.6327 26.2196 15.4819 26.3421 15.3071 26.3421H12.4139C12.1754 26.3421 11.9995 26.1195 12.0545 25.8875L12.5189 23.9305C10.6548 23.4002 9.15474 22.3684 8.28028 21.0949C8.17018 20.9345 8.20671 20.7155 8.36024 20.5961L10.3825 19.0232C10.5491 18.8936 10.788 18.9316 10.9112 19.103C11.9828 20.5944 13.6267 21.4777 15.607 21.4777C17.389 21.4777 18.7376 20.6108 18.7376 19.3585C18.7376 18.3953 18.0633 17.9618 15.7997 17.4802C11.8985 16.6614 10.3573 15.2165 10.3573 12.8566C10.3573 10.1184 12.6585 8.04991 16.1298 7.78126L16.5087 5.97384C16.5446 5.80279 16.6954 5.6803 16.8702 5.6803H19.7246C19.96 5.6803 20.1354 5.8977 20.0855 6.12783L19.6468 8.15298C21.1405 8.61276 22.3567 9.43488 23.1138 10.4494C23.2312 10.6066 23.201 10.8293 23.0493 10.9537L21.2043 12.4666C21.044 12.5981 20.8099 12.5694 20.6795 12.4081C19.7418 11.2484 18.2657 10.5929 16.6666 10.5929C14.8846 10.5929 13.7768 11.3635 13.7768 12.4713C13.7768 13.3863 14.6438 13.868 17.2927 14.4459Z" fill="white"/>
<path d="M48.8275 21.6088C50.5244 21.6088 51.7914 20.6315 52.3366 19.0052C52.4022 18.8095 52.6106 18.7011 52.8061 18.767L54.9843 19.5015C55.1824 19.5683 55.2865 19.7868 55.2126 19.9823C54.2024 22.6578 51.9886 24.3258 48.8275 24.3258C44.5047 24.3258 41.3609 20.9013 41.3609 16.0172C41.3609 11.1331 44.5047 7.70862 48.8275 7.70862C51.9886 7.70862 54.2024 9.37667 55.2126 12.0521C55.2865 12.2477 55.1824 12.4661 54.9843 12.5329L52.8061 13.2674C52.6106 13.3334 52.4022 13.225 52.3366 13.0293C51.7914 11.403 50.5244 10.4257 48.8275 10.4257C46.2675 10.4257 44.4598 12.6377 44.4598 16.0172C44.4598 19.3968 46.2675 21.6088 48.8275 21.6088Z" fill="white"/>
<path d="M63.5805 18.5771L61.1553 19.0824C60.0662 19.3069 59.2578 19.655 59.2578 20.6543C59.2578 21.5189 59.8978 22.0129 60.8859 22.0129C62.2669 22.0129 63.5805 21.2831 63.5805 19.9021V18.5771ZM56.3723 20.8003C56.3723 18.4986 58.1575 17.5105 60.4816 17.0614L63.5805 16.4438V16.253C63.5805 15.1864 63.0304 14.5239 61.6606 14.5239C60.5541 14.5239 59.9248 14.9737 59.5985 15.8732C59.5363 16.0447 59.3564 16.1436 59.1778 16.1066L57.1492 15.686C56.9251 15.6395 56.7981 15.403 56.8797 15.1892C57.5581 13.4113 59.2582 12.0537 61.7729 12.0537C64.6809 12.0537 66.4325 13.4123 66.4325 16.1407V21.0922C66.4325 21.6214 66.6179 21.854 67.073 21.8744C67.2724 21.8833 67.4318 22.0435 67.4318 22.2431V23.7489C67.4318 23.9387 67.2873 24.0986 67.0984 24.117C65.3284 24.2898 64.3063 23.8878 63.8725 22.9672C63.1203 23.7981 61.9076 24.2809 60.3694 24.2809C58.0902 24.2809 56.3723 22.8999 56.3723 20.8003Z" fill="white"/>
<path d="M69.9836 20.4217C70.1383 20.281 70.3798 20.2958 70.5134 20.4567C71.2986 21.4033 72.5553 22.0017 73.7753 22.0017C74.8756 22.0017 75.8636 21.6199 75.8636 20.6655C75.8636 19.7112 74.9309 19.6032 73.0567 19.2284C71.1695 18.8509 69.0483 18.3638 69.0483 15.8375C69.0483 13.6257 70.9907 12.0537 73.764 12.0537C75.6843 12.0537 77.4127 12.8118 78.3637 13.9111C78.4919 14.0594 78.4878 14.2801 78.3492 14.4187L77.0672 15.7006C76.9175 15.8502 76.6701 15.8462 76.5317 15.6862C75.8052 14.8463 74.7769 14.3779 73.6405 14.3779C72.5963 14.3779 71.9115 14.8382 71.9115 15.5569C71.9115 16.3653 72.7311 16.5112 74.202 16.8144C76.2342 17.2411 78.7155 17.6902 78.7155 20.3736C78.7155 22.7988 76.4812 24.3258 73.7303 24.3258C71.7072 24.3258 69.6346 23.594 68.5056 22.2325C68.3814 22.0828 68.4022 21.8602 68.5461 21.7292L69.9836 20.4217Z" fill="white"/>
<path d="M80.5892 7.95557H82.7697C82.9737 7.95557 83.139 8.12092 83.139 8.3249V13.5133C83.8016 12.7387 84.8682 12.0537 86.384 12.0537C88.8541 12.0537 90.3474 13.7492 90.3474 16.2979V23.7095C90.3474 23.9135 90.1821 24.0789 89.9781 24.0789H87.7975C87.5935 24.0789 87.4282 23.9135 87.4282 23.7095V17.14C87.4282 15.7478 86.8668 14.7484 85.452 14.7484C84.2956 14.7484 83.139 15.5906 83.139 17.2074V23.7095C83.139 23.9135 82.9737 24.0789 82.7697 24.0789H80.5892C80.3852 24.0789 80.2198 23.9135 80.2198 23.7095V8.3249C80.2198 8.12092 80.3852 7.95557 80.5892 7.95557Z" fill="white"/>
<path d="M100.935 17.8474H105.752L103.326 11.3801L100.935 17.8474ZM105.224 8.19469L111.02 23.5793C111.111 23.8209 110.933 24.0789 110.675 24.0789H108.343C108.189 24.0789 108.051 23.9832 107.997 23.839L106.751 20.5084H99.9468L98.7113 23.838C98.6576 23.9828 98.5195 24.0789 98.3651 24.0789H96.0902C95.8322 24.0789 95.6537 23.821 95.7446 23.5795L101.53 8.1949C101.584 8.05092 101.722 7.95557 101.875 7.95557H104.879C105.032 7.95557 105.17 8.05081 105.224 8.19469Z" fill="white"/>
<path d="M115.284 18.5323C115.284 20.6207 116.474 21.7995 118.057 21.7995C119.921 21.7995 120.92 20.3287 120.92 18.1842C120.92 16.0509 119.921 14.58 118.057 14.58C116.474 14.58 115.284 15.7365 115.284 17.8586V18.5323ZM115.351 22.855V27.729C115.351 27.933 115.186 28.0983 114.982 28.0983H112.801C112.597 28.0983 112.432 27.933 112.432 27.729V12.6476C112.432 12.4436 112.597 12.2783 112.801 12.2783H114.982C115.186 12.2783 115.351 12.4436 115.351 12.6476V13.5133C116.07 12.6488 117.193 12.0537 118.697 12.0537C121.976 12.0537 123.862 14.8383 123.862 18.1842C123.862 21.5413 121.976 24.3258 118.697 24.3258C117.193 24.3258 116.07 23.7308 115.351 22.855Z" fill="white"/>
<path d="M128.252 18.5323C128.252 20.6207 129.442 21.7995 131.025 21.7995C132.889 21.7995 133.888 20.3287 133.888 18.1842C133.888 16.0509 132.889 14.58 131.025 14.58C129.442 14.58 128.252 15.7365 128.252 17.8586V18.5323ZM128.319 22.855V27.729C128.319 27.933 128.154 28.0983 127.95 28.0983H125.769C125.565 28.0983 125.4 27.933 125.4 27.729V12.6476C125.4 12.4436 125.565 12.2783 125.769 12.2783H127.95C128.154 12.2783 128.319 12.4436 128.319 12.6476V13.5133C129.038 12.6488 130.161 12.0537 131.665 12.0537C134.944 12.0537 136.83 14.8383 136.83 18.1842C136.83 21.5413 134.944 24.3258 131.665 24.3258C130.161 24.3258 129.038 23.7308 128.319 22.855Z" fill="white"/>
<path d="M150.09 15.3548C152.088 15.3548 153.132 14.479 153.132 12.9745C153.132 11.4475 152.088 10.5941 150.09 10.5941H146.822V15.3548H150.09ZM146.453 24.0789H144.104C143.9 24.0789 143.735 23.9135 143.735 23.7095V8.3249C143.735 8.12092 143.9 7.95557 144.104 7.95557H150.258C153.907 7.95557 156.186 9.67349 156.186 12.9745C156.186 16.2418 153.907 17.9934 150.258 17.9934H146.822V23.7095C146.822 23.9135 146.657 24.0789 146.453 24.0789Z" fill="white"/>
<path d="M163.956 18.5771L161.531 19.0824C160.441 19.3069 159.633 19.655 159.633 20.6543C159.633 21.5189 160.273 22.0129 161.261 22.0129C162.642 22.0129 163.956 21.2831 163.956 19.9021V18.5771ZM156.747 20.8003C156.747 18.4986 158.533 17.5105 160.857 17.0614L163.956 16.4438V16.253C163.956 15.1864 163.406 14.5239 162.036 14.5239C160.929 14.5239 160.3 14.9737 159.974 15.8732C159.912 16.0447 159.732 16.1436 159.553 16.1066L157.524 15.686C157.3 15.6395 157.173 15.403 157.255 15.1892C157.933 13.4113 159.633 12.0537 162.148 12.0537C165.056 12.0537 166.808 13.4123 166.808 16.1407V21.0922C166.808 21.6214 166.993 21.854 167.448 21.8744C167.648 21.8834 167.807 22.0435 167.807 22.2431V23.7489C167.807 23.9387 167.662 24.0986 167.474 24.117C165.704 24.2898 164.682 23.8878 164.248 22.9672C163.495 23.7981 162.283 24.2809 160.745 24.2809C158.465 24.2809 156.747 22.8999 156.747 20.8003Z" fill="white"/>
<path d="M170.614 28.1994C170.216 28.1994 170.001 28.189 169.779 28.1682C169.59 28.1504 169.446 27.9906 169.446 27.8006V26.1343C169.446 25.9191 169.629 25.7493 169.844 25.7662C169.999 25.7784 170.149 25.7855 170.344 25.7855C171.209 25.7855 171.647 25.5497 172.006 24.6515L172.421 23.6297L168.342 12.7776C168.252 12.5361 168.43 12.2783 168.688 12.2783H170.935C171.092 12.2783 171.232 12.3779 171.284 12.5265L173.982 20.2951L176.614 12.5291C176.665 12.3792 176.806 12.2783 176.964 12.2783H179.141C179.399 12.2783 179.578 12.5359 179.487 12.7774L174.914 24.9659C174.195 26.9083 173.14 28.1994 170.614 28.1994Z" fill="white"/>
</g>
<defs>
<clipPath id="clip0_2112_14221">
<rect width="179.511" height="32" fill="white"/>
</clipPath>
</defs>
</svg>
