<?xml version="1.0" encoding="UTF-8"?><svg width="25" height="24" viewBox="0 0 25 24" fill="none" xmlns="http://www.w3.org/2000/svg">
<g id="Frame">
<path id="iconPrimary" d="M12.4446 1.50232C6.43986 1.50232 1.55566 6.21209 1.55566 12.0023C1.55566 17.7925 6.43986 22.5023 12.4446 22.5023C18.4492 22.5023 23.3334 17.7926 23.3334 12.0023C23.3334 6.21208 18.4492 1.50232 12.4446 1.50232ZM21.4182 11.1023H17.508C17.3345 8.30594 16.3699 5.67068 14.7806 3.60848C18.3341 4.52927 21.0311 7.48592 21.4182 11.1023ZM12.46 20.2599C10.6064 18.4154 9.4498 15.7661 9.24685 12.9023H15.6423C15.4414 15.7681 14.2969 18.4142 12.46 20.2599ZM9.24715 11.1023C9.4498 8.23738 10.6058 5.58953 12.4594 3.74411C14.2972 5.58923 15.4414 8.23562 15.6423 11.1023H9.24715ZM10.1377 3.60116C8.53258 5.66541 7.55671 8.30418 7.38109 11.1023H3.47094C3.85892 7.47597 6.56989 4.51347 10.1377 3.60116ZM3.47094 12.9023H7.38109C7.5567 15.6993 8.53379 18.3386 10.1389 20.4035C6.57019 19.4918 3.85922 16.529 3.47094 12.9023ZM14.78 20.3962C16.3696 18.3331 17.3345 15.6978 17.5083 12.9023H21.4182C21.0311 16.519 18.3338 19.4757 14.78 20.3962Z" fill="black"/>
</g>
</svg>
