<?xml version="1.0" encoding="UTF-8"?><svg xmlns="http://www.w3.org/2000/svg" width="28" height="28" viewBox="0 0 28 28">
  <g id="_5_Icon_Integrate" data-name="5_Icon_Integrate" transform="translate(8512 -13681)">
    <g id="Adobe_Fonts" data-name="Adobe Fonts" transform="translate(-8512 13681.001)">
      <g id="Group_302285" data-name="Group 302285" transform="translate(0 -0.001)">
        <rect id="Rectangle_221212" data-name="Rectangle 221212" width="28" height="28" rx="6" fill="#000b1d"/>
      </g>
    </g>
    <rect id="Placement_Area" data-name="Placement Area" width="15" height="15" transform="translate(-8505 13688)" fill="#fff" opacity="0"/>
    <g id="Icon" transform="translate(-8505.5 13687.5)">
      <rect id="Canvas" width="15" height="15" fill="#fff" opacity="0"/>
      <path id="Path_713447" data-name="Path 713447" d="M5.921,14.18a2.559,2.559,0,0,0,.375-.908h.333a4.476,4.476,0,0,1,0-1.012H6.3a2.559,2.559,0,0,0-.375-.908l.63-.63a.252.252,0,0,0,0-.357h0l-.383-.383a.253.253,0,0,0-.358,0l-.63.63a2.561,2.561,0,0,0-.907-.375V9.353A.253.253,0,0,0,4.02,9.1H3.514a.253.253,0,0,0-.253.253v.885a2.561,2.561,0,0,0-.907.375l-.63-.632a.253.253,0,0,0-.357,0l-.383.383a.252.252,0,0,0,0,.357h0l.63.631a2.559,2.559,0,0,0-.375.908H.353a.253.253,0,0,0-.252.253v.506a.253.253,0,0,0,.252.253h.885a2.559,2.559,0,0,0,.375.908l-.632.63a.252.252,0,0,0,0,.357h0l.383.383a.253.253,0,0,0,.357,0l.631-.631a2.561,2.561,0,0,0,.907.375v.885a.253.253,0,0,0,.253.253H4.02a.253.253,0,0,0,.253-.253V15.3a2.561,2.561,0,0,0,.908-.375l.63.63a.253.253,0,0,0,.358,0l.383-.383a.252.252,0,0,0,0-.357h0Zm-2.154-.1a1.318,1.318,0,1,1,1.318-1.318h0A1.318,1.318,0,0,1,3.767,14.085Z" transform="translate(-0.017 -1.517)" fill="#fff"/>
      <path id="Path_713448" data-name="Path 713448" d="M8.855,8.058A4.669,4.669,0,0,1,10.9,6.79a1.747,1.747,0,1,1,.783-.162,4.573,4.573,0,0,1,3.25.824l.25.1a.36.36,0,0,0,.469-.2h0l.272-.667a.36.36,0,0,0-.2-.47l-1.167-.476a3.646,3.646,0,0,0-.005-1.4l1.171-.493a.36.36,0,0,0,.193-.472l-.3-.713a.36.36,0,0,0-.472-.192l-1.171.491a3.651,3.651,0,0,0-1-.982L13.453.818a.36.36,0,0,0-.2-.47h0L12.59.077a.36.36,0,0,0-.47.2l-.476,1.167a3.651,3.651,0,0,0-1.4,0L9.752.277A.36.36,0,0,0,9.28.084l-.712.3a.36.36,0,0,0-.193.472l.491,1.171a3.648,3.648,0,0,0-.982,1L6.718,2.547a.36.36,0,0,0-.469.2h0l-.272.667a.36.36,0,0,0,.2.47l1.167.476a3.65,3.65,0,0,0,.005,1.4l-1.171.492a.36.36,0,0,0-.192.472l.3.712a.36.36,0,0,0,.471.193h0l1.171-.492a3.66,3.66,0,0,0,.93.927Z" transform="translate(-0.992 -0.008)" fill="#fff"/>
      <path id="Path_713449" data-name="Path 713449" d="M12.758,9.05a3.708,3.708,0,1,0,3.708,3.708A3.708,3.708,0,0,0,12.758,9.05Zm2.083,3.917a.208.208,0,0,1-.208.208H13.175v1.458a.208.208,0,0,1-.208.208H12.55a.208.208,0,0,1-.208-.208V13.175H10.883a.208.208,0,0,1-.208-.208V12.55a.208.208,0,0,1,.208-.208h1.458V10.883a.208.208,0,0,1,.208-.208h.417a.208.208,0,0,1,.208.208v1.458h1.458a.208.208,0,0,1,.208.208Z" transform="translate(-1.508 -1.508)" fill="#fff"/>
    </g>
  </g>
</svg>
