<?xml version="1.0" encoding="UTF-8"?><svg width="24" height="24" viewBox="0 0 24 24" fill="none" xmlns="http://www.w3.org/2000/svg">
<g clip-path="url(#clip0_55466_9979)">
<path d="M13.0884 12.9349C12.9616 13.1544 12.7056 13.2646 12.4603 13.2137L12.0554 13.1263L11.7486 13.4043C11.6384 13.5038 11.4979 13.5555 11.3567 13.5555C11.2564 13.5555 11.1561 13.5297 11.065 13.4772C10.8455 13.3512 10.7331 13.0967 10.7862 12.8491L10.8736 12.4442L10.5956 12.1374C10.4254 11.9498 10.3958 11.6733 10.5227 11.4538C10.6495 11.2335 10.9055 11.1272 11.1508 11.175L11.5557 11.2624L11.8625 10.9844C12.0509 10.8143 12.3258 10.7846 12.5461 10.9115C12.7656 11.0376 12.878 11.292 12.8249 11.5396L12.7375 11.9445L13.0155 12.2513C13.1857 12.4389 13.2153 12.7154 13.0884 12.9349Z" fill="url(#paint0_linear_55466_9979)"/>
<path d="M18.8454 8.80977L17.6499 7.4912L18.0263 5.74955C18.0832 5.48295 17.9628 5.21255 17.7266 5.0766C17.5075 4.94899 17.1801 4.98469 16.9925 5.15483L15.6736 6.35036L13.9369 5.97515C13.6722 5.92122 13.3983 6.03439 13.2601 6.27137C13.1321 6.49088 13.1663 6.81977 13.3372 7.00814L14.5327 8.32671L14.1564 10.0684C14.0994 10.335 14.2198 10.6054 14.456 10.7413C14.5449 10.793 14.6516 10.8173 14.7594 10.8173C14.9174 10.8173 15.0785 10.7641 15.1901 10.6631L16.5091 9.46756L18.2458 9.84277C18.512 9.9005 18.7847 9.78353 18.9225 9.54655C19.0505 9.32704 19.0163 8.99814 18.8454 8.80977ZM16.4874 8.26898C16.3025 8.2272 16.0708 8.28949 15.9307 8.41709L15.6523 8.66926L15.7317 8.30316C15.7715 8.11859 15.7104 7.88845 15.5835 7.74869L15.3306 7.46994L15.6952 7.54893C15.8801 7.58842 16.1118 7.52766 16.2519 7.40081L16.5303 7.14864L16.4517 7.51247C16.4103 7.69779 16.4718 7.9287 16.5991 8.06921L16.852 8.34797L16.4874 8.26898Z" fill="url(#paint1_linear_55466_9979)"/>
<path d="M16.8407 10.7423L16.0907 11.422L16.0947 14.7549C16.0962 14.9046 16.04 15.0497 15.9405 15.153C15.8479 15.2487 15.7226 15.3033 15.5866 15.3033H11.605L9.48362 17.2113V15.3041H6.73405C6.6505 15.3041 6.56695 15.2608 6.50011 15.1841C6.41124 15.0823 6.36035 14.935 6.36111 14.7792L6.37251 8.4712C6.37251 8.32004 6.43175 8.17346 6.53429 8.06863C6.63303 7.96762 6.79405 7.90001 6.89811 7.9152H12.5699L12.4652 7.79975C12.2021 7.50979 12.052 7.13438 12.0182 6.74854H6.89356C6.44998 6.74854 6.01628 6.93083 5.70107 7.25212C5.38282 7.5772 5.20736 8.00938 5.20584 8.46891L5.19445 14.777C5.19368 15.2167 5.34407 15.633 5.62055 15.9512C5.9145 16.2862 6.32617 16.4373 6.74393 16.4708H8.31695V18.223C8.31316 18.6157 8.60862 18.937 9.01725 18.9552C9.21018 18.9552 9.39779 18.874 9.49653 18.7654L12.0517 16.47H15.5729C16.0408 16.4852 16.4639 16.2907 16.7806 15.9626C17.0905 15.6413 17.2659 15.1962 17.2614 14.7481L17.2566 10.8321L16.8407 10.7423Z" fill="url(#paint2_linear_55466_9979)"/>
</g>
<defs>
<linearGradient id="paint0_linear_55466_9979" x1="10.446" y1="10.8333" x2="13.1667" y2="13.5555" gradientUnits="userSpaceOnUse">
<stop stop-color="#D73220"/>
<stop offset="0.399038" stop-color="#D92361"/>
<stop offset="0.807692" stop-color="#7155FA"/>
</linearGradient>
<linearGradient id="paint1_linear_55466_9979" x1="13.1859" y1="5" x2="19" y2="10.8172" gradientUnits="userSpaceOnUse">
<stop stop-color="#D73220"/>
<stop offset="0.399038" stop-color="#D92361"/>
<stop offset="0.807692" stop-color="#7155FA"/>
</linearGradient>
<linearGradient id="paint2_linear_55466_9979" x1="5.20115" y1="6.74854" x2="17.4003" y2="18.8148" gradientUnits="userSpaceOnUse">
<stop stop-color="#D73220"/>
<stop offset="0.399038" stop-color="#D92361"/>
<stop offset="0.807692" stop-color="#7155FA"/>
</linearGradient>
<clipPath id="clip0_55466_9979">
<rect width="24" height="24" fill="white"/>
</clipPath>
</defs>
</svg>
