<?xml version="1.0" encoding="UTF-8"?><svg width="24" height="24" viewBox="0 0 24 24" fill="none" xmlns="http://www.w3.org/2000/svg">
<g clip-path="url(#clip0_55466_9984)">
<g clip-path="url(#clip1_55466_9984)">
<path d="M12.5354 11.0381C12.4665 11.0381 12.3974 11.0203 12.335 10.9843C12.1841 10.8972 12.1069 10.7228 12.1437 10.5521L12.204 10.2745L12.0127 10.0636C11.8958 9.93466 11.8754 9.74467 11.9623 9.59382C12.0498 9.4435 12.2241 9.36886 12.3943 9.40226L12.6725 9.46229L12.8836 9.27126C13.012 9.15381 13.2028 9.13398 13.3531 9.22115C13.5039 9.30832 13.5812 9.48266 13.5444 9.65281L13.4844 9.93101L13.6757 10.1419C13.7926 10.2708 13.8129 10.4608 13.726 10.6116C13.6391 10.7625 13.4663 10.8387 13.2941 10.8032L13.0156 10.7432L12.8045 10.9342C12.7291 11.0026 12.6325 11.0381 12.5354 11.0381Z" fill="url(#paint0_linear_55466_9984)"/>
<path d="M15.3055 11.9999H7.98576L12.4246 7.56109C12.9555 7.03016 12.9555 6.16732 12.4246 5.63639L12.2377 5.44955C11.7083 4.91862 10.8432 4.9171 10.3123 5.44955L5.49975 10.262C4.96883 10.793 4.96883 11.6558 5.50052 12.1875L5.68736 12.3736C5.94409 12.6311 6.28588 12.7724 6.64971 12.7724C6.66594 12.7724 6.68132 12.7682 6.69746 12.7678C6.6094 12.9478 6.55552 13.1476 6.55552 13.361V16.861C6.55552 17.6114 7.1662 18.2221 7.91663 18.2221H15.3055C16.0559 18.2221 16.6666 17.6114 16.6666 16.861V13.361C16.6666 12.6106 16.056 11.9999 15.3055 11.9999ZM6.51147 11.548L6.32463 11.3619C6.27525 11.3125 6.26766 11.2548 6.26766 11.2244C6.26766 11.194 6.27526 11.1363 6.32463 11.0869L11.1371 6.27441C11.1751 6.23643 11.2252 6.21745 11.2746 6.21745C11.3247 6.21745 11.3749 6.23643 11.4128 6.27441L11.5997 6.46126C11.6491 6.51063 11.6567 6.56836 11.6567 6.59874C11.6567 6.62912 11.6491 6.68684 11.5997 6.73622L6.78719 11.5487C6.71199 11.6247 6.5897 11.6239 6.51147 11.548ZM15.5 16.861C15.5 16.9681 15.4126 17.0554 15.3055 17.0554H7.91664C7.80954 17.0554 7.7222 16.9681 7.7222 16.861V13.361C7.7222 13.2539 7.80954 13.1666 7.91664 13.1666H15.3055C15.4126 13.1666 15.5 13.2539 15.5 13.361V16.861Z" fill="url(#paint1_linear_55466_9984)"/>
<path d="M12.3889 14.5278H10.8333C10.6185 14.5278 10.4444 14.7019 10.4444 14.9167V15.3056C10.4444 15.5204 10.6185 15.6945 10.8333 15.6945H12.3889C12.6036 15.6945 12.7778 15.5204 12.7778 15.3056V14.9167C12.7778 14.7019 12.6036 14.5278 12.3889 14.5278Z" fill="url(#paint2_linear_55466_9984)"/>
<path d="M15.4979 9.80435C15.4088 9.80435 15.3207 9.78427 15.2473 9.74162C15.0522 9.62933 14.9527 9.40602 14.9998 9.18584L15.3106 7.74745L14.3233 6.65847C14.1821 6.5029 14.1539 6.23128 14.2596 6.04999C14.3738 5.85428 14.5999 5.76081 14.8185 5.80535L16.2528 6.11523L17.3421 5.12787C17.497 4.98736 17.7674 4.95787 17.9484 5.06326C18.1435 5.17555 18.2429 5.39887 18.1958 5.61905L17.885 7.05743L18.8724 8.14641C19.0135 8.30198 19.0418 8.5736 18.9361 8.75489C18.8222 8.9506 18.597 9.04721 18.3771 8.99953L16.9428 8.68965L15.8535 9.67701C15.7613 9.76044 15.6283 9.80435 15.4979 9.80435ZM16.3008 7.72801L16.2353 8.03036L16.4652 7.8221C16.5809 7.71671 16.7722 7.66528 16.925 7.69978L17.2261 7.76502L17.0172 7.53481C16.9121 7.41876 16.8613 7.22806 16.8955 7.075L16.9604 6.77453L16.7305 6.98279C16.6148 7.08755 16.4234 7.13773 16.2707 7.10511L15.9696 7.03987L16.1785 7.27008C16.2832 7.38551 16.3337 7.57558 16.3008 7.72801Z" fill="url(#paint3_linear_55466_9984)"/>
</g>
</g>
<defs>
<linearGradient id="paint0_linear_55466_9984" x1="11.9098" y1="9.16724" x2="13.7796" y2="11.038" gradientUnits="userSpaceOnUse">
<stop stop-color="#D73220"/>
<stop offset="0.399038" stop-color="#D92361"/>
<stop offset="0.807692" stop-color="#7155FA"/>
</linearGradient>
<linearGradient id="paint1_linear_55466_9984" x1="5.10808" y1="5.05078" x2="18.1625" y2="16.5194" gradientUnits="userSpaceOnUse">
<stop stop-color="#D73220"/>
<stop offset="0.399038" stop-color="#D92361"/>
<stop offset="0.807692" stop-color="#7155FA"/>
</linearGradient>
<linearGradient id="paint2_linear_55466_9984" x1="10.4457" y1="14.5278" x2="11.3782" y2="16.3939" gradientUnits="userSpaceOnUse">
<stop stop-color="#D73220"/>
<stop offset="0.399038" stop-color="#D92361"/>
<stop offset="0.807692" stop-color="#7155FA"/>
</linearGradient>
<linearGradient id="paint3_linear_55466_9984" x1="14.1983" y1="5" x2="19" y2="9.80431" gradientUnits="userSpaceOnUse">
<stop stop-color="#D73220"/>
<stop offset="0.399038" stop-color="#D92361"/>
<stop offset="0.807692" stop-color="#7155FA"/>
</linearGradient>
<clipPath id="clip0_55466_9984">
<rect width="24" height="24" fill="white"/>
</clipPath>
<clipPath id="clip1_55466_9984">
<rect width="14" height="14" fill="white" transform="translate(5 5)"/>
</clipPath>
</defs>
</svg>
