<?xml version="1.0" encoding="UTF-8"?><svg width="24" height="24" viewBox="0 0 24 24" fill="none" xmlns="http://www.w3.org/2000/svg">
<g clip-path="url(#clip0_55466_9992)">
<g clip-path="url(#clip1_55466_9992)">
<path d="M9.21339 12.9722H7.78662C7.53628 12.9722 7.33334 12.7981 7.33334 12.5833V12.1944C7.33334 11.9797 7.53628 11.8056 7.78662 11.8056H9.21339C9.46373 11.8056 9.66667 11.9797 9.66667 12.1944V12.5833C9.66667 12.7981 9.46373 12.9722 9.21339 12.9722ZM11.2222 15.5V15.1111C11.2222 14.8963 11.0476 14.7222 10.8322 14.7222H7.72332C7.50793 14.7222 7.33333 14.8963 7.33333 15.1111V15.5C7.33333 15.7148 7.50793 15.8889 7.72332 15.8889H10.8322C11.0476 15.8889 11.2222 15.7148 11.2222 15.5ZM15.1902 10.6631L16.5091 9.46755L18.2458 9.84276C18.5121 9.90049 18.7847 9.78352 18.9226 9.54654C19.0506 9.32703 19.0164 8.99814 18.8455 8.80977L17.65 7.4912L18.0263 5.74955C18.0833 5.48295 17.9629 5.21255 17.7267 5.0766C17.5076 4.94899 17.1802 4.98469 16.9926 5.15483L15.6736 6.35036L13.9369 5.97515C13.6722 5.92122 13.3984 6.03439 13.2602 6.27137C13.1322 6.49088 13.1664 6.81977 13.3373 7.00814L14.5328 8.32671L14.1564 10.0684C14.0995 10.335 14.2199 10.6054 14.4561 10.7413C14.5449 10.793 14.6517 10.8173 14.7595 10.8173C14.9175 10.8173 15.0785 10.7641 15.1902 10.6631ZM15.5836 7.74869L15.3307 7.46994L15.6953 7.54893C15.8802 7.58842 16.1119 7.52766 16.252 7.40082L16.5304 7.14864L16.4518 7.51247C16.4104 7.69779 16.4719 7.9287 16.5991 8.06921L16.8521 8.34797L16.4875 8.26898C16.3025 8.2272 16.0709 8.28949 15.9307 8.41709L15.6524 8.66926L15.7317 8.30316C15.7716 8.11859 15.7105 7.88845 15.5836 7.74869ZM17.9905 10.9892L17.0533 10.7868V16.4707C17.0533 16.792 16.7912 17.054 16.4699 17.054H6.74773C6.42643 17.054 6.16439 16.792 6.16439 16.4707V8.30404C6.16439 7.98275 6.42643 7.72071 6.74773 7.72071H12.4051C12.1403 7.39182 12.005 6.97331 12.0115 6.55404H6.74773C5.7831 6.55404 4.99773 7.33941 4.99773 8.30404V16.4707C4.99773 17.4353 5.7831 18.2207 6.74773 18.2207H16.4699C17.4346 18.2207 18.2199 17.4353 18.2199 16.4707V11.0139C18.143 11.0073 18.0654 11.0056 17.9905 10.9892ZM13.0146 12.2499L12.7362 11.943L12.8236 11.5382C12.8771 11.2906 12.7647 11.0369 12.5452 10.91C12.3265 10.7832 12.0489 10.8121 11.862 10.983L11.5548 11.261L11.1499 11.1736C10.9023 11.125 10.6486 11.2336 10.5214 11.4524C10.3949 11.6719 10.4246 11.9484 10.5947 12.136L10.8731 12.4428L10.7853 12.8469C10.7318 13.0953 10.8442 13.349 11.0637 13.4758C11.1545 13.5282 11.2551 13.554 11.3554 13.554C11.4967 13.554 11.6372 13.5024 11.7469 13.4029L12.0542 13.1249L12.4594 13.2122C12.71 13.2639 12.9615 13.153 13.0879 12.9335C13.2144 12.714 13.1848 12.4375 13.0146 12.2499ZM11.2223 9.66667V9.27778C11.2223 9.063 11.0482 8.88889 10.8334 8.88889H7.72223C7.50745 8.88889 7.33334 9.063 7.33334 9.27778V9.66667C7.33334 9.88144 7.50745 10.0556 7.72223 10.0556H10.8334C11.0482 10.0556 11.2223 9.88144 11.2223 9.66667Z" fill="url(#paint0_linear_55466_9992)"/>
</g>
</g>
<defs>
<linearGradient id="paint0_linear_55466_9992" x1="5.0055" y1="5" x2="18.1967" y2="18.9788" gradientUnits="userSpaceOnUse">
<stop stop-color="#D73220"/>
<stop offset="0.399038" stop-color="#D92361"/>
<stop offset="0.807692" stop-color="#7155FA"/>
</linearGradient>
<clipPath id="clip0_55466_9992">
<rect width="24" height="24" fill="white"/>
</clipPath>
<clipPath id="clip1_55466_9992">
<rect width="14" height="14" fill="white" transform="translate(5 5)"/>
</clipPath>
</defs>
</svg>
