<?xml version="1.0" encoding="UTF-8"?><svg width="323" height="36" viewBox="0 0 323 36" fill="none" xmlns="http://www.w3.org/2000/svg">
<path d="M23.4112 34.9643L20.5426 27.2108H13.3484L19.3971 12.414L28.5733 34.9643H39.4701L24.9234 1.01315H14.6521L0 34.9643H23.4112ZM63.9238 33.4434V0H54.8507V8.41267C53.7028 8.1588 52.6076 8.05865 51.5148 8.05865C44.529 8.05865 37.8021 12.7704 37.8021 21.9936C37.8021 31.2168 44.7375 35.472 52.9215 35.472C57.4053 35.472 61.8364 34.3564 63.9238 33.4457V33.4434ZM46.8728 21.8399C46.8728 17.3308 49.6359 15.1507 52.6603 15.1507C53.4943 15.1507 54.2252 15.3021 54.8507 15.556V27.8699C54.2252 28.0725 53.4943 28.175 52.713 28.175C49.6887 28.175 46.8728 26.1976 46.8728 21.8399ZM94.1123 21.7397C94.1123 13.0243 87.6993 8.05865 80.0856 8.05865C72.472 8.05865 66.1118 13.0243 66.1118 21.7397C66.1118 30.4552 72.472 35.4208 80.0856 35.4208C87.6993 35.4208 94.1123 30.4552 94.1123 21.7397ZM75.1321 21.7397C75.1321 17.4332 77.4256 15.4046 80.0856 15.4046C82.7457 15.4046 85.0919 17.4309 85.0919 21.7397C85.0919 26.0485 82.7457 28.0748 80.0856 28.0748C77.4256 28.0748 75.1321 26.0485 75.1321 21.7397ZM122.475 21.3834C122.475 12.5654 115.906 8.00508 108.762 8.00508C107.667 8.00508 106.521 8.15647 105.373 8.3591V0H96.3002V33.4946C99.1161 34.7617 103.6 35.472 107.144 35.472C115.434 35.472 122.472 30.709 122.472 21.3857L122.475 21.3834ZM107.564 15.202C110.588 15.202 113.404 17.2283 113.404 21.4859C113.404 26.0462 110.485 28.175 107.408 28.175C106.627 28.175 105.948 28.0748 105.373 27.8699V15.6072C106.052 15.3534 106.73 15.202 107.564 15.202ZM139.943 35.4208C143.228 35.4208 146.408 34.8641 149.066 33.5459V26.8055C146.197 28.0213 143.643 28.6804 140.88 28.6804C137.491 28.6804 134.778 27.262 133.788 24.2714H150.837C150.993 23.1558 151.045 22.0425 151.045 20.8756C151.045 12.3116 144.788 8.05632 137.958 8.05632C130.659 8.05632 124.56 13.2246 124.56 21.6885C124.56 30.1524 131.286 35.4208 139.94 35.4208H139.943ZM138.064 14.6942C140.098 14.6942 142.078 15.8611 142.548 18.7492H133.683C134.361 15.9123 136.135 14.6942 138.064 14.6942Z" fill="white"/>
<path d="M310.719 35.9471C306.874 35.9471 303.408 35.2607 300.537 33.7296L300.592 26.2327C303.354 27.9749 307.199 29.242 310.177 29.242C312.344 29.242 313.481 28.5557 313.481 27.3414C313.481 26.0215 312.073 25.4935 309.473 24.7016C305.303 23.4873 300.375 21.7978 300.375 16.2543C300.375 10.7108 304.924 7.49023 311.964 7.49023C315.106 7.49023 317.813 8.01819 320.088 8.96851L320.034 16.1487C318.247 15.0928 314.726 14.1953 312.181 14.1953C309.798 14.1953 309.04 14.8816 309.04 15.8319C309.04 16.9934 310.069 17.363 313.048 18.2077C317.976 19.6332 322.2 21.2171 322.2 26.919C322.2 32.3042 317.597 35.9471 310.719 35.9471Z" fill="white"/>
<path d="M291.972 0.996582V8.12399H297.605V14.8818H291.972V25.3353C291.972 27.9751 293.001 29.1366 295.113 29.1366C295.763 29.1366 296.738 29.031 297.55 28.7143L297.605 35.3137C296.413 35.7361 295.113 36.0001 292.839 36.0001C286.719 36.0001 283.47 33.0963 283.47 26.4441V14.8818H279.191V8.12399H283.47V1.04938L291.972 0.996582Z" fill="white"/>
<path d="M251.315 35.4719V10.2356C254.619 8.81013 259.385 7.49023 264.638 7.49023C272.815 7.54303 276.986 11.6083 276.986 18.9997V35.4719H268.483V19.4748C268.483 16.2543 267.183 14.3537 263.609 14.3537C262.038 14.3537 260.955 14.5648 259.872 15.0928V35.4719H251.315Z" fill="white"/>
<path d="M234.746 13.9841C231.768 13.9841 229.926 15.5152 229.277 18.5245H239.891C239.566 15.8847 237.833 13.9841 234.746 13.9841ZM234.746 7.49023C243.303 7.49023 247.906 13.245 247.906 20.7419C247.906 21.9034 247.852 23.3817 247.69 24.3848H229.439C230.414 27.4998 233.122 29.0308 237.671 29.0308C240.758 29.0308 243.303 28.5029 245.794 27.2358L245.848 34.0464C243.303 35.4191 240.216 35.9471 236.479 35.9471C226.948 35.9471 220.828 30.7731 220.828 21.5867C220.828 13.3505 226.731 7.49023 234.746 7.49023Z" fill="white"/>
<path d="M200.723 35.4723L191.029 8.01855H200.019C201.915 13.7733 204.243 20.9535 205.976 26.8666C207.601 20.9535 209.876 13.8261 211.771 8.01855H220.49L210.851 35.4723H200.723Z" fill="white"/>
<path d="M163.007 35.4722V0.0991211H189.652V7.80727H172.051V13.8788H187.431V21.4813H172.051V27.764H189.977V35.4722H163.007Z" fill="white"/>
</svg>
