<?xml version="1.0" encoding="UTF-8"?><svg width="27" height="26" viewBox="0 0 27 26" fill="none" xmlns="http://www.w3.org/2000/svg">
<path d="M25.6977 15.0894C25.6977 16.5397 25.1331 17.9025 24.108 18.927C23.0828 19.9515 21.7201 20.5161 20.2704 20.5161H19.4471C18.9284 20.5161 18.5076 20.0953 18.5076 19.5766C18.5076 19.0579 18.9284 18.6371 19.4471 18.6371H20.2704C21.2179 18.6371 22.1091 18.2682 22.7795 17.5978C23.4498 16.9281 23.8187 16.0375 23.8187 15.0894C23.8187 14.1781 23.4719 13.3138 22.8425 12.6569C22.2143 12.0005 21.3684 11.6128 20.4594 11.5644C20.1408 11.5473 19.8521 11.3693 19.6936 11.0922C19.5352 10.8145 19.5285 10.4757 19.6765 10.1925C19.8337 9.89033 19.9548 9.57899 20.0362 9.26704C20.1218 8.94164 20.1652 8.60828 20.1652 8.27555C20.1652 7.15621 19.7297 6.10415 18.9389 5.31267C17.4256 3.80065 14.8095 3.71684 13.2168 5.13652C12.4644 5.80873 11.9769 6.7305 11.846 7.73301C11.8075 8.02844 11.6307 8.2884 11.3702 8.43275C11.1102 8.57771 10.797 8.58995 10.5249 8.46639C10.3138 8.37036 10.0967 8.29635 9.87773 8.24681C8.79999 8.00154 7.69594 8.33367 6.93565 9.07622C6.34111 9.65608 6.01388 10.4249 6.01388 11.2409C6.01388 11.4507 6.03651 11.6605 6.08054 11.8654C6.12397 12.0636 6.18881 12.2605 6.27199 12.4489C6.39677 12.7297 6.37598 13.0539 6.21694 13.3169C6.05729 13.5799 5.7796 13.7481 5.47316 13.7677C4.85171 13.8074 4.27492 14.0772 3.84737 14.5267C3.41981 14.9781 3.18371 15.5696 3.18371 16.1923C3.18371 16.8455 3.43815 17.4596 3.89997 17.9214C4.36177 18.3826 4.97527 18.6371 5.62851 18.6371H8.25865C8.77734 18.6371 9.19816 19.0579 9.19816 19.5766C9.19816 20.0953 8.77734 20.5161 8.25865 20.5161H5.62851C4.47369 20.5161 3.38801 20.0665 2.57144 19.25C1.75426 18.4334 1.30469 17.3471 1.30469 16.1923C1.30469 15.0864 1.72367 14.0362 2.48397 13.2337C2.96902 12.723 3.56233 12.3437 4.21558 12.1192C4.16175 11.8293 4.13484 11.5351 4.13484 11.2409C4.13484 9.9142 4.66332 8.66764 5.62363 7.73118C6.82125 6.56108 8.54676 6.03994 10.2288 6.40021C10.5597 5.37935 11.1567 4.45696 11.9659 3.73459C13.0706 2.74982 14.4945 2.20728 15.9766 2.20728C17.5969 2.20728 19.1211 2.83851 20.2674 3.98415C21.413 5.1304 22.0443 6.65467 22.0443 8.27556C22.0443 8.76978 21.98 9.264 21.8534 9.74415C21.84 9.79675 21.8253 9.84935 21.81 9.90135C22.7134 10.1668 23.5361 10.6641 24.1998 11.3571C25.1656 12.3657 25.6977 13.6912 25.6977 15.0894Z" fill="white"/>
<path d="M18.3263 14.0317L14.5646 10.2767C14.1976 9.91091 13.6036 9.91029 13.2367 10.2773L9.48228 14.0323C9.11528 14.3993 9.11528 14.9938 9.48228 15.3608C9.66577 15.5443 9.90616 15.6361 10.1465 15.6361C10.3869 15.6361 10.6273 15.5443 10.8108 15.3608L12.9681 13.203V23.4543C12.9681 23.973 13.389 24.3938 13.9076 24.3938C14.4263 24.3938 14.8471 23.973 14.8471 23.4543V13.2134L16.999 15.3614C17.3653 15.7272 17.9599 15.7272 18.3275 15.3602C18.6939 14.9932 18.6939 14.398 18.3263 14.0317Z" fill="white"/>
</svg>
