<svg width="12" height="12" viewBox="0 0 12 12" fill="none" xmlns="http://www.w3.org/2000/svg">
  <g id="Frame" clip-path="url(#clip0_3633_2420)">
    <path id="iconPrimary" d="M7.34283 6L10.7389 2.60352C11.1095 2.2334 11.1095 1.63184 10.7389 1.26075C10.3678 0.891609 9.76721 0.890629 9.39612 1.26173L6.00061 4.65773L2.6051 1.26172C2.23401 0.890629 1.63342 0.891599 1.26233 1.26074C0.891723 1.63183 0.891723 2.2334 1.26233 2.60351L4.65839 5.99999L1.26233 9.39647C0.891723 9.76659 0.891723 10.3681 1.26233 10.7392C1.44788 10.9238 1.69055 11.0166 1.93372 11.0166C2.17689 11.0166 2.41956 10.9238 2.60511 10.7383L6.00062 7.34226L9.39613 10.7383C9.58168 10.9238 9.82435 11.0166 10.0675 11.0166C10.3107 11.0166 10.5534 10.9238 10.7389 10.7392C11.1095 10.3681 11.1095 9.76658 10.7389 9.39647L7.34283 6Z" fill="white"/>
  </g>
  <defs>
    <clipPath id="clip0_3633_2420">
      <rect width="12" height="12" fill="white"/>
    </clipPath>
  </defs>
</svg>