<svg width="35" height="35" viewBox="0 0 35 35" fill="none" xmlns="http://www.w3.org/2000/svg">
<path d="M23.1092 17.9228L17.98 12.8011C17.4795 12.3007 16.6696 12.3007 16.1691 12.8011L11.0483 17.9228C10.5478 18.4233 10.5478 19.2341 11.0483 19.7346C11.2985 19.9848 11.6263 20.11 11.9541 20.11C12.282 20.11 12.6098 19.9848 12.86 19.7346L15.8021 16.7926V30.767C15.8021 31.4744 16.376 32.0483 17.0833 32.0483C17.7907 32.0483 18.3646 31.4744 18.3646 30.767V16.8051L21.2991 19.7346C21.7996 20.2351 22.6104 20.2351 23.1109 19.7346C23.6105 19.2341 23.6105 18.4217 23.1092 17.9228Z" fill="#C6C6C6"/>
<path d="M26.9062 29.042H22.1249C21.4176 29.042 20.8437 28.4681 20.8437 27.7607C20.8437 27.0534 21.4176 26.4795 22.1249 26.4795H26.9062C27.6128 26.4795 28.1875 25.9039 28.1875 25.1982V7.26074C28.1875 6.55505 27.6128 5.97949 26.9062 5.97949H7.26041C6.5539 5.97949 5.97916 6.55505 5.97916 7.26074V25.1982C5.97916 25.9039 6.5539 26.4795 7.26041 26.4795H11.9166C12.624 26.4795 13.1979 27.0534 13.1979 27.7607C13.1979 28.4681 12.624 29.042 11.9166 29.042H7.26041C5.14085 29.042 3.41666 27.317 3.41666 25.1982V7.26074C3.41666 5.14202 5.14085 3.41699 7.26041 3.41699H26.9062C29.0258 3.41699 30.75 5.14202 30.75 7.26074V25.1982C30.75 27.317 29.0258 29.042 26.9062 29.042Z" fill="#C6C6C6"/>
</svg>
