<?xml version="1.0" encoding="utf-8"?><svg id="Acrobat_64" data-name="Acrobat 64" xmlns="http://www.w3.org/2000/svg" width="64" height="62" viewBox="0 0 64 62">
  <path id="Path_102649" data-name="Path 102649" d="M11.364.4H52.636A11.323,11.323,0,0,1,64,11.691V51.109A11.322,11.322,0,0,1,52.636,62.4H11.364A11.323,11.323,0,0,1,0,51.109V11.691A11.2,11.2,0,0,1,11.364.4Z" transform="translate(0 -0.4)" fill="#b30b00"/>
  <path id="Path_102650" data-name="Path 102650" d="M45.131,30.262c-2.993-3.143-11.173-1.768-13.168-1.571a43.955,43.955,0,0,1-5.587-7.071,30.388,30.388,0,0,0,1.8-9.428c0-2.946-1.2-5.892-4.389-5.892a3.194,3.194,0,0,0-2.793,1.571c-1.4,2.357-.8,7.071,1.4,11.981A76.62,76.62,0,0,1,16.8,32.816c-3.192,1.178-10.175,4.321-10.774,7.856a2.862,2.862,0,0,0,1,2.75,3.77,3.77,0,0,0,2.793.982c4.19,0,8.38-5.7,11.373-10.8a65.381,65.381,0,0,1,9.976-2.553c4.389,3.928,8.38,4.517,10.375,4.517,2.793,0,3.791-1.178,4.19-2.161A2.685,2.685,0,0,0,45.131,30.262Zm-2.793,1.964c-.2.786-1.2,1.571-2.993,1.178a14.638,14.638,0,0,1-5.786-2.946,27.751,27.751,0,0,1,7.183-.2C41.54,30.459,42.537,31.048,42.338,32.226ZM22.984,8.657a1.1,1.1,0,0,1,1-.589c1,0,1.2,1.178,1.2,2.161a27.809,27.809,0,0,1-1.4,7.071C22.186,12.978,22.386,9.835,22.984,8.657Zm-.2,22.194a46.63,46.63,0,0,0,2.594-6.285A36.611,36.611,0,0,0,28.97,29.28,28.884,28.884,0,0,0,22.785,30.851ZM16,35.369c-2.793,4.321-5.387,7.071-6.983,7.071a1.214,1.214,0,0,1-.8-.2c-.2-.393-.4-.786-.2-1.178C8.22,39.493,11.412,37.333,16,35.369Z" transform="translate(6.023 5.548)" fill="#fff"/>
</svg>
