<?xml version="1.0" encoding="UTF-8"?><svg width="64" height="64" viewBox="0 0 64 64" fill="none" xmlns="http://www.w3.org/2000/svg">
<path d="M52.462 0H11.538C5.16574 0 0 5.16574 0 11.538V52.462C0 58.8343 5.16574 64 11.538 64H52.462C58.8343 64 64 58.8343 64 52.462V11.538C64 5.16574 58.8343 0 52.462 0Z" fill="#EB1000"/>
<path d="M36.8993 24.7098H23.6111V29.7526H35.3634V36.726H23.6111V47.1195H15.4537V17.7364H36.8993V24.7098Z" fill="white"/>
<path d="M47.9919 47.1172H40.3171V24.2248H47.9919V47.1172Z" fill="white"/>
<path d="M46.3935 11.8903C47.2044 11.1441 48.4934 11.8876 48.2511 12.9586L47.6354 15.6843C47.5546 16.0449 47.656 16.419 47.9051 16.6901L49.8044 18.7433C50.5522 19.5523 49.8064 20.8382 48.7326 20.5963L46 19.9829C45.6384 19.9023 45.2636 20.0029 44.9919 20.2514L42.9328 22.145C42.1218 22.891 40.8329 22.1477 41.0752 21.0767L41.6909 18.351C41.7718 17.9903 41.6705 17.6163 41.4213 17.3452L39.522 15.2919C38.7744 14.483 39.5202 13.1974 40.5937 13.4389L43.3264 14.0524C43.688 14.133 44.0638 14.0326 44.3356 13.7838L46.3935 11.8903Z" fill="white"/>
</svg>
