<?xml version='1.0' encoding='utf-8'?>
<svg xmlns="http://www.w3.org/2000/svg" width="64" height="64" viewBox="0 0 64 64" fill="none" class="fresco-64-2025">
<path id="Vector" d="M52.5223 0H11.4777C5.13875 0 0 5.13875 0 11.4777V52.5223C0 58.8613 5.13875 64 11.4777 64H52.5223C58.8613 64 64 58.8613 64 52.5223V11.4777C64 5.13875 58.8613 0 52.5223 0Z" fill="#001E36" />
<path id="Vector_2" d="M14.3424 16.9895H35.8745V23.9907H22.5324V29.0545H34.3333V36.0557H22.5324V46.4916H14.3424V16.9895ZM46.9268 23.1101C48.7321 23.1101 50.1851 23.3302 50.8456 23.5504V29.5389C50.3173 29.4068 49.3045 29.3187 48.4679 29.3187C46.8387 29.3187 45.914 29.4508 45.0773 29.7591V46.4916H37.3715V25.0475C40.1456 23.8146 42.9197 23.1101 46.9268 23.1101Z" fill="#31A8FF" />
<defs>
<clipPath id="clip0_2210_5348">
<rect width="64" height="64" fill="white" />
</clipPath>
</defs>
</svg>