<?xml version="1.0" encoding="UTF-8"?>
<svg id="Layer_2" data-name="Layer 2" xmlns="http://www.w3.org/2000/svg" viewBox="0 0 191.12 30.65">
  <defs>
    <style>
      .cls-1 {
        fill: #1e3101;
      }

      .cls-2 {
        fill: #99e83f;
      }
    </style>
  </defs>
  <g id="Adobe_Substance_Packshot_6_icons_horizontal_black" data-name="Adobe Substance Packshot 6 icons horizontal black">
    <g id="Layer_2-2" data-name="Layer 2">
      <g id="Surfaces">
        <g id="_3D_Substance_Surface" data-name=" 3D Substance Surface">
          <g id="Outline_no_shadow" data-name="Outline no shadow">
            <path id="Path_367770" data-name="Path 367770" class="cls-1" d="m125.04,0h20.53c3.09-.02,5.61,2.48,5.63,5.57,0,.02,0,.04,0,.06v19.39c.02,3.09-2.48,5.61-5.57,5.63-.02,0-.04,0-.06,0h-20.53c-3.09.02-5.61-2.48-5.63-5.57,0-.02,0-.04,0-.06V5.63C119.39,2.54,121.88.02,124.97,0c.02,0,.04,0,.06,0Z"/>
          </g>
        </g>
      </g>
      <g id="Live_Text" data-name="Live Text">
        <g id="Pt_copy" data-name="Pt copy">
          <g id="Group_307124" data-name="Group 307124">
            <path id="Path_367771" data-name="Path 367771" class="cls-2" d="m126.96,21.39V7.99c0-.08.07-.14.14-.14h4.13c.92,0,1.83.14,2.71.43.67.22,1.28.58,1.78,1.07.44.41.76.93.93,1.5.2.55.29,1.13.29,1.71.06.99-.21,1.97-.78,2.78-.52.72-1.24,1.26-2.07,1.57-.94.34-1.93.51-2.92.5h-1.21v4.14c0,.07-.07.14-.14.21h-2.64c-.14-.21-.21-.28-.21-.36h0Zm2.92-11.04v4.35h1.21c.51,0,1.01-.07,1.5-.21.92-.25,1.55-1.11,1.5-2.07.02-.4-.08-.8-.29-1.14-.22-.33-.55-.58-.93-.71-.47-.2-.99-.29-1.5-.28h-.85c-.21.05-.43.07-.64.07h0Z"/>
            <path id="Path_367772" data-name="Path 367772" class="cls-2" d="m144.71,19.46v1.71c0,.11-.05.22-.14.28l-.85.21c-.33.06-.67.08-1,.07-.44,0-.87-.07-1.28-.21-.41-.11-.76-.36-1-.71-.27-.35-.44-.77-.5-1.21-.06-.45-.08-.9-.07-1.35v-4.7h-1.21c-.14,0-.14-.07-.14-.21v-2.07c0-.14.07-.14.21-.14h1.21c0-.29.02-.57.07-.86,0-.28.07-.64.07-.93.06-.26.08-.52.07-.78,0-.07.07-.07.07-.14,0-.04.03-.07.07-.07,0,0,0,0,0,0l2.5-.28h.07s.06.09.07.14c0,.36-.07.78-.07,1.28.01.52-.01,1.05-.07,1.57h1.93c.08,0,.14.07.14.14v2.14c0,.05-.03.1-.07.14h-2v3.99c-.08.51,0,1.03.21,1.5.17.23.43.36.71.36h.78c.07,0,.14-.07.21,0-.07.07,0,.07,0,.14h0Z"/>
          </g>
        </g>
      </g>
    </g>
    <g id="Layer_2-2" data-name="Layer 2-2">
      <g id="Surfaces-2">
        <g id="_3D_Substance_Surface-2" data-name=" 3D Substance Surface-2">
          <g id="Outline_no_shadow-2" data-name="Outline no shadow-2">
            <path id="Path_367773" data-name="Path 367773" class="cls-1" d="m45.2,0h20.53c3.09-.02,5.61,2.48,5.63,5.57,0,.02,0,.04,0,.06v19.39c.02,3.09-2.48,5.61-5.57,5.63-.02,0-.04,0-.06,0h-20.53c-3.09.02-5.61-2.48-5.63-5.57,0-.02,0-.04,0-.07V5.63C39.55,2.54,42.04.02,45.13,0c.02,0,.04,0,.06,0Z"/>
          </g>
        </g>
      </g>
      <g id="Live_Text-2" data-name="Live Text-2">
        <g id="Sa_copy" data-name="Sa copy">
          <g id="Group_307125" data-name="Group 307125">
            <path id="Path_367774" data-name="Path 367774" class="cls-2" d="m49.33,21.74c-.72,0-1.43-.07-2.14-.21-.54-.12-1.06-.29-1.57-.5-.13-.07-.22-.21-.21-.35v-2.5q0-.07.07-.14h.14c.58.36,1.2.64,1.85.85.63.16,1.27.26,1.93.28.59.06,1.19-.06,1.71-.36.3-.22.48-.56.5-.93-.01-.22-.06-.44-.14-.64-.15-.22-.35-.42-.57-.57-.37-.22-.75-.41-1.14-.57l-1.07-.43c-.71-.29-1.38-.68-2-1.14-.45-.35-.79-.82-1-1.35-.2-.5-.3-1.03-.28-1.56-.02-1.52.88-2.9,2.28-3.49.88-.37,1.83-.56,2.78-.57.62-.03,1.24.02,1.85.14.49.08.97.22,1.43.43.09.07.14.17.14.28v2.28c0,.07,0,.14-.07.14h-.14c-.47-.24-.98-.41-1.5-.5-.56-.14-1.13-.21-1.71-.21-.34-.03-.68.02-1,.14-.25.06-.49.16-.71.28-.18.1-.32.25-.43.43-.08.16-.13.33-.14.5,0,.21.07.42.21.57.17.22.39.39.64.5.43.21.78.43,1.21.64l.78.28c.77.29,1.49.7,2.14,1.21.47.35.84.81,1.07,1.35.2.5.29,1.03.29,1.57.02.76-.21,1.51-.64,2.14-.48.63-1.12,1.12-1.85,1.43-.83.43-1.77.63-2.71.57h0Z"/>
            <path id="Path_367775" data-name="Path 367775" class="cls-2" d="m60.52,10.91c.87-.02,1.73.17,2.5.57.65.34,1.15.89,1.43,1.57.3.67.47,1.4.5,2.14v5.56q0,.07-.07.14c-.64.21-1.21.43-1.71.57-.47.13-.94.22-1.43.28-.5.06-1,.08-1.5.07-.73-.01-1.45-.13-2.14-.36-.62-.23-1.16-.62-1.57-1.14-.43-.57-.64-1.29-.57-2,0-.7.22-1.37.64-1.92.45-.54,1.04-.93,1.71-1.14.78-.26,1.6-.38,2.42-.36h1.28v-.14c0-.14-.07-.21-.07-.36-.07-.14-.14-.36-.29-.43-.16-.16-.36-.28-.57-.36-.35-.08-.71-.13-1.07-.14-.5.01-1,.06-1.5.14-.45.08-.88.22-1.28.43h-.14c-.07,0-.07-.07-.07-.14v-2.13c0-.07.07-.21.14-.21.51-.21,1.03-.38,1.57-.5.71-.07,1.28-.14,1.78-.14h0Zm1.57,8.41v-2.21c-.14,0-.36-.07-.5-.07h-.57c-.55-.07-1.1.06-1.57.36-.3.22-.48.56-.5.93,0,.2.05.39.14.57.14.2.34.35.57.43.33.15.71.2,1.07.14.24.01.48-.01.71-.07.22.02.43,0,.64-.07h0Z"/>
          </g>
        </g>
      </g>
    </g>
    <g id="Layer_2-3" data-name="Layer 2-3">
      <g id="Surfaces-3">
        <g id="_3D_Substance_Surface-3" data-name=" 3D Substance Surface-3">
          <g id="Outline_no_shadow-3" data-name="Outline no shadow-3">
            <path id="Path_367776" data-name="Path 367776" class="cls-1" d="m164.96,0h20.53c3.09-.02,5.61,2.48,5.63,5.57,0,.02,0,.04,0,.06v19.39c.02,3.09-2.48,5.61-5.57,5.63-.02,0-.04,0-.06,0h-20.53c-3.09.02-5.61-2.48-5.63-5.57,0-.02,0-.04,0-.06V5.63c0-3.11,2.52-5.63,5.63-5.63Z"/>
          </g>
        </g>
      </g>
      <g id="Live_Text-3" data-name="Live Text-3">
        <g id="Sg_copy" data-name="Sg copy">
          <g id="Group_307126" data-name="Group 307126">
            <path id="Path_367777" data-name="Path 367777" class="cls-2" d="m169.38,21.74c-.72,0-1.43-.07-2.14-.21-.54-.12-1.06-.29-1.57-.5-.13-.05-.2-.2-.15-.33,0,0,0-.01,0-.02v-2.5q0-.07.07-.14h.14c.58.36,1.2.64,1.85.85.63.16,1.27.26,1.93.28.59.06,1.19-.06,1.71-.36.3-.22.48-.56.5-.93-.01-.22-.06-.44-.14-.64-.15-.22-.35-.42-.57-.57-.37-.22-.75-.41-1.14-.57l-1.07-.43c-.71-.29-1.38-.68-2-1.14-.45-.35-.79-.82-1-1.35-.2-.5-.3-1.03-.29-1.57-.02-1.5.85-2.87,2.21-3.49.88-.37,1.82-.57,2.78-.57.62-.03,1.24.02,1.85.14.49.08.97.22,1.43.43.09.07.14.17.14.28v2.28c0,.07,0,.14-.07.14h-.14c-.47-.25-.98-.42-1.5-.5-.56-.14-1.13-.21-1.71-.21-.34-.03-.68.02-1,.14-.25.06-.49.16-.71.28-.17.09-.3.24-.36.43-.08.16-.13.33-.14.5,0,.21.07.42.21.57.17.22.39.39.64.5.36.21.78.43,1.21.64l.78.28c.77.29,1.49.7,2.14,1.21.47.35.84.81,1.07,1.35.23.49.33,1.03.29,1.57.02.76-.21,1.51-.64,2.14-.45.66-1.1,1.16-1.85,1.43-.86.43-1.82.62-2.78.57h.01Z"/>
            <path id="Path_367778" data-name="Path 367778" class="cls-2" d="m178.65,18.96l2.99.14c.83-.01,1.66.16,2.42.5.54.19,1,.57,1.28,1.07.28.45.43.97.43,1.5.02.73-.24,1.44-.71,2-.49.65-1.16,1.14-1.92,1.43-.93.38-1.92.55-2.92.5-.98.06-1.95-.12-2.85-.5-.65-.28-1.21-.72-1.64-1.28-.34-.42-.52-.96-.5-1.5,0-.25.08-.5.21-.71.16-.3.36-.59.57-.85l1.07-1.07c.5-.36,1-.78,1.57-1.21h0Zm1.35-1c-.53-.01-1.05-.06-1.57-.14-.5-.12-.98-.31-1.43-.57-.42-.26-.77-.63-1-1.07-.26-.51-.38-1.07-.36-1.64-.02-.63.15-1.25.5-1.78.35-.55.84-1,1.43-1.28.71-.34,1.49-.51,2.28-.5.36-.01.72.01,1.07.07.36.07.64.07.86.14h3.35c.08,0,.14.07.14.14v1.92c0,.07,0,.14-.07.14h-.71c-.29,0-.57-.07-.78-.07.08.19.15.38.21.57.06.26.08.52.07.78.03.67-.17,1.32-.57,1.85-.37.53-.89.93-1.5,1.14-.62.21-1.27.31-1.92.28h0Zm-.29,1.28l-2.21,1.35c-.28-.26-.5-.58-.64-.93-.15-.33-.2-.71-.14-1.07.01-.29.06-.58.14-.85.09-.29.23-.56.43-.78l2.07.85c-.06.08-.08.18-.07.28v.36c0,.13.05.26.14.36.03.18.14.33.29.43h0Zm3.35,3.35c.01-.25-.09-.49-.29-.64-.24-.14-.51-.23-.78-.28-.35-.08-.71-.13-1.07-.14l-2.28-.14c-.22.15-.42.35-.57.57-.14.15-.22.36-.21.57.02.24.12.47.29.64.24.23.53.4.86.5.44.14.89.21,1.35.21.51,0,1.01-.07,1.5-.21.33-.08.63-.25.86-.5.29-.07.36-.28.36-.57h0Zm-1.64-8.06c-.01-.27-.06-.53-.14-.78-.1-.24-.28-.44-.5-.57-.26-.14-.56-.21-.86-.21-.39,0-.76.12-1.07.36-.28.28-.42.68-.36,1.07,0,.36.13.71.36,1,.27.3.67.46,1.07.43.38,0,.76-.13,1.07-.36.28-.23.44-.57.43-.93h0Z"/>
          </g>
        </g>
      </g>
    </g>
    <g id="Layer_2-4" data-name="Layer 2-4">
      <g id="Surfaces-4">
        <g id="_3D_Substance_Surface-4" data-name=" 3D Substance Surface-4">
          <g id="Outline_no_shadow-4" data-name="Outline no shadow-4">
            <path id="Path_367779" data-name="Path 367779" class="cls-1" d="m85.12,0h20.53c3.09-.02,5.61,2.48,5.63,5.57,0,.02,0,.04,0,.06v19.39c.02,3.09-2.48,5.61-5.57,5.63-.02,0-.04,0-.06,0h-20.53c-3.09.02-5.61-2.48-5.63-5.57,0-.02,0-.04,0-.06V5.63C79.47,2.54,81.96.02,85.05,0c.02,0,.04,0,.06,0Z"/>
          </g>
        </g>
      </g>
      <g id="Live_Text-4" data-name="Live Text-4">
        <g id="Ds_copy" data-name="Ds copy">
          <g id="Group_307127" data-name="Group 307127">
            <path id="Path_367780" data-name="Path 367780" class="cls-2" d="m85.47,21.39V7.99c0-.08.07-.14.14-.14h4.06c1.45-.07,2.9.23,4.21.85,1.06.51,1.93,1.33,2.5,2.35.56,1.05.85,2.23.85,3.42,0,.92-.15,1.83-.43,2.71-.27.73-.65,1.4-1.14,2-.5.55-1.08,1.03-1.71,1.43-.63.36-1.3.64-2,.85-.7.16-1.42.26-2.14.28h-4.28c0-.12-.03-.24-.07-.36h0Zm2.92-11.05v8.7h1.28c.63.02,1.26-.08,1.85-.28.52-.2,1-.49,1.43-.85.4-.41.71-.9.93-1.43.22-.62.34-1.27.36-1.92.02-.63-.08-1.26-.29-1.85-.22-.51-.53-.97-.93-1.35-.42-.36-.9-.62-1.43-.78-.6-.18-1.23-.25-1.85-.21h-1.35Z"/>
            <path id="Path_367781" data-name="Path 367781" class="cls-2" d="m105.43,13.83c-.4-.22-.83-.36-1.28-.43-.49-.12-1-.17-1.5-.14-.26-.01-.53.01-.78.07-.14,0-.29.14-.43.28-.06.11-.08.23-.07.36,0,.14.07.21.14.36.41.42.93.71,1.5.85.65.21,1.27.5,1.85.85.42.26.77.63,1,1.07.2.42.3.89.29,1.35.02.61-.15,1.21-.5,1.71-.37.53-.89.93-1.5,1.14-.75.28-1.55.42-2.35.43-.6-.01-1.19-.06-1.78-.14-.45-.08-.88-.22-1.28-.43-.07-.07-.14-.14-.14-.21v-2.28q0-.07.07-.14c.07-.07.07,0,.14,0,.49.29,1.02.5,1.57.64.56.14,1.13.21,1.71.21.43,0,1.21-.14,1.21-.71,0-.26-.18-.49-.43-.57-.46-.26-.93-.47-1.43-.64-.56-.21-1.08-.5-1.57-.86-1.33-.84-1.73-2.59-.9-3.92.01-.02.03-.05.04-.07.34-.51.81-.93,1.35-1.21.71-.34,1.49-.51,2.28-.5.55-.02,1.1.02,1.64.14.36.06.72.16,1.07.28.07,0,.07.07.14.14v2.28q0,.07-.07.14c-.07.07.07,0,0-.07h0Z"/>
          </g>
        </g>
      </g>
    </g>
    <g id="Group_307129" data-name="Group 307129">
      <path id="Path_367784" data-name="Path 367784" class="cls-1" d="m5.56,0h20.32c3.07,0,5.56,2.49,5.56,5.56v19.53c0,3.07-2.49,5.56-5.56,5.56H5.56c-3.07,0-5.56-2.49-5.56-5.56V5.56C0,2.49,2.49,0,5.56,0Z"/>
      <g id="Group_307128" data-name="Group 307128">
        <path id="Path_367785" data-name="Path 367785" class="cls-2" d="m3.92,7.91c0-.08.07-.14.14-.14h3.71c.14,0,.21.07.21.14.07.36.21.78.36,1.28s.28,1.07.43,1.71c.13.65.3,1.29.5,1.93.13.65.3,1.29.5,1.93.17.56.29,1.13.35,1.71.14.5.21.93.28,1.28h0c.07-.28.14-.71.28-1.21s.28-1.07.5-1.64c.14-.64.36-1.21.5-1.92s.36-1.28.5-1.93.36-1.21.5-1.78.28-1,.36-1.35c0-.08.07-.14.14-.14h3.56c.14,0,.14.07.14.14l.57,13.47v.14s-.09.06-.14.07h-2.71s-.06-.09-.07-.14v-11.55h0c-.07.36-.21.78-.36,1.35s-.28,1.21-.5,1.92c-.14.71-.36,1.43-.57,2.21s-.43,1.5-.57,2.28c-.21.71-.36,1.43-.57,2.07-.14.64-.36,1.21-.43,1.71-.07.14-.14.14-.21.14h-2.28c-.14,0-.21-.07-.21-.14-.14-.5-.29-1.07-.43-1.71-.14-.64-.28-1.28-.5-2s-.36-1.43-.5-2.14-.36-1.43-.5-2.14-.28-1.35-.43-1.93-.21-1.14-.36-1.57h0v3.78c0,.78-.07,1.57-.07,2.42s-.07,1.71-.07,2.64-.07,1.79-.07,2.71c0,.14-.07.14-.14.14h-2.57s-.04-.1,0-.14c0,0,0,0,0,0l.71-13.62Z"/>
        <path id="Path_367786" data-name="Path 367786" class="cls-2" d="m23.74,21.81c-.98,0-1.95-.19-2.85-.57-.84-.37-1.54-.99-2-1.78-.52-.91-.77-1.95-.71-2.99-.02-.97.23-1.93.71-2.78.5-.84,1.21-1.53,2.07-2,1.01-.54,2.14-.81,3.28-.78h.71v-4.13c0-.08.07-.14.14-.14h2.71c.08,0,.14.07.14.14v13.26c-.02.26,0,.53.07.78,0,.07-.07.14-.14.21-.69.28-1.41.49-2.14.64-.66.12-1.33.16-2,.14h0Zm1.28-2.64v-5.77c-.12-.03-.24-.06-.36-.07h-.43c-.52,0-1.03.13-1.5.36-.45.21-.82.56-1.07,1-.3.49-.45,1.06-.43,1.64-.01.46.06.92.21,1.35.13.34.32.66.57.93.24.23.53.4.85.5.34.12.71.17,1.07.14h.57c.17.01.34-.01.5-.07h0Z"/>
      </g>
    </g>
  </g>
</svg>