<?xml version="1.0" encoding="UTF-8"?><svg xmlns="http://www.w3.org/2000/svg" xmlns:xlink="http://www.w3.org/1999/xlink" width="148.028" height="30" viewBox="0 0 148.028 30">
  <defs>
    <clipPath id="clip-path">
      <rect id="Rectangle_303995" data-name="Rectangle 303995" width="30.769" height="30" fill="none"/>
    </clipPath>
  </defs>
  <g id="_5_Acrobat_Logo_Support" data-name="5_Acrobat_Logo_Support" transform="translate(-1059 -2410.438)">
    <path id="Path_1036446" data-name="Path 1036446" d="M7.072-2.941,8.058-.1a.171.171,0,0,0,.17.1h1.9c.1,0,.119-.051.1-.153L6.307-11.067c-.017-.085-.034-.1-.119-.1H3.825c-.068,0-.1.051-.1.119a2.6,2.6,0,0,1-.153.918L.068-.17C.051-.051.085,0,.187,0h1.7a.168.168,0,0,0,.187-.136l.935-2.8ZM3.553-4.794c.51-1.547,1.19-3.536,1.462-4.675h.017c.34,1.19,1.139,3.553,1.5,4.675ZM15.2.17a8.061,8.061,0,0,0,3.213-.663.132.132,0,0,0,.1-.153c-.034-.306-.068-.748-.068-1.088V-12c0-.068,0-.1-.085-.1H16.507c-.068,0-.1.034-.1.119V-8.5a5.882,5.882,0,0,0-.731-.051c-2.992,0-4.828,1.972-4.828,4.437A4.006,4.006,0,0,0,15.2.17Zm1.207-1.9a3.144,3.144,0,0,1-.986.136,2.321,2.321,0,0,1-2.465-2.618,2.489,2.489,0,0,1,2.652-2.618,2.26,2.26,0,0,1,.8.119Zm7.8-6.817a4.09,4.09,0,0,0-4.131,4.369c0,2.159,1.258,4.352,4.1,4.352,2.4,0,4.08-1.768,4.08-4.4C28.254-6.562,26.826-8.551,24.208-8.551Zm-.1,1.717c1.445,0,2.057,1.241,2.057,2.652,0,1.751-.9,2.618-1.955,2.618-1.292,0-2.057-1.088-2.057-2.652C22.151-5.831,22.967-6.834,24.106-6.834Zm5.865-5.27a.107.107,0,0,0-.119.119V-.357a.181.181,0,0,0,.119.153,8.494,8.494,0,0,0,2.55.374c2.516,0,4.964-1.564,4.964-4.709a3.837,3.837,0,0,0-4.012-4.012,4.922,4.922,0,0,0-1.547.238l-.017-3.655c0-.119-.034-.136-.153-.136Zm5.423,7.769a2.571,2.571,0,0,1-2.686,2.771,2.83,2.83,0,0,1-.782-.085V-6.613a3.121,3.121,0,0,1,1.19-.187A2.189,2.189,0,0,1,35.394-4.335Zm8.823.612a12.949,12.949,0,0,0,1.751-.068A.146.146,0,0,0,46.1-3.91a5.145,5.145,0,0,0,.068-1.054,3.38,3.38,0,0,0-3.485-3.587c-2.567,0-4,2.091-4,4.454,0,2.091,1.1,4.267,4.2,4.267a5.645,5.645,0,0,0,2.55-.493.18.18,0,0,0,.1-.187V-1.921c0-.085-.051-.1-.1-.068a5.357,5.357,0,0,1-2.108.408c-1.734,0-2.516-.952-2.567-2.142ZM40.766-5.185A1.857,1.857,0,0,1,42.6-6.919a1.573,1.573,0,0,1,1.632,1.581V-5.2a8.332,8.332,0,0,1-.935.017ZM57.647-2.941,58.633-.1a.171.171,0,0,0,.17.1h1.9c.1,0,.119-.051.1-.153L56.882-11.067c-.017-.085-.034-.1-.119-.1H54.4c-.068,0-.1.051-.1.119a2.6,2.6,0,0,1-.153.918L50.643-.17c-.017.119.017.17.119.17h1.7a.168.168,0,0,0,.187-.136l.935-2.8ZM54.128-4.794c.51-1.547,1.19-3.536,1.462-4.675h.017c.34,1.19,1.139,3.553,1.5,4.675ZM67.779-1.751c0-.068-.034-.119-.119-.085a4.9,4.9,0,0,1-1.479.17,2.439,2.439,0,0,1-2.652-2.567,2.415,2.415,0,0,1,2.635-2.55,4,4,0,0,1,1.462.221c.068.017.136.017.136-.1l.017-1.513c0-.1-.017-.153-.085-.187a4.883,4.883,0,0,0-1.6-.187,4.349,4.349,0,0,0-4.675,4.386A4.135,4.135,0,0,0,65.807.17,5.178,5.178,0,0,0,67.694-.1c.068-.017.085-.051.085-.136Zm1.513-6.63c-.085,0-.1.017-.1.1.068.561.085,1.547.085,2.278V-.136c0,.085.034.136.153.136H71.2c.1,0,.153-.034.153-.136V-5.61a3.3,3.3,0,0,1,2.6-.9c.119,0,.153-.034.153-.119v-1.8c0-.1-.034-.119-.136-.119a3.542,3.542,0,0,0-2.72,1.326,3.843,3.843,0,0,0-.17-1.02.168.168,0,0,0-.187-.136Zm9.673-.17a4.09,4.09,0,0,0-4.131,4.369c0,2.159,1.258,4.352,4.1,4.352,2.4,0,4.08-1.768,4.08-4.4C83.011-6.562,81.583-8.551,78.965-8.551Zm-.1,1.717c1.445,0,2.057,1.241,2.057,2.652,0,1.751-.9,2.618-1.955,2.618-1.292,0-2.057-1.088-2.057-2.652C76.908-5.831,77.724-6.834,78.863-6.834Zm5.865-5.27a.107.107,0,0,0-.119.119V-.357a.181.181,0,0,0,.119.153,8.494,8.494,0,0,0,2.55.374c2.516,0,4.964-1.564,4.964-4.709A3.837,3.837,0,0,0,88.23-8.551a4.922,4.922,0,0,0-1.547.238l-.017-3.655c0-.119-.034-.136-.153-.136Zm5.423,7.769a2.571,2.571,0,0,1-2.686,2.771,2.83,2.83,0,0,1-.782-.085V-6.613a3.121,3.121,0,0,1,1.19-.187A2.189,2.189,0,0,1,90.151-4.335ZM98.26-1.649a3.108,3.108,0,0,1-1.207.2c-1.224,0-1.666-.544-1.666-1.173,0-.731.6-1.173,1.938-1.173a6.994,6.994,0,0,1,.935.051Zm1.989-3.536a3.085,3.085,0,0,0-3.383-3.366,6.316,6.316,0,0,0-2.584.51.162.162,0,0,0-.1.17v1.479a.1.1,0,0,0,.136.1,5.057,5.057,0,0,1,2.227-.476c1.5,0,1.717.884,1.717,1.275v.2c-.153-.017-.544-.034-1.054-.034-2.21,0-3.825.9-3.825,2.7C93.381-.7,94.86.17,96.713.17A8.268,8.268,0,0,0,100.249-.6c.034-.017.034-.034.034-.068-.034-.357-.034-.7-.034-1.071ZM106.267-1.5c0-.1-.051-.119-.1-.1a2.881,2.881,0,0,1-.646.068c-.731,0-.969-.357-.969-1.1V-6.664h1.666c.085,0,.119-.034.119-.119V-8.262c0-.085-.034-.119-.119-.119h-1.649c0-.833.034-1.836.085-2.4,0-.085-.034-.1-.119-.085l-1.717.238a.163.163,0,0,0-.136.153,17.943,17.943,0,0,0-.17,2.091h-1.071c-.1,0-.136.034-.136.136v1.428c0,.1.034.136.119.153h1.071v4.471c0,1.683.833,2.363,2.227,2.363a3.908,3.908,0,0,0,1.445-.238c.085-.034.1-.1.1-.2Z" transform="translate(1100.693 2431.016)"/>
    <g id="Group_598760" data-name="Group 598760" transform="translate(1059 2410.438)">
      <g id="Group_321053" data-name="Group 321053" clip-path="url(#clip-path)">
        <path id="Path_613438" data-name="Path 613438" d="M5.449,0H25.32a5.449,5.449,0,0,1,5.449,5.449v19.1A5.449,5.449,0,0,1,25.32,30H5.449A5.449,5.449,0,0,1,0,24.551V5.449A5.449,5.449,0,0,1,5.449,0" transform="translate(0 0)" fill="#b30b00"/>
        <path id="Path_613439" data-name="Path 613439" d="M29.224,21.86c-1.441-1.532-5.424-.908-6.358-.753a16.238,16.238,0,0,1-2.661-3.5,15.594,15.594,0,0,0,.908-4.594c0-1.4-.558-2.907-2.115-2.907a1.577,1.577,0,0,0-1.311.766c-.662,1.142-.4,3.5.662,5.891a39.828,39.828,0,0,1-2.7,6.332c-1.6.636-4.983,2.193-5.308,3.919a1.458,1.458,0,0,0,.467,1.376,1.975,1.975,0,0,0,1.376.493c2.037,0,4.074-2.829,5.45-5.255a34.594,34.594,0,0,1,4.853-1.272,7.735,7.735,0,0,0,5.048,2.167c1.324,0,1.817-.571,2-1.051a1.619,1.619,0,0,0-.311-1.609m-1.4.986c-.065.376-.545.753-1.44.558a7.2,7.2,0,0,1-2.829-1.427,11.765,11.765,0,0,1,3.491-.052c.415.078.9.312.778.922M18.531,11.361a.522.522,0,0,1,.454-.285c.493,0,.6.6.6,1.09a15.161,15.161,0,0,1-.649,3.464c-.831-2.206-.714-3.737-.4-4.269m-.117,10.783A32.575,32.575,0,0,0,19.7,19.056a16.369,16.369,0,0,0,1.765,2.31,29.2,29.2,0,0,0-3.049.778m-3.257,2.232c-1.311,2.1-2.6,3.426-3.348,3.426a.531.531,0,0,1-.338-.117.483.483,0,0,1-.168-.48c.143-.753,1.635-1.843,3.854-2.829" transform="translate(-4.584 -4.49)" fill="#fff"/>
      </g>
    </g>
  </g>
</svg>
