<?xml version="1.0" encoding="UTF-8"?><svg id="_1_AcrobatReader_Logo_Marquee" data-name="1_AcrobatReader_Logo_Marquee" xmlns="http://www.w3.org/2000/svg" xmlns:xlink="http://www.w3.org/1999/xlink" width="300.459" height="40" viewBox="0 0 300.459 40">
  <defs>
    <clipPath id="clip-path">
      <rect id="Rectangle_303995" data-name="Rectangle 303995" width="41.204" height="40" fill="none"/>
    </clipPath>
  </defs>
  <path id="Path_1071579" data-name="Path 1071579" d="M10.816-4.5,12.324-.156a.261.261,0,0,0,.26.156H15.5c.156,0,.182-.078.156-.234L9.646-16.926c-.026-.13-.052-.156-.182-.156H5.85c-.1,0-.156.078-.156.182a3.975,3.975,0,0,1-.234,1.4L.1-.26C.078-.078.13,0,.286,0h2.6a.258.258,0,0,0,.286-.208L4.6-4.5ZM5.434-7.332c.78-2.366,1.82-5.408,2.236-7.15H7.7c.52,1.82,1.742,5.434,2.288,7.15ZM23.244.26A12.329,12.329,0,0,0,28.158-.754a.2.2,0,0,0,.156-.234c-.052-.468-.1-1.144-.1-1.664v-15.7c0-.1,0-.156-.13-.156H25.246c-.1,0-.156.052-.156.182V-13a9,9,0,0,0-1.118-.078c-4.576,0-7.384,3.016-7.384,6.786C16.588-1.924,19.474.26,23.244.26ZM25.09-2.652a4.808,4.808,0,0,1-1.508.208c-2.08,0-3.77-1.17-3.77-4a3.806,3.806,0,0,1,4.056-4,3.457,3.457,0,0,1,1.222.182ZM37.024-13.078c-3.9,0-6.318,2.99-6.318,6.682,0,3.3,1.924,6.656,6.266,6.656,3.666,0,6.24-2.7,6.24-6.734C43.212-10.036,41.028-13.078,37.024-13.078Zm-.156,2.626c2.21,0,3.146,1.9,3.146,4.056,0,2.678-1.378,4-2.99,4-1.976,0-3.146-1.664-3.146-4.056C33.878-8.918,35.126-10.452,36.868-10.452Zm8.97-8.06a.164.164,0,0,0-.182.182V-.546a.278.278,0,0,0,.182.234,12.991,12.991,0,0,0,3.9.572c3.848,0,7.592-2.392,7.592-7.2a5.869,5.869,0,0,0-6.136-6.136,7.528,7.528,0,0,0-2.366.364L48.8-18.3c0-.182-.052-.208-.234-.208ZM54.132-6.63a3.932,3.932,0,0,1-4.108,4.238,4.328,4.328,0,0,1-1.2-.13v-7.592a4.774,4.774,0,0,1,1.82-.286C52.7-10.4,54.132-9.1,54.132-6.63Zm13.494.936A19.8,19.8,0,0,0,70.3-5.8a.223.223,0,0,0,.208-.182,7.869,7.869,0,0,0,.1-1.612c0-2.47-1.482-5.486-5.33-5.486-3.926,0-6.11,3.2-6.11,6.812,0,3.2,1.69,6.526,6.422,6.526a8.633,8.633,0,0,0,3.9-.754.275.275,0,0,0,.156-.286V-2.938c0-.13-.078-.156-.156-.1a8.193,8.193,0,0,1-3.224.624c-2.652,0-3.848-1.456-3.926-3.276ZM62.348-7.93a2.84,2.84,0,0,1,2.808-2.652,2.4,2.4,0,0,1,2.5,2.418v.208a12.743,12.743,0,0,1-1.43.026ZM88.166-4.5,89.674-.156a.261.261,0,0,0,.26.156h2.912C93,0,93.028-.078,93-.234L87-16.926c-.026-.13-.052-.156-.182-.156H83.2c-.1,0-.156.078-.156.182a3.975,3.975,0,0,1-.234,1.4L77.454-.26c-.026.182.026.26.182.26h2.6a.258.258,0,0,0,.286-.208l1.43-4.29ZM82.784-7.332c.78-2.366,1.82-5.408,2.236-7.15h.026c.52,1.82,1.742,5.434,2.288,7.15Zm20.878,4.654c0-.1-.052-.182-.182-.13a7.487,7.487,0,0,1-2.262.26,3.731,3.731,0,0,1-4.056-3.926,3.693,3.693,0,0,1,4.03-3.9,6.112,6.112,0,0,1,2.236.338c.1.026.208.026.208-.156l.026-2.314c0-.156-.026-.234-.13-.286a7.467,7.467,0,0,0-2.444-.286c-4.29,0-7.15,2.86-7.15,6.708A6.324,6.324,0,0,0,100.646.26a7.92,7.92,0,0,0,2.886-.416c.1-.026.13-.078.13-.208Zm2.314-10.14c-.13,0-.156.026-.156.156.1.858.13,2.366.13,3.484v8.97c0,.13.052.208.234.208h2.7c.156,0,.234-.052.234-.208V-8.58A5.052,5.052,0,0,1,113.1-9.958c.182,0,.234-.052.234-.182V-12.9c0-.156-.052-.182-.208-.182a5.417,5.417,0,0,0-4.16,2.028,5.877,5.877,0,0,0-.26-1.56.258.258,0,0,0-.286-.208Zm14.794-.26c-3.9,0-6.318,2.99-6.318,6.682,0,3.3,1.924,6.656,6.266,6.656,3.666,0,6.24-2.7,6.24-6.734C126.958-10.036,124.774-13.078,120.77-13.078Zm-.156,2.626c2.21,0,3.146,1.9,3.146,4.056,0,2.678-1.378,4-2.99,4-1.976,0-3.146-1.664-3.146-4.056C117.624-8.918,118.872-10.452,120.614-10.452Zm8.97-8.06a.164.164,0,0,0-.182.182V-.546a.278.278,0,0,0,.182.234,12.991,12.991,0,0,0,3.9.572c3.848,0,7.592-2.392,7.592-7.2a5.869,5.869,0,0,0-6.136-6.136,7.528,7.528,0,0,0-2.366.364l-.026-5.59c0-.182-.052-.208-.234-.208ZM137.878-6.63a3.932,3.932,0,0,1-4.108,4.238,4.328,4.328,0,0,1-1.2-.13v-7.592a4.774,4.774,0,0,1,1.82-.286C136.448-10.4,137.878-9.1,137.878-6.63Zm12.4,4.108a4.754,4.754,0,0,1-1.846.312c-1.872,0-2.548-.832-2.548-1.794,0-1.118.91-1.794,2.964-1.794a10.7,10.7,0,0,1,1.43.078Zm3.042-5.408c0-2.886-1.56-5.148-5.174-5.148a9.66,9.66,0,0,0-3.952.78.247.247,0,0,0-.156.26v2.262a.152.152,0,0,0,.208.156,7.734,7.734,0,0,1,3.406-.728c2.288,0,2.626,1.352,2.626,1.95v.312c-.234-.026-.832-.052-1.612-.052-3.38,0-5.85,1.378-5.85,4.134,0,2.938,2.262,4.264,5.1,4.264a12.645,12.645,0,0,0,5.408-1.17c.052-.026.052-.052.052-.1-.052-.546-.052-1.066-.052-1.638Zm9.2,5.642c0-.156-.078-.182-.156-.156a4.406,4.406,0,0,1-.988.1c-1.118,0-1.482-.546-1.482-1.69v-6.162h2.548c.13,0,.182-.052.182-.182v-2.262c0-.13-.052-.182-.182-.182h-2.522c0-1.274.052-2.808.13-3.666,0-.13-.052-.156-.182-.13l-2.626.364a.25.25,0,0,0-.208.234,27.441,27.441,0,0,0-.26,3.2h-1.638c-.156,0-.208.052-.208.208v2.184c0,.156.052.208.182.234h1.638v6.838c0,2.574,1.274,3.614,3.406,3.614A5.977,5.977,0,0,0,162.37-.1c.13-.052.156-.156.156-.312ZM173.784,0c.13,0,.208-.052.208-.208V-6.552h2.236c.286,0,.416.13.6.442,1.144,1.82,2.964,4.81,3.718,5.98a.434.434,0,0,0,.364.13h3.25c.156,0,.13-.13.052-.286-.754-1.3-3.874-5.954-4.732-7.15a4.833,4.833,0,0,0,3.354-4.576c0-3.328-2.444-5.122-6.6-5.122-2,0-3.094.026-5.148.078-.156,0-.182.1-.182.234V-.208c0,.156.052.208.208.208Zm.208-9.23v-5.122c.416-.026,1.248-.052,2.132-.052,2.21,0,3.588.858,3.588,2.574,0,1.664-1.352,2.6-3.458,2.6Zm19.214,3.536a19.8,19.8,0,0,0,2.678-.1.223.223,0,0,0,.208-.182,7.869,7.869,0,0,0,.1-1.612c0-2.47-1.482-5.486-5.33-5.486-3.926,0-6.11,3.2-6.11,6.812,0,3.2,1.69,6.526,6.422,6.526a8.633,8.633,0,0,0,3.9-.754.275.275,0,0,0,.156-.286V-2.938c0-.13-.078-.156-.156-.1a8.193,8.193,0,0,1-3.224.624c-2.652,0-3.848-1.456-3.926-3.276ZM187.928-7.93a2.84,2.84,0,0,1,2.808-2.652,2.4,2.4,0,0,1,2.5,2.418v.208a12.743,12.743,0,0,1-1.43.026Zm17.264,5.408a4.754,4.754,0,0,1-1.846.312c-1.872,0-2.548-.832-2.548-1.794,0-1.118.91-1.794,2.964-1.794a10.7,10.7,0,0,1,1.43.078Zm3.042-5.408c0-2.886-1.56-5.148-5.174-5.148a9.66,9.66,0,0,0-3.952.78.247.247,0,0,0-.156.26v2.262a.152.152,0,0,0,.208.156,7.734,7.734,0,0,1,3.406-.728c2.288,0,2.626,1.352,2.626,1.95v.312c-.234-.026-.832-.052-1.612-.052-3.38,0-5.85,1.378-5.85,4.134,0,2.938,2.262,4.264,5.1,4.264a12.645,12.645,0,0,0,5.408-1.17c.052-.026.052-.052.052-.1-.052-.546-.052-1.066-.052-1.638ZM217.256.26A12.329,12.329,0,0,0,222.17-.754a.2.2,0,0,0,.156-.234c-.052-.468-.1-1.144-.1-1.664v-15.7c0-.1,0-.156-.13-.156h-2.834c-.1,0-.156.052-.156.182V-13a9,9,0,0,0-1.118-.078c-4.576,0-7.384,3.016-7.384,6.786C210.6-1.924,213.486.26,217.256.26ZM219.1-2.652a4.808,4.808,0,0,1-1.508.208c-2.08,0-3.77-1.17-3.77-4a3.806,3.806,0,0,1,4.056-4,3.457,3.457,0,0,1,1.222.182Zm14.066-3.042a19.8,19.8,0,0,0,2.678-.1.223.223,0,0,0,.208-.182,7.869,7.869,0,0,0,.1-1.612c0-2.47-1.482-5.486-5.33-5.486-3.926,0-6.11,3.2-6.11,6.812,0,3.2,1.69,6.526,6.422,6.526a8.633,8.633,0,0,0,3.9-.754A.275.275,0,0,0,235.2-.78V-2.938c0-.13-.078-.156-.156-.1a8.193,8.193,0,0,1-3.224.624c-2.652,0-3.848-1.456-3.926-3.276ZM227.89-7.93a2.84,2.84,0,0,1,2.808-2.652,2.4,2.4,0,0,1,2.5,2.418v.208a12.743,12.743,0,0,1-1.43.026ZM238.6-12.818c-.13,0-.156.026-.156.156.1.858.13,2.366.13,3.484v8.97c0,.13.052.208.234.208h2.7c.156,0,.234-.052.234-.208V-8.58a5.052,5.052,0,0,1,3.978-1.378c.182,0,.234-.052.234-.182V-12.9c0-.156-.052-.182-.208-.182a5.417,5.417,0,0,0-4.16,2.028,5.877,5.877,0,0,0-.26-1.56.258.258,0,0,0-.286-.208Z" transform="translate(54.499 30.67)" fill="#000b1d"/>
  <g id="Group_598760" data-name="Group 598760">
    <g id="Group_321053" data-name="Group 321053" clip-path="url(#clip-path)">
      <path id="Path_613438" data-name="Path 613438" d="M7.3,0H33.908a7.281,7.281,0,0,1,7.3,7.265v25.47A7.281,7.281,0,0,1,33.908,40H7.3A7.281,7.281,0,0,1,0,32.735V7.265A7.281,7.281,0,0,1,7.3,0" transform="translate(0 0)" fill="#b30b00"/>
      <path id="Path_613439" data-name="Path 613439" d="M35.637,25.779c-1.929-2.042-7.264-1.211-8.515-1A21.657,21.657,0,0,1,23.56,20.1a20.714,20.714,0,0,0,1.216-6.125c0-1.869-.747-3.876-2.832-3.876a2.113,2.113,0,0,0-1.755,1.021c-.886,1.522-.539,4.671.886,7.855a52.981,52.981,0,0,1-3.614,8.443c-2.137.848-6.673,2.924-7.108,5.225a1.939,1.939,0,0,0,.626,1.835,2.651,2.651,0,0,0,1.842.657c2.728,0,5.456-3.772,7.3-7.007a46.487,46.487,0,0,1,6.5-1.7,10.383,10.383,0,0,0,6.76,2.89c1.773,0,2.433-.761,2.676-1.4a2.152,2.152,0,0,0-.417-2.145M33.76,27.093c-.087.5-.73,1-1.928.744a9.657,9.657,0,0,1-3.788-1.9,15.822,15.822,0,0,1,4.674-.07c.556.1,1.2.416,1.042,1.229M21.318,11.781a.7.7,0,0,1,.609-.38c.66,0,.8.8.8,1.453a20.137,20.137,0,0,1-.869,4.619c-1.112-2.941-.956-4.983-.539-5.693m-.156,14.378a43.327,43.327,0,0,0,1.72-4.118,21.836,21.836,0,0,0,2.364,3.08,39.247,39.247,0,0,0-4.084,1.038M16.8,29.135c-1.755,2.8-3.476,4.567-4.483,4.567a.713.713,0,0,1-.452-.156.643.643,0,0,1-.225-.64c.191-1,2.189-2.457,5.161-3.772" transform="translate(-2.641 -2.619)" fill="#fff"/>
    </g>
  </g>
</svg>
