<?xml version='1.0' encoding='utf-8'?>
<svg xmlns="http://www.w3.org/2000/svg" width="240" height="240" viewBox="0 0 240 240" fill="none" class="bridge-2025">
<path id="Vector" d="M196.959 0H43.0414C19.2703 0 0 19.2703 0 43.0414V196.959C0 220.73 19.2703 240 43.0414 240H196.959C220.73 240 240 220.73 240 196.959V43.0414C240 19.2703 220.73 0 196.959 0Z" fill="#000B1D" />
<path id="Vector_2" d="M48.1981 63.7059H100.377C126.466 63.7059 139.346 77.0808 139.346 92.9327C139.346 103.666 135.713 111.427 126.797 116.215C136.704 120.343 142.979 127.774 143.144 140.158C143.309 160.138 127.127 174.339 96.5795 174.339H48.1981V63.7059ZM96.9096 107.133C104.175 107.133 108.633 103.996 108.633 97.5563C108.633 91.6118 104.836 88.1443 96.5795 88.1443H78.746V107.133L96.9096 107.133ZM97.4049 149.9C105.331 149.9 111.44 146.928 111.44 139.332C111.44 133.223 107.808 129.095 98.3954 129.095H78.746V149.9H97.4049Z" fill="white" />
<path id="Vector_3" d="M189.414 86.6581C196.184 86.6581 201.633 87.4837 204.11 88.3093V110.766C202.128 110.271 198.33 109.94 195.193 109.94C189.084 109.94 185.616 110.436 182.478 111.592V174.339H153.582V93.9235C163.984 89.3001 174.388 86.6581 189.414 86.6581Z" fill="white" />
<defs>
<clipPath id="clip0_2136_7392">
<rect width="240" height="240" fill="white" />
</clipPath>
</defs>
</svg>