<?xml version="1.0" encoding="UTF-8"?><svg width="256" height="247" viewBox="0 0 256 247" fill="none" xmlns="http://www.w3.org/2000/svg">
<path d="M210.68 0H45.3204C20.2906 0 0 20.2906 0 45.3204V201.537C0 226.567 20.2906 246.857 45.3204 246.857H210.68C235.709 246.857 256 226.567 256 201.537V45.3204C256 20.2906 235.709 0 210.68 0Z" fill="#EB1000"/>
<path d="M198.479 187.428H168.664C167.369 187.451 166.096 187.087 165.007 186.38C163.918 185.674 163.063 184.657 162.55 183.46L130.183 107.298C130.098 107.002 129.921 106.741 129.677 106.553C129.434 106.366 129.137 106.263 128.83 106.259C128.524 106.255 128.224 106.35 127.976 106.531C127.727 106.712 127.544 106.968 127.451 107.263L107.28 155.62C107.171 155.881 107.127 156.166 107.154 156.449C107.18 156.731 107.276 157.003 107.432 157.239C107.588 157.476 107.799 157.67 108.048 157.804C108.296 157.938 108.574 158.008 108.856 158.008H131.028C131.7 158.008 132.357 158.207 132.916 158.581C133.476 158.954 133.915 159.485 134.177 160.107L143.884 181.847C144.141 182.457 144.244 183.122 144.184 183.782C144.124 184.442 143.902 185.076 143.539 185.629C143.176 186.182 142.682 186.635 142.102 186.949C141.522 187.263 140.874 187.427 140.215 187.428H59.4983C58.8912 187.424 58.2944 187.269 57.7612 186.977C57.2279 186.685 56.7747 186.265 56.442 185.754C56.1093 185.243 55.9075 184.657 55.8544 184.048C55.8014 183.439 55.8988 182.827 56.138 182.265L107.48 59.2193C108.005 57.917 108.908 56.8042 110.07 56.0261C111.233 55.248 112.602 54.8409 113.998 54.8578H143.611C145.008 54.8392 146.378 55.2456 147.541 56.0239C148.704 56.8022 149.607 57.916 150.13 59.2193L201.828 182.265C202.067 182.826 202.165 183.437 202.112 184.045C202.06 184.653 201.859 185.239 201.528 185.749C201.196 186.26 200.745 186.681 200.213 186.974C199.681 187.266 199.085 187.422 198.479 187.428Z" fill="white"/>
</svg>
