<?xml version='1.0' encoding='utf-8'?>
<svg xmlns="http://www.w3.org/2000/svg" width="240" height="240" viewBox="0 0 240 240" fill="none" class="lightroom-classic-2025">
<path id="Vector" d="M196.959 0H43.0414C19.2703 0 0 19.2703 0 43.0414V196.959C0 220.73 19.2703 240 43.0414 240H196.959C220.73 240 240 220.73 240 196.959V43.0414C240 19.2703 220.73 0 196.959 0Z" fill="#001E36" />
<path id="Vector_2" d="M17.3748 63.7059H46.6015V147.754H89.6995V174.339H17.3748V63.7059Z" fill="#31A8FF" />
<path id="Vector_3" d="M135.11 86.6581C138.412 86.6581 141.219 86.8231 143.366 87.1534V110.436C142.045 110.271 140.724 110.271 139.072 110.271C131.807 110.436 126.523 111.096 123.386 111.922V174.339H96.6361V92.9326C107.699 88.3092 123.551 86.6581 135.11 86.6581Z" fill="#31A8FF" />
<path id="Vector_4" d="M225.102 65.8526L224.936 93.4282C218.827 89.9604 214.204 88.3092 204.792 88.3092C188.939 88.3092 178.041 97.8863 178.041 117.701C178.041 139.663 188.444 150.066 204.626 150.066C211.066 150.066 218.992 148.91 225.432 144.616L225.762 171.532C221.469 174.339 214.038 176.155 200.828 176.155C163.18 176.485 146.833 149.57 146.833 118.197C146.833 87.1534 166.648 61.5592 201.654 61.3942C212.552 61.2289 220.148 62.8803 225.102 65.8526Z" fill="#31A8FF" />
<defs>
<clipPath id="clip0_2136_7966">
<rect width="240" height="240" fill="white" />
</clipPath>
</defs>
</svg>