<?xml version='1.0' encoding='utf-8'?>
<svg xmlns="http://www.w3.org/2000/svg" width="240" height="240" viewBox="0 0 240 240" fill="none" class="media-encoder-2025">
<path id="Vector" d="M196.959 0H43.0414C19.2703 0 0 19.2703 0 43.0414V196.959C0 220.73 19.2703 240 43.0414 240H196.959C220.73 240 240 220.73 240 196.959V43.0414C240 19.2703 220.73 0 196.959 0Z" fill="#00005B" />
<path id="Vector_2" d="M60.9004 63.7059L75.5965 116.545L91.4483 63.7059H125.96L132.895 174.339H103.337L101.851 132.232C101.521 121.664 101.191 111.096 100.86 100.363L84.1827 165.752H64.368L49.6725 103.666C49.1767 113.243 48.8467 122.82 48.5166 132.232L46.5345 174.339H18.7941L26.0597 63.7059H60.9004Z" fill="#9999FF" />
<path id="Vector_3" d="M223.847 128.765C223.847 132.728 223.517 137.021 223.022 140.323H169.026C172.329 148.579 180.254 152.542 192.639 152.542C201.555 152.542 209.316 150.891 217.077 147.258L217.407 170.211C208.986 174.504 199.904 175.99 188.181 175.99C159.284 175.99 139.964 159.973 139.964 130.911C139.964 104.326 158.459 86.6582 182.897 86.6582C207.995 86.6582 223.847 102.84 223.847 128.765ZM168.035 121.499H196.932C196.272 113.738 191.483 108.289 183.062 108.289C174.97 108.289 169.852 112.582 168.035 121.499Z" fill="#9999FF" />
<defs>
<clipPath id="clip0_2136_8554">
<rect width="240" height="240" fill="white" />
</clipPath>
</defs>
</svg>