<?xml version='1.0' encoding='utf-8'?>
<svg xmlns="http://www.w3.org/2000/svg" width="240" height="240" viewBox="0 0 240 240" fill="none" class="portfolio-2025">
<path id="Vector" d="M196.959 0H43.0414C19.2703 0 0 19.2703 0 43.0414V196.959C0 220.73 19.2703 240 43.0414 240H196.959C220.73 240 240 220.73 240 196.959V43.0414C240 19.2703 220.73 0 196.959 0Z" fill="#000B1D" />
<path id="Vector_2" d="M89.2075 63.7059C120.581 63.7059 138.249 78.4019 138.249 103.005C138.249 131.737 114.306 143.295 91.8492 143.295H76.6579V174.339H45.9453V63.7059H89.2075ZM76.6579 89.9604V117.041H90.1986C99.6106 117.041 106.215 113.243 106.215 103.666C106.215 94.9143 100.601 89.9604 90.8586 89.9604H76.6579Z" fill="white" />
<path id="Vector_3" d="M153.409 111.922H142.676V88.9698H153.409C153.904 70.1457 166.288 59.4128 185.772 59.4128C190.726 59.4128 195.515 59.908 198.157 60.8986L197.992 82.1997C196.176 81.5392 193.533 81.2089 191.222 81.2089C184.617 81.2089 182.635 84.1811 182.305 88.9698H197.992V111.922H182.305V174.339H153.409L153.409 111.922Z" fill="white" />
<defs>
<clipPath id="clip0_2136_8932">
<rect width="240" height="240" fill="white" />
</clipPath>
</defs>
</svg>