<?xml version='1.0' encoding='utf-8'?>
<svg xmlns="http://www.w3.org/2000/svg" width="240" height="240" viewBox="0 0 240 240" fill="none" class="substance-3d-modeler-2025">
<path id="Vector" d="M196.959 0H43.0414C19.2703 0 0 19.2703 0 43.0414V196.959C0 220.73 19.2703 240 43.0414 240H196.959C220.73 240 240 220.73 240 196.959V43.0414C240 19.2703 220.73 0 196.959 0Z" fill="#1E3101" />
<path id="Vector_2" d="M59.9925 63.7059L74.689 116.545L90.5404 63.7059H125.052L131.987 174.339H102.429L100.943 132.232C100.613 121.664 100.283 111.096 99.9524 100.363L83.2752 165.752H63.4605L48.7645 103.666C48.2687 113.243 47.9387 122.82 47.6087 132.232L45.627 174.339H17.8861L25.1517 63.7059H59.9925Z" fill="#99E83F" />
<path id="Vector_3" d="M139.057 131.737C139.057 101.684 161.513 86.6582 184.796 86.6582C187.933 86.6582 191.235 86.9884 193.217 87.3185V60.2384H222.114V168.724C215.179 172.192 201.473 175.825 186.612 175.825C161.183 175.825 139.057 161.459 139.057 131.737ZM193.217 151.717V111.262C191.235 110.601 188.758 110.106 185.456 110.106C176.375 110.106 167.953 115.39 167.953 131.241C167.953 145.772 175.549 152.377 185.621 152.377C187.933 152.377 191.071 152.212 193.217 151.717Z" fill="#99E83F" />
<defs>
<clipPath id="clip0_2136_8393">
<rect width="240" height="240" fill="white" />
</clipPath>
</defs>
</svg>