<?xml version='1.0' encoding='utf-8'?>
<svg xmlns="http://www.w3.org/2000/svg" width="240" height="240" viewBox="0 0 240 240" fill="none" class="substance-3d-designer-2025">
<path id="Vector" d="M196.959 0H43.0414C19.2703 0 0 19.2703 0 43.0414V196.959C0 220.73 19.2703 240 43.0414 240H196.959C220.73 240 240 220.73 240 196.959V43.0414C240 19.2703 220.73 0 196.959 0Z" fill="#1E3101" />
<path id="Vector_2" d="M77.4219 63.7059C109.456 63.7059 136.041 81.7045 136.041 117.536C136.041 151.717 110.116 174.339 76.5965 174.339H33.3343V63.7059H77.4219ZM64.047 148.084H78.9082C92.7784 148.084 102.851 136.856 102.851 118.692C102.851 98.8772 93.439 89.9604 77.9177 89.9604H64.047V148.084Z" fill="#99E83F" />
<path id="Vector_3" d="M144.249 168.89L144.414 143.296C153.166 149.075 165.385 152.708 173.806 152.708C179.585 152.708 182.228 151.056 182.228 148.084C182.228 144.782 178.595 143.461 171.66 141.314C158.285 137.351 143.589 131.902 143.589 114.399C143.589 96.5655 158.285 86.6581 179.585 86.6581C189.658 86.6581 197.915 88.1443 205.18 91.2815L205.015 115.72C199.235 112.252 187.842 109.115 180.411 109.115C174.962 109.115 172.816 110.766 172.816 113.243C172.816 116.215 175.458 117.041 183.383 119.518C198.74 124.141 211.62 129.095 211.62 147.093C211.62 164.266 197.584 175.825 175.623 175.825C164.064 175.825 153.166 173.843 144.249 168.89Z" fill="#99E83F" />
<defs>
<clipPath id="clip0_2136_7322">
<rect width="240" height="240" fill="white" />
</clipPath>
</defs>
</svg>