<?xml version="1.0" encoding="UTF-8"?><svg width="136" height="136" viewBox="0 0 136 136" fill="none" xmlns="http://www.w3.org/2000/svg">
<g clip-path="url(#clip0_720_22109)">
<path d="M29.9791 77.6038C22.9288 77.6038 17 71.8566 17 64.8019C17 57.7423 22.9288 52 29.9791 52C33.8797 52 36.6539 53.5319 38.7456 55.5274L36.2785 57.996C34.7817 56.5909 32.7534 55.4981 29.9742 55.4981C24.8255 55.4981 20.803 59.6499 20.803 64.8019C20.803 69.9539 24.8255 74.1057 29.9742 74.1057C33.3141 74.1057 35.2156 72.764 36.4345 71.5444C37.434 70.5442 38.0874 69.1098 38.336 67.1437H29.9791V63.6456H41.7441C41.8709 64.2701 41.9294 65.0214 41.9294 65.8313C41.9294 68.4561 41.2127 71.7005 38.9016 74.013C36.6588 76.3548 33.787 77.6038 29.9791 77.6038Z" fill="white"/>
<path d="M59.5384 69.2402C59.5384 73.9873 55.8231 77.4805 51.2692 77.4805C46.7153 77.4805 43 73.9824 43 69.2402C43 64.4639 46.7153 61 51.2692 61C55.828 61 59.5384 64.4639 59.5384 69.2402ZM55.9206 69.2402C55.9206 66.274 53.7655 64.2444 51.2692 64.2444C48.7728 64.2444 46.6178 66.274 46.6178 69.2402C46.6178 72.1773 48.7728 74.2361 51.2692 74.2361C53.7704 74.2361 55.9206 72.1773 55.9206 69.2402Z" fill="white"/>
<path d="M77.5384 69.2402C77.5384 73.9873 73.8231 77.4805 69.2692 77.4805C64.7153 77.4805 61 73.9824 61 69.2402C61 64.4639 64.7153 61 69.2692 61C73.828 61 77.5384 64.4639 77.5384 69.2402ZM73.9206 69.2402C73.9206 66.274 71.7655 64.2444 69.2692 64.2444C66.7728 64.2444 64.6178 66.274 64.6178 69.2402C64.6178 72.1773 66.7728 74.2361 69.2692 74.2361C71.7704 74.2361 73.9206 72.1773 73.9206 69.2402Z" fill="white"/>
<path d="M94.7924 61.4976V76.2949C94.7924 82.3836 91.2039 84.8816 86.962 84.8816C82.9688 84.8816 80.5651 82.1983 79.6631 80.0126L82.8128 78.7002C83.3735 80.0418 84.7484 81.6372 86.962 81.6372C89.6778 81.6372 91.3599 79.9491 91.3599 76.7975V75.6119H91.2331C90.4237 76.6121 88.8635 77.4854 86.8937 77.4854C82.7738 77.4854 79 73.8946 79 69.2744C79 64.62 82.7738 61 86.8937 61C88.8587 61 90.4189 61.8733 91.2331 62.8442H91.3599V61.5025H94.7924V61.4976ZM91.6085 69.2744C91.6085 66.3715 89.6729 64.2493 87.2107 64.2493C84.7143 64.2493 82.6226 66.3715 82.6226 69.2744C82.6226 72.148 84.7143 74.2361 87.2107 74.2361C89.6729 74.2361 91.6085 72.1431 91.6085 69.2744Z" fill="white"/>
<path d="M101.618 53V77.228H98V53H101.618Z" fill="white"/>
<path d="M115.233 71.9528L118.042 73.8263C117.135 75.1679 114.95 77.4805 111.177 77.4805C106.496 77.4805 103 73.8604 103 69.2402C103 64.3371 106.525 61 110.767 61C115.043 61 117.13 64.4054 117.817 66.2447L118.193 67.1814L107.178 71.7382C108.022 73.3921 109.334 74.2361 111.172 74.2361C113.01 74.2361 114.297 73.3238 115.233 71.9528ZM106.589 68.9865L113.951 65.9276C113.546 64.8981 112.327 64.181 110.894 64.181C109.051 64.1761 106.496 65.8007 106.589 68.9865Z" fill="white"/>
</g>
<defs>
<clipPath id="clip0_720_22109">
<rect width="101" height="33" fill="white" transform="translate(17 52)"/>
</clipPath>
</defs>
</svg>
