<?xml version="1.0" encoding="UTF-8"?><svg width="136" height="136" viewBox="0 0 136 136" fill="none" xmlns="http://www.w3.org/2000/svg">
<mask id="mask0_720_22136" style="mask-type:luminance" maskUnits="userSpaceOnUse" x="9" y="42" width="117" height="52">
<path d="M125.174 42H9V94H125.174V42Z" fill="white"/>
</mask>
<g mask="url(#mask0_720_22136)">
<path d="M34.6667 59C29.9 59 26 62.9 26 67.6667C26 72.4333 29.9 76.3333 34.6667 76.3333C39.4333 76.3333 43.3333 72.4574 43.3333 67.6667C43.3333 62.8759 39.4574 59 34.6667 59ZM34.6667 73.2278C31.7056 73.2278 29.3222 70.7963 29.3222 67.6667C29.3222 64.537 31.7056 62.1055 34.6667 62.1055C37.6278 62.1055 40.0111 64.537 40.0111 67.6667C40.0111 70.7963 37.6278 73.2278 34.6667 73.2278Z" fill="white"/>
<path d="M52.0056 64C50.4408 64 48.9241 64.6259 48.1296 65.6852V64.2407H45V81.0926H48.1296V75.0019C48.9241 75.9889 50.3926 76.5186 52.0056 76.5186C55.3759 76.5186 58.0241 73.8704 58.0241 70.2593C58.0241 66.6482 55.3759 64 52.0056 64ZM51.4759 73.7982C49.6945 73.7982 48.1056 72.4019 48.1056 70.2593C48.1056 68.1167 49.6945 66.7204 51.4759 66.7204C53.2575 66.7204 54.8463 68.1167 54.8463 70.2593C54.8463 72.4019 53.2575 73.7982 51.4759 73.7982Z" fill="white"/>
<path d="M65.1148 64C61.6963 64 59 66.6722 59 70.2593C59 73.8463 61.3593 76.5186 65.2111 76.5186C68.3648 76.5186 70.387 74.6167 71.013 72.4741H67.9556C67.5704 73.3649 66.487 73.9907 65.187 73.9907C63.5741 73.9907 62.3463 72.8593 62.0574 71.2463H71.1574V70.0186C71.1574 66.7444 68.8704 64 65.1148 64ZM62.0814 69.0315C62.4186 67.5149 63.6704 66.5278 65.187 66.5278C66.8 66.5278 68.0278 67.587 68.1722 69.0315H62.0814Z" fill="white"/>
<path d="M79.6686 64C78.2722 64 76.8037 64.6259 76.1296 65.6611V64.2407H73V76.2778H76.1296V69.8019C76.1296 67.9241 77.1407 66.6963 78.7778 66.6963C80.2944 66.6963 81.1128 67.8519 81.1128 69.4649V76.2778H84.2425V68.9593C84.2425 65.9741 82.4128 64 79.6686 64Z" fill="white"/>
<path d="M92.813 59L86 75.8519H89.3464L90.7906 72.1686H98.5428L99.987 75.8519H103.381L96.6167 59H92.813ZM91.8739 69.3759L94.6667 62.3222L97.4348 69.3759H91.8739Z" fill="white"/>
<path d="M107.178 59H104V75.8519H107.178V59Z" fill="white"/>
</g>
</svg>
