<?xml version="1.0" encoding="UTF-8"?><svg width="32" height="32" viewBox="0 0 32 32" fill="none" xmlns="http://www.w3.org/2000/svg">
<g clip-path="url(#clip0_39450_7281)">
<path d="M8.0245 2.58531C8.62536 2.78985 9.16797 3.064 9.6353 3.40065C9.82848 3.53985 10.0515 3.60662 10.2717 3.60662C10.6112 3.60662 10.945 3.44895 11.158 3.1535C11.5103 2.66486 11.3995 1.98304 10.9109 1.63076C10.2674 1.16627 9.53162 0.792698 8.72622 0.519971C8.1552 0.322531 7.53588 0.630763 7.3427 1.20179C7.1481 1.77281 7.4549 2.39213 8.0245 2.58531Z" fill="#222222"/>
<path d="M11.3324 5.77394C11.4531 6.19155 11.5142 6.61626 11.5142 7.02819C11.5128 7.1816 11.5057 7.33359 11.4915 7.48416C11.4361 8.08502 11.8764 8.61626 12.4758 8.67308C12.5113 8.67592 12.5454 8.67734 12.5795 8.67734C13.1363 8.67734 13.6108 8.25404 13.6648 7.6887C13.6846 7.47564 13.6946 7.26114 13.696 7.03672C13.696 6.41171 13.6065 5.78246 13.429 5.16882C13.2613 4.59069 12.6605 4.25546 12.0781 4.42307C11.4986 4.59068 11.1648 5.19581 11.3324 5.77394Z" fill="#222222"/>
<path d="M10.3605 10.425C10.0295 10.9363 9.6375 11.4534 9.16022 12.0059C8.76675 12.4633 8.81789 13.1522 9.27385 13.5457C9.48124 13.7233 9.73408 13.8099 9.98691 13.8099C10.2923 13.8099 10.5977 13.6821 10.8136 13.432C11.3562 12.8014 11.8079 12.2048 12.1929 11.6068C12.5196 11.1011 12.3747 10.4264 11.8676 10.0997C11.3619 9.77154 10.6872 9.91929 10.3605 10.425Z" fill="#222222"/>
<path d="M3.58954 2.29558C3.64352 2.29558 3.6975 2.29132 3.75147 2.28422C4.08954 2.23308 4.42051 2.20041 4.74438 2.18196C5.34523 2.14786 5.80545 1.63366 5.77278 1.03138C5.73728 0.429111 5.1975 -0.0495795 4.62221 0.00297327C4.233 0.0242824 3.8367 0.0654751 3.43044 0.125126C2.83385 0.21461 2.42334 0.770013 2.5114 1.36518C2.59236 1.90638 3.0583 2.29558 3.58954 2.29558Z" fill="#222222"/>
<path d="M2.44431 26.605C2.43969 26.5904 2.44288 26.5757 2.43756 26.5613C2.27456 26.1188 2.1936 25.6 2.18791 24.9052C2.26106 22.1497 4.35091 19.9555 6.62577 17.6616C6.63324 17.6545 6.64353 17.6524 6.65063 17.6451L7.47591 16.8198C7.68188 16.6124 7.91199 16.3894 8.15631 16.1536C8.58954 15.736 8.6009 15.0457 8.18188 14.611C7.76569 14.1792 7.07249 14.1678 6.63926 14.5854C6.38358 14.8326 6.14495 15.0641 5.92903 15.2815L5.83457 15.3758C5.82001 15.3891 5.80119 15.3937 5.787 15.4079L5.30688 15.8923C4.36867 16.8369 3.42122 17.7948 2.58919 18.8106C2.56185 18.8376 2.52634 18.8518 2.50148 18.8823C1.96313 19.5428 1.52847 20.1636 1.1762 20.7801C1.14566 20.833 1.1414 20.8912 1.1208 20.9466C0.461353 22.1426 0.029891 23.4395 0.00148371 24.9022C0.00113462 24.9226 0.00574553 24.9409 0.00574553 24.9612C0.00539644 24.9683 0.00148371 24.9747 0.00148371 24.9818C0.00148371 25.1505 0.029891 25.3046 0.0405528 25.4683C0.128975 27.0531 0.68544 28.4249 1.68899 29.3497C2.18687 29.8078 2.77244 30.1261 3.39105 30.3234C3.37827 29.9555 3.39852 29.5851 3.48871 29.2161L3.52848 29.0542C3.54127 29.0002 3.55972 28.9477 3.58103 28.8965L3.87401 28.1895C3.62116 28.084 3.37933 27.9397 3.16768 27.7445C2.912 27.5089 2.64032 27.1341 2.44431 26.605Z" fill="#222222"/>
<path d="M31.4257 9.62804L27.5848 5.75305C27.1544 5.37236 26.6175 5.18061 26.0294 5.2218C25.457 5.26016 24.9343 5.52151 24.6076 5.90505L9.22688 21.5258L9.22262 21.53C8.96267 21.7957 8.75812 22.1053 8.61182 22.4547L5.66011 29.5769C5.6388 29.628 5.62035 29.6806 5.60756 29.7346C5.45272 30.3709 5.63313 31.0215 6.09335 31.4775C6.4371 31.8184 6.88739 32.0002 7.35613 32.0002C7.50528 32.0002 7.65726 31.9817 7.80784 31.9434C7.86039 31.9306 7.91153 31.9136 7.96125 31.8922L15.0081 28.9377C15.3661 28.7871 15.6857 28.5712 15.957 28.2942L31.2837 12.7019C32.153 11.9221 32.2382 10.5684 31.4257 9.62804ZM11.8117 21.9984L22.7553 10.7582L26.4506 14.5089L15.4524 25.6943L11.8117 21.9984ZM10.4478 23.7225L13.7674 27.0922L10.076 28.6403L8.90339 27.4489L10.4478 23.7225ZM27.9804 12.9531L24.2773 9.19481L26.0863 7.33686L29.7766 11.1266L27.9804 12.9531Z" fill="#222222"/>
</g>
<defs>
<clipPath id="clip0_39450_7281">
<rect width="32" height="32" fill="white"/>
</clipPath>
</defs>
</svg>
