<?xml version="1.0" encoding="UTF-8"?><svg width="31" height="31" viewBox="0 0 31 31" fill="none" xmlns="http://www.w3.org/2000/svg">
<path d="M17.3758 20.4111V23.0166C17.3758 23.5346 16.9559 23.9545 16.4379 23.9545H14.562C14.044 23.9545 13.6241 23.5346 13.6241 23.0166V20.4111C12.7545 19.6333 12.4551 18.3996 12.8714 17.3097C13.2877 16.2199 14.3333 15.5 15.5 15.5C16.6666 15.5 17.7122 16.2199 18.1285 17.3097C18.5448 18.3996 18.2454 19.6333 17.3758 20.4111Z" fill="#222222"/>
<path d="M27.4774 8.4545H23.8316C23.2213 3.22098 20.2641 0.26416 15.5002 0.26416C10.7362 0.26416 7.77908 3.22098 7.16879 8.4545H3.5229C3.13347 8.4545 2.81836 8.76997 2.81836 9.15905V28.8863C2.81836 29.2754 3.13347 29.5909 3.5229 29.5909H27.4774C27.8669 29.5909 28.182 29.2754 28.182 28.8863V9.15905C28.182 8.76997 27.8669 8.4545 27.4774 8.4545ZM15.5002 2.3778C19.1185 2.3778 21.1916 4.429 21.7049 8.4545H9.2955C9.80877 4.429 11.8818 2.3778 15.5002 2.3778ZM26.0684 27.4772H4.932V10.5681H26.0684V27.4772Z" fill="#222222"/>
</svg>
