<?xml version="1.0" encoding="UTF-8"?>
<svg xmlns="http://www.w3.org/2000/svg" xmlns:xlink="http://www.w3.org/1999/xlink" width="115.14" height="92.74" viewBox="0 0 115.14 92.74">
  <defs>
    <clipPath id="clip-_1-Photo_ICON">
      <rect width="115.14" height="92.74"/>
    </clipPath>
  </defs>
  <g id="_1-Photo_ICON" data-name="1-Photo ICON" clip-path="url(#clip-_1-Photo_ICON)">
    <rect width="115.14" height="92.74" fill="rgba(255,255,255,0)"/>
    <g id="Group_307814" data-name="Group 307814" transform="translate(0.002)">
      <path id="Path_356459" data-name="Path 356459" d="M27.4,6A21.4,21.4,0,1,0,48.8,27.4,21.4,21.4,0,0,0,27.4,6Z" transform="translate(30.167 23.003)" fill="#0188c3"/>
      <path id="Path_356460" data-name="Path 356460" d="M112.54,16.268H90.772L78.718,3.163A3.612,3.612,0,0,0,76.052,2H41.086a3.612,3.612,0,0,0-2.659,1.163l-12.061,13.1H4.6A3.583,3.583,0,0,0,1,19.835V91.173A3.583,3.583,0,0,0,4.6,94.74H112.54a3.583,3.583,0,0,0,3.6-3.567V19.835A3.583,3.583,0,0,0,112.54,16.268ZM58.569,81.186a29.25,29.25,0,1,1,29.5-29.249A29.377,29.377,0,0,1,58.569,81.186Z" transform="translate(-1 -2)" fill="#0188c3"/>
    </g>
  </g>
</svg>
