<?xml version="1.0" encoding="UTF-8"?>
<svg xmlns="http://www.w3.org/2000/svg" xmlns:xlink="http://www.w3.org/1999/xlink" width="98.18" height="98.18" viewBox="0 0 98.18 98.18">
  <defs>
    <clipPath id="clip-_2-Video_ICON">
      <rect width="98.18" height="98.18"/>
    </clipPath>
  </defs>
  <g id="_2-Video_ICON" data-name="2-Video ICON" clip-path="url(#clip-_2-Video_ICON)">
    <rect width="98.18" height="98.18" fill="rgba(255,255,255,0)"/>
    <path id="Path_83018" data-name="Path 83018" d="M96.671,2H5.506A3.313,3.313,0,0,0,2,5.506V96.671a3.313,3.313,0,0,0,3.506,3.506H96.671a3.313,3.313,0,0,0,3.506-3.506V5.506A3.313,3.313,0,0,0,96.671,2ZM23.038,91.762a1.508,1.508,0,0,1-1.4,1.4H10.415a1.508,1.508,0,0,1-1.4-1.4V81.243c0-1.4.7-2.1,1.4-2.1H20.934c1.4,0,2.1.7,2.1,1.4Zm0-23.843a1.508,1.508,0,0,1-1.4,1.4H10.415a1.508,1.508,0,0,1-1.4-1.4V57.4a1.508,1.508,0,0,1,1.4-1.4H20.934c1.4-.7,2.1.7,2.1,1.4Zm0-23.142a1.508,1.508,0,0,1-1.4,1.4H10.415c-.7.7-1.4-.7-1.4-1.4V34.258a1.508,1.508,0,0,1,1.4-1.4H20.934c1.4,0,2.1.7,2.1,1.4Zm0-23.142a1.508,1.508,0,0,1-1.4,1.4H10.415a1.508,1.508,0,0,1-1.4-1.4V10.415a1.508,1.508,0,0,1,1.4-1.4H20.934c1.4,0,2.1.7,2.1,1.4ZM72.127,93.165H30.051V58.1H72.127Zm0-49.089H30.051V9.013H72.127ZM93.165,91.762a1.508,1.508,0,0,1-1.4,1.4H81.243a1.508,1.508,0,0,1-1.4-1.4V81.243a1.508,1.508,0,0,1,1.4-1.4H91.762a1.508,1.508,0,0,1,1.4,1.4Zm0-23.843a1.508,1.508,0,0,1-1.4,1.4H81.243a1.508,1.508,0,0,1-1.4-1.4V57.4a1.508,1.508,0,0,1,1.4-1.4H91.762a1.508,1.508,0,0,1,1.4,1.4Zm0-23.142a1.508,1.508,0,0,1-1.4,1.4H81.243a1.508,1.508,0,0,1-1.4-1.4V34.258a1.508,1.508,0,0,1,1.4-1.4H91.762a1.508,1.508,0,0,1,1.4,1.4Zm0-23.142a1.508,1.508,0,0,1-1.4,1.4H81.243c-1.4,0-2.1-.7-2.1-1.4V10.415a1.508,1.508,0,0,1,1.4-1.4H91.061c1.4,0,2.1.7,2.1,1.4Z" transform="translate(-2 -1.998)" fill="#6c60b9"/>
  </g>
</svg>
