<?xml version="1.0" encoding="UTF-8"?>
<svg xmlns="http://www.w3.org/2000/svg" xmlns:xlink="http://www.w3.org/1999/xlink" width="108.12" height="109.92" viewBox="0 0 108.12 109.92">
  <defs>
    <clipPath id="clip-_4-Illustration_ICON">
      <rect width="108.12" height="109.92"/>
    </clipPath>
  </defs>
  <g id="_4-Illustration_ICON" data-name="4-Illustration ICON" clip-path="url(#clip-_4-Illustration_ICON)">
    <rect width="108.12" height="109.92" fill="rgba(255,255,255,0)"/>
    <g id="Group_307815" data-name="Group 307815" transform="translate(-54.399 -35.17)">
      <path id="Path_356463" data-name="Path 356463" d="M35.942,10.74A16.247,16.247,0,0,0,22.092,14.7a42.705,42.705,0,0,0-8.845,15.788A18.553,18.553,0,0,1,2.155,46.244a1.981,1.981,0,0,0-1.126,2.351,2.971,2.971,0,0,0,2.129,2.172c1.931.482,4.137.938,6.527,1.321,8.607,1.35,24.7,2.436,35.676-5.454a22.738,22.738,0,0,0,9.317-15.009A22.493,22.493,0,0,0,35.942,10.74Z" transform="translate(53.443 91.633)" fill="#e67b0f"/>
      <path id="Path_356464" data-name="Path 356464" d="M25.414,74.446C49.3,47.285,79.632,9.951,71.688,2.008S30.849,31.117,7.19,57.047a33.183,33.183,0,0,1,18.224,17.4Z" transform="translate(89.544 33.836)" fill="#e67b0f"/>
    </g>
  </g>
</svg>
