<?xml version="1.0" encoding="UTF-8"?>
<svg xmlns="http://www.w3.org/2000/svg" xmlns:xlink="http://www.w3.org/1999/xlink" width="107.24" height="104.48" viewBox="0 0 107.24 104.48">
  <defs>
    <clipPath id="clip-_5-PDF_ICON">
      <rect width="107.24" height="104.48"/>
    </clipPath>
  </defs>
  <g id="_5-PDF_ICON" data-name="5-PDF ICON" clip-path="url(#clip-_5-PDF_ICON)">
    <rect width="107.24" height="104.48" fill="rgba(255,255,255,0)"/>
    <path id="Path_356517" data-name="Path 356517" d="M105.291,67.032c-3.137-3.415-9.69-5.2-18.9-5.2a104.773,104.773,0,0,0-16.877,1.549A82.588,82.588,0,0,1,59.266,51.545a110.9,110.9,0,0,1-6.354-9.968c3.574-11.119,5.361-20.054,5.361-26.567C58.312,7.744,55.572,0,47.908,0a7.24,7.24,0,0,0-6,3.574c-3.534,6.116-1.827,19.617,4.17,32.921C43.9,43.087,41.515,49.48,38.536,56.588a179.8,179.8,0,0,1-8.617,17.83C12.406,81.408,1.208,89.429.016,95.863a6.682,6.682,0,0,0,2.144,6.274,9.819,9.819,0,0,0,6.711,2.343c11.6,0,23.747-18.625,30.022-29.9,4.726-1.628,9.531-3.1,14.3-4.368,5.321-1.39,10.444-2.542,15.289-3.375C80.71,77.794,91.511,79.462,96.872,79.462c6.592,0,8.975-2.7,9.809-4.924A7.517,7.517,0,0,0,105.291,67.032Zm-6.235,4.606c-.477,2.422-2.9,4.011-6.235,4.011a12.83,12.83,0,0,1-2.7-.318,42.823,42.823,0,0,1-17.473-9.173,84.213,84.213,0,0,1,13.383-1.112,44.124,44.124,0,0,1,8.141.635C96.356,66.079,99.89,67.469,99.056,71.639Zm-33.6-7.545c-4.17.794-8.578,1.787-13.065,3.018-3.693.993-7.466,2.1-11.238,3.336,2.025-3.892,3.852-7.823,5.361-11.477,1.866-4.487,3.534-8.975,5.043-13.3,1.628,2.74,3.336,5.361,5.083,7.783A89.044,89.044,0,0,0,65.58,64.094ZM44.731,5.2a3.628,3.628,0,0,1,3.1-1.946c3.3,0,4.011,3.733,4.011,6.87,0,5-1.509,12.827-4.209,21.682C42.706,19.5,42.428,9.213,44.731,5.2ZM27.3,79.065c-8.022,13.343-15.845,21.563-20.61,21.563a3.219,3.219,0,0,1-2.3-.834,3.443,3.443,0,0,1-1.152-3.3C4.146,91.693,13.32,85.1,27.3,79.065Z" transform="translate(0.101)" fill="#e20020"/>
  </g>
</svg>
