<?xml version="1.0" encoding="UTF-8"?><svg width="40" height="40" viewBox="0 0 40 40" fill="none" xmlns="http://www.w3.org/2000/svg">
<g clip-path="url(#clip0_39450_7565)">
<path d="M36.3637 20.6547V8.83918C37.9471 8.27433 39.091 6.77464 39.091 4.99997C39.091 2.745 37.2551 0.909058 35.0001 0.909058C33.2254 0.909058 31.7259 2.05297 31.1609 3.63633H8.83976C8.27469 2.05297 6.77478 0.909058 5.00009 0.909058C2.74513 0.909058 0.90918 2.745 0.90918 4.99997C0.90918 6.77464 2.05309 8.27411 3.63645 8.83918V31.1605C2.05309 31.7256 0.90918 33.2253 0.90918 35C0.90918 37.2549 2.74513 39.0909 5.00009 39.0909C6.77476 39.0909 8.27423 37.9469 8.83976 36.3636H20.3241C22.5205 38.2863 25.4183 39.5223 28.3684 39.5223H36.8804C38.3364 39.5223 39.5225 38.3469 39.5225 36.9016V28.5795C39.5225 25.547 38.3102 22.7521 36.3637 20.6547ZM28.3683 36.7951C24.1656 36.7951 19.9362 33.4517 19.3183 29.6413C18.8815 26.9371 19.7409 24.2684 21.6798 22.3206C23.3666 20.6267 25.6091 19.7123 27.9901 19.7123C28.4784 19.7123 28.972 19.7514 29.4692 19.8295C33.6453 20.4847 36.7952 24.2471 36.7952 28.5795L36.8804 36.795L28.3683 36.7951ZM3.63645 35C3.63645 34.2489 4.24902 33.6363 5.00009 33.6363C5.75116 33.6363 6.36373 34.2489 6.36373 35C6.36373 35.751 5.75116 36.3636 5.00009 36.3636C4.24902 36.3636 3.63645 35.751 3.63645 35ZM6.36373 31.1605V8.83918C7.51873 8.42726 8.42738 7.51838 8.83976 6.3636H31.1609C31.5728 7.51838 32.4815 8.42726 33.6365 8.83918V18.4548C32.4952 17.806 31.2359 17.3455 29.8918 17.1342C26.1205 16.5394 22.4042 17.7255 19.748 20.3959C17.184 22.9705 16.0477 26.5003 16.6265 30.0781C16.8289 31.3294 17.307 32.5315 17.9893 33.6363H8.83974C8.42736 32.4816 7.51874 31.5727 6.36373 31.1605ZM5.00009 3.63633C5.75116 3.63633 6.36373 4.24889 6.36373 4.99997C6.36373 5.75104 5.75116 6.3636 5.00009 6.3636C4.24902 6.3636 3.63645 5.75104 3.63645 4.99997C3.63645 4.24889 4.24902 3.63633 5.00009 3.63633ZM36.3637 4.99997C36.3637 5.75104 35.7512 6.3636 35.0001 6.3636C34.249 6.3636 33.6365 5.75104 33.6365 4.99997C33.6365 4.24889 34.249 3.63633 35.0001 3.63633C35.7512 3.63633 36.3637 4.24889 36.3637 4.99997Z" fill="#3DA74E"/>
<path d="M31.818 24.5454H24.5453C24.0432 24.5454 23.6362 24.9524 23.6362 25.4545V26.3636C23.6362 26.8657 24.0432 27.2727 24.5453 27.2727H31.818C32.3201 27.2727 32.7271 26.8657 32.7271 26.3636V25.4545C32.7271 24.9524 32.3201 24.5454 31.818 24.5454Z" fill="#3DA74E"/>
<path d="M29.9999 30H24.5453C24.0432 30 23.6362 30.407 23.6362 30.9091V31.8182C23.6362 32.3203 24.0432 32.7273 24.5453 32.7273H29.9999C30.5019 32.7273 30.909 32.3203 30.909 31.8182V30.9091C30.909 30.407 30.5019 30 29.9999 30Z" fill="#3DA74E"/>
</g>
<defs>
<clipPath id="clip0_39450_7565">
<rect width="40" height="40" fill="white"/>
</clipPath>
</defs>
</svg>
