<?xml version="1.0" encoding="UTF-8"?>
<svg id="uuid-e07e6cdc-e679-4239-8bf0-57950f10a912" data-name="illustrations" xmlns="http://www.w3.org/2000/svg" width="45" height="45" viewBox="0 0 45 45">
  <path d="m30.62271,8.03231c.39209,0,.74414.05371,1.05664.16113.31299.10742.57422.25879.78418.45508s.37109.42676.48291.69336c.1123.26562.16797.55273.16797.86035,0,.42969-.08154.79395-.24463,1.09277-.16357.29883-.3667.56934-.60938.81152-.27051.27051-.50879.52051-.71387.74902-.20557.22852-.30811.4502-.30811.66504,0,.2334.07471.49023.22412.76953.05615.0752.03711.1123-.05615.1123h-1.17578c-.02783,0-.05371-.00195-.07715-.00684s-.05371-.02148-.09082-.04883c-.13086-.15918-.21924-.32715-.26611-.50391-.04688-.17773-.06982-.33594-.06982-.47656,0-.32617.0957-.61621.28711-.86816.19092-.25195.44092-.54102.74854-.86719.21484-.22461.38525-.42773.51123-.60938s.18896-.37988.18896-.59473c0-.24316-.08643-.44824-.25879-.61621-.17285-.16797-.46924-.25195-.88916-.25195-.33594,0-.63965.04395-.91016.13281s-.51807.19824-.7417.3291c-.02832.01855-.0542.01855-.07715,0-.02344-.01855-.03516-.04199-.03516-.07031v-1.30176c0-.07422.01855-.12109.05615-.13965.15869-.09375.40576-.19629.74219-.30859.33594-.11133.76025-.16797,1.27393-.16797Zm.12598,9.4082c-.271,0-.49512-.08203-.67188-.24512-.17773-.16309-.26611-.39453-.26611-.69238,0-.29004.08838-.51855.26611-.68652.17676-.16797.40088-.25195.67188-.25195.27979,0,.50586.08887.67871.26562.17285.17773.25928.40137.25928.67285,0,.28906-.08203.51758-.24512.68555-.16357.16797-.39453.25195-.69287.25195Z" fill="var(--iconAcrobatRed, #fa0f00)" stroke-width="0"/>
  <path d="m18.7959,42.09814c-.29883,0-.56299-.11865-.75-.32568l-5.05713-5.02246h-6.7959c-.75195.01416-1.55029-.32275-2.10449-.91162-.54199-.57715-.84717-1.37158-.83838-2.18018l-.00879-11.31836c-.00195-.81885.30029-1.59082.85107-2.17334.56689-.59814,1.33447-.9209,2.08398-.9165l16.59277.02441c.78516-.02881,1.55811.32129,2.11621.90527.55469.58105.86133,1.354.86475,2.17578v11.42969c.00342.76904-.25244,1.50049-.71924,2.05615-.49463.58643-1.20166.90967-1.90332.9082l-3.37744-.00342v4.31885c.00732.55225-.40723,1.01025-.94385,1.0332h-.01025Zm-.5459-1.03418v.01074-.01074Zm.85596-.35107l.02441.02393c-.00732-.0083-.01562-.01611-.02441-.02393Zm-5.80811-5.46289h.30908l4.64307,4.61279v-4.61768l4.8877.00439c.28027-.00488.53906-.12988.74512-.37402.23486-.2793.36865-.67578.36719-1.0874v-11.42969c-.00146-.42725-.16553-.84521-.44971-1.14307-.27686-.28906-.62988-.42773-1.01855-.44092l-16.61377-.02441h-.0127c-.45508,0-.77979.24268-.97314.44727-.28125.29736-.44189.71289-.44092,1.14014l.00879,11.32861c-.00488.43408.15234.84814.43164,1.14551.27002.2876.59521.44336,1.00195.43848h7.11426Z" fill="var(--iconFillMedium, #909090)" stroke-width="0"/>
  <path d="m28.17627,25.69678c-.19238,0-.38477-.07373-.53125-.2207-.29248-.29297-.2915-.76807.00195-1.06055l3.95898-3.94678c.14014-.14014.33057-.21875.5293-.21875h6.67188c.36377-.01855.74121-.15088,1.01172-.43896.27881-.29688.43604-.71094.43115-1.13623l.00879-11.33594c.00098-.42871-.15967-.84473-.44092-1.14209-.19336-.2041-.51807-.44678-.9668-.44678h-.0127l-16.60986.02441c-.4126.01758-.75244.15234-1.02881.44141-.28418.29736-.44824.71533-.44971,1.14551v9.63867c0,.41406-.33594.75-.75.75s-.75-.33594-.75-.75V7.3584c.00342-.82471.31006-1.59766.86475-2.17822.55957-.58496,1.33398-.9082,2.12207-.90576l16.59326-.02441c.74023-.01807,1.51123.31738,2.07764.91602.55078.58301.85303,1.35498.85107,2.17529l-.00879,11.32568c.00879.7998-.29639,1.59424-.83789,2.1709-.5542.58936-1.31494.93066-2.11426.91211h-6.35254l-3.73975,3.72803c-.146.146-.33789.21875-.5293.21875Z" fill="var(--iconFillMedium, #909090)" stroke-width="0"/>
  <path d="m19.9165,30.25c-.96484,0-1.75-.78516-1.75-1.75s.78516-1.75,1.75-1.75,1.75.78516,1.75,1.75-.78516,1.75-1.75,1.75Zm0-2.5c-.41357,0-.75.33643-.75.75s.33643.75.75.75.75-.33643.75-.75-.33643-.75-.75-.75Z" fill="var(--iconAcrobatRed, #fa0f00)" stroke-width="0"/>
  <path d="m14.5,30.25c-.96484,0-1.75-.78516-1.75-1.75s.78516-1.75,1.75-1.75,1.75.78516,1.75,1.75-.78516,1.75-1.75,1.75Zm0-2.5c-.41357,0-.75.33643-.75.75s.33643.75.75.75.75-.33643.75-.75-.33643-.75-.75-.75Z" fill="var(--iconAcrobatRed, #fa0f00)" stroke-width="0"/>
  <path d="m8.8335,30.25c-.96484,0-1.75-.78516-1.75-1.75s.78516-1.75,1.75-1.75,1.75.78516,1.75,1.75-.78516,1.75-1.75,1.75Zm0-2.5c-.41357,0-.75.33643-.75.75s.33643.75.75.75.75-.33643.75-.75-.33643-.75-.75-.75Z" fill="var(--iconAcrobatRed, #fa0f00)" stroke-width="0"/>
  <g>
    <path d="m12,11.75h-.75c-.41406,0-.75-.33594-.75-.75s.33594-.75.75-.75h.75c.41406,0,.75.33594.75.75s-.33594.75-.75.75Z" fill="var(--iconFillMedium, #909090)" stroke-width="0"/>
    <path d="m8.75,11.75h-.75c-.41406,0-.75-.33594-.75-.75s.33594-.75.75-.75h.75c.41406,0,.75.33594.75.75s-.33594.75-.75.75Z" fill="var(--iconFillMedium, #909090)" stroke-width="0"/>
    <path d="m10,10.5c-.41406,0-.75-.33594-.75-.75v-.75c0-.41406.33594-.75.75-.75s.75.33594.75.75v.75c0,.41406-.33594.75-.75.75Z" fill="var(--iconFillMedium, #909090)" stroke-width="0"/>
    <path d="m10,13.75c-.41406,0-.75-.33594-.75-.75v-.75c0-.41406.33594-.75.75-.75s.75.33594.75.75v.75c0,.41406-.33594.75-.75.75Z" fill="var(--iconFillMedium, #909090)" stroke-width="0"/>
  </g>
  <g>
    <path d="m39.25,32.75h-.75c-.41406,0-.75-.33594-.75-.75s.33594-.75.75-.75h.75c.41406,0,.75.33594.75.75s-.33594.75-.75.75Z" fill="var(--iconFillMedium, #909090)" stroke-width="0"/>
    <path d="m35.5,32.75h-.75c-.41406,0-.75-.33594-.75-.75s.33594-.75.75-.75h.75c.41406,0,.75.33594.75.75s-.33594.75-.75.75Z" fill="var(--iconFillMedium, #909090)" stroke-width="0"/>
    <path d="m37,31.25c-.41406,0-.75-.33594-.75-.75v-.75c0-.41406.33594-.75.75-.75s.75.33594.75.75v.75c0,.41406-.33594.75-.75.75Z" fill="var(--iconFillMedium, #909090)" stroke-width="0"/>
    <path d="m37,35c-.41406,0-.75-.33594-.75-.75v-.75c0-.41406.33594-.75.75-.75s.75.33594.75.75v.75c0,.41406-.33594.75-.75.75Z" fill="var(--iconFillMedium, #909090)" stroke-width="0"/>
  </g>
</svg>