<?xml version="1.0" encoding="UTF-8"?><svg width="84" height="83" viewBox="0 0 84 83" fill="none" xmlns="http://www.w3.org/2000/svg">
<g clip-path="url(#clip0_1021_15123)">
<path d="M12.0349 43.2832C11.5062 43.2814 10.9962 43.0874 10.5999 42.7375C10.1849 42.3504 9.9984 41.7769 10.1062 41.2197C10.3759 39.7518 12.6897 38.0158 16.457 36.4548C17.1181 35.216 17.7119 33.9425 18.2357 32.6398C18.8178 31.1899 19.3146 29.8214 19.8009 28.336C18.5332 25.4265 18.1814 22.4491 18.9468 21.0825C19.2281 20.5764 19.7536 20.2541 20.3323 20.2327C22.0604 20.2327 22.6776 21.9945 22.6776 23.644C22.5795 25.6091 22.2045 27.5504 21.5636 29.4107C21.9577 30.1316 22.3903 30.8307 22.8597 31.5051C23.4761 32.4008 24.1749 33.2369 24.947 34.0025C26.1057 33.8016 27.2786 33.6936 28.4545 33.6796C29.9208 33.5102 31.3941 33.9334 32.547 34.8551C32.8235 35.1904 32.9729 35.6126 32.9686 36.0473C32.9705 36.2532 32.936 36.4578 32.8667 36.6518C32.6711 37.1865 32.131 37.8246 30.6628 37.8259C28.3789 37.7088 26.2237 36.7327 24.6292 35.0935C23.6571 35.2698 22.6017 35.5126 21.4902 35.8161C20.4872 36.0919 19.4954 36.4044 18.5425 36.7435C17.2063 39.2048 14.6166 43.2787 12.1145 43.28L12.0349 43.2832ZM11.0697 41.4122C11.0628 41.451 11.0599 41.4904 11.0611 41.5298C11.0616 41.8508 11.3173 42.1131 11.6381 42.122C12.5497 42.1213 14.0513 40.5268 15.6146 37.9344C12.9681 39.1667 11.2388 40.4848 11.0697 41.4122ZM29.2785 36.6149C29.4526 36.6575 29.6312 36.6791 29.8105 36.6795C30.4369 36.6795 30.8949 36.3863 30.977 35.9342C31.114 35.2019 30.5536 34.9209 30.0605 34.8137C28.6813 34.6162 27.2798 34.6345 25.9062 34.8679C26.8894 35.6892 28.0405 36.2854 29.2785 36.6149ZM20.1806 33.2714C19.9047 33.9625 19.5726 34.7071 19.2128 35.4421C19.901 35.216 20.5706 35.0159 21.2427 34.8324C22.0938 34.596 22.9369 34.3913 23.7504 34.2247L23.6615 34.1181C23.0856 33.4834 22.5516 32.8118 22.063 32.1076C21.7458 31.6517 21.4434 31.1854 21.1453 30.6797C20.8761 31.4735 20.5589 32.3246 20.1806 33.2714ZM19.7924 21.6018C19.3337 23.3479 19.4985 25.1993 20.2583 26.837C20.6771 25.453 20.929 24.024 21.0088 22.5803C21.0088 21.9796 20.8854 21.255 20.3133 21.2531C20.1218 21.2625 19.9456 21.3606 19.8368 21.5185L19.7924 21.6018Z" fill="#5C5CE0"/>
<path opacity="0.1" d="M34.414 46.6263C34.4142 42.8524 37.4735 39.7932 41.2474 39.793C41.272 39.793 41.2945 39.8 41.3191 39.8002V21.674C41.323 20.8267 40.9902 20.0124 40.3941 19.4103L32.3478 11.2567C31.7641 10.6596 30.9641 10.3234 30.129 10.3242H5.9567C3.7695 10.345 2.01183 12.1322 2.02745 14.3195V55.8705C2.01177 58.0578 3.76947 59.8451 5.9567 59.8659H34.414V46.6263Z" fill="#5C5CE0"/>
<path d="M49.2734 71.6541C48.7724 71.1547 47.9614 71.156 47.462 71.657C47.4619 71.6572 47.4622 71.6569 47.462 71.657L42.6002 76.5413V46.1992C42.6002 45.4916 42.0266 44.918 41.3189 44.918C40.6113 44.918 40.0377 45.4916 40.0377 46.1992V76.5298L35.1729 71.6874C34.6714 71.1884 33.8602 71.1905 33.3612 71.6921C32.8627 72.1932 32.8642 73.0033 33.3645 73.5025L40.4314 80.536C40.9324 81.0354 41.7434 81.0341 42.2427 80.5331C42.2426 80.5332 42.2429 80.5329 42.2427 80.5331L49.2767 73.4657C49.7761 72.9648 49.7744 72.1534 49.2734 71.6541C49.2735 71.6542 49.2733 71.6539 49.2734 71.6541Z" fill="#5C5CE0"/>
<path d="M80.5904 18.5017L72.5449 10.3496C71.7199 9.51358 70.5943 9.04299 69.4198 9.04297H45.2479C42.3535 9.06485 40.0229 11.4253 40.0378 14.3198V17.2241L33.2532 10.3495C32.4282 9.51353 31.3027 9.04297 30.1282 9.04297H5.95624C3.06183 9.06485 0.7312 11.4253 0.746165 14.3198V55.8703C0.7312 58.7648 3.06181 61.1253 5.95624 61.1471H34.6556V58.5846H5.95624C4.47646 58.5642 3.29227 57.3501 3.30867 55.8703V14.3198C3.29227 12.84 4.47646 11.6259 5.95624 11.6055H30.1282C30.6174 11.6055 31.0862 11.8015 31.4299 12.1497L39.4747 20.3012C39.8355 20.6668 40.0379 21.1599 40.0379 21.6736V39.915C40.8843 39.7474 41.7559 39.7524 42.6004 39.9295V14.3198C42.584 12.84 43.7681 11.6259 45.2479 11.6055H67.3712V20.5742C67.3712 22.2253 68.7096 23.5638 70.3607 23.5638H79.3295V55.8703C79.3459 57.3502 78.1617 58.5642 76.6819 58.5846H47.6536V61.1471H76.6819C79.5763 61.1253 81.907 58.7648 81.892 55.8703V21.6736C81.892 20.4863 81.4244 19.3468 80.5904 18.5017ZM70.3607 21.0013C70.1251 21.0009 69.9341 20.8099 69.9337 20.5742V11.7091C70.232 11.7884 70.5052 11.9422 70.7278 12.156L78.7756 20.3106C78.965 20.5076 79.1095 20.7432 79.1993 21.0013H70.3607Z" fill="#5C5CE0"/>
</g>
<defs>
<clipPath id="clip0_1021_15123">
<rect width="82" height="82" fill="white" transform="translate(0.318359 0.0742188)"/>
</clipPath>
</defs>
</svg>
