<?xml version="1.0" encoding="UTF-8"?><svg width="40" height="39" viewBox="0 0 40 39" fill="none" xmlns="http://www.w3.org/2000/svg">
<path opacity="0.1" d="M19.9524 1.5426C14.9774 1.5426 10.2882 3.43824 6.75537 6.95254C2.68031 11.0067 0.871316 16.5617 1.79253 22.1924C3.11203 30.2606 11.7577 37.0765 20.672 37.0765H36.7614C37.6634 37.0765 38.3971 36.3499 38.3971 35.4573V19.9199C38.3971 10.943 31.7925 3.14572 23.0333 1.78245C21.9996 1.62189 20.9699 1.5426 19.9524 1.5426Z" fill="#E8C600"/>
<path d="M36.7615 38.6178H20.672C11.0403 38.6178 1.69024 31.2089 0.256223 22.4392C-0.746073 16.3148 1.22102 10.2736 5.6518 5.86518C10.264 1.27812 16.6882 -0.767033 23.2746 0.26006C32.7837 1.73974 39.9538 10.1918 39.9538 19.9199V35.4573C39.9538 37.1999 38.5218 38.6178 36.7615 38.6178ZM19.9525 1.54255C14.9775 1.54255 10.2883 3.43819 6.75543 6.95249C2.68037 11.0067 0.87138 16.5616 1.79259 22.1923C3.11209 30.2606 11.7578 37.0764 20.672 37.0764H36.7615C37.6634 37.0764 38.3972 36.3499 38.3972 35.4573V19.9199C38.3972 10.943 31.7925 3.14567 23.0334 1.7824C21.9996 1.62184 20.97 1.54255 19.9525 1.54255Z" fill="#E8C600"/>
<path d="M28.7981 17.0383H12.1939C11.7642 17.0383 11.4155 16.6931 11.4155 16.2676C11.4155 15.8422 11.7642 15.4969 12.1939 15.4969H28.7981C29.2278 15.4969 29.5764 15.8422 29.5764 16.2676C29.5764 16.6931 29.2278 17.0383 28.7981 17.0383ZM24.3876 23.4608C24.3876 23.0353 24.039 22.6901 23.6093 22.6901H12.1939C11.7642 22.6901 11.4155 23.0353 11.4155 23.4608C11.4155 23.8863 11.7642 24.2315 12.1939 24.2315H23.6093C24.039 24.2315 24.3876 23.8863 24.3876 23.4608Z" fill="#E8C600"/>
</svg>
