<?xml version="1.0" encoding="UTF-8"?>
<svg id="uuid-20ce6889-ebbe-4d4b-ab58-215a822f3b64" data-name="illustrations" xmlns="http://www.w3.org/2000/svg" width="45" height="45" viewBox="0 0 45 45">
  <path d="m28,12.75h-12c-.41406,0-.75-.33594-.75-.75s.33594-.75.75-.75h12c.41406,0,.75.33594.75.75s-.33594.75-.75.75Z" fill="var(--iconFillMedium, #909090)" stroke-width="0"/>
  <path d="m29,20.75h-13c-.41406,0-.75-.33594-.75-.75s.33594-.75.75-.75h13c.41406,0,.75.33594.75.75s-.33594.75-.75.75Z" fill="var(--iconFillMedium, #909090)" stroke-width="0"/>
  <path d="m24.75,16.75h-8.75c-.41406,0-.75-.33594-.75-.75s.33594-.75.75-.75h8.75c.41406,0,.75.33594.75.75s-.33594.75-.75.75Z" fill="var(--iconFillMedium, #909090)" stroke-width="0"/>
  <path d="m26,24.75h-10c-.41406,0-.75-.33594-.75-.75s.33594-.75.75-.75h10c.41406,0,.75.33594.75.75s-.33594.75-.75.75Z" fill="var(--iconFillMedium, #909090)" stroke-width="0"/>
  <path d="m22,33.75h-6c-.41406,0-.75-.33594-.75-.75s.33594-.75.75-.75h6c.41406,0,.75.33594.75.75s-.33594.75-.75.75Z" fill="var(--iconAcrobatRed, #fa0f00)" stroke-width="0"/>
  <path d="m26.5,30.75h-10.5c-.41406,0-.75-.33594-.75-.75s.33594-.75.75-.75h10.5c.41406,0,.75.33594.75.75s-.33594.75-.75.75Z" fill="var(--iconAcrobatRed, #fa0f00)" stroke-width="0"/>
  <path d="m32,37.75H12.06641c-2.10449,0-3.81641-1.71191-3.81641-3.81641v-11.77734c0-.41406.33594-.75.75-.75s.75.33594.75.75v11.77734c0,1.27734,1.03906,2.31641,2.31641,2.31641h19.93359c1.24023,0,2.25-1.00928,2.25-2.25V12.85107c0-.69385-.28223-1.37207-.77441-1.86084l-4.50684-4.47754c-.49512-.4917-1.15137-.7627-1.84863-.7627h-11.80371c-.41406,0-.75-.33594-.75-.75s.33594-.75.75-.75h11.80371c1.0957,0,2.12793.42578,2.90527,1.19873l4.50684,4.47705c.77441.76855,1.21777,1.83496,1.21777,2.92529v21.14893c0,2.06787-1.68262,3.75-3.75,3.75Z" fill="var(--iconFillMedium, #909090)" stroke-width="0"/>
  <path d="m11.79004,19.75h-5.58008c-.80469,0-1.45996-.65527-1.45996-1.46045v-6.28955c0-3.93213,2.5332-6.91748,7.13379-8.40674l.31641-.0498h.00586c.57129,0,1.04004.46631,1.04395,1.04199v2.38184c0,.5752-.34961,1.09912-.89062,1.33447-1.07324.4668-2.30762,1.34619-2.50391,2.94824h1.93457c.80469,0,1.45996.65527,1.45996,1.46045v5.5791c0,.80518-.65527,1.46045-1.45996,1.46045Zm-.03711-14.52393c-2.6377.97803-5.50293,2.92725-5.50293,6.77393v6.28955l5.54004-.03955-.04004-5.53955-3.36719.03955-.04395-.70361c-.14062-2.28027,1.07422-4.09863,3.42285-5.12012l-.00879-1.7002Z" fill="var(--iconAcrobatRed, #fa0f00)" stroke-width="0"/>
  <path d="m36,41.75h-19.93359c-1.25879,0-2.43555-.62012-3.14844-1.65869-.23438-.34131-.14746-.80811.19336-1.04248.34375-.23633.80859-.14697,1.04297.19385.43359.63086,1.14844,1.00732,1.91211,1.00732h19.93359c1.24023,0,2.25-1.00928,2.25-2.25v-21.14893c0-.69385-.28223-1.37207-.77441-1.86084-.29395-.29199-.2959-.7666-.00391-1.06055.29199-.29541.7666-.29443,1.06055-.00391.77441.76855,1.21777,1.83496,1.21777,2.92529v21.14893c0,2.06787-1.68262,3.75-3.75,3.75Z" fill="var(--iconFillMedium, #909090)" stroke-width="0"/>
</svg>