<?xml version="1.0" encoding="UTF-8"?>
<svg id="uuid-c5c51cb8-f4e4-4759-92f1-79e3126114f3" data-name="illustrations" xmlns="http://www.w3.org/2000/svg" width="45" height="45" viewBox="0 0 45 45">
  <path d="m23,13.75h-13c-.41406,0-.75-.33594-.75-.75s.33594-.75.75-.75h13c.41406,0,.75.33594.75.75s-.33594.75-.75.75Z" fill="var(--iconFillMedium, #909090)" stroke-width="0"/>
  <path d="m21,23.75h-11c-.41406,0-.75-.33594-.75-.75s.33594-.75.75-.75h11c.41406,0,.75.33594.75.75s-.33594.75-.75.75Z" fill="var(--iconFillMedium, #909090)" stroke-width="0"/>
  <path d="m15,28.75h-5c-.41406,0-.75-.33594-.75-.75s.33594-.75.75-.75h5c.41406,0,.75.33594.75.75s-.33594.75-.75.75Z" fill="var(--iconFillMedium, #909090)" stroke-width="0"/>
  <path d="m18,18.75h-8c-.41406,0-.75-.33594-.75-.75s.33594-.75.75-.75h8c.41406,0,.75.33594.75.75s-.33594.75-.75.75Z" fill="var(--iconFillMedium, #909090)" stroke-width="0"/>
  <path d="m24.75,37.75H8.06641c-2.10449,0-3.81641-1.71191-3.81641-3.81641V8.06641c0-2.10449,1.71191-3.81641,3.81641-3.81641h15.05371c1.09619,0,2.12842.42578,2.90625,1.19873l4.50684,4.47705c.77344.76904,1.2168,1.83496,1.2168,2.92529v6.64893c0,.41406-.33594.75-.75.75s-.75-.33594-.75-.75v-6.64893c0-.69385-.28223-1.37207-.77441-1.86133l-4.50684-4.47705c-.49463-.4917-1.15137-.7627-1.84863-.7627h-15.05371c-1.27734,0-2.31641,1.03906-2.31641,2.31641v25.86719c0,1.27734,1.03906,2.31641,2.31641,2.31641h16.68359c.41406,0,.75.33594.75.75s-.33594.75-.75.75Z" fill="var(--iconFillMedium, #909090)" stroke-width="0"/>
  <path d="m34.06689,30.88574c-.22803,0-.45312-.10352-.60059-.2998l-.43311-.57764-.18262.24365c-.40576.54053-1.29541.53955-1.70117.00049l-.18311-.24414-.18262.24365c-.39844.53223-1.30225.5332-1.70166-.00098l-.18213-.24316-.43359.57812c-.24854.33154-.71777.39795-1.05029.1499-.33105-.24854-.39844-.71875-.1499-1.05029l.78271-1.04346c.40625-.53955,1.2959-.53955,1.70117-.00049l.18311.24414.18262-.24365c.40723-.54004,1.29688-.53906,1.70117-.00049l.18311.24414.18262-.24365c.39844-.53125,1.30225-.53223,1.70166.00098l.78223,1.04248c.24854.33154.18115.80176-.1499,1.05029-.13525.10107-.29297.1499-.44971.1499Z" fill="var(--iconAcrobatRed, #fa0f00)" stroke-width="0"/>
  <path d="m35.80615,23.68457c-1.38672-1.36328-3.21729-2.09717-5.06348-2.06445-1.91943-.01855-3.70264.70215-5.08887,2.06445-1.40186,1.37891-2.17383,3.20947-2.17383,5.15479,0,2.52393,1.30225,4.11865,2.81006,5.96484.60254.73779.93457,1.67676.93457,2.64453v2.04395c0,.35547.12451.70264.3501.97803l1.28662,1.56543c.29248.35596.7251.56006,1.18604.56006h1.36523c.46143,0,.89404-.20459,1.18604-.56055l1.28613-1.56543c.22607-.2749.35059-.62256.35059-.97754v-2.04395c0-.96826.33203-1.90723.93457-2.64453,1.50781-1.84619,2.81006-3.44092,2.81006-5.96484,0-1.94531-.77197-3.77588-2.17383-5.15479Zm-1.79785,10.17041c-.77893.95312-1.21228,2.15308-1.25592,3.39502h-2.29242c-.41406,0-.75.33594-.75.75s.33594.75.75.75h2.26923l-.0036.76855-1.31299,1.57764h-.63818c-.03027-.00049-.05908-.00049-.08936,0l-.66504-.0127-1.29541-1.59082v-2.04395c0-1.3125-.45215-2.58887-1.27246-3.59375-1.5791-1.93262-2.47217-3.11865-2.47217-5.01562,0-1.54004.61279-2.99072,1.72559-4.08496,1.07471-1.05664,2.46289-1.63525,3.94336-1.63525.03076,0,.0625.00049.09375.00098,1.48926-.02295,2.91406.55566,4.01172,1.63428,1.11279,1.09424,1.72559,2.54492,1.72559,4.08496,0,1.89697-.89307,3.08301-2.47168,5.01562Z" fill="var(--iconAcrobatRed, #fa0f00)" stroke-width="0"/>
  <g>
    <path d="m42,19.75h-1.5c-.41406,0-.75-.33594-.75-.75s.33594-.75.75-.75h1.5c.41406,0,.75.33594.75.75s-.33594.75-.75.75Z" fill="var(--iconFillMedium, #909090)" stroke-width="0"/>
    <path d="m37.5,19.75h-1.5c-.41406,0-.75-.33594-.75-.75s.33594-.75.75-.75h1.5c.41406,0,.75.33594.75.75s-.33594.75-.75.75Z" fill="var(--iconFillMedium, #909090)" stroke-width="0"/>
    <path d="m39,18.25c-.41406,0-.75-.33594-.75-.75v-1.5c0-.41406.33594-.75.75-.75s.75.33594.75.75v1.5c0,.41406-.33594.75-.75.75Z" fill="var(--iconFillMedium, #909090)" stroke-width="0"/>
    <path d="m39,22.75c-.41406,0-.75-.33594-.75-.75v-1.5c0-.41406.33594-.75.75-.75s.75.33594.75.75v1.5c0,.41406-.33594.75-.75.75Z" fill="var(--iconFillMedium, #909090)" stroke-width="0"/>
  </g>
  <g>
    <path d="m42.25,37.75h-.75c-.41406,0-.75-.33594-.75-.75s.33594-.75.75-.75h.75c.41406,0,.75.33594.75.75s-.33594.75-.75.75Z" fill="var(--iconFillMedium, #909090)" stroke-width="0"/>
    <path d="m38.5,37.75h-.75c-.41406,0-.75-.33594-.75-.75s.33594-.75.75-.75h.75c.41406,0,.75.33594.75.75s-.33594.75-.75.75Z" fill="var(--iconFillMedium, #909090)" stroke-width="0"/>
    <path d="m40,36.25c-.41406,0-.75-.33594-.75-.75v-.75c0-.41406.33594-.75.75-.75s.75.33594.75.75v.75c0,.41406-.33594.75-.75.75Z" fill="var(--iconFillMedium, #909090)" stroke-width="0"/>
    <path d="m40,40c-.41406,0-.75-.33594-.75-.75v-.75c0-.41406.33594-.75.75-.75s.75.33594.75.75v.75c0,.41406-.33594.75-.75.75Z" fill="var(--iconFillMedium, #909090)" stroke-width="0"/>
  </g>
</svg>