<?xml version="1.0" encoding="UTF-8"?><svg width="47" height="47" viewBox="0 0 47 47" fill="none" xmlns="http://www.w3.org/2000/svg">
<path fill-rule="evenodd" clip-rule="evenodd" d="M2.16678 24.5061C1.6861 18.3363 6.89883 11.0599 22.9643 9.12859C33.2017 7.90445 40.7239 9.7524 43.5866 14.2131C44.3029 15.3151 44.6817 16.6024 44.6764 17.9167C44.6711 19.2311 44.2819 20.5152 43.5567 21.6114C41.3135 25.271 35.227 28.8301 24.8272 27.779L24.2964 27.7264C24.1568 27.7127 24.0213 27.6716 23.8976 27.6055C23.7739 27.5394 23.6645 27.4495 23.5756 27.3411C23.4866 27.2326 23.4199 27.1077 23.3793 26.9734C23.3387 26.8392 23.3249 26.6983 23.3388 26.5587L23.4456 25.4964C23.4741 25.2146 23.6132 24.9556 23.8324 24.7761C24.0515 24.5966 24.3328 24.5114 24.6147 24.5389L25.1455 24.5916C34.0648 25.4718 39.1686 22.6368 40.8243 19.9343C41.2297 19.3501 41.4522 18.6586 41.4636 17.9476C41.475 17.2367 41.2748 16.5383 40.8884 15.9415C39.237 13.3671 33.7679 11.0577 23.3467 12.3118C11.962 13.679 4.90346 18.3684 5.36064 24.2583C5.82851 30.2935 14.139 36.3074 27.1857 35.7904C29.4332 35.7671 31.6732 35.5275 33.8747 35.0747L34.393 34.945C34.6676 34.8762 34.9582 34.9193 35.2011 35.0647C35.4439 35.2101 35.6191 35.446 35.6882 35.7205L35.949 36.7564C36.0181 37.0311 35.9753 37.322 35.83 37.5652C35.6846 37.8084 35.4486 37.9838 35.1739 38.053L34.6566 38.1832C32.2378 38.6974 29.7738 38.9694 27.3011 38.995C26.7649 39.0142 26.2358 39.0235 25.7138 39.0228C11.1374 39.0227 2.72437 31.6843 2.16678 24.5061Z" fill="#949494"/>
</svg>
