<?xml version="1.0" encoding="UTF-8"?>
<svg id="c" data-name="illustrations" xmlns="http://www.w3.org/2000/svg" width="45" height="45" viewBox="0 0 45 45">
  <path id="d" data-name="Combined-Shape" d="M33.5672,10.68608l-3.08609,4.21021-4.45651.00008v4.47335l1.17781-.00008-1.15676,1.57883-.02105.00008v.02834l-.48815.66701-.10814.15948-.15086.24104-.07011.152-.08495.19181-.67662,1.67686v-3.11653h-11.05181v3.68394l10.82341-.00008-.63574,1.57883-10.18767.00008v3.68394l9.98042.00107c.07691.14504.16414.28373.2605.41526.25513.28809.48163.50446.67949.64912.19786.14466.54637.34869,1.04555.6121.21491.07262.43728.12444.6639.15331l.00076,3.30061c0,.14406-.03859.27911-.10599.39537l8.65801-.00093c.82067,0,1.4951-.62615,1.5716-1.42678l.00723-.15205v-2.36825l-8.39745.00214c.28631-.12555.56655-.29596.83431-.51552h0l1.29834-1.06554,6.2648.00008v-3.68394l-2.3893-.00008,1.15465-1.57883,1.23465.00008v-1.68838l1.84457-2.15984v13.21572c0,1.65685-1.34315,3-3,3H6.15766c-1.74393,0-3.15766-1.41373-3.15766-3.15766V13.84384c0-1.74393,1.41373-3.15766,3.15766-3.15767l27.40954-.00008ZM11.81408,31.47409h-7.23525v2.36825c0,.82067.62615,1.4951,1.42678,1.5716l.15205.00723,5.76345.00093c-.0504-.08694-.0847-.18438-.09879-.28825l-.00721-.10712-.00103-3.55264ZM24.42578,31.47409h-11.03287l.00103,3.55264c0,.14406-.03859.27911-.10599.39537l11.03888-.00093.09894-3.94708ZM11.81513,26.21133h-7.2363v3.68394h7.2363v-3.68394ZM11.81513,20.94856h-7.2363v3.68394h7.2363v-3.68394ZM11.81513,14.89638h-7.2363v4.47335h7.2363v-4.47335ZM24.44578,14.89638h-11.05181v4.47335h11.05181v-4.47335Z" fill="var(--iconFillMedium, #909090)" stroke-width="0"/>
  <path id="e" data-name="Shape" d="M39.30144,7.31382c.65009-.89058,1.90509-1.10407,2.82756-.4815.87866.60459,1.12686,1.76673.58678,2.66734l-.09185.13991-11.64591,15.92945-.13671.14453-3.91754,3.21241c-.60435.49557-1.45976-.09175-1.26589-.80707l.03306-.09825,1.87234-4.64947.0335-.07262.06205-.09915,11.6426-15.88559ZM41.23993,8.13701c-.18843-.12716-.44209-.10392-.60189.03995l-.06227.06895-11.58643,15.80679-.68311,1.69777,1.45463-1.19359,11.58393-15.84273c.11835-.16531.09797-.38086-.03906-.5217l-.0658-.05542Z" fill="var(--iconAcrobatRed, #fa0f00)" stroke-width="0"/>
</svg>