<?xml version="1.0" encoding="UTF-8"?>
<svg id="c" data-name="illustrations" xmlns="http://www.w3.org/2000/svg" width="45" height="45" viewBox="0 0 45 45">
  <path id="d" data-name="Stroke-19-Copy" d="M28.38462,8c-8.28447,0-15,6.71553-15,15s6.71553,15,15,15,15-6.71553,15-15-6.71553-15-15-15ZM28.38462,9.5c7.45598,0,13.5,6.04402,13.5,13.5s-6.04402,13.5-13.5,13.5-13.5-6.04402-13.5-13.5,6.04402-13.5,13.5-13.5Z" fill="var(--iconFillMedium, #909090)" stroke-width="0"/>
  <path id="e" data-name="Path" d="M29.2421,12.15597c-.05728.42263-.41925.74788-.85749.74788-.47808,0-.86538-.38708-.86538-.86538,0-.47794.38744-.86538.86538-.86538.43811,0,.80018.32556.85748.74796l.0079.11743-.0079.1175Z" fill="var(--iconFillMedium, #909090)" stroke-width="0"/>
  <path id="f" data-name="Path" d="M29.2421,32.92512c-.0573.4224-.41937.74796-.85748.74796-.47794,0-.86538-.38744-.86538-.86538,0-.47831.38731-.86538.86538-.86538.43824,0,.8002.32525.85749.74788l.0079.1175-.0079.11743Z" fill="var(--iconFillMedium, #909090)" stroke-width="0"/>
  <path id="g" data-name="Path" d="M18.30971,22.14252c.42231.05735.74798.4197.74798.85748,0,.47794-.38744.86538-.86538.86538s-.86538-.38744-.86538-.86538c0-.43778.32567-.80013.74798-.85748l.1174-.00791.1174.00791Z" fill="var(--iconFillMedium, #909090)" stroke-width="0"/>
  <path id="h" data-name="Path" d="M21.38796,15.38834c.33755-.33826.88585-.33826,1.22392-.00023.33805.33801.33805.88614-.00023,1.22437-.33802.33723-.88597.33723-1.22347-.00023-.33805-.33801-.33805-.88614-.00023-1.22392Z" fill="var(--iconFillMedium, #909090)" stroke-width="0"/>
  <path id="i" data-name="Path" d="M21.48544,28.65005c.33883-.25083.81958-.22294,1.12639.08384.33805.33801.33805.88614.00023,1.22392-.33755.33826-.88585.33826-1.22392.00022-.30732-.30728-.33526-.78821-.08381-1.12707l.08381-.09708.0973-.08384Z" fill="var(--iconFillMedium, #909090)" stroke-width="0"/>
  <path id="j" data-name="Stroke-37-Copy" d="M30.77067,14.4688c.21022-.45797.77594-.66918,1.26364-.47171.44699.18099.67319.64249.54587,1.07089l-.04359.11578-3.60718,7.85621,2.99152,3.23399c.31656.3422.31015.84468.00521,1.17899l-.10043.09493c-.36438.29734-.8994.29128-1.25533.00493l-.10106-.0943-3.38745-3.66133c-.21205-.22923-.28529-.54051-.20233-.8282l.04521-.12155,3.84592-8.37862Z" fill="var(--iconAcrobatRed, #fa0f00)" stroke-width="0"/>
  <path id="k" data-name="Path" d="M13.24237,13H1.75751c-.41742,0-.75751.44647-.75751,1s.34009,1,.75751,1h11.48499c.19995.00018.39215-.10425.53424-.29083.14282-.1875.22327-.44269.22327-.70917s-.08038-.52161-.22327-.70917c-.14209-.18652-.33429-.29095-.53436-.29083Z" fill="var(--iconAcrobatRed, #fa0f00)" stroke-width="0"/>
  <path id="l" data-name="Path" d="M12.19086,31h-7.38184c-.44232,0-.80902.44128-.80902,1s.3667,1,.80902,1h7.38196c.21014.00012.41302-.10089.56458-.28326.1557-.18738.24445-.4455.24445-.71674s-.08875-.52936-.24445-.71674c-.15155-.18237-.35443-.28339-.5647-.28326Z" fill="var(--iconAcrobatRed, #fa0f00)" stroke-width="0"/>
  <path id="m" data-name="Path" d="M9.67859,22H1.32141c-.44928,0-.82141.44153-.82141,1s.37213,1,.82141,1h8.35718c.44928,0,.82141-.44153.82141-1s-.37213-1-.82141-1Z" fill="var(--iconAcrobatRed, #fa0f00)" stroke-width="0"/>
</svg>