<?xml version="1.0" encoding="UTF-8"?><svg width="46" height="46" viewBox="0 0 46 46" fill="none" xmlns="http://www.w3.org/2000/svg">
<path opacity="0.1" d="M6.64014 30.0531L32.2304 3.86893C32.5106 3.56715 32.9016 3.39243 33.3133 3.38497C33.5721 3.34425 35.4052 5.0909 38.8126 8.6249C39.4352 9.2711 39.4515 10.2889 38.8499 10.9547L13.4167 36.4166L6.64014 30.0531Z" fill="#864CCC"/>
<path d="M12.9534 41.9637C10.3919 41.9637 7.04527 41.9253 2.87966 41.8476C2.21843 41.8358 1.69199 41.2902 1.70381 40.629C1.70625 40.4924 1.73202 40.3573 1.78002 40.2295L5.96711 29.0627C6.00278 28.968 6.05794 28.8819 6.12902 28.81L31.2525 3.3973C32.2773 2.36699 33.9415 2.35655 34.9792 3.3739L39.3806 7.71635L39.3937 7.72945C40.4228 8.75801 40.4232 10.4261 39.3946 11.4551C39.3943 11.4555 39.394 11.4558 39.3937 11.4561L14.404 36.4458C14.1223 36.7254 13.6673 36.7237 13.3876 36.442C13.1095 36.1618 13.1095 35.7096 13.3876 35.4294L38.3773 10.4397C38.8451 9.97221 38.8453 9.21401 38.3777 8.74624C38.3776 8.7461 38.3779 8.74639 38.3777 8.74624L38.3726 8.74113L38.3717 8.74017L33.9703 4.39775C33.4976 3.9348 32.74 3.93981 32.2736 4.40898L7.25862 29.7112L3.23904 40.4307C11.4466 40.5664 16.5631 40.5627 18.3768 40.3998C18.9936 40.3256 19.5898 40.131 20.1315 39.8271C20.0667 39.6398 20.0181 39.4472 19.9865 39.2515C19.5176 36.3615 22.343 31.757 24.4712 31.0467C25.4017 30.6954 26.4525 30.9896 27.0654 31.773C27.4276 32.2596 28.0967 33.6381 26.4945 35.9132C25.2647 37.4907 23.8473 38.9124 22.2737 40.1472C22.6109 40.2664 22.9672 40.3222 23.3247 40.3119C25.3874 40.3119 26.7229 38.3316 27.9021 36.5843C28.8201 35.2245 29.5483 34.1435 30.5992 34.0481C30.9798 33.9484 31.3844 34.0668 31.6512 34.356C32.237 35.0092 31.8337 36.1557 31.2768 37.741C31.1158 38.1977 30.8828 38.8604 30.764 39.3376C31.3195 38.852 31.8416 38.3295 32.3269 37.7737C33.6736 36.3026 35.0662 34.7808 36.6011 34.7808C37.0591 34.7496 37.5004 34.9587 37.7662 35.333C38.2912 36.1051 37.828 37.2777 37.3385 38.5206C37.1459 38.9776 36.9827 39.4465 36.85 39.9244C38.3586 39.7213 40.5523 37.8823 41.5574 36.5431C41.7945 36.2248 42.2447 36.159 42.563 36.3961C42.8812 36.6332 42.947 37.0834 42.7099 37.4017C42.7089 37.4031 42.7078 37.4045 42.7067 37.4059C41.505 39.0091 38.733 41.3806 36.6011 41.3806C36.2039 41.401 35.8241 41.2162 35.595 40.8911C35.128 40.2051 35.5135 39.229 36.0012 37.9927C36.252 37.4274 36.4409 36.8365 36.5646 36.2305C35.6015 36.325 34.3774 37.6614 33.3873 38.7442C32.2268 40.0114 31.3106 41.0118 30.3316 41.0118C29.991 41.021 29.6681 40.86 29.4706 40.5822C29.0139 39.9374 29.3275 38.952 29.9208 37.2646C30.0846 36.7985 30.3242 36.1153 30.4393 35.6399C29.9313 36.1745 29.4803 36.7603 29.0935 37.3881C27.8525 39.229 26.152 41.7493 23.3248 41.7493C22.4662 41.8008 21.6179 41.541 20.9355 41.0174C20.1896 41.453 19.3619 41.7302 18.5041 41.8316C17.5195 41.9197 15.6824 41.9637 12.9534 41.9637ZM25.2976 32.3476C25.1711 32.3486 25.0456 32.3701 24.926 32.4112C23.5606 32.866 21.0543 36.7939 21.4034 39.01C22.8692 37.8505 24.1924 36.5214 25.3453 35.0504C26.1866 33.8544 26.1941 33.0102 25.9115 32.6302C25.7645 32.4424 25.5358 32.3371 25.2976 32.3476Z" fill="#864CCC"/>
</svg>
