<?xml version="1.0" encoding="UTF-8"?><svg width="46" height="46" viewBox="0 0 46 46" fill="none" xmlns="http://www.w3.org/2000/svg">
<path fill-rule="evenodd" clip-rule="evenodd" d="M6.2551 33.1074L2.99485 38.08C1.9081 39.5934 2.7775 41.1067 4.29894 41.1067H12.3408C13.382 41.1184 14.2354 40.2839 14.2471 39.2428C14.2518 38.8231 14.1164 38.4139 13.8623 38.08L9.08058 33.1074C8.41274 32.3272 7.23882 32.2361 6.45857 32.9039C6.38558 32.9664 6.31758 33.0344 6.2551 33.1074Z" fill="#CE2783"/>
<path opacity="0.1" d="M9.98096 29.6194C10.0599 29.7708 10.1662 29.9063 10.2945 30.019L15.5438 35.2562C15.6634 35.3805 15.792 35.4959 15.9284 35.6015C15.9546 35.579 15.9874 35.5482 16.0286 35.506L41.2794 10.3133C41.4802 10.1355 41.4989 9.82866 41.3212 9.62783C41.3078 9.61274 41.2936 9.59849 41.2784 9.58517L36.0282 4.34803C35.8496 4.14542 35.5405 4.12596 35.3379 4.30458C35.3225 4.31814 35.308 4.33265 35.2945 4.34803L10.0437 29.5408C10.0189 29.5636 9.9977 29.5901 9.98096 29.6194Z" fill="#CE2783"/>
<path d="M15.9407 37.0793C15.3839 37.0037 14.878 36.7152 14.5294 36.2745L9.27914 31.0373C8.85471 30.6752 8.59092 30.1597 8.54541 29.6036C8.55266 29.1926 8.72702 28.8023 9.02832 28.5226L34.2791 3.3299C35.0297 2.56623 36.2572 2.5556 37.0209 3.30618C37.0289 3.31402 37.0368 3.32192 37.0446 3.3299L42.2939 8.56703C43.0576 9.30474 43.0786 10.5219 42.3409 11.2855C42.3258 11.3012 42.3105 11.3165 42.2949 11.3316L17.0441 36.5243C16.7668 36.8514 16.3685 37.0517 15.9407 37.0793ZM9.981 29.6195C10.0599 29.7709 10.1662 29.9064 10.2945 30.0191L15.5438 35.2563C15.6635 35.3806 15.792 35.496 15.9285 35.6016C15.9547 35.5791 15.9874 35.5482 16.0286 35.5061L41.2794 10.3134C41.4803 10.1356 41.499 9.82876 41.3212 9.62793C41.3079 9.61283 41.2936 9.59858 41.2785 9.58526L36.0282 4.34812C35.8496 4.14551 35.5406 4.12606 35.338 4.30467C35.3226 4.31823 35.3081 4.33274 35.2945 4.34812L10.0437 29.5409C10.0189 29.5637 9.99775 29.5902 9.981 29.6195Z" fill="#CE2783"/>
<path fill-rule="evenodd" clip-rule="evenodd" d="M23.209 33.5981H43.0753L35.6999 41.2083L15.3296 41.1067L23.209 33.5981Z" fill="#CE2783"/>
</svg>
