<?xml version="1.0" encoding="UTF-8"?><svg width="84" height="81" viewBox="0 0 84 81" fill="none" xmlns="http://www.w3.org/2000/svg">
<path opacity="0.1" d="M79.2748 17.8521H14.748V62.2965H79.2748V17.8521Z" fill="#CE2783"/>
<path d="M66.5866 36.6848C64.7578 36.6658 63.0114 35.9487 61.7297 34.6906C60.448 33.4325 59.7355 31.7359 59.7482 29.9724C59.7609 28.2088 60.4978 26.522 61.7976 25.2812C63.0973 24.0405 64.8539 23.3469 66.6828 23.3523C68.5279 23.377 70.2904 24.0942 71.5959 25.3517C72.5539 26.2933 73.2006 27.4878 73.4542 28.784C73.7078 30.0802 73.5569 31.4198 73.0205 32.6332C72.4842 33.8466 71.5865 34.8793 70.4412 35.6006C69.2959 36.3218 67.9544 36.6991 66.5866 36.6848ZM66.5981 36.6853V35.5742L66.6097 34.4631C67.5205 34.4729 68.414 34.2222 69.1771 33.7427C69.9403 33.2631 70.539 32.5762 70.8976 31.7688C71.2561 30.9613 71.3585 30.0695 71.1917 29.2059C71.0249 28.3424 70.5964 27.5459 69.9604 26.9171C69.0847 26.0748 67.904 25.5934 66.6673 25.5744C66.0612 25.5731 65.4607 25.6871 64.9003 25.9098C64.34 26.1326 63.8307 26.4598 63.4016 26.8726C62.9725 27.2854 62.6321 27.7758 62.3999 28.3156C62.1676 28.8555 62.048 29.4342 62.048 30.0187C62.048 30.6032 62.1676 31.1819 62.3999 31.7218C62.6321 32.2616 62.9725 32.752 63.4016 33.1648C63.8307 33.5776 64.34 33.9048 64.9003 34.1275C65.4607 34.3503 66.0612 34.4643 66.6673 34.463V36.6852L66.5981 36.6853Z" fill="#CE2783"/>
<path fill-rule="evenodd" clip-rule="evenodd" d="M5.52983 55.629H4.83848C4.6249 55.6351 4.41228 55.5991 4.21368 55.5231C4.01507 55.4471 3.83468 55.3328 3.6836 55.1871C3.53251 55.0414 3.41391 54.8674 3.3351 54.6759C3.25629 54.4844 3.21893 54.2794 3.22531 54.0734V8.29695C3.21893 8.09101 3.25629 7.88598 3.3351 7.69447C3.41391 7.50295 3.53251 7.32901 3.6836 7.18332C3.83468 7.03763 4.01507 6.92327 4.21368 6.84727C4.41228 6.77127 4.6249 6.73524 4.83848 6.7414H70.7466C70.9602 6.73524 71.1728 6.77127 71.3714 6.84727C71.57 6.92327 71.7504 7.03763 71.9015 7.18332C72.0526 7.32901 72.1712 7.50295 72.25 7.69447C72.3288 7.88598 72.3662 8.09101 72.3598 8.29695V11.1858H70.0553V8.96362H5.52983V55.629Z" fill="#CE2783"/>
<path d="M79.9654 15.6304C80.1789 15.6242 80.3916 15.6602 80.5902 15.7362C80.7888 15.8122 80.9692 15.9266 81.1202 16.0723C81.2713 16.218 81.3899 16.3919 81.4687 16.5834C81.5475 16.7749 81.5849 16.98 81.5785 17.1859V62.9624C81.5849 63.1684 81.5475 63.3734 81.4687 63.5649C81.3899 63.7564 81.2713 63.9303 81.1202 64.076C80.9692 64.2217 80.7888 64.3361 80.5902 64.4121C80.3916 64.4881 80.1789 64.5241 79.9654 64.518H14.0572C13.8437 64.5241 13.631 64.4881 13.4324 64.4121C13.2338 64.3361 13.0534 64.2217 12.9023 64.076C12.7513 63.9303 12.6327 63.7564 12.5539 63.5649C12.475 63.3734 12.4377 63.1684 12.4441 62.9624V17.1859C12.4377 16.9799 12.475 16.7749 12.5539 16.5834C12.6327 16.3919 12.7513 16.2179 12.9023 16.0722C13.0534 15.9265 13.2338 15.8122 13.4324 15.7362C13.631 15.6602 13.8437 15.6242 14.0572 15.6303L79.9654 15.6304ZM36.0161 41.0541L14.7479 60.8186L14.7486 62.2957L63.5868 62.2962L40.8563 41.0541C40.2084 40.4463 39.3402 40.1062 38.4362 40.1062C37.5323 40.1062 36.664 40.4463 36.0161 41.0541ZM63.475 47.0603C62.5868 47.1065 61.7522 47.4843 61.148 48.1137L56.7266 52.5959L67.1045 62.2941L79.274 62.2957L79.2724 61.5897L65.9416 47.9568C65.6154 47.6533 65.2283 47.4173 64.8042 47.2632C64.3801 47.109 63.9277 47.04 63.475 47.0603ZM79.274 17.8526H14.7486L14.7469 57.7139L34.3872 39.4406C35.4703 38.422 36.9234 37.8519 38.4363 37.8519C39.9492 37.8519 41.4022 38.422 42.4853 39.4406L54.9348 51.0719L59.3329 46.5897C59.853 46.0512 60.4786 45.6175 61.1736 45.3136C61.8686 45.0097 62.6192 44.8417 63.3819 44.8192C64.9246 44.777 66.4219 45.3248 67.5473 46.3432L79.2724 58.3452L79.274 17.8526Z" fill="#CE2783"/>
</svg>
