<?xml version="1.0" encoding="UTF-8"?><svg width="84" height="81" viewBox="0 0 84 81" fill="none" xmlns="http://www.w3.org/2000/svg">
<g clip-path="url(#clip0_1021_15081)">
<path d="M72.7592 13.0298L60.96 1.69646C60.429 1.18057 59.7971 0.771516 59.1008 0.493038C58.4045 0.214561 57.6579 0.0722075 56.9041 0.0742402H21.4605C19.6269 0.0742402 17.8684 0.776619 16.5718 2.02686C15.2753 3.2771 14.5469 4.9728 14.5469 6.74091V43.9187C15.3074 43.7631 16.0679 43.6298 16.8514 43.5409V6.74091C16.8514 5.56217 17.337 4.43171 18.2014 3.59821C19.0657 2.76472 20.2381 2.29646 21.4605 2.29646H56.9041C57.8206 2.29724 58.6992 2.64894 59.3469 3.27424L71.1461 14.6076C71.7945 15.2321 72.1592 16.0794 72.16 16.9631V64.5187C72.16 65.6974 71.6744 66.8279 70.8101 67.6614C69.9457 68.4949 68.7734 68.9631 67.551 68.9631H39.067C38.8467 69.7194 38.5773 70.4616 38.2605 71.1854H67.551C69.3846 71.1854 71.1431 70.483 72.4396 69.2327C73.7362 67.9825 74.4646 66.2868 74.4646 64.5187V16.9631C74.4562 15.4865 73.8432 14.0728 72.7592 13.0298Z" fill="#0265DC"/>
<path opacity="0.1" d="M71.1443 14.6075L59.3451 3.27416C58.6974 2.64886 57.8188 2.29716 56.9023 2.29639H21.4587C20.2363 2.29639 19.0639 2.76464 18.1996 3.59813C17.3352 4.43163 16.8496 5.56209 16.8496 6.74083V43.5408C17.6143 43.4515 18.3839 43.4069 19.1541 43.4075C22.3688 43.4095 25.5391 44.132 28.4145 45.5181C31.29 46.9042 33.792 48.9158 35.723 51.3941C37.6539 53.8725 38.961 56.7498 39.5411 59.7988C40.1211 62.8478 39.9582 65.9851 39.0652 68.963H67.5492C68.7716 68.963 69.9439 68.4948 70.8083 67.6613C71.6727 66.8278 72.1582 65.6973 72.1582 64.5186V16.9631C72.1574 16.0793 71.7927 15.232 71.1443 14.6075Z" fill="#0265DC"/>
<path d="M19.1667 66.7359H11.0813C10.7854 66.7359 10.5017 66.6226 10.2926 66.4209C10.0834 66.2192 9.96587 65.9456 9.96587 65.6604V61.1575C9.96587 60.8722 10.0834 60.5987 10.2926 60.397C10.5017 60.1953 10.7854 60.0819 11.0813 60.0819H19.1667V54.8789C19.1808 54.7561 19.2438 54.6432 19.3422 54.5641C19.4407 54.485 19.5672 54.4457 19.6951 54.4545C19.8231 54.4477 19.9491 54.4882 20.0473 54.5677L29.6512 63.1494C29.7357 63.2325 29.7831 63.3443 29.7831 63.4607C29.7831 63.5772 29.7357 63.689 29.6512 63.7721L20.0473 72.2916C19.9432 72.372 19.8138 72.4158 19.6804 72.4158C19.547 72.4158 19.4176 72.372 19.3135 72.2916C19.225 72.2098 19.1725 72.0983 19.1667 71.9803V66.7359ZM19.1551 46.741C15.7366 46.741 12.3949 47.7184 9.5526 49.5498C6.71027 51.3812 4.49495 53.9841 3.18676 57.0296C1.87858 60.075 1.5363 63.4261 2.20321 66.6591C2.87011 69.8922 4.51625 72.8619 6.93345 75.1928C9.35066 77.5236 12.4304 79.111 15.7831 79.7541C19.1359 80.3971 22.6111 80.0671 25.7693 78.8056C28.9276 77.5442 31.6269 75.408 33.5261 72.6671C35.4253 69.9263 36.439 66.704 36.439 63.4076C36.439 58.9874 34.618 54.7481 31.3767 51.6225C28.1353 48.4969 23.739 46.741 19.1551 46.741Z" fill="#0265DC"/>
<path fill-rule="evenodd" clip-rule="evenodd" d="M26.8077 15.6299C26.6193 15.6295 26.438 15.6985 26.3006 15.8227C26.1632 15.9469 26.0801 16.117 26.0684 16.2982V21.5335C26.0684 21.621 26.0868 21.7076 26.1225 21.788C26.1583 21.8684 26.2106 21.941 26.2763 22.0014C26.3417 22.066 26.4213 22.1155 26.5093 22.1464C26.5973 22.1772 26.6914 22.1886 26.7845 22.1796H27.6162C27.709 22.1842 27.8018 22.1709 27.8891 22.1403C27.9764 22.1096 28.0565 22.0624 28.1245 22.0014C28.2426 21.8633 28.3079 21.6902 28.3093 21.5112V17.7017H34.108V31.2244H31.4744C31.2737 31.2403 31.0859 31.3259 30.9457 31.4651C30.8055 31.6044 30.7225 31.788 30.712 31.9819V32.7393C30.7347 32.9244 30.8274 33.0949 30.9723 33.2182C31.1172 33.3415 31.3042 33.409 31.4975 33.4077H39.1444C39.2415 33.4077 39.3376 33.3892 39.4273 33.3534C39.517 33.3176 39.5985 33.265 39.6672 33.1988C39.7358 33.1326 39.7903 33.0541 39.8274 32.9676C39.8646 32.8811 39.8837 32.7884 39.8837 32.6948V31.8259C39.875 31.7379 39.8484 31.6525 39.8053 31.5746C39.7622 31.4966 39.7035 31.4277 39.6326 31.3718C39.5617 31.3158 39.48 31.274 39.3922 31.2487C39.3045 31.2234 39.2124 31.2151 39.1213 31.2244H36.372V17.8577H42.2401V21.6226C42.2309 21.7107 42.2404 21.7996 42.2682 21.8839C42.2961 21.9682 42.3415 22.0461 42.4019 22.1128C42.4656 22.1732 42.5416 22.2202 42.6251 22.2509C42.7086 22.2815 42.7978 22.2952 42.887 22.291H43.8573C43.9431 22.2948 44.0287 22.2809 44.1084 22.2502C44.1881 22.2194 44.26 22.1726 44.3194 22.1128C44.3809 22.0505 44.4289 21.9771 44.4607 21.8968C44.4924 21.8165 44.5072 21.7308 44.5042 21.6449V16.2982C44.4984 16.1228 44.4235 15.956 44.2948 15.8318C44.1661 15.7077 43.9931 15.6355 43.8111 15.6299H26.8077Z" fill="#0265DC"/>
<path d="M61.857 26.741H45.587C44.9888 26.741 44.5039 27.2086 44.5039 27.7854V27.9187C44.5039 28.4956 44.9888 28.9632 45.587 28.9632H61.857C62.4552 28.9632 62.9401 28.4956 62.9401 27.9187V27.7854C62.9401 27.2086 62.4552 26.741 61.857 26.741Z" fill="#0265DC"/>
<path d="M61.857 31.1853H45.587C44.9888 31.1853 44.5039 31.6529 44.5039 32.2297V32.3631C44.5039 32.9399 44.9888 33.4075 45.587 33.4075H61.857C62.4552 33.4075 62.9401 32.9399 62.9401 32.3631V32.2297C62.9401 31.6529 62.4552 31.1853 61.857 31.1853Z" fill="#0265DC"/>
<path d="M61.858 35.6299H31.7609C31.1627 35.6299 30.6777 36.0975 30.6777 36.6743V36.8077C30.6777 37.3845 31.1627 37.8521 31.7609 37.8521H61.858C62.4562 37.8521 62.9411 37.3845 62.9411 36.8077V36.6743C62.9411 36.0975 62.4562 35.6299 61.858 35.6299Z" fill="#0265DC"/>
</g>
<defs>
<clipPath id="clip0_1021_15081">
<rect width="82.963" height="80" fill="white" transform="translate(0.71875 0.0742188)"/>
</clipPath>
</defs>
</svg>
