<?xml version="1.0" encoding="UTF-8"?><svg width="31" height="31" viewBox="0 0 31 31" fill="none" xmlns="http://www.w3.org/2000/svg">
<path fill-rule="evenodd" clip-rule="evenodd" d="M12.0562 18.3385C11.1286 19.8238 10.2405 20.7346 9.71143 20.7346C9.62829 20.7379 9.547 20.7096 9.48397 20.6553C9.43652 20.6166 9.40057 20.5656 9.38 20.5079C9.35944 20.4502 9.35504 20.388 9.3673 20.328C9.46692 19.7975 10.4889 19.0441 12.0562 18.3385ZM14.6181 9.24107C14.65 9.18577 14.6955 9.13952 14.7502 9.10671C14.805 9.0739 14.8672 9.05561 14.9311 9.05358C15.2754 9.05358 15.3495 9.44462 15.3508 9.77213C15.3045 10.5484 15.1511 11.3145 14.895 12.0487C14.4389 11.1851 14.3395 10.1771 14.6181 9.24107ZM16.8313 16.1579C16.3559 16.2508 15.8601 16.3644 15.3564 16.4962C14.9593 16.5994 14.555 16.7156 14.1528 16.8409C14.3674 16.4235 14.5649 16.0015 14.7289 15.6119C14.9363 15.1179 15.1279 14.6251 15.3004 14.1453C15.4742 14.4257 15.6566 14.6959 15.8429 14.9504C16.1494 15.3728 16.4854 15.7731 16.8483 16.1482L16.8253 16.1527L16.8313 16.1579ZM21.0293 17.2929C21.017 17.3573 20.9919 17.4185 20.9555 17.473C20.919 17.5275 20.8719 17.574 20.817 17.6098C20.6986 17.6784 20.5672 17.7217 20.4312 17.737C20.2952 17.7523 20.1575 17.7394 20.0267 17.699C19.2969 17.5033 18.6202 17.1465 18.0464 16.6549C18.854 16.5143 19.6787 16.5032 20.4898 16.6219C20.7804 16.6858 21.1096 16.8531 21.0293 17.2929ZM21.9862 16.6305C21.2967 16.1115 20.435 15.8754 19.5773 15.9706C18.8857 15.9777 18.1957 16.038 17.5133 16.151C17.0626 15.725 16.6526 15.2579 16.2887 14.7557C16.0125 14.3797 15.7574 13.9886 15.5248 13.5842C15.9027 12.5487 16.1246 11.4628 16.1833 10.3621C16.1833 9.43998 15.8208 8.45459 14.8038 8.45459C14.6382 8.4591 14.4764 8.50515 14.3333 8.5885C14.1901 8.67186 14.0702 8.78984 13.9846 8.93162C13.7895 9.6056 13.7331 10.3122 13.8189 11.0085C13.9047 11.7049 14.1308 12.3767 14.4837 12.9832C14.2156 13.7709 13.9227 14.5357 13.5629 15.3868C13.2533 16.1169 12.9032 16.8291 12.514 17.52C10.3283 18.3788 8.93321 19.3725 8.77835 20.1814C8.74818 20.335 8.75919 20.4939 8.81027 20.642C8.86136 20.79 8.95069 20.9219 9.0692 21.0242C9.31896 21.2344 9.63772 21.3446 9.96398 21.3337C11.4378 21.3337 12.9617 19.0592 13.7491 17.6824C14.3191 17.49 14.9028 17.3161 15.4845 17.1639C16.1261 16.9976 16.7468 16.8621 17.3298 16.7617C18.2876 17.6858 19.5498 18.2285 20.8793 18.288C21.7461 18.288 22.0649 17.9312 22.1794 17.632C22.2401 17.4631 22.2542 17.281 22.2202 17.1048C22.1862 16.9286 22.1054 16.7647 21.9862 16.6305Z" fill="#222222"/>
<path fill-rule="evenodd" clip-rule="evenodd" d="M7.76127 29.591C6.81901 29.5781 5.91976 29.1946 5.25833 28.5233C4.5969 27.8521 4.22656 26.9473 4.22754 26.005V4.98695C4.22791 4.04838 4.59688 3.1475 5.25499 2.47832C5.9131 1.80914 6.80771 1.4252 7.74614 1.40919H19.4069C19.8185 1.40834 20.2263 1.48955 20.6062 1.64809C20.9861 1.80663 21.3306 2.0393 21.6196 2.33252L25.8606 6.62998C26.4468 7.22588 26.7746 8.02878 26.7729 8.86469V26.0132C26.774 26.952 26.4057 27.8535 25.7476 28.523C25.0895 29.1925 24.1944 29.5761 23.2557 29.591H7.76127ZM7.76127 3.52282C7.38072 3.53233 7.01901 3.69044 6.75359 3.96332C6.48817 4.2362 6.34013 4.60215 6.34118 4.98282V26.0091C6.33916 26.3932 6.48849 26.7626 6.75685 27.0374C7.02521 27.3122 7.39099 27.4703 7.77503 27.4774H23.242C23.6222 27.4683 23.9836 27.3104 24.2487 27.0376C24.5137 26.7649 24.6611 26.399 24.6593 26.0187V8.8592C24.6608 8.58078 24.552 8.31308 24.3565 8.11475L20.1169 3.81873C20.0241 3.72481 19.9135 3.65027 19.7916 3.59947C19.6697 3.54867 19.5389 3.52262 19.4069 3.52282H7.76127Z" fill="#222222"/>
</svg>
