<?xml version="1.0" encoding="UTF-8"?><svg width="48" height="48" viewBox="0 0 48 48" fill="none" xmlns="http://www.w3.org/2000/svg">
<path d="M29.6435 6.59571L24.5312 1.45901C24.239 1.1656 23.7643 1.16458 23.4709 1.45675C23.4708 1.45684 23.471 1.45666 23.4709 1.45675L18.3339 6.56935C18.0405 6.86167 18.0396 7.3365 18.332 7.6299C18.6243 7.9233 19.0991 7.92417 19.3925 7.63185L23.2414 3.80101L23.3349 26.9863C23.3366 27.3993 23.6718 27.7333 24.0849 27.7334H24.0878C24.502 27.7317 24.8364 27.3946 24.8349 26.9804L24.7414 3.79661L28.581 7.65431C28.8733 7.94771 29.3481 7.94858 29.6415 7.65626C29.9349 7.36394 29.9358 6.8891 29.6435 6.59571Z" fill="#0265DC"/>
<path opacity="0.1" fill-rule="evenodd" clip-rule="evenodd" d="M43.9414 14.9954C43.9389 13.8926 43.0442 12.9999 41.9414 13H28.0845V26.541C28.0845 28.7501 26.2937 30.541 24.0845 30.541C21.8754 30.541 20.0845 28.7501 20.0845 26.541V13H5.93678C4.83227 13.0027 3.93899 13.9001 3.94141 15.0046L3.99488 38.0046C3.99747 39.1074 4.89213 40 5.99488 40H41.9995C43.1041 39.9974 43.9974 39.0999 43.9949 37.9954L43.9414 14.9954Z" fill="#0265DC"/>
<path d="M44.6914 14.9941C44.6863 13.4784 43.4571 12.2519 41.9414 12.25H28.085V13.75H41.9414C42.6304 13.7506 43.1891 14.3081 43.1914 14.9971L43.2451 37.9971C43.2466 38.6876 42.6879 39.2486 41.9974 39.25C41.9966 39.25 41.9959 39.25 41.9951 39.25H5.99512C5.30646 39.2487 4.74807 38.6916 4.74512 38.0029L4.69141 15.0039C4.69089 14.3142 5.24782 13.7538 5.9375 13.75H20.085V12.25H5.93555C4.41751 12.2559 3.19032 13.4888 3.19141 15.0068L3.24512 38.0068C3.25135 39.5219 4.48002 40.7475 5.99512 40.75H42.002C43.52 40.7443 44.7471 39.5112 44.7452 37.9932L44.6914 14.9941Z" fill="#0265DC"/>
</svg>
