<?xml version="1.0" encoding="UTF-8"?><svg width="83" height="83" viewBox="0 0 83 83" fill="none" xmlns="http://www.w3.org/2000/svg">
<path d="M53.8538 6.90744C54.7597 6.90824 55.6282 7.26873 56.2683 7.90966L67.9305 19.5263C68.5714 20.1665 68.9319 21.0349 68.9327 21.9408V70.6852C68.9327 71.8934 68.4528 73.0522 67.5984 73.9065C66.7441 74.7608 65.5854 75.2408 64.3772 75.2408H18.8216C17.6134 75.2408 16.4547 74.7608 15.6004 73.9065C14.746 73.0522 14.2661 71.8934 14.2661 70.6852V11.463C14.2661 10.2548 14.746 9.09606 15.6004 8.24173C16.4547 7.3874 17.6134 6.90744 18.8216 6.90744H53.8538ZM53.8538 4.62966H18.8216C17.0093 4.62966 15.2712 5.3496 13.9897 6.6311C12.7082 7.9126 11.9883 9.65068 11.9883 11.463V70.6852C11.9883 72.4975 12.7082 74.2356 13.9897 75.5171C15.2712 76.7986 17.0093 77.5186 18.8216 77.5186H64.3772C66.1895 77.5186 67.9276 76.7986 69.2091 75.5171C70.4906 74.2356 71.2105 72.4975 71.2105 70.6852V21.9408C71.2022 20.4272 70.5964 18.9782 69.525 17.9091L57.8627 6.29244C57.3379 5.76365 56.7133 5.34437 56.0251 5.05893C55.3369 4.77349 54.5989 4.62758 53.8538 4.62966Z" fill="#0265DC"/>
<path opacity="0.1" d="M53.8534 6.90747C54.7593 6.90827 55.6277 7.26876 56.2679 7.90969L67.9301 19.5264C68.571 20.1665 68.9315 21.035 68.9323 21.9408V70.6853C68.9323 71.8935 68.4523 73.0522 67.598 73.9065C66.7437 74.7609 65.5849 75.2408 64.3767 75.2408H18.8212C17.613 75.2408 16.4542 74.7609 15.5999 73.9065C14.7456 73.0522 14.2656 71.8935 14.2656 70.6853V11.463C14.2656 10.2548 14.7456 9.09609 15.5999 8.24176C16.4542 7.38743 17.613 6.90747 18.8212 6.90747H53.8534Z" fill="#0265DC"/>
<path fill-rule="evenodd" clip-rule="evenodd" d="M24.1077 20.5742C23.9215 20.5739 23.7423 20.6445 23.6065 20.7718C23.4707 20.8992 23.3886 21.0735 23.377 21.2593V26.6255C23.377 26.7151 23.3952 26.8039 23.4305 26.8863C23.4658 26.9687 23.5175 27.0431 23.5825 27.105C23.6471 27.1712 23.7258 27.222 23.8128 27.2536C23.8998 27.2852 23.9927 27.2969 24.0848 27.2877H24.9069C24.9986 27.2924 25.0903 27.2787 25.1766 27.2473C25.2629 27.216 25.342 27.1676 25.4092 27.105C25.526 26.9635 25.5905 26.7861 25.5919 26.6026V22.6979H31.3233V36.5586H28.7202C28.5219 36.5749 28.3363 36.6626 28.1977 36.8054C28.0591 36.9481 27.9771 37.1363 27.9667 37.335V38.1114C27.9891 38.3011 28.0807 38.4758 28.224 38.6022C28.3672 38.7286 28.552 38.7978 28.743 38.7964H36.3012C36.3972 38.7964 36.4922 38.7775 36.5809 38.7408C36.6695 38.7041 36.7501 38.6503 36.8179 38.5824C36.8858 38.5146 36.9396 38.434 36.9763 38.3453C37.013 38.2567 37.0319 38.1617 37.0319 38.0657V37.1751C37.0234 37.085 36.997 36.9974 36.9544 36.9175C36.9118 36.8376 36.8538 36.767 36.7837 36.7097C36.7137 36.6523 36.6329 36.6095 36.5462 36.5835C36.4594 36.5576 36.3684 36.5491 36.2784 36.5586H33.561V22.8577H39.361V26.7168C39.3519 26.807 39.3613 26.8982 39.3888 26.9846C39.4163 27.071 39.4612 27.1509 39.5209 27.2192C39.5838 27.2811 39.659 27.3293 39.7415 27.3607C39.824 27.3922 39.9122 27.4062 40.0004 27.4019H40.9594C41.0442 27.4058 41.1288 27.3916 41.2076 27.36C41.2864 27.3285 41.3575 27.2805 41.4161 27.2192C41.4769 27.1554 41.5244 27.0802 41.5558 26.9978C41.5872 26.9155 41.6018 26.8277 41.5988 26.7396V21.2593C41.5931 21.0794 41.5191 20.9085 41.3918 20.7812C41.2646 20.654 41.0936 20.5799 40.9138 20.5742H24.1077Z" fill="#0265DC"/>
<path d="M58.7513 31.9631H42.6702C42.0789 31.9631 41.5996 32.4424 41.5996 33.0337V33.1704C41.5996 33.7616 42.0789 34.2409 42.6702 34.2409H58.7513C59.3425 34.2409 59.8218 33.7616 59.8218 33.1704V33.0337C59.8218 32.4424 59.3425 31.9631 58.7513 31.9631Z" fill="#0265DC"/>
<path d="M58.7513 36.5186H42.6702C42.0789 36.5186 41.5996 36.9979 41.5996 37.5891V37.7258C41.5996 38.317 42.0789 38.7963 42.6702 38.7963H58.7513C59.3425 38.7963 59.8218 38.317 59.8218 37.7258V37.5891C59.8218 36.9979 59.3425 36.5186 58.7513 36.5186Z" fill="#0265DC"/>
<path d="M58.7519 41.0742H29.0042C28.4129 41.0742 27.9336 41.5535 27.9336 42.1448V42.2814C27.9336 42.8727 28.4129 43.352 29.0042 43.352H58.7519C59.3432 43.352 59.8225 42.8727 59.8225 42.2814V42.1448C59.8225 41.5535 59.3432 41.0742 58.7519 41.0742Z" fill="#0265DC"/>
</svg>
