<svg id="Layer_1" data-name="Layer 1" xmlns="http://www.w3.org/2000/svg" viewBox="0 0 40 40">
  <defs>
    <style>
      .cls-1 {
        fill: #c7e8ff;
      }

      .cls-2 {
        fill: #b3b3b3;
      }

      .cls-3 {
        fill: #1473e6;
      }
    </style>
  </defs>
  <g>
    <path class="cls-1" d="M19.8892,11.45122l-1.17728-2.3009a.31264.31264,0,0,1,.13591-.42073L22.83994,6.687a.31265.31265,0,0,1,.42072.13591L24.438,9.12381a.31263.31263,0,0,1-.13591.42072l-3.99212,2.04261a.31262.31262,0,0,1-.42072-.13592Z"/>
    <path class="cls-2" d="M6.2832,27.74414a.75013.75013,0,0,1-.66162-.39551L.647,18.061a3.57936,3.57936,0,0,1,1.46338-4.83887L21.43652,2.87061A3.57446,3.57446,0,0,1,26.27539,4.334l3.4502,6.44092a.74995.74995,0,1,1-1.32227.708L24.95312,5.042a2.07489,2.07489,0,0,0-2.80761-.84912L2.81836,14.54443a2.07823,2.07823,0,0,0-.84912,2.8086l4.97461,9.28662a.75023.75023,0,0,1-.66065,1.10449Z"/>
    <g>
      <path class="cls-1" d="M35.575,24.16525H27.79542a2.32312,2.32312,0,0,1,1.1338,2.72874l6.64577-.00033Z"/>
      <path class="cls-1" d="M9.475,24.16525V28.8246H21.51207a2.60524,2.60524,0,0,1,.73069-1.45351l2.79718-2.80725a2.29594,2.29594,0,0,1,.55347-.39859Z"/>
    </g>
    <path class="cls-3" d="M32.97852,28.48047h-7.486l1.7331-1.73926a.74992.74992,0,1,0-1.0625-1.05859l-2.79883,2.80957a1.04355,1.04355,0,0,0-.001,1.47461l2.80078,2.81054a.74992.74992,0,1,0,1.0625-1.05859l-1.73211-1.73828h7.48407a.75.75,0,0,0,0-1.5Z"/>
    <path class="cls-3" d="M38.99609,34.56641H29.89258a.75.75,0,0,1,0-1.5h9.10351a.75.75,0,0,1,0,1.5Z"/>
    <path class="cls-3" d="M36.17676,37.584a.75.75,0,0,1-.53125-1.27929L38.125,33.81641l-2.47949-2.48926a.74992.74992,0,0,1,1.0625-1.0586l2.7998,2.81055a1.04474,1.04474,0,0,1-.001,1.47559L36.708,37.36328A.74593.74593,0,0,1,36.17676,37.584Zm2.26855-3.44628.001.001Zm0-.64258-.001.001Z"/>
    <path class="cls-2" d="M22.21973,33.01074H11.53467a3.57842,3.57842,0,0,1-3.57422-3.57422V16.54932a3.57853,3.57853,0,0,1,3.57422-3.57471H33.459a3.57853,3.57853,0,0,1,3.57422,3.57471V27.47559a.75.75,0,1,1-1.5,0V16.54932A2.07689,2.07689,0,0,0,33.459,14.47461H11.53467a2.07689,2.07689,0,0,0-2.07422,2.07471v12.8872a2.07679,2.07679,0,0,0,2.07422,2.07422H22.21973a.75.75,0,0,1,0,1.5Z"/>
  </g>
</svg>
