<?xml version="1.0" encoding="UTF-8"?><svg width="40" height="40" viewBox="0 0 40 40" fill="none" xmlns="http://www.w3.org/2000/svg">
<path d="M26.5 36H11.5C7.36426 36 4 32.6348 4 28.5V13.5C4 9.36524 7.36426 6 11.5 6H16C16.8281 6 17.5 6.67188 17.5 7.5C17.5 8.32812 16.8281 9 16 9H11.5C9.01856 9 7 11.0195 7 13.5V28.5C7 30.9805 9.01856 33 11.5 33H26.5C28.9814 33 31 30.9805 31 28.5V20.9961C31 20.168 31.6719 19.4961 32.5 19.4961C33.3281 19.4961 34 20.168 34 20.9961V28.5C34 32.6348 30.6357 36 26.5 36Z" fill="#2C2C2C"/>
<path d="M25.8791 19.1662C25.4904 19.1662 25.0988 19.0647 24.7433 18.8596C23.8869 18.3654 23.4513 17.385 23.6603 16.4182L24.6857 11.6682L21.423 8.06857C20.759 7.33615 20.6447 6.26779 21.1398 5.41037C21.6359 4.55491 22.6144 4.11935 23.5842 4.32833L28.3322 5.35567L31.9308 2.09199C32.6642 1.42597 33.7336 1.31269 34.59 1.80879C35.4465 2.30293 35.881 3.28535 35.6711 4.25215L34.6457 9.00019L37.9084 12.5998C38.5724 13.3322 38.6877 14.3986 38.1926 15.256C37.6984 16.1154 36.7219 16.551 35.7482 16.34L31.0002 15.3127L27.4015 18.5764C26.9719 18.965 26.4279 19.1662 25.8791 19.1662ZM27.6974 11.9338L27.0734 14.8244L29.2638 12.8381C29.8078 12.3459 30.5529 12.1408 31.2687 12.3029L34.1544 12.926L32.1701 10.7365C31.6808 10.1955 31.4806 9.44941 31.633 8.73651L32.258 5.84589L30.0685 7.83027C29.5255 8.32051 28.7833 8.52753 28.0626 8.36543L25.1769 7.74239L27.1613 9.93185C27.6515 10.4709 27.8527 11.2209 27.6974 11.9338Z" fill="#2C2C2C"/>
<path d="M16.2402 26.5001C15.9824 26.5001 15.7236 26.4337 15.4902 26.2989C14.9257 25.9727 14.6367 25.3204 14.7744 24.6837L15.1797 22.8048L13.8886 21.3809C13.4511 20.8966 13.375 20.1876 13.7011 19.6231C14.0273 19.0587 14.6855 18.7794 15.3174 18.9063L17.1953 19.3145L18.6191 18.0235C19.1025 17.584 19.8134 17.5098 20.3769 17.836C20.9414 18.1622 21.2304 18.8145 21.0927 19.4512L20.6875 21.3301L21.9785 22.754C22.416 23.2383 22.4922 23.9473 22.166 24.5118C21.8398 25.0762 21.1836 25.3536 20.5498 25.2286L18.6709 24.8204L17.248 26.1114C16.9648 26.3673 16.6035 26.5001 16.2402 26.5001Z" fill="#2C2C2C"/>
</svg>
