<?xml version="1.0" encoding="UTF-8"?><svg width="40" height="40" viewBox="0 0 40 40" fill="none" xmlns="http://www.w3.org/2000/svg">
<path d="M23.329 9.84227C23.329 11.234 22.1719 12.3623 20.7446 12.3623C19.3172 12.3623 18.1602 11.234 18.1602 9.84227C18.1602 8.45051 19.3173 7.32227 20.7446 7.32227C22.1719 7.32227 23.329 8.45051 23.329 9.84227Z" fill="#292929"/>
<path d="M33.5 38H20.5C18.0195 38 16 35.9805 16 33.5V20.5C16 18.0195 18.0195 16 20.5 16H33.5C35.9805 16 38 18.0195 38 20.5V33.5C38 35.9805 35.9805 38 33.5 38ZM20.5 19C19.6738 19 19 19.6738 19 20.5V33.5C19 34.3262 19.6738 35 20.5 35H33.5C34.3262 35 35 34.3262 35 33.5V20.5C35 19.6738 34.3262 19 33.5 19H20.5Z" fill="#292929"/>
<path d="M24 30.2631V24.4498C24 23.5924 24.828 23.0697 25.4663 23.5241L30.1677 26.4308C30.7683 26.8583 30.7683 27.8546 30.1677 28.2821L25.4663 31.1888C24.828 31.6432 24 31.1205 24 30.2631Z" fill="#292929"/>
<path d="M26.0449 2H5.95508C3.77344 2 2 3.80274 2 6.01954V21.9805C2 24.1973 3.77344 26 5.95508 26H11.5C12.3281 26 13 25.3281 13 24.5C13 23.6719 12.3281 23 11.5 23H5.95508C5.42774 23 5 22.543 5 21.9805V20.4346L10.1895 15.3731C10.5195 15.0508 11.0801 15.0469 11.3984 15.3574L12.3535 16.3125C12.9395 16.8985 13.8887 16.8985 14.4746 16.3125C15.0606 15.7266 15.0606 14.7774 14.4746 14.1914L13.5059 13.2227C12.0215 11.7715 9.59376 11.7695 8.09766 13.2227L5 16.2441V6.01954C5 5.45704 5.42774 5 5.95508 5H26.0449C26.5723 5 27 5.45704 27 6.01954V11.4004C27 12.2285 27.6719 12.9004 28.5 12.9004C29.3281 12.9004 30 12.2285 30 11.4004V6.01954C30 3.80274 28.2266 2 26.0449 2Z" fill="#292929"/>
</svg>
