<?xml version="1.0" encoding="UTF-8"?><svg width="32" height="32" viewBox="0 0 32 32" fill="none" xmlns="http://www.w3.org/2000/svg">
<path d="M26.231 0H5.769C2.58288 0 0 2.58288 0 5.769V26.231C0 29.4173 2.58288 32 5.769 32H26.231C29.4173 32 32 29.4173 32 26.231V5.769C32 2.58288 29.4173 0 26.231 0Z" fill="url(#paint0_linear_807_5636)"/>
<path d="M7.7955 27.1587C6.88332 27.1587 6.27885 26.204 6.60872 25.3535C7.73992 22.4371 8.36042 19.2659 8.36042 15.9497C8.36042 12.6336 7.73992 9.46245 6.60872 6.54595C6.27885 5.6955 6.88332 4.74072 7.7955 4.74072C8.29195 4.74072 8.74287 5.03592 8.92467 5.4979C10.1986 8.73477 10.8983 12.2605 10.8983 15.9497C10.8983 19.6389 10.1986 23.1647 8.92467 26.4017C8.74287 26.8635 8.29195 27.1587 7.7955 27.1587Z" fill="#FCFCFC"/>
<path d="M13.8813 24.6201C13.0457 24.6201 12.4436 23.8182 12.6325 23.0042C13.1585 20.7375 13.4365 18.3757 13.4365 15.949C13.4365 13.5222 13.1585 11.1604 12.6325 8.89368C12.4436 8.07968 13.0457 7.27783 13.8813 7.27783C14.45 7.27783 14.95 7.65973 15.0803 8.21331C15.665 10.697 15.9744 13.2868 15.9744 15.949C15.9744 18.6111 15.665 21.201 15.0803 23.6846C14.95 24.2382 14.45 24.6201 13.8813 24.6201Z" fill="#FCFCFC"/>
<path d="M19.6323 20.814C18.8677 20.814 18.28 20.1401 18.3516 19.3789C18.4578 18.2501 18.5121 17.1063 18.5121 15.9497C18.5121 14.7932 18.4578 13.6494 18.3516 12.5206C18.28 11.7593 18.8677 11.0854 19.6323 11.0854C20.2693 11.0854 20.8089 11.5594 20.87 12.1935C20.9891 13.4295 21.05 14.6825 21.05 15.9497C21.05 17.217 20.9891 18.47 20.87 19.706C20.8089 20.3401 20.2693 20.814 19.6323 20.814Z" fill="#FCFCFC"/>
<path d="M24.9129 14.3281L25.6381 15.0533C26.1336 15.5488 26.1336 16.3523 25.6381 16.8478L24.9129 17.573C24.38 18.106 23.4688 17.7285 23.4688 16.9748V14.9263C23.4688 14.1726 24.38 13.7952 24.9129 14.3281Z" fill="#FCFCFC"/>
<defs>
<linearGradient id="paint0_linear_807_5636" x1="6.51825" y1="-1.37717" x2="26.546" y2="32.7527" gradientUnits="userSpaceOnUse">
<stop stop-color="#5B53FF"/>
<stop offset="1" stop-color="#312B9F"/>
</linearGradient>
</defs>
</svg>
