<?xml version="1.0" encoding="UTF-8"?><svg width="32" height="32" viewBox="0 0 32 32" fill="none" xmlns="http://www.w3.org/2000/svg">
<path d="M26.7996 6.40001H25.5996V5.19844C25.5996 3.65469 24.3434 2.39844 22.7996 2.39844H20.3996C18.8559 2.39844 17.5996 3.65469 17.5996 5.19844V6.40001H14.3996V5.19844C14.3996 3.65469 13.1434 2.39844 11.5996 2.39844H9.19961C7.65587 2.39844 6.39961 3.65469 6.39961 5.19844V6.40001H5.19961C3.21446 6.40001 1.59961 8.01564 1.59961 10V23.6C1.59961 25.5844 3.21446 27.2 5.19961 27.2H26.7996C28.7848 27.2 30.3996 25.5844 30.3996 23.6V10C30.3996 8.01564 28.7848 6.40001 26.7996 6.40001ZM19.9996 5.19844C19.9996 4.97812 20.1793 4.79844 20.3996 4.79844H22.7996C23.0199 4.79844 23.1996 4.97812 23.1996 5.19844V6.40001H19.9996V5.19844ZM8.79961 5.19844C8.79961 4.97812 8.97929 4.79844 9.19961 4.79844H11.5996C11.8199 4.79844 11.9996 4.97812 11.9996 5.19844V6.40001H8.79961V5.19844ZM27.9996 23.6C27.9996 24.261 27.4613 24.8 26.7996 24.8H5.19961C4.5379 24.8 3.99961 24.261 3.99961 23.6V10C3.99961 9.33906 4.5379 8.80001 5.19961 8.80001H26.7996C27.4613 8.80001 27.9996 9.33906 27.9996 10V23.6Z" fill="#292929"/>
</svg>
