<?xml version="1.0" encoding="UTF-8"?><svg width="53" height="50" viewBox="0 0 53 50" fill="none" xmlns="http://www.w3.org/2000/svg">
<rect width="52.9819" height="50" rx="8.4" fill="white"/>
<rect x="0.469304" y="0.469304" width="52.0433" height="49.0614" rx="7.9307" stroke="white" stroke-opacity="0.1" stroke-width="0.938609"/>
<g clip-path="url(#clip0_53027_188409)">
<path d="M32.0716 35.557C29.5201 35.7916 27.3865 32.7851 25.751 31.2602C24.924 37.2516 15.9196 36.6837 15.9258 30.6058C15.9289 28.0531 15.9258 21.8147 15.9258 19.3422C15.9258 18.4532 16.1686 17.558 16.6236 16.7987C17.4875 15.3263 19.1568 14.3756 20.8568 14.3941C23.4177 14.3972 29.5845 14.391 32.0716 14.3941C38.1217 14.3941 38.6966 23.4445 32.7172 24.2594L35.5548 27.1085C38.6719 30.0563 36.3325 35.6867 32.0716 35.557ZM30.6974 31.9917C32.4559 33.813 35.2626 30.9917 33.4519 29.226L28.5331 24.2872H25.7818C25.7818 24.5557 25.7818 26.8584 25.7818 27.0529L30.0333 31.3219L30.6974 31.9917ZM18.9047 30.6089C18.8647 33.14 22.8397 33.1494 22.7998 30.6089V19.3422C22.8336 18.0797 21.5055 17.0765 20.3065 17.4654C20.2543 17.4809 20.2051 17.4963 20.159 17.5148C19.4058 17.7957 18.8832 18.5705 18.9047 19.3792V30.6089ZM32.0716 21.2961C34.5987 21.3362 34.5955 17.345 32.0716 17.3852H25.3913C25.8986 18.4594 25.7695 20.1324 25.7787 21.2961C26.1414 21.2961 31.8933 21.2961 32.0716 21.2961Z" fill="black"/>
</g>
<defs>
<clipPath id="clip0_53027_188409">
<rect width="21.213" height="21.213" fill="white" transform="translate(15.8845 14.3934)"/>
</clipPath>
</defs>
</svg>
