<?xml version="1.0" encoding="UTF-8"?><svg width="32" height="32" viewBox="0 0 32 32" fill="none" xmlns="http://www.w3.org/2000/svg">
<path d="M22.0004 25.5999H10.0004C8.01524 25.5999 6.40039 23.9843 6.40039 21.9999V9.9999C6.40039 8.01553 8.01524 6.3999 10.0004 6.3999H22.0004C23.9855 6.3999 25.6004 8.01553 25.6004 9.9999V21.9999C25.6004 23.9843 23.9855 25.5999 22.0004 25.5999ZM10.0004 8.7999C9.33868 8.7999 8.80039 9.33896 8.80039 9.9999V21.9999C8.80039 22.6608 9.33868 23.1999 10.0004 23.1999H22.0004C22.6621 23.1999 23.2004 22.6608 23.2004 21.9999V9.9999C23.2004 9.33896 22.6621 8.7999 22.0004 8.7999H10.0004Z" fill="#292929"/>
<path d="M2.79961 23.5999C2.13711 23.5999 1.59961 23.0624 1.59961 22.3999V9.5999C1.59961 8.93741 2.13711 8.3999 2.79961 8.3999C3.46211 8.3999 3.99961 8.93741 3.99961 9.5999V22.3999C3.99961 23.0624 3.46211 23.5999 2.79961 23.5999Z" fill="#292929"/>
<path d="M29.2 23.5999C28.5375 23.5999 28 23.0624 28 22.3999V9.5999C28 8.93741 28.5375 8.3999 29.2 8.3999C29.8625 8.3999 30.4 8.93741 30.4 9.5999V22.3999C30.4 23.0624 29.8625 23.5999 29.2 23.5999Z" fill="#292929"/>
<path d="M19.5147 15.063L14.4297 12.33C13.6932 11.9342 12.8008 12.4677 12.8008 13.3038V18.7697C12.8008 19.6059 13.6931 20.1393 14.4297 19.7435L19.5147 17.0105C20.2909 16.5934 20.2909 15.4802 19.5147 15.063Z" fill="#292929"/>
</svg>
