<?xml version="1.0" encoding="UTF-8"?><svg id="Acrobat_40" data-name="Acrobat 40" xmlns="http://www.w3.org/2000/svg" width="40" height="39" viewBox="0 0 40 39">
  <path id="Path_102649" data-name="Path 102649" d="M7.1.4H32.9A7.1,7.1,0,0,1,40,7.5V32.3a7.1,7.1,0,0,1-7.1,7.1H7.1A7.1,7.1,0,0,1,0,32.3V7.5A7.021,7.021,0,0,1,7.1.4Z" transform="translate(0 -0.4)" fill="#b30b00"/>
  <path id="Path_102650" data-name="Path 102650" d="M30.446,21.432c-1.87-1.985-6.983-1.116-8.23-.992a27.721,27.721,0,0,1-3.491-4.465,19.368,19.368,0,0,0,1.122-5.954C19.847,8.161,19.1,6.3,17.1,6.3a1.992,1.992,0,0,0-1.746.992c-.873,1.488-.5,4.465.873,7.566a48.657,48.657,0,0,1-3.491,8.186c-2,.744-6.359,2.729-6.733,4.961a1.818,1.818,0,0,0,.623,1.737,2.341,2.341,0,0,0,1.746.62c2.619,0,5.237-3.6,7.107-6.822a40.517,40.517,0,0,1,6.235-1.612A9.75,9.75,0,0,0,28.2,24.781c1.746,0,2.369-.744,2.618-1.364A1.708,1.708,0,0,0,30.446,21.432ZM28.7,22.673c-.125.5-.748.992-1.87.744a9.114,9.114,0,0,1-3.616-1.861,17.165,17.165,0,0,1,4.489-.124A1.128,1.128,0,0,1,28.7,22.673ZM16.6,7.788a.686.686,0,0,1,.623-.372c.623,0,.748.744.748,1.364a17.724,17.724,0,0,1-.873,4.465C16.106,10.517,16.231,8.533,16.6,7.788ZM16.48,21.8A29.623,29.623,0,0,0,18.1,17.835a23.1,23.1,0,0,0,2.244,2.977A17.9,17.9,0,0,0,16.48,21.8Zm-4.239,2.853c-1.746,2.729-3.367,4.465-4.364,4.465a.753.753,0,0,1-.5-.124.817.817,0,0,1-.125-.744C7.378,27.262,9.373,25.9,12.241,24.657Z" transform="translate(1.525 1.106)" fill="#fff"/>
</svg>
