<?xml version="1.0" encoding="UTF-8"?><svg width="40" height="40" viewBox="0 0 40 40" fill="none" xmlns="http://www.w3.org/2000/svg">
<path d="M32.7887 0H7.21125C3.22859 0 0 3.22859 0 7.21125V32.7887C0 36.7714 3.22859 40 7.21125 40H32.7887C36.7714 40 40 36.7714 40 32.7887V7.21125C40 3.22859 36.7714 0 32.7887 0Z" fill="black"/>
<path d="M32.8037 23.1112C30.8777 21.1112 25.6185 21.926 24.3592 22.0741C22.5074 20.2964 21.2481 18.1482 20.8037 17.4075C21.4703 15.4075 21.9148 13.4075 21.9889 11.2593C21.9889 9.40747 21.2481 7.40747 19.174 7.40747C18.4333 7.40747 17.7666 7.85191 17.3963 8.44451C16.5074 10.0001 16.8777 13.1112 18.2851 16.2964C17.4703 18.5927 16.7296 20.8149 14.6555 24.7408C12.5074 25.6297 7.98885 27.7038 7.61848 29.926C7.47033 30.5927 7.69256 31.2593 8.21107 31.7778C8.72959 32.2223 9.39626 32.4445 10.0629 32.4445C12.8037 32.4445 15.4703 28.6667 17.3222 25.4815C18.8777 24.963 21.3222 24.2223 23.7666 23.7778C26.6555 26.2964 29.174 26.6667 30.5074 26.6667C32.2852 26.6667 32.9518 25.926 33.174 25.2593C33.5444 24.5186 33.3222 23.7038 32.8037 23.1112ZM30.9518 24.3704C30.8777 24.889 30.2111 25.4075 29.0259 25.1112C27.6185 24.7408 26.3592 24.0741 25.2481 23.1852C26.2111 23.0371 28.3592 22.8149 29.9148 23.1112C30.5074 23.2593 31.1 23.6297 30.9518 24.3704ZM18.5814 9.11117C18.7296 8.88895 18.9518 8.7408 19.174 8.7408C19.8407 8.7408 19.9889 9.55562 19.9889 10.2223C19.9148 11.7778 19.6185 13.3334 19.1 14.8149C17.9889 11.8519 18.2111 9.77784 18.5814 9.11117ZM18.4333 23.4815C19.0259 22.2964 19.8407 20.2223 20.137 19.3334C20.8037 20.4445 21.9148 21.7778 22.5074 22.3704C22.5074 22.4445 20.2111 22.889 18.4333 23.4815ZM14.0629 26.4445C12.3592 29.2593 10.5814 31.0371 9.61848 31.0371C9.47033 31.0371 9.32218 30.963 9.17404 30.889C8.95181 30.7408 8.87774 30.5186 8.95181 30.2223C9.17404 29.1852 11.1 27.7778 14.0629 26.4445Z" fill="white"/>
</svg>
