<?xml version="1.0" encoding="UTF-8"?><svg xmlns="http://www.w3.org/2000/svg" xmlns:xlink="http://www.w3.org/1999/xlink" width="80" height="78" viewBox="0 0 80 78">
  <defs>
    <clipPath id="clip-path">
      <rect id="Rectangle_216820" data-name="Rectangle 216820" width="80" height="77.999" fill="none"/>
    </clipPath>
  </defs>
  <g id="_5_Logo_Scan" data-name="5_Logo_Scan" transform="translate(0 -711.369)">
    <g id="Icon-400x80h-logo-Icon-container" transform="translate(0 646.501)">
      <g id="Img-Options_-_0_0_0_0_" data-name="Img-Options - 0,0,0,0 " transform="translate(0 -646.501)">
        <g id="Icon-300x80h-logo-Icon-container" transform="translate(0 646.501)">
          <g id="Icon-400x80h-logo-Icon-container-2" data-name="Icon-400x80h-logo-Icon-container" transform="translate(-160 2)">
            <g id="Group_296013" data-name="Group 296013" transform="translate(160 62.868)">
              <g id="Group_296007" data-name="Group 296007" clip-path="url(#clip-path)">
                <path id="Path_596377" data-name="Path 596377" d="M14.167,0H65.833A14.167,14.167,0,0,1,80,14.167V63.832A14.167,14.167,0,0,1,65.833,78H14.167A14.167,14.167,0,0,1,0,63.832V14.167A14.167,14.167,0,0,1,14.167,0" fill="#008cad"/>
                <path id="Path_596378" data-name="Path 596378" d="M59.479,40.671c-3.745-3.982-14.1-2.362-16.532-1.957A42.181,42.181,0,0,1,36.03,29.6a40.583,40.583,0,0,0,2.362-11.943c0-3.644-1.45-7.559-5.5-7.559a4.1,4.1,0,0,0-3.407,1.992c-1.72,2.968-1.046,9.109,1.72,15.317-1.619,4.554-3.948,11.134-7.017,16.465-4.15,1.652-12.957,5.7-13.8,10.189A3.789,3.789,0,0,0,11.6,57.641a5.134,5.134,0,0,0,3.576,1.281c5.3,0,10.593-7.355,14.17-13.664a89.963,89.963,0,0,1,12.619-3.306c5.6,4.892,10.595,5.635,13.124,5.635,3.442,0,4.723-1.485,5.2-2.733a4.21,4.21,0,0,0-.809-4.183m-3.644,2.564c-.169.978-1.417,1.957-3.745,1.45a18.741,18.741,0,0,1-7.354-3.711,30.589,30.589,0,0,1,9.075-.136c1.079.2,2.327.81,2.024,2.4M31.678,13.375a1.356,1.356,0,0,1,1.182-.742c1.281,0,1.551,1.553,1.551,2.834a39.416,39.416,0,0,1-1.687,9.009c-2.159-5.736-1.856-9.717-1.046-11.1m-.3,28.036a84.691,84.691,0,0,0,3.34-8.03A42.56,42.56,0,0,0,39.3,39.388a75.928,75.928,0,0,0-7.929,2.024m-8.469,5.8c-3.407,5.466-6.748,8.906-8.7,8.906a1.389,1.389,0,0,1-.878-.3,1.256,1.256,0,0,1-.438-1.248c.371-1.957,4.251-4.791,10.02-7.355" transform="translate(4.583 4.49)" fill="#fff"/>
              </g>
            </g>
          </g>
        </g>
      </g>
    </g>
  </g>
</svg>
