<svg xmlns="http://www.w3.org/2000/svg" width="46" height="46" viewBox="0 0 46 46">
  <g id="Group_163400" data-name="Group 163400" transform="translate(-29 64)">
    <g id="Teams_and_businesses_selected" data-name="Teams and businesses selected" transform="translate(29 -65)">
      <circle id="Ellipse_10203" data-name="Ellipse 10203" cx="23" cy="23" r="23" transform="translate(0 1)" fill="#1473e6"/>
    </g>
    <g id="S_UserGroup_18_N_2x" data-name="S_UserGroup_18_N@2x" transform="translate(43.002 -51)">
      <path id="Path_91564" data-name="Path 91564" d="M23.1,11.238c-.72-.062-.732-.642-.732-1.364a6.575,6.575,0,0,0,1.545-3.918C23.914,3.582,22.564,2,20.619,2a3.15,3.15,0,0,0-1.339.287,5.345,5.345,0,0,1,2.62,4.95,7.8,7.8,0,0,1-1.21,3.974.43.43,0,0,0,.237.644A6.744,6.744,0,0,1,25.529,16h1.628a.435.435,0,0,0,.439-.461C27.308,12.394,24.086,11.324,23.1,11.238Z" transform="translate(-9.641)" fill="#fff"/>
      <path id="Path_91565" data-name="Path 91565" d="M14.485,19a.466.466,0,0,0,.47-.494c-.31-3.367-3.762-4.514-4.818-4.606-.772-.067-.784-.688-.784-1.462a7.046,7.046,0,0,0,1.655-4.2C11.009,5.7,9.562,4,7.479,4S3.949,5.7,3.949,8.238a7.046,7.046,0,0,0,1.655,4.2c0,.774-.012,1.4-.784,1.462C3.764,13.992.311,15.139,0,18.506A.465.465,0,0,0,.472,19Z" transform="translate(0 -1)" fill="#fff"/>
    </g>
  </g>
</svg>
