<svg width="33" height="31" viewBox="0 0 33 31" fill="none" xmlns="http://www.w3.org/2000/svg">
<g id="Be">
<g id="Surfaces">
<path id="Vector" d="M26.835 0.145752H6.16505C3.03633 0.145752 0.5 2.68208 0.5 5.8108V25.3379C0.5 28.4666 3.03633 31.0029 6.16505 31.0029H26.835C29.9637 31.0029 32.5 28.4666 32.5 25.3379V5.8108C32.5 2.68208 29.9637 0.145752 26.835 0.145752Z" fill="#000B1D"/>
</g>
<g id="Outlined Mnemonics &#38;amp; Logos">
<g id="Be - update for SVG">
<path id="Vector_2" d="M6.2428 8.31574C6.2428 8.18837 6.26401 8.12462 6.37031 8.10327C7.11362 8.08206 9.19509 8.03965 10.7032 8.03965C15.2275 8.03965 15.9708 10.3548 15.9708 11.7567C15.9708 13.2009 15.2062 14.0719 14.6753 14.4541C15.461 14.8577 16.6504 15.7711 16.6504 17.7252C16.6504 20.3164 14.3991 22.0369 10.7459 22.0369C8.68532 22.0369 7.17723 22.0157 6.39151 21.9945C6.2852 21.9732 6.2428 21.9095 6.2428 21.8033L6.2428 8.31574ZM9.13148 13.5196H10.5757C11.298 13.5196 12.1477 13.5833 12.4663 13.6259C12.8486 13.286 13.1033 12.8824 13.1033 12.1814C13.1033 11.0983 12.2964 10.5247 10.682 10.5247C10.0235 10.5247 9.59883 10.5459 9.13148 10.5673V13.5196ZM9.13148 19.5306C9.57763 19.5518 10.0447 19.5731 10.682 19.5731C12.5087 19.5943 13.5919 18.9996 13.5919 17.7676C13.5919 17.0455 13.2944 16.4294 12.2964 16.1747C11.9565 16.0896 11.4892 16.0472 10.9582 16.0472H9.13148V19.5306ZM21.0182 17.4915C21.1245 18.7022 21.9741 19.7005 24.0555 19.7005C25.0115 19.7005 25.8611 19.5518 26.6683 19.212C26.7319 19.1695 26.7955 19.1907 26.7955 19.3181V21.336C26.7955 21.4847 26.7531 21.5484 26.6471 21.5909C25.7974 21.9945 24.8627 22.2068 23.3971 22.2068C19.404 22.2068 18.0022 19.4668 18.0022 16.833C18.0022 13.902 19.8075 11.2256 23.1423 11.2256C26.3496 11.2256 27.6239 13.7107 27.6239 15.8135C27.6239 16.472 27.5815 17.003 27.5179 17.2366C27.4967 17.3428 27.454 17.3854 27.348 17.4066C27.0717 17.449 26.2645 17.4915 25.1602 17.4915L21.0182 17.4915ZM23.8276 15.4313C24.5073 15.4313 24.8045 15.4099 24.8896 15.3887V15.24C24.8896 14.7302 24.4861 13.5621 23.084 13.5621C21.7459 13.5621 21.1725 14.5603 21.045 15.4313L23.8276 15.4313ZM19.6444 7.67261H26.003C26.1022 7.67261 26.1521 7.72953 26.1521 7.843V9.5682C26.1521 9.68202 26.0952 9.73859 25.9817 9.73859H19.6231C19.5237 9.73859 19.474 9.68202 19.474 9.5682V7.82172C19.474 7.72256 19.5306 7.67261 19.6444 7.67261Z" fill="white"/>
</g>
</g>
</g>
</svg>
