<svg width="20" height="20" viewBox="0 0 20 20" fill="none" xmlns="http://www.w3.org/2000/svg">
<g id="Frame">
<path id="iconPrimary" d="M16.75 2.00001H8.75C7.50736 2.00001 6.5 3.00737 6.5 4.25001V4.75001C6.5 5.16407 6.83594 5.50001 7.25 5.50001C7.66406 5.50001 8 5.16407 8 4.75001V4.25001C8 3.83692 8.33691 3.50001 8.75 3.50001H16.75C17.1625 3.50001 17.5 3.83751 17.5 4.25001V8.75001C17.5 9.16251 17.1625 9.50001 16.75 9.50001H16C15.5858 9.50001 15.25 9.8358 15.25 10.25V11.9014L13.5 10.3594V9.25001C13.5 8.00737 12.4926 7.00001 11.25 7.00001H3.25C2.00736 7.00001 1 8.00737 1 9.25001V13.75C1 14.9902 2.00977 16 3.25 16V18.1367C3.25 18.5195 3.47754 18.8604 3.83008 19.0059C3.94922 19.0547 4.07422 19.0781 4.19531 19.0781C4.43359 19.0781 4.66113 18.9893 4.81347 18.833L8.0332 16H11.25C12.4926 16 13.5 14.9926 13.5 13.75V12.3572L15.1397 13.8008C15.3203 13.9815 15.5596 14.0762 15.8047 14.0762C15.9268 14.0762 16.0508 14.0527 16.1689 14.0039C16.5215 13.8574 16.75 13.5176 16.75 13.1367V11C17.9902 11 19 9.99023 19 8.75V4.25C19 3.00736 17.9926 2.00001 16.75 2.00001ZM12 13.75C12 14.1625 11.6625 14.5 11.25 14.5H7.4668L4.75 16.8936V15.25C4.75 14.8358 4.41421 14.5 4 14.5H3.25C2.8375 14.5 2.5 14.1625 2.5 13.75V9.25001C2.5 8.83751 2.8375 8.50001 3.25 8.50001H11.25C11.6625 8.50001 12 8.83751 12 9.25001V13.75Z" fill="#505050"/>
</g>
</svg>
