<svg width="20" height="20" viewBox="0 0 20 20" fill="none" xmlns="http://www.w3.org/2000/svg">
<g id="Frame">
<path id="iconPrimary" d="M6.25 19C6.15088 19 6.05127 18.9805 5.95654 18.9404C5.67968 18.8223 5.5 18.5508 5.5 18.25V15H4.75C2.68213 15 1 13.3174 1 11.25V5.75C1 3.68262 2.68213 2 4.75 2H15.25C17.3179 2 19 3.68262 19 5.75V11.25C19 13.3174 17.3179 15 15.25 15H10.707L6.77002 18.79C6.62744 18.9277 6.44043 19 6.25 19ZM4.75 3.5C3.50928 3.5 2.5 4.50977 2.5 5.75V11.25C2.5 12.4902 3.50928 13.5 4.75 13.5H6.25C6.66406 13.5 7 13.8359 7 14.25V16.4873L9.88477 13.71C10.0244 13.5752 10.2109 13.5 10.4048 13.5H15.25C16.4907 13.5 17.5 12.4902 17.5 11.25V5.75C17.5 4.50977 16.4907 3.5 15.25 3.5H4.75Z" fill="#292929"/>
</g>
</svg>
