<svg width="332" height="48" viewBox="0 0 332 48" fill="none" xmlns="http://www.w3.org/2000/svg">
<path d="M12.4161 9.81933H20.4091L31.6977 37.0212H23.2495L16.1122 18.9595L11.3964 30.8125H17.0043L19.2438 37.0212H1L12.4161 9.81933ZM41.111 15.4636C41.9303 15.4636 42.8225 15.5365 43.7146 15.755V9.01821H50.7791V35.8195C49.1586 36.5478 45.6628 37.44 42.167 37.44C35.8308 37.44 30.3868 33.8349 30.3868 26.643C30.3868 19.4511 35.6305 15.4818 41.111 15.4818V15.4636ZM42.0031 31.6136C42.6586 31.6136 43.1866 31.4862 43.7146 31.3223V21.4539C43.1866 21.2536 42.6586 21.1626 41.9667 21.1626C39.6544 21.1626 37.5059 22.8741 37.5059 26.4791C37.5059 30.0842 39.6908 31.5954 42.0031 31.5954V31.6136ZM63.3604 15.4636C69.2414 15.4636 74.2485 19.4329 74.2485 26.4245C74.2485 33.4162 69.2596 37.3854 63.3604 37.3854C57.4612 37.3854 52.436 33.4162 52.436 26.4245C52.436 19.4329 57.3884 15.4636 63.3604 15.4636ZM63.3604 31.5044C65.3815 31.5044 67.2568 29.8839 67.2568 26.4245C67.2568 22.9651 65.3815 21.3446 63.3604 21.3446C61.3394 21.3446 59.5005 22.9651 59.5005 26.4245C59.5005 29.8839 61.2484 31.5044 63.3604 31.5044ZM75.9418 9.01821H83.0427V15.755C83.8984 15.5911 84.7906 15.4636 85.6827 15.4636C91.1996 15.4636 96.3159 19.0687 96.3159 26.1332C96.3159 33.5982 90.8719 37.3854 84.4264 37.3854C81.6589 37.3854 78.1267 36.8209 75.9418 35.8013V9V9.01821ZM84.5903 31.5772C87.0301 31.5772 89.2514 29.8293 89.2514 26.2242C89.2514 22.8559 87.0665 21.2718 84.6995 21.2718C84.0441 21.2718 83.5161 21.3446 83.0427 21.5631V31.3041C83.4432 31.468 83.9712 31.5954 84.5903 31.5954V31.5772ZM108.369 15.4636C113.686 15.4636 118.565 18.8684 118.565 25.7326C118.565 26.6612 118.529 27.5534 118.401 28.4455H105.165C105.893 30.8489 108.005 31.9778 110.645 31.9778C112.794 31.9778 114.778 31.4498 117.018 30.4848V35.8924C114.942 36.9484 112.466 37.3854 109.917 37.3854C103.18 37.3854 97.9363 33.3251 97.9363 26.4245C97.9363 19.5239 102.688 15.4636 108.369 15.4636ZM111.938 24.0211C111.574 21.7088 110.026 20.7802 108.442 20.7802C106.858 20.7802 105.565 21.7634 105.037 24.0211H111.938Z" fill="#131313"/>
<path d="M144.297 9.68C147.217 9.64 149.697 10.08 151.137 10.96L151.017 17.68C149.337 16.6 147.417 16.08 144.857 16.08C140.137 16.08 137.497 19.24 137.497 23.36C137.497 28.4 140.537 31.08 145.057 31.08C147.257 31.08 149.217 30.8 151.257 29.68L151.297 36.24C149.777 37 147.577 37.48 144.177 37.52C133.977 37.56 129.497 30.88 129.497 23.48C129.497 16.72 134.497 9.76 144.297 9.68ZM163.407 15.76C169.807 15.76 174.087 20.4 174.087 26.52C174.087 32.84 169.727 37.36 163.407 37.36C156.287 37.36 152.527 32.2 152.527 26.64C152.527 20.52 156.647 15.76 163.407 15.76ZM163.367 21.4C161.047 21.4 159.527 23.16 159.527 26.4C159.527 29.56 160.807 31.72 163.407 31.72C165.767 31.72 167.087 29.76 167.087 26.52C167.087 23.36 165.687 21.4 163.367 21.4ZM199.571 37V24.28C199.571 22.32 198.491 21.36 196.891 21.36C195.891 21.36 195.171 21.64 194.651 21.88C194.691 22.32 194.731 22.84 194.731 23.4L194.771 37H187.811V24.16C187.811 22.28 186.811 21.4 185.131 21.4C184.331 21.4 183.691 21.48 182.971 21.76V37H176.011V17.64C178.371 16.64 181.811 15.72 185.411 15.76C188.011 15.76 190.091 16.16 191.611 17.04C193.731 16.2 195.651 15.76 197.651 15.76C202.851 15.76 206.531 18.16 206.531 24.24V37H199.571ZM232.726 37V24.28C232.726 22.32 231.646 21.36 230.046 21.36C229.046 21.36 228.326 21.64 227.806 21.88C227.846 22.32 227.886 22.84 227.886 23.4L227.926 37H220.966V24.16C220.966 22.28 219.966 21.4 218.286 21.4C217.486 21.4 216.846 21.48 216.126 21.76V37H209.166V17.64C211.526 16.64 214.966 15.72 218.566 15.76C221.166 15.76 223.246 16.16 224.766 17.04C226.886 16.2 228.806 15.76 230.806 15.76C236.006 15.76 239.686 18.16 239.686 24.24V37H232.726ZM252.161 37.44C245.321 37.44 242.321 34.72 242.321 28.96V16.12H249.321V28.64C249.321 30.88 250.401 31.8 252.201 31.8C253.041 31.8 253.761 31.76 254.361 31.52V16.12H261.361V35.24C258.681 36.6 255.801 37.44 252.161 37.44ZM263.952 37V17.8C266.632 16.64 270.152 15.76 273.992 15.76C280.112 15.76 283.392 18.8 283.392 24.44V37H276.392V24.84C276.392 22.6 275.512 21.44 273.312 21.44C272.352 21.44 271.672 21.56 270.952 21.88V37H263.952ZM289.493 8.8C291.733 8.8 293.133 10.08 293.133 11.96C293.133 13.88 291.773 15.2 289.493 15.2C287.173 15.2 285.813 13.92 285.813 11.96C285.813 10.04 287.293 8.8 289.493 8.8ZM286.013 37V16.12H293.013V37H286.013ZM304.681 11.08V16.32H308.521V21.88H304.681V29C304.681 30.92 305.481 31.64 306.841 31.64C307.281 31.64 307.921 31.56 308.521 31.36L308.561 36.88C307.681 37.2 306.721 37.4 304.921 37.4C300.361 37.4 297.681 35.24 297.681 30.12V21.88H294.681V16.32H297.681V11.08H304.681ZM314.115 43.16L317.235 35.84L309.395 16.12H316.915C318.195 19.92 319.515 23.8 320.795 27.88C321.955 23.84 323.195 19.96 324.355 16.12H331.675L321.675 43.16H314.115Z" fill="#131313"/>
</svg>
