<svg width="262" height="48" viewBox="0 0 262 48" fill="none" xmlns="http://www.w3.org/2000/svg">
<path d="M9.62235 13.0691H15.817L24.5656 34.0372H18.0183L12.4868 20.1146L8.83215 29.2513H13.1783L14.9139 34.0372H0.774902L9.62235 13.0691ZM31.8609 17.4199C32.4959 17.4199 33.1873 17.476 33.8787 17.6444V12.4515H39.3537V33.1109C38.0979 33.6723 35.3886 34.36 32.6793 34.36C27.7688 34.36 23.5497 31.5811 23.5497 26.0373C23.5497 20.4935 27.6136 17.4339 31.8609 17.4339V17.4199ZM32.5523 29.8688C33.0603 29.8688 33.4695 29.7706 33.8787 29.6443V22.0374C33.4695 21.883 33.0603 21.8128 32.5241 21.8128C30.732 21.8128 29.067 23.1321 29.067 25.911C29.067 28.6899 30.7603 29.8548 32.5523 29.8548V29.8688ZM49.1043 17.4199C53.662 17.4199 57.5425 20.4795 57.5425 25.8689C57.5425 31.2583 53.6761 34.3179 49.1043 34.3179C44.5324 34.3179 40.6378 31.2583 40.6378 25.8689C40.6378 20.4795 44.4759 17.4199 49.1043 17.4199ZM49.1043 29.7846C50.6705 29.7846 52.124 28.5355 52.124 25.8689C52.124 23.2023 50.6705 21.9532 49.1043 21.9532C47.538 21.9532 46.1128 23.2023 46.1128 25.8689C46.1128 28.5355 47.4674 29.7846 49.1043 29.7846ZM58.8548 12.4515H64.358V17.6444C65.0212 17.5181 65.7126 17.4199 66.404 17.4199C70.6796 17.4199 74.6447 20.1988 74.6447 25.6443C74.6447 31.3986 70.4256 34.3179 65.4304 34.3179C63.2856 34.3179 60.5481 33.8828 58.8548 33.0969V12.4375V12.4515ZM65.5574 29.8408C67.4482 29.8408 69.1698 28.4934 69.1698 25.7145C69.1698 23.118 67.4765 21.897 65.6421 21.897C65.1341 21.897 64.7249 21.9532 64.358 22.1216V29.6302C64.6684 29.7566 65.0776 29.8548 65.5574 29.8548V29.8408ZM83.9861 17.4199C88.1064 17.4199 91.8881 20.0444 91.8881 25.3356C91.8881 26.0513 91.8599 26.7391 91.7611 27.4268H81.5026C82.067 29.2794 83.7038 30.1495 85.7499 30.1495C87.415 30.1495 88.953 29.7425 90.6887 28.9987V33.167C89.08 33.9811 87.161 34.3179 85.1855 34.3179C79.9645 34.3179 75.9006 31.1881 75.9006 25.8689C75.9006 20.5497 79.5835 17.4199 83.9861 17.4199ZM86.7518 24.0163C86.4695 22.2339 85.2701 21.5181 84.0425 21.5181C82.8149 21.5181 81.813 22.276 81.4038 24.0163H86.7518Z" fill="#131313"/>
<path d="M111.938 12.144C114.274 12.112 116.258 12.464 117.41 13.168L117.314 18.544C115.97 17.68 114.434 17.264 112.386 17.264C108.61 17.264 106.498 19.792 106.498 23.088C106.498 27.12 108.93 29.264 112.546 29.264C114.306 29.264 115.874 29.04 117.506 28.144L117.538 33.392C116.322 34 114.562 34.384 111.842 34.416C103.682 34.448 100.098 29.104 100.098 23.184C100.098 17.776 104.098 12.208 111.938 12.144ZM127.226 17.008C132.346 17.008 135.77 20.72 135.77 25.616C135.77 30.672 132.282 34.288 127.226 34.288C121.53 34.288 118.522 30.16 118.522 25.712C118.522 20.816 121.818 17.008 127.226 17.008ZM127.194 21.52C125.338 21.52 124.122 22.928 124.122 25.52C124.122 28.048 125.146 29.776 127.226 29.776C129.114 29.776 130.17 28.208 130.17 25.616C130.17 23.088 129.05 21.52 127.194 21.52ZM156.157 34V23.824C156.157 22.256 155.293 21.488 154.013 21.488C153.213 21.488 152.637 21.712 152.221 21.904C152.253 22.256 152.285 22.672 152.285 23.12L152.317 34H146.749V23.728C146.749 22.224 145.949 21.52 144.605 21.52C143.965 21.52 143.453 21.584 142.877 21.808V34H137.309V18.512C139.197 17.712 141.949 16.976 144.829 17.008C146.909 17.008 148.573 17.328 149.789 18.032C151.485 17.36 153.021 17.008 154.621 17.008C158.781 17.008 161.725 18.928 161.725 23.792V34H156.157ZM182.681 34V23.824C182.681 22.256 181.817 21.488 180.537 21.488C179.737 21.488 179.161 21.712 178.745 21.904C178.777 22.256 178.809 22.672 178.809 23.12L178.841 34H173.273V23.728C173.273 22.224 172.473 21.52 171.129 21.52C170.489 21.52 169.977 21.584 169.401 21.808V34H163.833V18.512C165.721 17.712 168.473 16.976 171.353 17.008C173.433 17.008 175.097 17.328 176.313 18.032C178.009 17.36 179.545 17.008 181.145 17.008C185.305 17.008 188.249 18.928 188.249 23.792V34H182.681ZM198.229 34.352C192.757 34.352 190.357 32.176 190.357 27.568V17.296H195.957V27.312C195.957 29.104 196.821 29.84 198.261 29.84C198.933 29.84 199.509 29.808 199.989 29.616V17.296H205.589V32.592C203.445 33.68 201.141 34.352 198.229 34.352ZM207.662 34V18.64C209.806 17.712 212.622 17.008 215.694 17.008C220.59 17.008 223.214 19.44 223.214 23.952V34H217.614V24.272C217.614 22.48 216.91 21.552 215.15 21.552C214.382 21.552 213.838 21.648 213.262 21.904V34H207.662ZM228.094 11.44C229.886 11.44 231.006 12.464 231.006 13.968C231.006 15.504 229.918 16.56 228.094 16.56C226.238 16.56 225.15 15.536 225.15 13.968C225.15 12.432 226.334 11.44 228.094 11.44ZM225.31 34V17.296H230.91V34H225.31ZM240.245 13.264V17.456H243.317V21.904H240.245V27.6C240.245 29.136 240.885 29.712 241.973 29.712C242.325 29.712 242.837 29.648 243.317 29.488L243.349 33.904C242.645 34.16 241.877 34.32 240.437 34.32C236.789 34.32 234.645 32.592 234.645 28.496V21.904H232.245V17.456H234.645V13.264H240.245ZM247.792 38.928L250.288 33.072L244.016 17.296H250.032C251.056 20.336 252.112 23.44 253.136 26.704C254.064 23.472 255.056 20.368 255.984 17.296H261.84L253.84 38.928H247.792Z" fill="#131313"/>
</svg>
