<svg width="20" height="20" viewBox="0 0 20 20" fill="none" xmlns="http://www.w3.org/2000/svg">
<g id="Frame">
<path id="iconPrimary" fill-rule="evenodd" clip-rule="evenodd" d="M10.3749 3.05847C10.1759 2.83289 9.82411 2.83289 9.62507 3.05847L4.89504 8.41917C4.61017 8.74202 4.8394 9.24998 5.26995 9.24998H7.24999C7.6642 9.24998 7.99999 9.58577 7.99999 9.99998V16C7.99999 16.2761 8.22385 16.5 8.49999 16.5H11.5C11.7761 16.5 12 16.2761 12 16V9.99999C12 9.58578 12.3358 9.24999 12.75 9.24999L14.73 9.24998C15.1606 9.24998 15.3898 8.74202 15.1049 8.41917L10.3749 3.05847ZM8.50031 2.06604C9.29649 1.1637 10.7035 1.1637 11.4997 2.06604L16.2297 7.42674C17.3692 8.71814 16.4523 10.75 14.73 10.75L13.5 10.75V16C13.5 17.1046 12.6046 18 11.5 18H8.49999C7.39542 18 6.49999 17.1046 6.49999 16V10.75H5.26995C3.54772 10.75 2.63081 8.71814 3.77028 7.42674L8.50031 2.06604Z" fill="#292929"/>
</g>
</svg>
