<?xml version="1.0" encoding="UTF-8"?><svg width="53" height="50" viewBox="0 0 53 50" fill="none" xmlns="http://www.w3.org/2000/svg">
<rect width="52.9819" height="50" rx="8.4" fill="#EB1000"/>
<rect x="0.469304" y="0.469304" width="52.0433" height="49.0614" rx="7.9307" stroke="white" stroke-opacity="0.1" stroke-width="0.938609"/>
<path d="M14.6968 15.663H29.4101V20.4454H20.2926V23.9021H28.3609V28.6846H20.2926V35.8176H14.6968V15.663Z" fill="white"/>
<path d="M31.761 20.1117H37.0314V35.8255H31.761V20.1117Z" fill="white"/>
<path d="M35.2975 17.2083L37.1763 17.6312C37.9164 17.7939 38.4288 16.9155 37.9083 16.3624L36.6069 14.9553C36.4361 14.7683 36.3629 14.5161 36.4199 14.264L36.8428 12.3933C37.0055 11.6613 36.1271 11.1489 35.5659 11.6613L34.1507 12.9626C33.9636 13.1334 33.7033 13.1985 33.4593 13.1497L31.5805 12.7268C30.8403 12.5641 30.3279 13.4425 30.8485 13.9956L32.1498 15.4027C32.3206 15.5897 32.3938 15.8419 32.3369 16.094L31.914 17.9647C31.7513 18.6967 32.6297 19.2091 33.1909 18.6967L34.6061 17.3954C34.7932 17.2245 35.0535 17.1595 35.2975 17.2083Z" fill="white"/>
</svg>
