<?xml version="1.0" encoding="UTF-8"?><svg width="80" height="80" viewBox="0 0 80 80" fill="none" xmlns="http://www.w3.org/2000/svg">
<path d="M67.8047 24.9961H62.6589C61.0676 13.5981 51.5134 4.80078 39.9668 4.80078C39.9536 4.80078 39.9429 4.8081 39.9297 4.80858C39.9165 4.8081 39.9058 4.80078 39.8926 4.80078C28.3479 4.80078 18.7949 13.5952 17.2012 24.9961H12.1953C7.6758 24.9961 4 28.6719 4 33.1914V47.7735C4 52.2539 7.64452 55.9336 12.1348 55.9688L18.9766 56H18.9902C19.1692 56 19.3245 55.9283 19.4949 55.8985C19.6653 55.9283 19.8208 56 20 56H20.0078C21.664 55.9961 23.0039 54.6485 23 52.9922L22.9414 28.3399C22.9414 18.668 30.5449 10.8008 39.8926 10.8008C39.9058 10.8008 39.9165 10.7935 39.9297 10.793C39.9429 10.7935 39.9536 10.8008 39.9668 10.8008C49.3144 10.8008 56.918 18.668 56.918 28.3399V55C56.918 55.0127 56.9248 55.0225 56.925 55.0352C56.0371 58.711 53.1076 61.917 48.8804 63.9121C47.531 61.5801 45.0937 60 42.2871 60H37.7129C33.4609 60 30 63.5899 30 68C30 72.4102 33.4609 76 37.7129 76H42.2871C45.8513 76 48.8308 73.4649 49.7107 70.0513C56.6145 67.3648 61.508 62.2305 62.8476 56.1172C62.8569 56.0743 62.8423 56.0342 62.8498 55.9917L67.8769 55.9688C72.3554 55.9336 76 52.2539 76 47.7735V33.1914C76 28.6719 72.3242 24.9961 67.8047 24.9961ZM10 47.7735V33.1914C10 31.9805 10.9844 30.9961 12.1953 30.9961H16.9485L16.9919 49.9907L12.1738 49.9688C10.9746 49.961 10 48.9727 10 47.7735ZM42.2871 70H37.7129C36.7676 70 36 69.1016 36 68C36 66.8985 36.7676 66 37.7129 66H42.2871C43.2324 66 44 66.8985 44 68C44 69.1016 43.2324 70 42.2871 70ZM70 47.7735C70 48.9727 69.0254 49.961 67.8379 49.9688L62.918 49.9913V30.9961H67.8047C69.0156 30.9961 70 31.9805 70 33.1915V47.7735Z" fill="#292929"/>
</svg>
