<?xml version="1.0" encoding="UTF-8"?><svg width="80" height="80" viewBox="0 0 80 80" fill="none" xmlns="http://www.w3.org/2000/svg">
<path d="M40 5.00781C20.6992 5.00781 5 20.7071 5 40.0078C5 59.3086 20.6992 75.0078 40 75.0078C59.3008 75.0078 75 59.3086 75 40.0078C75 20.707 59.3008 5.00781 40 5.00781ZM68.8438 37.0078H56.2754C55.7178 27.6865 52.6172 18.9023 47.5088 12.0283C58.9307 15.0977 67.5996 24.9531 68.8438 37.0078ZM40.0498 67.5332C34.0918 61.3848 30.374 52.5537 29.7217 43.0078H50.2783C49.6328 52.5605 45.9541 61.3809 40.0498 67.5332ZM29.7226 37.0078C30.374 27.458 34.0898 18.6319 40.0478 12.4805C45.9551 18.6309 49.6328 27.4521 50.2783 37.0078H29.7226ZM32.585 12.0039C27.4258 18.8848 24.2891 27.6807 23.7246 37.0079H11.1562C12.4033 24.92 21.1172 15.045 32.585 12.0039ZM11.1562 43.0078H23.7246C24.289 52.3311 27.4297 61.1289 32.5888 68.0117C21.1181 64.9727 12.4043 55.0967 11.1562 43.0078ZM47.5068 67.9873C52.6162 61.1104 55.7178 52.3262 56.2764 43.0079H68.8438C67.5996 55.0635 58.9297 64.919 47.5068 67.9873Z" fill="#292929"/>
</svg>
