<?xml version="1.0" encoding="UTF-8"?><svg width="80" height="80" viewBox="0 0 80 80" fill="none" xmlns="http://www.w3.org/2000/svg">
<g clip-path="url(#clip0_773_6736)">
<path d="M40 8.96486C38.3438 8.96486 37 7.6211 37 5.96486V3.16406C37 1.50782 38.3438 0.164062 40 0.164062C41.6562 0.164062 43 1.50782 43 3.16406V5.96486C43 7.6211 41.6562 8.96486 40 8.96486Z" fill="#292929"/>
<path d="M73.8164 40.0859H71.0156C69.3594 40.0859 68.0156 38.7422 68.0156 37.0859C68.0156 35.4297 69.3594 34.0859 71.0156 34.0859H73.8164C75.4727 34.0859 76.8164 35.4297 76.8164 37.0859C76.8164 38.7422 75.4727 40.0859 73.8164 40.0859Z" fill="#292929"/>
<path d="M8.92971 40.0859H6.12891C4.47267 40.0859 3.12891 38.7422 3.12891 37.0859C3.12891 35.4297 4.47267 34.0859 6.12891 34.0859H8.92971C10.5859 34.0859 11.9297 35.4297 11.9297 37.0859C11.9297 38.7422 10.5859 40.0859 8.92971 40.0859Z" fill="#292929"/>
<path d="M18.043 18.1563C17.2734 18.1563 16.5078 17.8633 15.9219 17.2774L13.9414 15.2969C12.7695 14.125 12.7695 12.2266 13.9414 11.0547C15.1133 9.88281 17.0117 9.88281 18.1836 11.0547L20.1641 13.0352C21.336 14.2071 21.336 16.1055 20.1641 17.2774C19.5782 17.8633 18.8125 18.1563 18.043 18.1563Z" fill="#292929"/>
<path d="M61.9023 18.1563C61.1328 18.1563 60.3672 17.8633 59.7813 17.2774C58.6094 16.1055 58.6094 14.2071 59.7813 13.0352L61.7617 11.0547C62.9336 9.88281 64.8321 9.88281 66.0039 11.0547C67.1758 12.2266 67.1758 14.125 66.0039 15.2969L64.0235 17.2774C63.4375 17.8633 62.6719 18.1563 61.9023 18.1563Z" fill="#292929"/>
<path d="M64 38C64 24.7656 53.2344 14 40 14C26.7656 14 16 24.7656 16 38C16 46.8628 20.8408 54.5996 28.0049 58.7558C28.0049 58.7651 28 58.7724 28 58.7812V66C28 72.6172 33.3828 78 40 78C46.6172 78 52 72.6172 52 66V58.7529C59.1616 54.5957 64 46.8604 64 38ZM46 66C46 69.3086 43.3086 72 40 72C36.6914 72 34 69.3086 34 66V61.21C35.9219 61.7075 37.9248 62 40 62C42.0752 62 44.0781 61.7075 46 61.21V66ZM40 56C30.0742 56 22 47.9258 22 38C22 28.0742 30.0742 20 40 20C49.9258 20 58 28.0742 58 38C58 47.9258 49.9258 56 40 56Z" fill="#292929"/>
</g>
<defs>
<clipPath id="clip0_773_6736">
<rect width="80" height="80" fill="white"/>
</clipPath>
</defs>
</svg>
