<svg viewBox="0 0 32 32" fill="none" xmlns="http://www.w3.org/2000/svg">
<path id="Vector" d="M26.2605 -0.00402832H5.73949C2.56966 -0.00402832 0 2.56563 0 5.73546V26.2565C0 29.4263 2.56966 31.996 5.73949 31.996H26.2605C29.4303 31.996 32 29.4263 32 26.2565V5.73546C32 2.56563 29.4303 -0.00402832 26.2605 -0.00402832Z" fill="#B30C00"/>
<path id="256" d="M25.9802 18.4835C25.3279 17.7833 24.0807 17.4278 22.2728 17.4278C21.3826 17.4278 20.3774 17.5153 19.2793 17.6876C18.6844 17.1146 18.1046 16.4377 17.5549 15.6746C17.1624 15.1317 16.8 14.5696 16.4759 13.998C17.1132 11.9946 17.4359 10.3672 17.4359 9.16109C17.4359 7.68006 16.8492 6.09784 15.2027 6.09784C14.6626 6.09784 14.1087 6.42468 13.8243 6.91151C13.1227 8.11767 13.4031 10.5984 14.5244 13.1242C14.1347 14.2838 13.7094 15.4134 13.1884 16.6647C12.7508 17.7218 12.2284 18.8035 11.6773 19.8018C9.99794 20.4773 6.42871 22.117 6.08819 23.9289C5.98836 24.4719 6.16067 24.9847 6.5764 25.3731C6.70494 25.4948 7.19588 25.8913 8.03144 25.8913C10.1812 25.8913 12.3255 22.9156 13.7682 20.3529C14.5887 20.0739 15.4256 19.8209 16.2584 19.6007C17.172 19.3587 18.0554 19.1604 18.8882 19.0113C21.1651 20.9984 23.1877 21.2992 24.2024 21.2992C25.5959 21.2992 26.1169 20.6948 26.307 20.1874C26.5573 19.5242 26.3138 18.8377 25.9815 18.4821L25.9802 18.4835ZM24.4978 19.5283C24.4212 19.9235 24.0137 20.1778 23.4557 20.1778C23.3026 20.1778 23.1439 20.1587 22.9853 20.119C21.961 19.8742 20.9791 19.3792 20 18.6079C20.9176 18.4684 21.6916 18.4384 22.2085 18.4384C22.7966 18.4384 23.3354 18.4794 23.68 18.5519C24.1231 18.6435 24.6222 18.8883 24.4978 19.5283ZM14.7063 7.42707C14.8171 7.23562 14.9962 7.11938 15.1822 7.11938C15.7032 7.11938 15.8167 7.74707 15.8167 8.2722C15.8208 9.10912 15.5679 10.4438 15.1343 11.9207C14.2605 9.60553 14.3822 7.98228 14.7063 7.42707ZM17.7614 17.9693C17.1706 18.0937 16.5593 18.2373 15.9412 18.4014C15.4967 18.519 15.0455 18.6476 14.5942 18.7857C14.8335 18.2948 15.0537 17.8093 15.2465 17.3471C15.4995 16.7358 15.7374 16.1259 15.9549 15.5283C16.1463 15.8291 16.3446 16.1218 16.5484 16.4021C16.949 16.9587 17.3812 17.4893 17.8106 17.9584L17.7627 17.9693H17.7614ZM11.148 21.1378C9.77229 23.3532 8.41845 24.7536 7.62665 24.7536C7.48033 24.7536 7.35999 24.7098 7.27383 24.6278C7.1152 24.4801 7.0564 24.3187 7.09332 24.1218C7.24375 23.3286 8.81093 22.1826 11.1494 21.1392L11.148 21.1378Z" fill="white"/>
<defs>
<clipPath id="clip0_2172_207">
<rect fill="white" transform="translate(0 -0.00402832)"/>
</clipPath>
</defs>
</svg>
