<svg viewBox="0 0 32 32" fill="none" xmlns="http://www.w3.org/2000/svg">
<path id="Vector" d="M26.2611 0H5.73886C2.56937 0 0 2.56937 0 5.73886V26.2611C0 29.4306 2.56937 32 5.73886 32H26.2611C29.4306 32 32 29.4306 32 26.2611V5.73886C32 2.56937 29.4306 0 26.2611 0Z" fill="#00005B"/>
<path id="Vector_2" d="M8.17846 8.49414H12.89L18.1739 23.2452H13.8587L13.1321 20.9995H7.60601L6.87945 23.2452H2.74036L8.17846 8.49414ZM11.9873 17.4989L10.3801 12.5452L8.77288 17.4989H11.9873Z" fill="#9999FF"/>
<path id="Vector_3" d="M29.2595 17.1686C29.2595 17.697 29.2155 18.2695 29.1494 18.7098H21.9501C22.3904 19.8106 23.4472 20.339 25.0984 20.339C26.2873 20.339 27.3221 20.1188 28.3568 19.6345L28.4009 22.6948C27.2781 23.2672 26.0672 23.4653 24.5039 23.4653C20.651 23.4653 18.0752 21.3297 18.0752 17.4549C18.0752 13.9102 20.541 11.5544 23.7994 11.5544C27.146 11.5544 29.2595 13.7121 29.2595 17.1686ZM21.818 16.1999H25.6708C25.5828 15.1651 24.9443 14.4386 23.8215 14.4386C22.7427 14.4386 22.0601 15.011 21.818 16.1999Z" fill="#9999FF"/>
<defs>
<clipPath id="clip0_2136_6830">
<rect fill="white"/>
</clipPath>
</defs>
</svg>
