<?xml version="1.0" encoding="UTF-8"?>
<svg id="b" data-name="Layer_2" xmlns="http://www.w3.org/2000/svg" xmlns:xlink="http://www.w3.org/1999/xlink" version="1.1" viewBox="0 0 54 54">
  <!-- Generator: Adobe Illustrator 29.7.1, SVG Export Plug-In . SVG Version: 2.1.1 Build 8)  -->
  <defs>
    <clipPath id="h">
      <path d="M32.94454,16.42c-1.013-2.395-3.358-3.953-5.961-3.953s-4.971,1.562-5.982,3.965l-8.185,19.493c-1.122,2.663.831,5.608,3.72,5.608h9.115c2.238-.005,4.05-1.821,4.05-4.062s-1.818-4.062-4.062-4.062c-.092,0-1.558.012-1.558.012-.66,0-1.105-.672-.849-1.281l2.905-6.923c.316-.752,1.348-.757,1.666-.005l5.928,13.86c.814,1.85,2.364,2.454,3.729,2.458,2.896,0,4.848-2.949,3.72-5.615l-8.236-19.495Z" fill="none"/>
    </clipPath>
    <radialGradient id="i" cx="1260.89031" cy="5496.72945" fx="1260.89031" fy="5496.72945" r="1" gradientTransform="translate(-101665.4998 -23288.5037) rotate(90) scale(18.5 -18.5)" gradientUnits="userSpaceOnUse">
      <stop offset="0" stop-color="#3084fe"/>
      <stop offset="1" stop-color="#3084fe" stop-opacity="0"/>
    </radialGradient>
    <radialGradient id="j" cx="1260.89031" fx="1260.89031" gradientTransform="translate(-101665.4998 -23286.5037) rotate(90) scale(18.5 -18.5)" xlink:href="#i"/>
    <radialGradient id="k" cx="1030.57567" cy="5419.7363" fx="1030.57567" fy="5419.7363" r="1" gradientTransform="translate(-51448.4998 -9752.5019) rotate(90) scale(9.5 -9.5)" gradientUnits="userSpaceOnUse">
      <stop offset="0" stop-color="#6ce342"/>
      <stop offset=".585" stop-color="#6ce342"/>
      <stop offset="1" stop-color="#6ce342" stop-opacity="0"/>
    </radialGradient>
    <radialGradient id="l" cx="1284.60835" cy="5504.65828" fx="1284.60835" fy="5504.65828" r="1" gradientTransform="translate(-112819.4998 -26319.5041) rotate(90) scale(20.5 -20.5)" gradientUnits="userSpaceOnUse">
      <stop offset="0" stop-color="#f20a00"/>
      <stop offset="1" stop-color="#f20a00" stop-opacity="0"/>
    </radialGradient>
    <radialGradient id="m" cx="1112.91037" cy="5447.26042" fx="1112.91037" fy="5447.26042" r="1" gradientTransform="translate(-62624.4998 -12775.5023) rotate(90) scale(11.5 -11.5)" gradientUnits="userSpaceOnUse">
      <stop offset="0" stop-color="#ff43e3"/>
      <stop offset="1" stop-color="#ff43e3" stop-opacity="0"/>
    </radialGradient>
    <radialGradient id="n" cx="1054.2469" cy="5427.64948" fx="1054.2469" fy="5427.64948" gradientTransform="translate(-54252.9998 -10528.002) rotate(90) scale(10 -10)" xlink:href="#l"/>
    <radialGradient id="o" cx="1054.2469" cy="5427.64948" fx="1054.2469" fy="5427.64948" r="1" gradientTransform="translate(-54245.9998 -10526.002) rotate(90) scale(10 -10)" gradientUnits="userSpaceOnUse">
      <stop offset="0" stop-color="#fe3e00"/>
      <stop offset="1" stop-color="#fe3e00" stop-opacity="0"/>
    </radialGradient>
    <radialGradient id="p" cx="1075.66372" cy="5434.80903" fx="1075.66372" fy="5434.80903" r="1" gradientTransform="translate(-57030.4998 -11268.5021) rotate(90) scale(10.5 -10.5)" gradientUnits="userSpaceOnUse">
      <stop offset="0" stop-color="#ffc800"/>
      <stop offset="1" stop-color="#ffc800" stop-opacity="0"/>
    </radialGradient>
    <radialGradient id="q" cx="1075.66372" cy="5434.80903" fx="1075.66372" fy="5434.80903" r="1" gradientTransform="translate(-57051.4998 -11262.5021) rotate(90) scale(10.5 -10.5)" gradientUnits="userSpaceOnUse">
      <stop offset="0" stop-color="#e059fd"/>
      <stop offset="1" stop-color="#e059fd" stop-opacity="0"/>
    </radialGradient>
    <radialGradient id="r" cx="812.07205" cy="5346.69151" fx="812.07205" fy="5346.69151" r="1" gradientTransform="translate(-34717.4998 -5247.5013) rotate(90) scale(6.5 -6.5)" gradientUnits="userSpaceOnUse">
      <stop offset="0" stop-color="#f6e30a"/>
      <stop offset="1" stop-color="#ffcf6e" stop-opacity="0"/>
    </radialGradient>
  </defs>
  <g id="c" data-name="Surfaces">
    <g id="d" data-name="Utility_Surface">
      <g id="e" data-name="Outline_no_shadow">
        <rect width="54" height="54" rx="9.73519" ry="9.73519" fill="#000b1d"/>
      </g>
    </g>
  </g>
  <g id="f" data-name="Outlined_Mnemonics__x26__Logos">
    <g id="g" data-name="Adobe_Express">
      <g clip-path="url(#h)">
        <rect x="11.49503" y="11.467" width="30" height="30" fill="#fffefe"/>
        <circle cx="23.99503" cy="37.967" r="18.5" fill="url(#i)"/>
        <circle cx="23.99503" cy="39.967" r="18.5" fill="url(#j)"/>
        <circle cx="38.99503" cy="37.967" r="9.5" fill="url(#k)"/>
        <circle cx="25.99503" cy="14.967" r="20.5" fill="url(#l)"/>
        <circle cx="18.99503" cy="22.967" r="11.5" fill="url(#m)"/>
        <circle cx="23.49503" cy="14.467" r="10" fill="url(#n)"/>
        <circle cx="30.49503" cy="16.467" r="10" fill="url(#o)"/>
        <circle cx="34.99503" cy="25.967" r="10.5" fill="url(#p)"/>
        <circle cx="13.99503" cy="31.967" r="10.5" fill="url(#q)"/>
        <circle cx="35.99503" cy="30.967" r="6.5" fill="url(#r)"/>
      </g>
    </g>
  </g>
</svg>