<svg viewBox="0 0 32 32" fill="none" xmlns="http://www.w3.org/2000/svg">
<path id="Vector" d="M26.2611 0H5.73886C2.56937 0 0 2.56937 0 5.73886V26.2611C0 29.4306 2.56937 32 5.73886 32H26.2611C29.4306 32 32 29.4306 32 26.2611V5.73886C32 2.56937 29.4306 0 26.2611 0Z" fill="#470137"/>
<path id="Vector_2" d="M8.33419 8.49171C11.9858 8.49171 14.6695 10.6053 14.6695 15.6691C14.6695 20.6008 11.8538 23.2427 8.31222 23.2427H3.80267V8.49171H8.33419ZM7.63026 19.7201H8.66412C10.028 19.7201 10.666 18.1569 10.666 15.8232C10.666 12.9831 10.006 11.8382 8.62018 11.8382H7.63026V19.7201Z" fill="#FF61F6"/>
<path id="Vector_3" d="M18.8707 11.7502C19.2007 13.9518 19.4866 16.2415 19.7946 18.4872C20.1246 16.3296 20.4986 14.1499 20.8065 12.0144L23.7982 12.0364C24.1502 14.194 24.5241 16.3736 24.8761 18.5753C25.118 16.2856 25.448 14.0179 25.734 11.7502H29.0997L26.8779 23.2208L23.3802 23.2428L22.2803 17.5845L21.1805 23.2428H17.5289L15.1971 11.7502H18.8707Z" fill="#FF61F6"/>
<defs>
<clipPath id="clip0_2458_9244">
<rect fill="white"/>
</clipPath>
</defs>
</svg>
