<svg viewBox="0 0 32 32" fill="none" xmlns="http://www.w3.org/2000/svg">
<path id="Vector" d="M26.2611 0H5.73886C2.56937 0 0 2.56937 0 5.73886V26.2611C0 29.4306 2.56937 32 5.73886 32H26.2611C29.4306 32 32 29.4306 32 26.2611V5.73886C32 2.56937 29.4306 0 26.2611 0Z" fill="#EB1000"/>
<path id="Vector_2" d="M8.10524 8.49411H18.8713V11.9947H12.2003V14.5266H18.1008V18.0272H12.2003V23.2451H8.10524V8.49411Z" fill="white"/>
<path id="Vector_3" d="M20.2839 11.7526H24.1368V23.2452H20.2839V11.7526Z" fill="white"/>
<path id="Vector_4" d="M22.888 9.60533L24.2616 9.91403C24.8015 10.0357 25.1764 9.389 24.8003 8.98228L23.8459 7.95024C23.7205 7.81391 23.6696 7.62576 23.7103 7.44436L24.0198 6.07433C24.1418 5.53578 23.4934 5.16172 23.0857 5.5369L22.051 6.48895C21.9143 6.614 21.7256 6.6647 21.5438 6.62415L20.1702 6.31544C19.6303 6.19376 19.2553 6.84047 19.6314 7.24719L20.5859 8.27923C20.7113 8.41556 20.7622 8.60372 20.7215 8.78511L20.412 10.1551C20.29 10.6937 20.9383 11.0678 21.3461 10.6926L22.3808 9.74053C22.5175 9.61547 22.7061 9.56477 22.888 9.60533Z" fill="white"/>
<defs>
<clipPath id="clip0_2136_7510">
<rect fill="white"/>
</clipPath>
</defs>
</svg>
