<svg viewBox="0 0 32 32" fill="none" xmlns="http://www.w3.org/2000/svg">
<mask id="mask0_10643_1212" style="mask-type:luminance" maskUnits="userSpaceOnUse" x="0" y="0">
<path id="Vector" d="M32 0H0V32H32V0Z" fill="white"/>
</mask>
<path id="Vector_2" d="M26.231 0H5.769C2.58287 0 0 2.58287 0 5.769V26.231C0 29.4171 2.58287 32 5.769 32H26.231C29.4171 32 32 29.4171 32 26.231V5.769C32 2.58287 29.4171 0 26.231 0Z" fill="#00005B"/>
<path id="Vector_3" d="M7.62052 8.55606H12.3132L17.5757 23.2474H13.2779L12.5542 21.0109H7.05045L6.32683 23.2474H2.20441L7.62052 8.55606ZM11.4139 17.5244L9.81323 12.5908L8.21252 17.5244H11.4139Z" fill="#9999FF"/>
<path id="Vector_4" d="M18.4822 12.7223C19.9515 12.0864 21.8809 11.604 23.9862 11.604C27.341 11.604 29.139 13.2704 29.139 16.3622V23.2474H25.3016V16.5815C25.3016 15.3536 24.8192 14.7177 23.6133 14.7177C23.0869 14.7177 22.7142 14.7835 22.3196 14.9589V23.2474H18.4822V12.7223Z" fill="#9999FF"/>
<defs>
<clipPath id="clip0_10643_1212">
<rect fill="white"/>
</clipPath>
</defs>
</svg>
