<svg viewBox="0 0 32 32" fill="none" xmlns="http://www.w3.org/2000/svg">
<path id="Vector" d="M26.2611 0H5.73886C2.56937 0 0 2.56937 0 5.73886V26.2611C0 29.4306 2.56937 32 5.73886 32H26.2611C29.4306 32 32 29.4306 32 26.2611V5.73886C32 2.56937 29.4306 0 26.2611 0Z" fill="#49021F"/>
<path id="Vector_2" d="M7.71509 8.49413H11.8102V23.2452H7.71509V8.49413Z" fill="#FF3366"/>
<path id="Vector_3" d="M13.2106 17.5649C13.2106 13.5579 16.2048 11.5544 19.3091 11.5544C19.7275 11.5544 20.1678 11.5985 20.432 11.6425V8.03178H24.2849V22.4966C23.3601 22.9589 21.5328 23.4433 19.5514 23.4433C16.1608 23.4433 13.2106 21.5279 13.2106 17.5649ZM20.432 20.2289V14.8349C20.1678 14.7468 19.8376 14.6808 19.3973 14.6808C18.1863 14.6808 17.0635 15.3853 17.0635 17.4989C17.0635 19.4363 18.0762 20.317 19.4192 20.317C19.7275 20.317 20.1458 20.2949 20.432 20.2289Z" fill="#FF3366"/>
<defs>
<clipPath id="clip0_2136_7866">
<rect fill="white"/>
</clipPath>
</defs>
</svg>
