<svg viewBox="0 0 32 32" fill="none" xmlns="http://www.w3.org/2000/svg">
<path id="Vector" d="M26.2611 0H5.73886C2.56937 0 0 2.56937 0 5.73886V26.2611C0 29.4306 2.56937 32 5.73886 32H26.2611C29.4306 32 32 29.4306 32 26.2611V5.73886C32 2.56937 29.4306 0 26.2611 0Z" fill="#330000"/>
<path id="Vector_2" d="M10.8309 8.49414H15.5424L20.8264 23.2452H16.5111L15.7846 20.9995H10.2584L9.53191 23.2452H5.39282L10.8309 8.49414ZM14.6397 17.4989L13.0325 12.5452L11.4253 17.4989H14.6397Z" fill="#FF9A00"/>
<path id="Vector_3" d="M21.4586 9.46286C21.4586 8.40606 22.2733 7.72357 23.5062 7.72357C24.717 7.72357 25.4876 8.4281 25.4876 9.46286C25.4876 10.5196 24.717 11.2462 23.5062 11.2462C22.2292 11.2462 21.4586 10.5417 21.4586 9.46286ZM21.5687 11.7526H25.4216V23.2452H21.5687V11.7526Z" fill="#FF9A00"/>
<defs>
<clipPath id="clip0_2136_6984">
<rect fill="white"/>
</clipPath>
</defs>
</svg>
