<svg viewBox="0 0 32 32" fill="none" xmlns="http://www.w3.org/2000/svg">
<path id="Vector" d="M26.2611 0H5.73886C2.56937 0 0 2.56937 0 5.73886V26.2611C0 29.4306 2.56937 32 5.73886 32H26.2611C29.4306 32 32 29.4306 32 26.2611V5.73886C32 2.56937 29.4306 0 26.2611 0Z" fill="#001E36"/>
<path id="Vector_2" d="M7.09241 8.49451H11.1875V19.7449H17.9685V23.2455H7.09241V8.49451ZM24.0671 11.5548C24.9698 11.5548 25.6963 11.6649 26.0266 11.775V14.7692C25.7624 14.7031 25.256 14.6591 24.8377 14.6591C24.0231 14.6591 23.5608 14.7252 23.1424 14.8793V23.2455H19.2895V12.5235C20.6765 11.9071 22.0636 11.5548 24.0671 11.5548Z" fill="#31A8FF"/>
<defs>
<clipPath id="clip0_2136_8145">
<rect fill="white"/>
</clipPath>
</defs>
</svg>
