<svg viewBox="0 0 32 32" fill="none" xmlns="http://www.w3.org/2000/svg">
<path id="Vector" d="M26.2611 0H5.73886C2.56937 0 0 2.56937 0 5.73886V26.2611C0 29.4306 2.56937 32 5.73886 32H26.2611C29.4306 32 32 29.4306 32 26.2611V5.73886C32 2.56937 29.4306 0 26.2611 0Z" fill="#001E36"/>
<path id="Vector_2" d="M2.31665 8.49412H6.21355V19.7005H11.9599V23.2452H2.31665V8.49412Z" fill="#31A8FF"/>
<path id="Vector_3" d="M18.0148 11.5544C18.4551 11.5544 18.8293 11.5764 19.1156 11.6205V14.7248C18.9394 14.7028 18.7633 14.7028 18.5431 14.7028C17.5744 14.7248 16.8699 14.8128 16.4516 14.9229V23.2452H12.8849V12.391C14.36 11.7746 16.4736 11.5544 18.0148 11.5544Z" fill="#31A8FF"/>
<path id="Vector_4" d="M30.0136 8.78034L29.9916 12.4571C29.177 11.9947 28.5605 11.7746 27.3056 11.7746C25.1919 11.7746 23.7389 13.0515 23.7389 15.6935C23.7389 18.6217 25.1259 20.0087 27.2836 20.0087C28.1421 20.0087 29.199 19.8546 30.0576 19.2822L30.1017 22.8709C29.5292 23.2452 28.5385 23.4873 26.7771 23.4873C21.7574 23.5314 19.5778 19.9427 19.5778 15.7595C19.5778 11.6205 22.2197 8.20789 26.8872 8.18589C28.3403 8.16385 29.3531 8.38404 30.0136 8.78034Z" fill="#31A8FF"/>
<defs>
<clipPath id="clip0_2136_8010">
<rect fill="white"/>
</clipPath>
</defs>
</svg>
