<svg viewBox="0 0 32 32" fill="none" xmlns="http://www.w3.org/2000/svg">
<path id="Vector" d="M26.2611 0H5.73886C2.56937 0 0 2.56937 0 5.73886V26.2611C0 29.4306 2.56937 32 5.73886 32H26.2611C29.4306 32 32 29.4306 32 26.2611V5.73886C32 2.56937 29.4306 0 26.2611 0Z" fill="#001E36"/>
<path id="Vector_2" d="M11.1741 8.49411C15.3573 8.49411 17.7131 10.4536 17.7131 13.734C17.7131 17.5649 14.5207 19.1061 11.5264 19.1061H9.50093V23.2451H5.40584V8.49411H11.1741ZM9.50093 11.9947V15.6054H11.3063C12.5612 15.6054 13.4419 15.099 13.4419 13.8221C13.4419 12.6552 12.6933 11.9947 11.3944 11.9947H9.50093Z" fill="#31A8FF"/>
<path id="Vector_3" d="M18.5454 22.5186L18.5674 19.1061C19.7343 19.8766 21.3635 20.361 22.4864 20.361C23.2569 20.361 23.6092 20.1408 23.6092 19.7445C23.6092 19.3042 23.1249 19.1281 22.2002 18.8418C20.4168 18.3135 18.4574 17.5869 18.4574 15.2532C18.4574 12.8754 20.4168 11.5544 23.2569 11.5544C24.6 11.5544 25.7008 11.7526 26.6695 12.1709L26.6474 15.4293C25.8769 14.967 24.3578 14.5486 23.367 14.5486C22.6405 14.5486 22.3543 14.7688 22.3543 15.099C22.3543 15.4954 22.7065 15.6054 23.7633 15.9357C25.8109 16.5521 27.5282 17.2126 27.5282 19.6124C27.5282 21.9021 25.6568 23.4433 22.7286 23.4433C21.1874 23.4433 19.7343 23.1791 18.5454 22.5186Z" fill="#31A8FF"/>
<defs>
<clipPath id="clip0_2136_8748">
<rect fill="white"/>
</clipPath>
</defs>
</svg>
