<svg viewBox="0 0 32 32" fill="none" xmlns="http://www.w3.org/2000/svg">
<path id="Vector" d="M26.2611 0H5.73886C2.56937 0 0 2.56937 0 5.73886V26.2611C0 29.4306 2.56937 32 5.73886 32H26.2611C29.4306 32 32 29.4306 32 26.2611V5.73886C32 2.56937 29.4306 0 26.2611 0Z" fill="#00005B"/>
<path id="Vector_2" d="M12.3402 8.49411C16.5234 8.49411 18.8791 10.4536 18.8791 13.734C18.8791 17.5649 15.6867 19.1061 12.6924 19.1061H10.6669V23.2451H6.5719V8.49411H12.3402ZM10.6669 11.9947V15.6054H12.4723C13.7273 15.6054 14.6079 15.099 14.6079 13.8221C14.6079 12.6552 13.8594 11.9947 12.5603 11.9947H10.6669Z" fill="#9999FF"/>
<path id="Vector_3" d="M24.5881 11.5544C25.4908 11.5544 26.2173 11.6645 26.5475 11.7746V14.7688C26.2834 14.7028 25.777 14.6587 25.3587 14.6587C24.5441 14.6587 24.0817 14.7248 23.6634 14.8789V23.2452H19.8105V12.5231C21.1975 11.9067 22.5846 11.5544 24.5881 11.5544Z" fill="#9999FF"/>
<defs>
<clipPath id="clip0_2136_9280">
<rect fill="white"/>
</clipPath>
</defs>
</svg>
