<svg viewBox="0 0 32 32" fill="none" xmlns="http://www.w3.org/2000/svg">
<path id="Vector" d="M26.231 0H5.769C2.58287 0 0 2.58287 0 5.769V26.231C0 29.4171 2.58287 32 5.769 32H26.231C29.4171 32 32 29.4171 32 26.231V5.769C32 2.58287 29.4171 0 26.231 0Z" fill="#00005B"/>
<path id="Vector_2" d="M3.84155 8.54988H9.75706C13.8103 8.54988 16.2206 10.2602 16.2206 13.6151C16.2206 15.8957 14.9718 17.1674 13.4162 17.869L17.0748 23.2413H12.2328L9.297 18.6146H7.91679V23.2413H3.84156L3.84155 8.54988ZM7.91679 11.9486V15.2158H10.0418C11.2469 15.2158 12.0577 14.6458 12.0577 13.6151C12.0577 12.7161 11.532 11.9486 10.0638 11.9486H7.91679Z" fill="#9999FF"/>
<path id="Vector_3" d="M17.9492 18.8339V11.7951H21.7834V18.6584C21.7834 19.8864 22.3751 20.3908 23.3609 20.3908C23.821 20.3908 24.2154 20.3688 24.5441 20.2373V11.7951H28.378V22.2765C26.9104 23.022 25.3329 23.4825 23.3389 23.4825C19.5924 23.4825 17.9492 21.9914 17.9492 18.8339Z" fill="#9999FF"/>
<defs>
<clipPath id="clip0_10618_852">
<rect fill="white"/>
</clipPath>
</defs>
</svg>
