<svg viewBox="0 0 32 32" fill="none" xmlns="http://www.w3.org/2000/svg">
<path id="Vector" d="M26.231 0H5.769C2.58287 0 0 2.58287 0 5.769V26.231C0 29.4171 2.58287 32 5.769 32H26.231C29.4171 32 32 29.4171 32 26.231V5.769C32 2.58287 29.4171 0 26.231 0Z" fill="#1E3101"/>
<path id="Vector_2" d="M26.1582 13.506V11.1356C26.1582 10.0569 25.5427 9.07277 24.5727 8.60077L17.2335 5.02927C16.4548 4.65034 15.5452 4.65034 14.7665 5.02927L7.42726 8.60077C6.47089 9.06617 5.8595 10.0296 5.84257 11.0905C5.84234 11.1055 5.84177 11.1205 5.84177 11.1356V14.4598C5.84177 15.1923 6.33579 15.8328 7.04434 16.0188L21.4438 19.7771C21.5618 19.8063 21.577 19.9678 21.4666 20.0186L16.7003 22.2753C16.2578 22.4888 15.7422 22.4888 15.2997 22.2753L11.1032 20.2511C10.5459 19.9823 10.1917 19.4181 10.1917 18.7993V18.5407H5.84177V20.8958C5.84177 21.978 6.4613 22.9647 7.43603 23.4349L14.7753 26.975C15.5491 27.3482 16.4509 27.3482 17.2247 26.975L24.564 23.4349C25.4964 22.9851 26.1034 22.0625 26.1543 21.0358C26.1567 20.9893 26.1582 20.9427 26.1582 20.8958V17.6674C26.1582 16.9348 25.6642 16.2944 24.9557 16.1083L10.4747 12.3066L10.5194 12.3168C10.5046 12.3129 10.4916 12.3068 10.4801 12.2992C10.4026 12.2479 10.4024 12.1233 10.4951 12.0773L15.2947 9.72708C15.7399 9.51042 16.2601 9.51042 16.7053 9.72708L20.9018 11.7692C21.4564 12.0391 21.8083 12.6018 21.8083 13.2186V13.506L26.1582 13.506Z" fill="#99E83F"/>
<defs>
<clipPath id="clip0_2136_1347">
<rect fill="white"/>
</clipPath>
</defs>
</svg>