<svg viewBox="0 0 32 32" fill="none" xmlns="http://www.w3.org/2000/svg">
<path d="M26.335 0H5.66505C2.53633 0 0 2.53633 0 5.66505V25.1921C0 28.3208 2.53633 30.8571 5.66505 30.8571H26.335C29.4637 30.8571 32 28.3208 32 25.1921V5.66505C32 2.53633 29.4637 0 26.335 0Z" fill="#D5D5D5"/>
<path d="M13.45 20.8017H12.55C11.8059 20.8017 11.2 20.1958 11.2 19.4517V18.5517C11.2 17.8075 11.8059 17.2017 12.55 17.2017H13.45C14.1942 17.2017 14.8 17.8075 14.8 18.5517V19.4517C14.8 20.1958 14.1942 20.8017 13.45 20.8017ZM12.55 18.1017C12.3022 18.1017 12.1 18.3038 12.1 18.5517V19.4517C12.1 19.6995 12.3022 19.9017 12.55 19.9017H13.45C13.6979 19.9017 13.9 19.6995 13.9 19.4517V18.5517C13.9 18.3038 13.6979 18.1017 13.45 18.1017H12.55Z" fill="#292929"/>
<path d="M13.45 16.602H12.55C11.8059 16.602 11.2 15.9961 11.2 15.252V14.352C11.2 13.6078 11.8059 13.002 12.55 13.002H13.45C14.1942 13.002 14.8 13.6078 14.8 14.352V15.252C14.8 15.9961 14.1942 16.602 13.45 16.602ZM12.55 13.902C12.3022 13.902 12.1 14.1041 12.1 14.352V15.252C12.1 15.4998 12.3022 15.702 12.55 15.702H13.45C13.6979 15.702 13.9 15.4998 13.9 15.252V14.352C13.9 14.1041 13.6979 13.902 13.45 13.902H12.55Z" fill="#292929"/>
<path d="M17.65 20.8017H16.75C16.0059 20.8017 15.4 20.1958 15.4 19.4517V18.5517C15.4 17.8075 16.0059 17.2017 16.75 17.2017H17.65C18.3942 17.2017 19 17.8075 19 18.5517V19.4517C19 20.1958 18.3942 20.8017 17.65 20.8017ZM16.75 18.1017C16.5022 18.1017 16.3 18.3038 16.3 18.5517V19.4517C16.3 19.6995 16.5022 19.9017 16.75 19.9017H17.65C17.8979 19.9017 18.1 19.6995 18.1 19.4517V18.5517C18.1 18.3038 17.8979 18.1017 17.65 18.1017H16.75Z" fill="#292929"/>
<path d="M19.1506 16.6017H17.0506C16.1406 16.6017 15.4006 15.8616 15.4006 14.9517V12.8517C15.4006 11.9417 16.1406 11.2017 17.0506 11.2017H19.1506C20.0605 11.2017 20.8006 11.9417 20.8006 12.8517V14.9517C20.8006 15.8616 20.0605 16.6017 19.1506 16.6017ZM17.0506 12.1017C16.6369 12.1017 16.3006 12.438 16.3006 12.8517V14.9517C16.3006 15.3653 16.6369 15.7017 17.0506 15.7017H19.1506C19.5642 15.7017 19.9006 15.3653 19.9006 14.9517V12.8517C19.9006 12.438 19.5642 12.1017 19.1506 12.1017H17.0506Z" fill="#292929"/>
</svg>
