<?xml version="1.0" encoding="UTF-8"?><svg width="32" height="32" viewBox="0 0 32 32" fill="none" xmlns="http://www.w3.org/2000/svg">
<path d="M4.39922 24.0002C3.73672 24.0002 3.19922 23.4627 3.19922 22.8002V6.8002C3.19922 4.81583 4.81407 3.2002 6.79922 3.2002H22.7992C23.4617 3.2002 23.9992 3.7377 23.9992 4.4002C23.9992 5.06269 23.4617 5.6002 22.7992 5.6002H6.79922C6.13751 5.6002 5.59922 6.13925 5.59922 6.8002V22.8002C5.59922 23.4627 5.06171 24.0002 4.39922 24.0002Z" fill="#292929"/>
<path d="M25.0078 8H11.7922C9.70078 8 8 9.70157 8 11.7922V25.0078C8 27.0984 9.70078 28.8 11.7922 28.8H25.0078C27.0992 28.8 28.8 27.0984 28.8 25.0078V11.7922C28.8 9.70157 27.0992 8 25.0078 8ZM26.4 25.0078C26.4 25.775 25.7758 26.4 25.0078 26.4H11.7922C11.0242 26.4 10.4 25.775 10.4 25.0078V11.7922C10.4 11.025 11.0242 10.4 11.7922 10.4H17.6V17.0148C17.6 17.5852 18.2894 17.8707 18.6926 17.4672L20.3475 15.8125C20.5974 15.5625 21.0026 15.5625 21.2525 15.8125L22.9074 17.4672C23.3106 17.8707 24 17.5852 24 17.0148V10.4H25.0078C25.7758 10.4 26.4 11.025 26.4 11.7922L26.4 25.0078Z" fill="#292929"/>
</svg>
