<?xml version='1.0' encoding='utf-8'?>
<svg xmlns="http://www.w3.org/2000/svg" width="32" height="32" viewBox="0 0 32 32" fill="none" class="behance-32-2025">
<path id="Vector" d="M26.2611 0H5.73886C2.56937 0 0 2.56937 0 5.73886V26.2611C0 29.4306 2.56937 32 5.73886 32H26.2611C29.4306 32 32 29.4306 32 26.2611V5.73886C32 2.56937 29.4306 0 26.2611 0Z" fill="#000B1D" />
<path id="Vector_2" d="M3.9585 8.49438H10.9157C14.3943 8.49438 16.1115 10.2777 16.1115 12.3913C16.1115 13.8224 15.6272 14.8571 14.4383 15.4956C15.7593 16.046 16.5959 17.0368 16.618 18.688C16.64 21.352 14.4824 23.2454 10.4094 23.2454H3.9585V8.49438ZM10.4534 14.2847C11.422 14.2847 12.0165 13.8664 12.0165 13.0078C12.0165 12.2152 11.5102 11.7528 10.4094 11.7528H8.03155V14.2847L10.4534 14.2847ZM10.5194 19.987C11.5762 19.987 12.3908 19.5907 12.3908 18.5779C12.3908 17.7633 11.9064 17.2129 10.6515 17.2129H8.03155V19.987H10.5194Z" fill="white" />
<path id="Vector_3" d="M28.5886 17.1689C28.5886 17.6973 28.5446 18.2697 28.4785 18.71H21.2792C21.7195 19.8109 22.7763 20.3392 24.4275 20.3392C25.6164 20.3392 26.6512 20.1191 27.6859 19.6347L27.73 22.695C26.6072 23.2674 25.3963 23.4656 23.833 23.4656C19.9801 23.4656 17.4043 21.33 17.4043 17.4551C17.4043 13.9104 19.8701 11.5547 23.1285 11.5547C26.4751 11.5547 28.5886 13.7123 28.5886 17.1689ZM26.409 8.27423V10.8281H19.9361V8.27423H26.409ZM21.1471 16.2001H24.9999C24.9119 15.1654 24.2734 14.4388 23.1506 14.4388C22.0718 14.4388 21.3892 15.0112 21.1471 16.2001Z" fill="white" />
<defs>
<clipPath id="clip0_2136_7124">
<rect width="32" height="32" fill="white" />
</clipPath>
</defs>
</svg>