<?xml version="1.0" encoding="UTF-8"?><svg xmlns="http://www.w3.org/2000/svg" width="27" height="27" viewBox="0 0 27 27">
  <g id="Smock_PeopleGroup_18_N" transform="translate(0 0.545)">
    <rect id="Canvas" width="27" height="27" transform="translate(0 -0.545)" fill="#ff13dc" opacity="0"/>
    <path id="Path_615277" data-name="Path 615277" d="M7.04,4.955A2.9,2.9,0,1,0,7.034.845,4.309,4.309,0,0,1,7.57,2.9,4.32,4.32,0,0,1,7.04,4.955Zm2.2,1.65h-.33a7.217,7.217,0,0,0-.992.068,5.109,5.109,0,0,1,1.707,3.934v6.907A1.884,1.884,0,0,1,7.747,19.4H7.474l-.6,6.416.023.25a.412.412,0,0,0,.41.359h3.532a.412.412,0,0,0,.41-.359l.762-8.133h1.609a.413.413,0,0,0,.413-.412v-6.91C14.031,7.935,11.887,6.6,9.242,6.6Z" transform="translate(3.216 0.034)" fill="#464646"/>
    <path id="Path_615278" data-name="Path 615278" d="M11.29,4.955a2.9,2.9,0,1,0-.006-4.11A4.309,4.309,0,0,1,11.82,2.9,4.32,4.32,0,0,1,11.29,4.955Zm2.2,1.65h-.33a7.217,7.217,0,0,0-.992.068,5.109,5.109,0,0,1,1.708,3.934v6.907A1.884,1.884,0,0,1,12,19.4h-.272l-.6,6.416.023.25a.412.412,0,0,0,.41.359h3.532a.412.412,0,0,0,.41-.359l.762-8.133h1.609a.413.413,0,0,0,.412-.413V10.606C18.281,7.935,16.137,6.6,13.492,6.6Z" transform="translate(5.204 0.034)" fill="#464646"/>
    <path id="Path_615279" data-name="Path 615279" d="M8.853,2.9A2.9,2.9,0,1,1,5.956,0a2.9,2.9,0,0,1,2.9,2.9ZM6.119,6.605h-.33C3.144,6.605,1,7.936,1,10.607v6.908a.412.412,0,0,0,.412.413H3.017l.757,8.132a.413.413,0,0,0,.41.36H7.715a.412.412,0,0,0,.41-.359l.762-8.133H10.5a.412.412,0,0,0,.412-.412V10.607C10.908,7.936,8.764,6.605,6.119,6.605Z" transform="translate(0.468 0.034)" fill="#464646"/>
  </g>
</svg>
