<?xml version="1.0" encoding="UTF-8"?><svg id="Smock_DataCorrelated_18_N" xmlns="http://www.w3.org/2000/svg" width="24" height="24" viewBox="0 0 24 24">
  <rect id="Canvas" width="24" height="24" fill="#ff13dc" opacity="0"/>
  <path id="Path_596468" data-name="Path 596468" d="M15.333,7.333c0-.267-.014-.533-.04-.792a6.663,6.663,0,0,0-8.752,8.752c.261.026.525.04.792.04A8,8,0,0,0,15.333,7.333Z" transform="translate(2 2)" fill="#464646"/>
  <path id="Path_596469" data-name="Path 596469" d="M6.334,14.334A8,8,0,0,1,16.655,6.679a8,8,0,1,0-9.976,9.976,7.993,7.993,0,0,1-.345-2.321Z" transform="translate(0.333 0.333)" fill="#464646"/>
  <path id="Path_596470" data-name="Path 596470" d="M15.235,5.259a7.938,7.938,0,0,1,.305,1.529A6.667,6.667,0,1,1,6.788,15.54a7.938,7.938,0,0,1-1.529-.305,8,8,0,1,0,9.976-9.976Z" transform="translate(1.753 1.753)" fill="#464646"/>
</svg>
