<?xml version="1.0" encoding="UTF-8"?><svg id="Adobe_Fonts" data-name="Adobe Fonts" xmlns="http://www.w3.org/2000/svg" width="32" height="32" viewBox="0 0 32 32">
  <g id="Group_302285" data-name="Group 302285" transform="translate(0 0)">
    <rect id="Rectangle_221212" data-name="Rectangle 221212" width="32" height="32" rx="6" fill="#000b1d"/>
    <path id="Path_357478" data-name="Path 357478" d="M74.3,49.945c-.761,2.523-1.4,4.956-2.162,7.337a12.927,12.927,0,0,1-1.5,3.439,4.281,4.281,0,0,1-3.372,1.791c-1.049,0-2.077-.488-2.077-1.567a1.42,1.42,0,0,1,1.254-1.3.627.627,0,0,1,.576.326c.514.916,1.008,1.445,1.234,1.445s.411-.305.781-1.628l2.7-9.839-1.942,0a.915.915,0,0,1,.308-1.041h1.933a17.56,17.56,0,0,1,1.423-3.466,5.142,5.142,0,0,1,4.442-2.951c1.542,0,2.18.733,2.18,1.669a1.544,1.544,0,0,1-1.316,1.506c-.329,0-.493-.244-.6-.59-.35-1.3-.8-1.689-1.069-1.689s-.679.488-1.131,1.506a25.764,25.764,0,0,0-1.368,4.022l2.352,0a.87.87,0,0,1-.323,1.038Z" transform="translate(-56.244 -36.446)" fill="#fff"/>
  </g>
</svg>
