<?xml version="1.0" encoding="utf-8"?>
<!-- Generator: Adobe Illustrator 28.1.0, SVG Export Plug-In . SVG Version: 6.00 Build 0)  -->
<svg version="1.1" id="Frame.io_32" xmlns="http://www.w3.org/2000/svg" xmlns:xlink="http://www.w3.org/1999/xlink" x="0px"
	 y="0px" width="32px" height="31px" viewBox="0 0 32 31" style="enable-background:new 0 0 32 31;" xml:space="preserve">
<style type="text/css">
	.st0{clip-path:url(#SVGID_00000158742900378363286690000008161857637045811603_);}
	.st1{fill:#FFFFFF;}
	.st2{clip-path:url(#SVGID_00000005226815513411822980000000574585336980813188_);}
</style>
<g id="Group_313119">
	<g>
		<defs>
			<rect id="SVGID_1_" width="32" height="31"/>
		</defs>
		<clipPath id="SVGID_00000135670732029679926090000004286052933776464051_">
			<use xlink:href="#SVGID_1_"  style="overflow:visible;"/>
		</clipPath>
		<g id="Group_313118" style="clip-path:url(#SVGID_00000135670732029679926090000004286052933776464051_);">
			<g id="Frame.io_redo2" transform="translate(0)">
				<g id="Frame.io-2">
					<rect id="Rectangle_221090" x="4.9" y="4.4" class="st1" width="22.3" height="22.1"/>
					<g id="Rectangle_221089">
						<path id="Rectangle_221091" d="M4.5,0h23.1C30,0,32,2,32,4.4v22.1c0,2.5-2,4.4-4.5,4.4H4.5C2,31,0,29,0,26.6V4.4
							C0,2,2,0,4.5,0z"/>
					</g>
					<g id="Group_302966" transform="translate(6.316 5.521)">
						<g id="Group_313117" transform="translate(0 0)">
							<g>
								<defs>
									<path id="SVGID_00000061469912057164526010000013460650722702568850_" d="M1,0L1,0c0.3,0,0.7,0.2,0.9,0.5
										c1.6,3.1,2.5,6.5,2.6,10.1l0,0c0,3.5-0.9,7-2.6,10.1c-0.2,0.3-0.5,0.5-0.9,0.5l0,0c-0.2,0-0.3,0-0.4-0.1
										c-0.4-0.2-0.6-0.8-0.4-1.3l0,0C3.2,14,3.2,7.1,0.1,1.3c-0.2-0.5-0.1-1,0.4-1.3l0,0C0.7,0.1,0.8,0,1,0L1,0z M5.9,2.3
										c0.5-0.2,1,0,1.2,0.5c0,0,0,0,0,0c1,2.4,1.6,5.1,1.6,7.7l0,0c0,2.7-0.5,5.3-1.6,7.7C6.9,18.7,6.4,19,6,18.8l0,0
										c0,0,0,0,0,0c-0.5-0.2-0.7-0.7-0.5-1.1c0,0,0,0,0,0l0,0c0,0,0,0,0-0.1l0,0c0.9-2.2,1.4-4.6,1.4-7l0,0c0-2.4-0.5-4.8-1.4-7
										C5.2,3.1,5.4,2.6,5.8,2.4c0,0,0,0,0,0l0,0C5.8,2.3,5.9,2.3,5.9,2.3L5.9,2.3z M11.2,4.9c0.5-0.1,1,0.2,1.1,0.7
										c0.4,1.6,0.6,3.3,0.6,5l0,0c0,1.7-0.2,3.4-0.6,5c-0.1,0.5-0.6,0.8-1.1,0.7s-0.8-0.6-0.7-1.1v0l0,0c0.4-1.5,0.6-3,0.6-4.6
										C11,9,10.8,7.5,10.4,6C10.3,5.5,10.6,5,11.2,4.9L11.2,4.9L11.2,4.9z M15.6,7.5c0.5-0.1,1,0.2,1.1,0.7l0,0
										c0.1,0.7,0.2,1.5,0.1,2.3l0,0c0,0.8-0.1,1.5-0.1,2.3c-0.1,0.5-0.6,0.8-1.1,0.8l0,0c-0.5-0.1-0.8-0.5-0.8-1.1
										c0.1-0.7,0.1-1.3,0.1-2l0,0c0-0.7-0.1-1.3-0.1-2C14.8,8,15.2,7.6,15.6,7.5L15.6,7.5z M18.8,10.5c0-0.6,0.5-1.1,1.1-1.1
										s1.1,0.5,1.1,1.1s-0.5,1.1-1.1,1.1c0,0,0,0,0,0C19.2,11.6,18.8,11.1,18.8,10.5z"/>
								</defs>
								<use xlink:href="#SVGID_00000061469912057164526010000013460650722702568850_"  style="overflow:visible;fill:#FFFFFF;"/>
								<clipPath id="SVGID_00000026127099558516980540000005176773829431363751_">
									<use xlink:href="#SVGID_00000061469912057164526010000013460650722702568850_"  style="overflow:visible;"/>
								</clipPath>
								<g id="Group_313116" style="clip-path:url(#SVGID_00000026127099558516980540000005176773829431363751_);">
									<g id="Group_302968" transform="translate(-3.582 -2.601)">
										<g id="Mask_Group_189305" transform="translate(0 0)">
											<rect id="Rectangle_221088" x="0" y="0" class="st1" width="25.9" height="25.7"/>
										</g>
									</g>
								</g>
							</g>
						</g>
					</g>
				</g>
			</g>
		</g>
	</g>
</g>
</svg>
