<?xml version="1.0" encoding="UTF-8"?><svg width="36" height="36" viewBox="0 0 36 36" fill="none" xmlns="http://www.w3.org/2000/svg">
<path fill-rule="evenodd" clip-rule="evenodd" d="M8 7.71436H20V21.7144L24 17.7144L28 21.7144V7.71436H32V31.7144H8V7.71436ZM6 27.7144H4V3.71436H28V5.71436H8C7.46957 5.71436 6.96086 5.92507 6.58579 6.30014C6.21071 6.67521 6 7.18392 6 7.71436V27.7144ZM4 1.71436C3.47434 1.72946 2.97436 1.94502 2.60251 2.31687C2.23066 2.68872 2.0151 3.1887 2 3.71436V27.7144C2.0151 28.24 2.23066 28.74 2.60251 29.1118C2.97436 29.4837 3.47434 29.6993 4 29.7144H6V31.7144C6.0151 32.24 6.23066 32.74 6.60251 33.1118C6.97436 33.4837 7.47434 33.6993 8 33.7144H32C32.5257 33.6993 33.0256 33.4837 33.3975 33.1118C33.7693 32.74 33.9849 32.24 34 31.7144V7.71436C33.9849 7.1887 33.7693 6.68872 33.3975 6.31687C33.0256 5.94502 32.5257 5.72946 32 5.71436H30V3.71436C29.9849 3.1887 29.7693 2.68872 29.3975 2.31687C29.0256 1.94502 28.5257 1.72946 28 1.71436H4Z" fill="#222222"/>
</svg>
