<?xml version="1.0" encoding="UTF-8"?><svg xmlns="http://www.w3.org/2000/svg" width="32" height="32" viewBox="0 0 32 32">
  <g id="Group_323181" data-name="Group 323181" transform="translate(0 0.354)">
    <g id="Adobe_Fonts" data-name="Adobe Fonts">
      <g id="Group_302285" data-name="Group 302285">
        <rect id="Rectangle_221212" data-name="Rectangle 221212" width="32" height="32" rx="6" transform="translate(0 -0.354)" fill="#000b1d"/>
      </g>
    </g>
    <g id="Smock_VideoOutline_18_N" transform="translate(2.233 3)">
      <rect id="Canvas" width="27.535" height="27.535" fill="#fff" opacity="0"/>
      <path id="Path_357535" data-name="Path 357535" d="M19.956,2H2.665A.665.665,0,0,0,2,2.665V19.956a.665.665,0,0,0,.665.665H19.956a.665.665,0,0,0,.665-.665V2.665A.665.665,0,0,0,19.956,2ZM5.99,18.958a.333.333,0,0,1-.333.333h-2a.333.333,0,0,1-.333-.333v-2a.333.333,0,0,1,.333-.333h2a.333.333,0,0,1,.333.333Zm0-4.46a.333.333,0,0,1-.333.333h-2A.333.333,0,0,1,3.33,14.5v-2a.333.333,0,0,1,.333-.333h2a.333.333,0,0,1,.333.333Zm0-4.381a.333.333,0,0,1-.333.333h-2a.333.333,0,0,1-.333-.333v-2a.333.333,0,0,1,.333-.333h2a.333.333,0,0,1,.333.333Zm0-4.46a.333.333,0,0,1-.333.333h-2a.333.333,0,0,1-.333-.333v-2a.333.333,0,0,1,.333-.333h2a.333.333,0,0,1,.333.333ZM15.3,19.291H7.32v-6.65H15.3Zm0-9.31H7.32V3.33H15.3Zm3.99,8.978a.333.333,0,0,1-.333.333h-2a.333.333,0,0,1-.333-.333v-2a.333.333,0,0,1,.333-.333h2a.333.333,0,0,1,.333.333Zm0-4.46a.333.333,0,0,1-.333.333h-2a.333.333,0,0,1-.333-.333v-2a.333.333,0,0,1,.333-.333h2a.333.333,0,0,1,.333.333Zm0-4.381a.333.333,0,0,1-.333.333h-2a.333.333,0,0,1-.333-.333v-2a.333.333,0,0,1,.333-.333h2a.333.333,0,0,1,.333.333Zm0-4.46a.333.333,0,0,1-.333.333h-2a.333.333,0,0,1-.333-.333v-2a.333.333,0,0,1,.333-.333h2a.333.333,0,0,1,.333.333Z" transform="translate(2.411 1.91)" fill="#fff"/>
    </g>
  </g>
</svg>
