<?xml version="1.0" encoding="UTF-8"?><svg width="80" height="80" viewBox="0 0 80 80" fill="none" xmlns="http://www.w3.org/2000/svg">
<circle cx="40" cy="40" r="40" fill="#EB1000"/>
<path d="M45.8044 50H34.4364C34.2404 50 34.2404 49.916 34.2404 49.776V47.9C34.2404 47.732 34.2404 47.648 34.3524 47.564C35.5564 46.64 37.4324 45.24 39.0004 43.756C41.8284 41.18 42.3044 39.556 42.3044 38.128C42.3044 36.308 41.3524 35.048 39.0004 35.048C37.2644 35.048 36.0884 35.552 34.8844 36.196C34.7444 36.28 34.6604 36.224 34.6604 36.084V33.508C34.6604 33.368 34.6884 33.284 34.8004 33.2C36.2284 32.444 37.8524 31.996 39.7284 31.996C43.8444 31.996 45.7484 34.684 45.7484 37.68C45.7484 39.78 44.9924 41.852 42.5844 44.148C41.1284 45.604 40.0924 46.416 39.1124 47.172C40.1764 47.088 41.2404 47.088 43.2284 47.088H46.4484C46.6444 47.088 46.7004 47.144 46.6724 47.284L46.0844 49.804C46.0284 49.944 45.9724 50 45.8044 50Z" fill="white"/>
</svg>
