<?xml version="1.0" encoding="UTF-8"?><svg width="80" height="80" viewBox="0 0 80 80" fill="none" xmlns="http://www.w3.org/2000/svg">
<circle cx="40" cy="40" r="40" fill="#EB1000"/>
<path d="M42.5599 50H39.5639C39.3959 50 39.3399 49.944 39.3399 49.804V35.72C38.5279 36.168 37.1839 36.588 36.3999 36.728C36.2319 36.756 36.1759 36.728 36.1759 36.56V34.18C36.1759 34.04 36.2039 33.984 36.3439 33.956C37.6599 33.62 39.1719 32.976 40.2359 32.276C40.3479 32.192 40.5159 32.164 40.6559 32.164H42.5879C42.6999 32.164 42.7279 32.22 42.7279 32.36V49.804C42.7279 49.944 42.6719 50 42.5599 50Z" fill="white"/>
</svg>
