<?xml version="1.0" encoding="UTF-8"?><svg width="80" height="80" viewBox="0 0 80 80" fill="none" xmlns="http://www.w3.org/2000/svg">
<circle cx="40" cy="40" r="40" fill="#EB1000"/>
<path d="M39.2127 42.244H37.5887C37.4487 42.244 37.3927 42.188 37.3927 42.048V39.5C37.3927 39.332 37.4207 39.248 37.5607 39.248H38.9607C41.0047 39.248 42.1807 38.576 42.1807 37.176C42.1807 35.86 41.1447 34.992 39.0167 34.992C37.5607 34.992 36.3007 35.328 34.9847 36.056C34.8167 36.112 34.7887 36.056 34.7887 35.944V33.368C34.7887 33.228 34.7607 33.172 34.9287 33.088C36.1607 32.416 37.8127 31.996 39.6607 31.996C43.2727 31.996 45.4847 33.9 45.4847 36.728C45.4847 38.716 44.1127 39.948 42.9367 40.452C44.3927 40.872 46.3247 42.104 46.3247 44.82C46.3247 48.348 43.1607 50.28 39.3247 50.28C37.5047 50.28 35.9367 50.028 34.6767 49.356C34.5367 49.3 34.5087 49.132 34.5087 48.992V46.22C34.5087 46.108 34.6487 46.052 34.7607 46.108C36.3007 46.92 37.6447 47.284 39.2127 47.284C41.8167 47.284 42.8527 46.164 42.8527 44.736C42.8527 43.084 41.6207 42.244 39.2127 42.244Z" fill="white"/>
</svg>
