<?xml version="1.0" encoding="UTF-8"?><svg xmlns="http://www.w3.org/2000/svg" width="19.587" height="19.049" viewBox="0 0 19.587 19.049">
  <path id="Path_1077700" data-name="Path 1077700" d="M18.68,7.355l-4.159.006A13.636,13.636,0,0,0,15.029,3.5,2.415,2.415,0,0,0,13.014,1a2.113,2.113,0,0,0-2.083,2.009C10.632,5.9,7.6,8.256,6,8.961a.629.629,0,0,0-.554-.341H1.635A.635.635,0,0,0,1,9.255v10.16a.635.635,0,0,0,.635.635h3.81a.635.635,0,0,0,.635-.635v-.635h9.172a2.944,2.944,0,0,0,2.62-1.539L20.4,10.08A1.9,1.9,0,0,0,18.68,7.355Zm.575,2.174L16.7,16.74a1.17,1.17,0,0,1-1.106.782L6.08,17.509V10.271C7.9,9.539,11.89,6.762,12.2,3.032a.872.872,0,0,1,.813-.762c.387,0,.712.471.745,1.231A9.556,9.556,0,0,1,12.651,8.62h6.032a.635.635,0,0,1,.572.909Z" transform="translate(-1 -1)" fill="#464646"/>
</svg>
