<?xml version='1.0' encoding='utf-8'?>
<svg xmlns="http://www.w3.org/2000/svg" width="32" height="32" viewBox="0 0 32 32" fill="none" class="portfolio-32-2025">
<path id="Vector" d="M26.2611 0H5.73886C2.56937 0 0 2.56937 0 5.73886V26.2611C0 29.4306 2.56937 32 5.73886 32H26.2611C29.4306 32 32 29.4306 32 26.2611V5.73886C32 2.56937 29.4306 0 26.2611 0Z" fill="#000B1D" />
<path id="Vector_2" d="M11.8943 8.49411C16.0775 8.49411 18.4333 10.4536 18.4333 13.734C18.4333 17.5649 15.2408 19.1061 12.2466 19.1061H10.2211V23.2451H6.12604V8.49411H11.8943ZM10.2211 11.9947V15.6054H12.0265C13.2814 15.6054 14.162 15.099 14.162 13.8221C14.162 12.6552 13.4135 11.9947 12.1145 11.9947H10.2211Z" fill="white" />
<path id="Vector_3" d="M20.4545 14.9229H19.0234V11.8626H20.4545C20.5205 9.35275 22.1717 7.92169 24.7696 7.92169C25.4302 7.92169 26.0687 7.98773 26.4209 8.11981L26.3989 10.96C26.1567 10.8719 25.8044 10.8278 25.4962 10.8278C24.6155 10.8278 24.3514 11.2241 24.3073 11.8626H26.3989V14.9229H24.3073V23.2451H20.4545L20.4545 14.9229Z" fill="white" />
<defs>
<clipPath id="clip0_2136_8972">
<rect width="32" height="32" fill="white" />
</clipPath>
</defs>
</svg>