<?xml version="1.0" encoding="UTF-8"?><svg width="36" height="37" viewBox="0 0 36 37" fill="none" xmlns="http://www.w3.org/2000/svg">
<path fill-rule="evenodd" clip-rule="evenodd" d="M3.35443 26.6972C2.20707 25.5497 1.5625 23.9934 1.5625 22.3707C1.5625 20.748 2.20707 19.1917 3.35443 18.0442L8.64243 12.7562L8.60843 12.7222C8.09842 12.2124 7.81182 11.5208 7.81167 10.7997C7.81153 10.0786 8.09786 9.38696 8.60767 8.87695L10.5314 6.95319C11.0412 6.44318 11.7328 6.15658 12.4539 6.15644C13.175 6.15629 13.8667 6.44262 14.3767 6.95243L16.2994 8.87619L22.8224 2.35319C23.0137 2.16205 23.273 2.05469 23.5434 2.05469C23.8138 2.05469 24.0732 2.16205 24.2644 2.35319L25.7064 3.79519C25.8976 3.98646 26.0049 4.24579 26.0049 4.51619C26.0049 4.78659 25.8976 5.04592 25.7064 5.23719L19.1824 11.7612L24.9514 17.5302L31.4754 11.0062C31.6667 10.8151 31.926 10.7077 32.1964 10.7077C32.4668 10.7077 32.7262 10.8151 32.9174 11.0062L34.3594 12.4482C34.5506 12.6395 34.6579 12.8988 34.6579 13.1692C34.6579 13.4396 34.5506 13.6989 34.3594 13.8902L27.8374 20.4142L29.7604 22.3372C30.2704 22.847 30.557 23.5385 30.5572 24.2597C30.5573 24.9808 30.271 25.6724 29.7612 26.1824L27.8374 28.1062C27.3276 28.6162 26.6361 28.9028 25.915 28.9029C25.1938 28.9031 24.5022 28.6168 23.9922 28.1069L23.9324 28.0472L18.6444 33.3342C18.0764 33.9024 17.402 34.3531 16.6597 34.6606C15.9175 34.9681 15.1219 35.1265 14.3185 35.1265C13.5151 35.1266 12.7195 34.9684 11.9772 34.6611C11.2349 34.3537 10.5604 33.9031 9.99227 33.335L3.35443 26.6972Z" fill="black"/>
</svg>
