<?xml version="1.0" encoding="UTF-8"?><svg width="36" height="36" viewBox="0 0 36 36" fill="none" xmlns="http://www.w3.org/2000/svg">
<g clip-path="url(#clip0_1055_139497)">
<path d="M30.6333 30.3143H16.1683C13.209 30.3143 10.8008 27.9061 10.8008 24.9468V10.4817C10.8008 7.52246 13.209 5.11426 16.1683 5.11426H30.6333C33.5926 5.11426 36.0008 7.52246 36.0008 10.4817V24.9468C36.0008 27.906 33.5926 30.3143 30.6333 30.3143ZM16.1682 7.81426C14.697 7.81426 13.5008 9.01045 13.5008 10.4817V24.9468C13.5008 26.4181 14.697 27.6142 16.1682 27.6142H30.6333C32.1046 27.6142 33.3007 26.4181 33.3007 24.9468V10.4817C33.3007 9.01045 32.1046 7.81426 30.6333 7.81426H16.1682Z" fill="#292929"/>
<path d="M6.75039 27.6145C6.00508 27.6145 5.40039 27.0361 5.40039 26.3232V9.10576C5.40039 8.39285 6.00508 7.81445 6.75039 7.81445C7.4957 7.81445 8.10039 8.39285 8.10039 9.10576V26.3232C8.10039 27.0361 7.4957 27.6145 6.75039 27.6145Z" fill="#292929"/>
<path d="M1.35 25.3645C0.604692 25.3645 0 24.7598 0 24.0145V11.4145C0 10.6691 0.604692 10.0645 1.35 10.0645C2.09531 10.0645 2.7 10.6691 2.7 11.4145V24.0145C2.7 24.7598 2.09531 25.3645 1.35 25.3645Z" fill="#292929"/>
<path d="M18.2784 25.1603C18.0851 25.1603 17.8917 25.1111 17.7159 25.0091C17.2923 24.7648 17.0761 24.2761 17.178 23.798L17.4048 22.7486L16.6841 21.9523C16.3554 21.5884 16.2991 21.0558 16.5435 20.6339C16.7878 20.2103 17.2818 19.9993 17.7546 20.096L18.8058 20.3245L19.6003 19.6021C19.9642 19.2751 20.4933 19.2136 20.9187 19.4615C21.3423 19.7058 21.5585 20.1962 21.4566 20.6726L21.2281 21.7237L21.9505 22.52C22.2792 22.8821 22.3355 23.4148 22.0911 23.8384C21.8468 24.262 21.3529 24.4712 20.88 24.3763L19.8289 24.1478L19.0343 24.8685C18.8216 25.0618 18.5509 25.1603 18.2784 25.1603Z" fill="#292929"/>
<path d="M23.8739 19.3754C23.6806 19.3754 23.4872 19.3262 23.3114 19.2242C22.8878 18.9799 22.6716 18.4894 22.7753 18.0131L23.3185 15.5012L21.5923 13.5974C21.2636 13.2353 21.2073 12.7027 21.4517 12.2791C21.696 11.8555 22.1882 11.6463 22.6628 11.7412L25.1747 12.2844L27.0785 10.5599C27.4406 10.2277 27.9714 10.1732 28.3968 10.4193C28.8204 10.6637 29.0367 11.1523 28.9347 11.6305L28.3915 14.1424L30.116 16.0461C30.4447 16.4082 30.5009 16.9408 30.2566 17.3644C30.0122 17.7881 29.5183 18.0061 29.0454 17.9006L26.5335 17.3574L24.6298 19.0836C24.4171 19.2769 24.1464 19.3754 23.8739 19.3754Z" fill="#292929"/>
</g>
<defs>
<clipPath id="clip0_1055_139497">
<rect width="36" height="36" fill="white" transform="translate(0 -0.285645)"/>
</clipPath>
</defs>
</svg>
