<?xml version="1.0" encoding="UTF-8"?><svg width="36" height="36" viewBox="0 0 36 36" fill="none" xmlns="http://www.w3.org/2000/svg">
<path d="M18.0004 4.03409C17.2551 4.03409 16.6504 3.4294 16.6504 2.68409V1.42373C16.6504 0.678422 17.2551 0.0737305 18.0004 0.0737305C18.7457 0.0737305 19.3504 0.678422 19.3504 1.42373V2.68409C19.3504 3.4294 18.7457 4.03409 18.0004 4.03409Z" fill="#292929"/>
<path d="M33.2178 18.0386H31.9574C31.2121 18.0386 30.6074 17.4339 30.6074 16.6886C30.6074 15.9433 31.2121 15.3386 31.9574 15.3386H33.2178C33.9631 15.3386 34.5678 15.9433 34.5678 16.6886C34.5678 17.4339 33.9631 18.0386 33.2178 18.0386Z" fill="#292929"/>
<path d="M4.01661 18.0386H2.75625C2.01094 18.0386 1.40625 17.4339 1.40625 16.6886C1.40625 15.9433 2.01094 15.3386 2.75625 15.3386H4.01661C4.76192 15.3386 5.36661 15.9433 5.36661 16.6886C5.36661 17.4339 4.76192 18.0386 4.01661 18.0386Z" fill="#292929"/>
<path d="M8.12012 8.17033C7.77383 8.17033 7.4293 8.0385 7.16563 7.77482L6.27442 6.8836C5.74707 6.35625 5.74707 5.50196 6.27442 4.97461C6.80176 4.44727 7.65606 4.44727 8.18341 4.97461L9.07462 5.86583C9.60197 6.39317 9.60197 7.24747 9.07462 7.77482C8.81096 8.03848 8.4664 8.17033 8.12012 8.17033Z" fill="#292929"/>
<path d="M27.8578 8.17033C27.5115 8.17033 27.167 8.0385 26.9033 7.77482C26.376 7.24747 26.376 6.39317 26.9033 5.86583L27.7945 4.97461C28.3219 4.44727 29.1762 4.44727 29.7035 4.97461C30.2309 5.50196 30.2309 6.35625 29.7035 6.8836L28.8123 7.77482C28.5486 8.03848 28.2041 8.17033 27.8578 8.17033Z" fill="#292929"/>
<path d="M28.7992 17.1C28.7992 11.1446 23.9547 6.30005 17.9992 6.30005C12.0438 6.30005 7.19922 11.1446 7.19922 17.1C7.19922 21.0883 9.3776 24.5699 12.6014 26.4402C12.6014 26.4444 12.5992 26.4476 12.5992 26.4516V29.7C12.5992 32.6778 15.0215 35.1 17.9992 35.1C20.977 35.1 23.3992 32.6778 23.3992 29.7V26.4389C26.622 24.5681 28.7992 21.0872 28.7992 17.1ZM20.6992 29.7C20.6992 31.1889 19.4881 32.4 17.9992 32.4C16.5103 32.4 15.2992 31.1889 15.2992 29.7V27.5445C16.1641 27.7684 17.0654 27.9 17.9992 27.9C18.9331 27.9 19.8344 27.7684 20.6992 27.5445V29.7ZM17.9992 25.2C13.5326 25.2 9.89922 21.5667 9.89922 17.1C9.89922 12.6334 13.5326 9.00005 17.9992 9.00005C22.4658 9.00005 26.0992 12.6334 26.0992 17.1C26.0992 21.5667 22.4658 25.2 17.9992 25.2Z" fill="#292929"/>
</svg>
