<?xml version='1.0' encoding='utf-8'?>
<svg xmlns="http://www.w3.org/2000/svg" width="32" height="32" viewBox="0 0 32 32" fill="none" class="stock-32-2025">
<path id="Vector" d="M26.2611 0H5.73886C2.56937 0 0 2.56937 0 5.73886V26.2611C0 29.4306 2.56937 32 5.73886 32H26.2611C29.4306 32 32 29.4306 32 26.2611V5.73886C32 2.56937 29.4306 0 26.2611 0Z" fill="#000B1D" />
<path id="Vector_2" d="M16.8586 9.1326L16.8365 12.9855C15.9999 12.347 14.3267 11.6425 12.2791 11.6425C11.0682 11.6425 10.5839 12.0388 10.5839 12.5892C10.5839 13.1396 10.9582 13.3598 12.5654 13.8221C16.7925 15.055 17.8713 16.5081 17.8713 18.7318C17.8713 21.66 15.4495 23.4653 11.6627 23.4653C9.39497 23.4653 7.67768 22.9149 6.35671 22.1443L6.37874 18.1373C7.74372 19.1941 9.74726 19.9647 11.6406 19.9647C12.8516 19.9647 13.402 19.6345 13.402 18.996C13.402 18.3575 12.8296 18.0493 11.2664 17.631C8.27217 16.7943 6.15852 15.7596 6.15852 12.8754C6.15852 10.0793 8.42628 8.14185 12.2791 8.14185C14.0625 8.14185 15.8238 8.47211 16.8586 9.1326Z" fill="white" />
<path id="Vector_3" d="M23.7059 11.7966H25.8194V14.8569H23.7059V18.7758C23.7059 19.8326 24.1462 20.2289 24.8948 20.2289C25.137 20.2289 25.4892 20.1849 25.8194 20.0748L25.8415 23.1131C25.3571 23.2892 24.8287 23.3993 23.838 23.3993C21.3281 23.3993 19.853 22.2104 19.853 19.3923V14.8569H18.2018V11.7966H19.853V8.91241H23.7059L23.7059 11.7966Z" fill="white" />
<defs>
<clipPath id="clip0_2136_9350">
<rect width="32" height="32" fill="white" />
</clipPath>
</defs>
</svg>