<?xml version="1.0" encoding="UTF-8"?><svg id="Smock_CloudOutline_18_N_1_" data-name="Smock_CloudOutline_18_N (1)" xmlns="http://www.w3.org/2000/svg" width="24" height="24" viewBox="0 0 24 24">
  <rect id="Canvas" width="24" height="24" fill="#ff13dc" opacity="0"/>
  <path id="Path_596463" data-name="Path 596463" d="M13.5,3.69a4.525,4.525,0,0,1,4.359,5.737,3.663,3.663,0,0,1,.4-.023,3.571,3.571,0,1,1,0,7.143H3.976a2.143,2.143,0,1,1,0-4.286h.239V11.31a3.812,3.812,0,0,1,4.8-3.679A4.525,4.525,0,0,1,13.5,3.69Zm0-1.333a5.874,5.874,0,0,0-5.489,3.81A5.149,5.149,0,0,0,2.885,11.1a3.476,3.476,0,0,0,1.091,6.777H18.262a4.9,4.9,0,0,0,1.1-9.686A5.867,5.867,0,0,0,13.5,2.357Z" transform="translate(0.166 0.786)" fill="#464646"/>
</svg>
